<?xml version="1.0" encoding="UTF-8"?>
<!-- Generated by jsxcad -->
<!DOCTYPE svg PUBLIC "-//W3C//DTD SVG 1.1 Tiny//EN" "http://www.w3.org/Graphics/SVG/1.1/DTD/svg11-tiny.dtd">
<svg viewBox="-250 -250 500 500" width="500" height="500" xmlns="http://www.w3.org/2000/svg"><path d="M-106.18069432695287,-52.61018848132541L-27.71428035045264,-81.28356168074045L-105.43315934399638,-59.569487454621324zM-28.93748360884074,-78.93556200205398L-106.4780819441826,-63.19947110864421L-107.13942228455454,-57.12558153328498zM-30.21237039416248,-83.5676196697936L-107.81859168650216,-67.02574321600282L-108.41238951808981,-61.66105529080171zM-27.18111563467308,-69.95499754659872L-104.66569741461292,-56.793090026540696L-105.57120969503936,-48.27724712589472zM-31.69383302987693,-88.07308159081921L-109.39825728921915,-70.98336693645244L-109.95415493844891,-66.05371492809306z" style="fill:rgb(83,212,212)"/><path d="M-28.93748360884074,-78.93556200205398L-108.41238951808981,-61.66105529080171L-107.13942228455454,-57.12558153328498z" style="fill:rgb(99,111,250)"/><path d="M-27.91468126546608,-74.34304450266004L-107.13942228455454,-57.12558153328498L-106.18069432695287,-52.61018848132541z" style="fill:rgb(93,135,250)"/><path d="M-26.764461702155877,-65.9305236676802L-104.22941019277069,-54.7411798321282L-105.33441629660436,-44.28394931889839z" style="fill:rgb(83,212,212)"/><path d="M-108.41238951808981,-61.66105529080171L-31.69383302987693,-88.07308159081921L-109.95415493844891,-66.05371492809306z" style="fill:rgb(106,87,246)"/><path d="M-27.18111563467308,-69.95499754659872L-106.18069432695287,-52.61018848132541L-105.57120969503936,-48.27724712589472z" style="fill:rgb(89,159,244)"/><path d="M-33.32925561951598,-92.28933644518268L-111.16581415251196,-74.87512563493992L-111.71004459888302,-70.14473637831587zM-106.4780819441826,-63.19947110864421L-28.93748360884074,-78.93556200205398L-28.755337379896655,-84.99198584033562z" style="fill:rgb(83,212,212)"/><path d="M-105.33441629660436,-44.28394931889839L-27.18111563467308,-69.95499754659872L-105.57120969503936,-48.27724712589472z" style="fill:rgb(85,182,234)"/><path d="M-109.95415493844891,-66.05371492809306L-33.32925561951598,-92.28933644518268L-111.71004459888302,-70.14473637831587z" style="fill:rgb(114,65,238)"/><path d="M-104.66569741461292,-56.793090026540696L-27.18111563467308,-69.95499754659872L-26.943379102630075,-78.44915275005512zM-107.81859168650216,-67.02574321600282L-30.21237039416248,-83.5676196697936L-30.04362287477924,-88.9158842923749zM-104.22941019277069,-54.7411798321282L-26.764461702155877,-65.9305236676802L-26.478152535080365,-76.36243971613848zM-35.06031252439845,-96.0619619670677L-113.06262651614254,-78.50927951612762L-113.6176291342898,-73.78403462229817zM-109.39825728921915,-70.98336693645244L-31.69383302987693,-88.07308159081921L-31.53042840584465,-92.9867104894598zM-27.71428035045264,-81.28356168074045L-106.18069432695287,-52.61018848132541L-27.91468126546608,-74.34304450266004z" style="fill:rgb(83,212,212)"/><path d="M-105.48135037189512,-40.7776568424454L-26.764461702155877,-65.9305236676802L-105.33441629660436,-44.28394931889839z" style="fill:rgb(84,202,220)"/><path d="M-111.71004459888302,-70.14473637831587L-35.06031252439845,-96.0619619670677L-113.6176291342898,-73.78403462229817z" style="fill:rgb(123,46,225)"/><path d="M-102.53336185094562,-35.804223218502955L-26.681954414996795,-62.418146649220944L-105.48135037189512,-40.7776568424454z" style="fill:rgb(127,37,217)"/><path d="M-111.16581415251196,-74.87512563493992L-33.32925561951598,-92.28933644518268L-33.163663601702964,-97.00346025307961z" style="fill:rgb(83,212,212)"/><path d="M-107.13942228455454,-57.12558153328498L-27.91468126546608,-74.34304450266004L-28.93748360884074,-78.93556200205398z" style="fill:rgb(93,135,250)"/><path d="M-108.41238951808981,-61.66105529080171L-28.93748360884074,-78.93556200205398L-30.21237039416248,-83.5676196697936z" style="fill:rgb(99,111,250)"/><path d="M-31.69383302987693,-88.07308159081921L-108.41238951808981,-61.66105529080171L-30.21237039416248,-83.5676196697936z" style="fill:rgb(106,87,246)"/><path d="M-106.18069432695287,-52.61018848132541L-27.18111563467308,-69.95499754659872L-27.91468126546608,-74.34304450266004z" style="fill:rgb(89,159,244)"/><path d="M-33.32925561951598,-92.28933644518268L-109.95415493844891,-66.05371492809306L-31.69383302987693,-88.07308159081921z" style="fill:rgb(114,65,238)"/><path d="M-28.62681364002467,-84.60052934101594L-28.93748360884074,-78.93556200205398L-27.71428035045264,-81.28356168074045zM-26.981307572941176,-78.6192757601656L-27.91468126546608,-74.34304450266004L-26.943379102630075,-78.44915275005512zM-27.91468126546608,-74.34304450266004L-26.981307572941176,-78.6192757601656L-27.71428035045264,-81.28356168074045zM-28.93748360884074,-78.93556200205398L-28.62681364002467,-84.60052934101594L-28.755337379896655,-84.99198584033562zM-30.21237039416248,-83.5676196697936L-28.755337379896655,-84.99198584033562L-30.04362287477924,-88.9158842923749zM-27.18111563467308,-69.95499754659872L-26.478152535080365,-76.36243971613848L-26.943379102630075,-78.44915275005512z" style="fill:rgb(247,158,158)"/><path d="M-113.06262651614254,-78.50927951612762L-35.06031252439845,-96.0619619670677L-34.88564536181017,-100.77014465066694z" style="fill:rgb(83,212,212)"/><path d="M-27.18111563467308,-69.95499754659872L-105.33441629660436,-44.28394931889839L-26.764461702155877,-65.9305236676802z" style="fill:rgb(85,182,234)"/><path d="M-30.538095707801144,-90.42196877936894L-31.69383302987693,-88.07308159081921L-30.04362287477924,-88.9158842923749zM-26.764461702155877,-65.9305236676802L-25.659001406920257,-72.68823475553633L-26.478152535080365,-76.36243971613848z" style="fill:rgb(247,158,158)"/><path d="M-26.681954414996795,-62.418146649220944L-102.53336185094562,-35.804223218502955L-24.044598320993593,-57.24432004116678z" style="fill:rgb(127,37,217)"/><path d="M-31.69383302987693,-88.07308159081921L-30.538095707801144,-90.42196877936894L-31.53042840584465,-92.9867104894598z" style="fill:rgb(247,158,158)"/><path d="M-35.06031252439845,-96.0619619670677L-111.71004459888302,-70.14473637831587L-33.32925561951598,-92.28933644518268z" style="fill:rgb(123,46,225)"/><path d="M-27.71428035045264,-81.28356168074045L-28.93748360884074,-78.93556200205398L-27.91468126546608,-74.34304450266004zM-25.659001406920257,-72.68823475553633L-26.764461702155877,-65.9305236676802L-24.707107256693405,-67.0160740766116zM-28.755337379896655,-84.99198584033562L-30.21237039416248,-83.5676196697936L-28.93748360884074,-78.93556200205398zM-26.943379102630075,-78.44915275005512L-27.91468126546608,-74.34304450266004L-27.18111563467308,-69.95499754659872zM-30.04362287477924,-88.9158842923749L-31.69383302987693,-88.07308159081921L-30.21237039416248,-83.5676196697936zM-32.64889019045463,-95.87745105236968L-33.32925561951598,-92.28933644518268L-31.53042840584465,-92.9867104894598zM-24.707107256693405,-67.0160740766116L-26.764461702155877,-65.9305236676802L-24.161316976760492,-61.804796097104315z" style="fill:rgb(247,158,158)"/><path d="M-26.764461702155877,-65.9305236676802L-105.48135037189512,-40.7776568424454L-26.681954414996795,-62.418146649220944z" style="fill:rgb(84,202,220)"/><path d="M-33.32925561951598,-92.28933644518268L-32.64889019045463,-95.87745105236968L-33.163663601702964,-97.00346025307961zM-26.478152535080365,-76.36243971613848L-27.18111563467308,-69.95499754659872L-26.764461702155877,-65.9305236676802zM-31.53042840584465,-92.9867104894598L-33.32925561951598,-92.28933644518268L-31.69383302987693,-88.07308159081921zM-35.06031252439845,-96.0619619670677L-33.163663601702964,-97.00346025307961L-34.88564536181017,-100.77014465066694zM-33.163663601702964,-97.00346025307961L-35.06031252439845,-96.0619619670677L-33.32925561951598,-92.28933644518268zM-24.161316976760492,-61.804796097104315L-26.681954414996795,-62.418146649220944L-24.044598320993593,-57.24432004116678zM-24.161316976760492,-61.804796097104315L-26.764461702155877,-65.9305236676802L-26.681954414996795,-62.418146649220944z" style="fill:rgb(247,158,158)"/><path d="M-113.6176291342898,-73.78403462229817L-46.01243394319115,-117.87725240434617L-125.82765683137347,-94.74538645627878zM-46.01243394319115,-117.87725240434617L-113.6176291342898,-73.78403462229817L-35.06031252439845,-96.0619619670677z" style="fill:rgb(127,37,217)"/><path d="M-46.01243394319115,-117.87725240434617L-125.20151609677715,-99.45468861683122L-125.82765683137347,-94.74538645627878z" style="fill:rgb(83,212,212)"/><path d="M-34.88564536181017,-100.77014465066694L-46.01243394319115,-117.87725240434617L-35.06031252439845,-96.0619619670677z" style="fill:rgb(247,158,158)"/><path d="M-46.63494258949646,-56.938507775437735L-46.29938705640309,-28.310809591642155L-44.96979622722158,-57.395801833300894zM-44.96979622722158,-57.395801833300894L-43.93576163179506,-29.40199296835514L-42.69291899618118,-58.02109319389342zM-48.78469356122028,-24.672158184337338L-46.63494258949646,-56.938507775437735L-47.244085314208036,-56.771221246260325zM-42.69291899618118,-58.02109319389342L-41.609731305089774,-29.56505073415592L-40.41345387668979,-58.647101218097724zM-41.609731305089774,-29.56505073415592L-38.74312001653226,-59.105819262382425L-40.41345387668979,-58.647101218097724zM-39.940588655574956,-28.75391633767976L-38.131389428070165,-59.27381777317179L-38.74312001653226,-59.105819262382425zM-125.20151609677715,-99.45468861683122L-46.01243394319115,-117.87725240434617L-45.778830803743766,-122.56450869372125z" style="fill:rgb(83,212,212)"/><path d="M-46.01243394319115,-117.87725240434617L-34.88564536181017,-100.77014465066694L-45.778830803743766,-122.56450869372125z" style="fill:rgb(247,158,158)"/><path d="M40.6067291538749,-98.33097004757543L124.03160596408381,-127.83160033466062L40.346735071930425,-104.36737620512926zM126.00126344493695,-117.08232333470383L41.38356069969116,-100.58898426194148L41.68798661726685,-93.67027046524895zM-43.93576163179506,-29.40199296835514L-44.96979622722158,-57.395801833300894L-46.29938705640309,-28.310809591642155zM-46.29938705640309,-28.310809591642155L-46.63494258949646,-56.938507775437735L-48.07340552016567,-26.58136479868071zM123.57134564763653,-126.64781956337592L39.10744413338792,-108.37878887885894L39.33090394500461,-103.04911794518164zM-41.609731305089774,-29.56505073415592L-42.69291899618118,-58.02109319389342L-43.93576163179506,-29.40199296835514zM-46.63494258949646,-56.938507775437735L-48.78469356122028,-24.672158184337338L-48.07340552016567,-26.58136479868071zM126.99158599100862,-112.58944046755708L42.15713974259772,-97.70288489203342L42.53556789450513,-89.23423764177949zM122.21880367706545,-131.3780301181246L37.70724134009312,-112.55140733430729L37.90604428693778,-107.65574624828227zM-38.74312001653226,-59.105819262382425L-41.609731305089774,-29.56505073415592L-39.940588655574956,-28.75391633767976z" style="fill:rgb(83,212,212)"/><path d="M124.84733856865947,-121.82509557371404L39.33090394500461,-103.04911794518164L40.6067291538749,-98.33097004757543z" style="fill:rgb(99,111,250)"/><path d="M126.00126344493695,-117.08232333470383L40.6067291538749,-98.33097004757543L41.68798661726685,-93.67027046524895z" style="fill:rgb(93,135,250)"/><path d="M127.78195765353667,-108.50915427982784L42.648751307513734,-95.58541812532364L43.1179305589356,-85.18362101156843z" style="fill:rgb(83,212,212)"/><path d="M39.33090394500461,-103.04911794518164L122.21880367706545,-131.3780301181246L37.90604428693778,-107.65574624828227z" style="fill:rgb(106,87,246)"/><path d="M-38.131389428070165,-59.27381777317179L-39.940588655574956,-28.75391633767976L-39.37776307495007,-27.181024047015455z" style="fill:rgb(83,212,212)"/><path d="M126.99158599100862,-112.58944046755708L41.68798661726685,-93.67027046524895L42.53556789450513,-89.23423764177949z" style="fill:rgb(89,159,244)"/><path d="M120.8380133319974,-135.8455734337986L36.198970598919274,-116.6808657467381L36.38285851639046,-111.98481409093719zM41.38356069969116,-100.58898426194148L126.00126344493695,-117.08232333470383L125.06230615621244,-123.96819723579958z" style="fill:rgb(83,212,212)"/><path d="M43.1179305589356,-85.18362101156843L126.99158599100862,-112.58944046755708L42.53556789450513,-89.23423764177949z" style="fill:rgb(85,182,234)"/><path d="M37.90604428693778,-107.65574624828227L120.8380133319974,-135.8455734337986L36.38285851639046,-111.98481409093719z" style="fill:rgb(114,65,238)"/><path d="M42.15713974259772,-97.70288489203342L126.99158599100862,-112.58944046755708L125.83865047349965,-121.0193852252633zM34.815866318439134,-115.87802769354892L118.86064497380761,-144.549326723432L34.63941060178783,-120.56736447039715zM39.10744413338792,-108.37878887885894L123.57134564763653,-126.64781956337592L122.8548786229546,-131.94990318651116zM42.648751307513734,-95.58541812532364L127.78195765353667,-108.50915427982784L126.36305747797424,-118.86490125815092zM124.03160596408381,-127.83160033466062L40.6067291538749,-98.33097004757543L124.84733856865947,-121.82509557371404z" style="fill:rgb(83,212,212)"/><path d="M-43.93576163179506,-29.40199296835514L-43.50250576197652,-23.172666802475213L-41.14988083209301,-24.257960895244626z" style="fill:rgb(158,48,222)"/><path d="M37.70724134009312,-112.55140733430729L122.21880367706545,-131.3780301181246L121.56464995073569,-136.24723945344235z" style="fill:rgb(83,212,212)"/><path d="M-43.50250576197652,-23.172666802475213L-48.07340552016567,-26.58136479868071L-45.265699434948885,-21.44731372896053z" style="fill:rgb(212,85,213)"/><path d="M43.412173942231526,-81.66793586508152L127.78195765353667,-108.50915427982784L43.1179305589356,-85.18362101156843z" style="fill:rgb(84,202,220)"/><path d="M-41.609731305089774,-29.56505073415592L-41.14988083209301,-24.257960895244626L-38.83213374518642,-24.414882409511197z" style="fill:rgb(96,32,206)"/><path d="M36.38285851639046,-111.98481409093719L119.47868896710614,-139.88740320910085L34.815866318439134,-115.87802769354892z" style="fill:rgb(123,46,225)"/><path d="M45.76109139209327,-76.31253514696418L128.34236584534503,-104.99211231083298L43.412173942231526,-81.66793586508152z" style="fill:rgb(127,37,217)"/><path d="M-43.50250576197652,-23.172666802475213L-43.93576163179506,-29.40199296835514L-46.29938705640309,-28.310809591642155z" style="fill:rgb(158,48,222)"/><path d="M-37.16636991644198,-23.599009067008264L-41.609731305089774,-29.56505073415592L-38.83213374518642,-24.414882409511197z" style="fill:rgb(42,41,169)"/><path d="M-45.265699434948885,-21.44731372896053L-48.78469356122028,-24.672158184337338L-45.969202230177366,-19.53933141738628z" style="fill:rgb(243,133,180)"/><path d="M-48.07340552016567,-26.58136479868071L-43.50250576197652,-23.172666802475213L-46.29938705640309,-28.310809591642155z" style="fill:rgb(212,85,213)"/><path d="M125.06230615621244,-123.96819723579958L125.83865047349965,-121.0193852252633L125.79589580642877,-121.19503203410491z" style="fill:rgb(247,158,158)"/><path d="M-41.14988083209301,-24.257960895244626L-41.609731305089774,-29.56505073415592L-43.93576163179506,-29.40199296835514z" style="fill:rgb(96,32,206)"/><path d="M36.198970598919274,-116.6808657467381L120.8380133319974,-135.8455734337986L120.21470117889875,-140.5151842495984z" style="fill:rgb(83,212,212)"/><path d="M40.6067291538749,-98.33097004757543L126.00126344493695,-117.08232333470383L124.84733856865947,-121.82509557371404z" style="fill:rgb(93,135,250)"/><path d="M39.33090394500461,-103.04911794518164L124.84733856865947,-121.82509557371404L123.57134564763653,-126.64781956337592z" style="fill:rgb(99,111,250)"/><path d="M-48.78469356122028,-24.672158184337338L-45.265699434948885,-21.44731372896053L-48.07340552016567,-26.58136479868071z" style="fill:rgb(243,133,180)"/><path d="M122.21880367706545,-131.3780301181246L39.33090394500461,-103.04911794518164L123.57134564763653,-126.64781956337592z" style="fill:rgb(106,87,246)"/><path d="M-48.78469356122028,-24.672158184337338L-45.42061834980004,-17.957555513392105L-45.969202230177366,-19.53933141738628z" style="fill:rgb(243,180,133)"/><path d="M41.68798661726685,-93.67027046524895L126.99158599100862,-112.58944046755708L126.00126344493695,-117.08232333470383z" style="fill:rgb(89,159,244)"/><path d="M-41.609731305089774,-29.56505073415592L-37.16636991644198,-23.599009067008264L-39.940588655574956,-28.75391633767976z" style="fill:rgb(42,41,169)"/><path d="M120.8380133319974,-135.8455734337986L37.90604428693778,-107.65574624828227L122.21880367706545,-131.3780301181246z" style="fill:rgb(114,65,238)"/><path d="M124.14900062054328,-127.42076698505677L126.00126344493695,-117.08232333470383L125.06230615621244,-123.96819723579958zM126.00126344493695,-117.08232333470383L124.14900062054328,-127.42076698505677L124.03160596408381,-127.83160033466062zM122.8548786229546,-131.94990318651116L124.84733856865947,-121.82509557371404L124.03160596408381,-127.83160033466062zM125.83865047349965,-121.0193852252633L125.06230615621244,-123.96819723579958L126.99158599100862,-112.58944046755708zM126.99158599100862,-112.58944046755708L126.36305747797424,-118.86490125815092L125.83865047349965,-121.0193852252633z" style="fill:rgb(247,158,158)"/><path d="M-45.42061834980004,-17.957555513392105L-48.78469356122028,-24.672158184337338L-48.23873100778017,-23.09234846788232z" style="fill:rgb(243,180,133)"/><path d="M122.40320100815973,-133.53068889356757L123.57134564763653,-126.64781956337592L122.8548786229546,-131.94990318651116z" style="fill:rgb(247,158,158)"/><path d="M126.99158599100862,-112.58944046755708L43.1179305589356,-85.18362101156843L127.78195765353667,-108.50915427982784z" style="fill:rgb(85,182,234)"/><path d="M123.57134564763653,-126.64781956337592L122.40320100815973,-133.53068889356757L121.56464995073569,-136.24723945344235zM127.78195765353667,-108.50915427982784L127.2864284363667,-115.07125015161259L126.36305747797424,-118.86490125815092z" style="fill:rgb(247,158,158)"/><path d="M128.34236584534503,-104.99211231083298L45.76109139209327,-76.31253514696418L130.32651437734253,-99.41253626816469z" style="fill:rgb(127,37,217)"/><path d="M119.47868896710614,-139.88740320910085L36.38285851639046,-111.98481409093719L120.8380133319974,-135.8455734337986z" style="fill:rgb(123,46,225)"/><path d="M118.86064497380761,-144.549326723432L34.815866318439134,-115.87802769354892L119.47868896710614,-139.88740320910085z" style="fill:rgb(83,212,212)"/><path d="M127.2864284363667,-115.07125015161259L127.78195765353667,-108.50915427982784L128.56802949453947,-109.26422247862385zM126.00126344493695,-117.08232333470383L124.03160596408381,-127.83160033466062L124.84733856865947,-121.82509557371404zM124.84733856865947,-121.82509557371404L122.8548786229546,-131.94990318651116L123.57134564763653,-126.64781956337592zM120.61943468421349,-139.30938435534947L122.21880367706545,-131.3780301181246L121.56464995073569,-136.24723945344235zM126.99158599100862,-112.58944046755708L125.06230615621244,-123.96819723579958L126.00126344493695,-117.08232333470383zM122.21880367706545,-131.3780301181246L120.61943468421349,-139.30938435534947L120.21470117889875,-140.5151842495984zM123.57134564763653,-126.64781956337592L121.56464995073569,-136.24723945344235L122.21880367706545,-131.3780301181246zM128.56802949453947,-109.26422247862385L127.78195765353667,-108.50915427982784L129.5943181248879,-103.98043834336778z" style="fill:rgb(247,158,158)"/><path d="M127.78195765353667,-108.50915427982784L43.412173942231526,-81.66793586508152L128.34236584534503,-104.99211231083298z" style="fill:rgb(84,202,220)"/><path d="M126.36305747797424,-118.86490125815092L126.99158599100862,-112.58944046755708L127.78195765353667,-108.50915427982784zM118.86064497380761,-144.549326723432L120.8380133319974,-135.8455734337986L120.21470117889875,-140.5151842495984zM122.21880367706545,-131.3780301181246L120.21470117889875,-140.5151842495984L120.8380133319974,-135.8455734337986zM129.5943181248879,-103.98043834336778L127.78195765353667,-108.50915427982784L130.32651437734253,-99.41253626816469zM120.8380133319974,-135.8455734337986L118.86064497380761,-144.549326723432L119.47868896710614,-139.88740320910085zM130.32651437734253,-99.41253626816469L127.78195765353667,-108.50915427982784L128.34236584534503,-104.99211231083298z" style="fill:rgb(247,158,158)"/><path d="M34.815866318439134,-115.87802769354892L111.17622563932053,-163.43331814597906L25.033035756711165,-138.4674951805188zM111.17622563932053,-163.43331814597906L34.815866318439134,-115.87802769354892L119.47868896710614,-139.88740320910085z" style="fill:rgb(127,37,217)"/><path d="M111.17622563932053,-163.43331814597906L24.903698611567282,-143.13117045615473L25.033035756711165,-138.4674951805188z" style="fill:rgb(83,212,212)"/><path d="M118.86064497380761,-144.549326723432L111.17622563932053,-163.43331814597906L119.47868896710614,-139.88740320910085z" style="fill:rgb(247,158,158)"/><path d="M24.903698611567282,-143.13117045615473L111.17622563932053,-163.43331814597906L110.58972711573821,-168.06344974767444z" style="fill:rgb(83,212,212)"/><path d="M111.17622563932053,-163.43331814597906L118.86064497380761,-144.549326723432L110.58972711573821,-168.06344974767444z" style="fill:rgb(247,158,158)"/><path d="M55.9736687864445,-85.11766745522199L62.671391159563136,-3.7279649157018846L57.725362194184896,-85.59873448436674zM57.725362194184896,-85.59873448436674L65.24276758359031,-4.904795808183094L60.12063668001703,-86.25654226927529zM60.264087164153544,0.27169470137530455L55.9736687864445,-85.11766745522199L55.33287548300413,-84.94169361338527zM65.24276758359031,-4.904795808183094L62.518713416789886,-86.9151183116355L60.12063668001703,-86.25654226927529zM62.518713416789886,-86.9151183116355L69.88775597386574,-4.13123619396626L64.276001778549,-87.3977218758459zM64.276001778549,-87.3977218758459L70.71989350106222,-2.3793566249030738L64.91959251746533,-87.57446395811218zM-105.48135037189512,-40.7776568424454L-56.66179735761519,139.44979124703542L-47.244085314208036,-56.771221246260325zM-38.131389428070165,-59.27381777317179L-44.249707161762586,98.26637656733287L55.33287548300413,-84.94169361338527z" style="fill:rgb(83,212,212)"/><path d="M-44.249707161762586,98.26637656733287L-38.131389428070165,-59.27381777317179L-39.37776307495007,-27.181024047015455z" style="fill:rgb(255,127,127)"/><path d="M-54.80457576392803,100.75399938507672L-48.23873100778017,-23.09234846788232L-48.78469356122028,-24.672158184337338zM-48.23873100778017,-23.09234846788232L-51.9973182127321,96.33227362887776L-46.575639231752646,-22.267752701108147zM-46.575639231752646,-22.267752701108147L-49.3435778036926,95.12452436621652L-44.238783778368145,-22.42425873243752zM-49.3435778036926,95.12452436621652L-41.85829475216888,-23.5223569387496L-44.238783778368145,-22.42425873243752zM-46.73726343419844,95.08761189448542L-40.0782259277314,-25.26526824368115L-41.85829475216888,-23.5223569387496zM-40.0782259277314,-25.26526824368115L-44.249707161762586,98.26637656733287L-39.37776307495007,-27.181024047015455zM65.24276758359031,-4.904795808183094L57.725362194184896,-85.59873448436674L62.671391159563136,-3.7279649157018846zM62.671391159563136,-3.7279649157018846L55.9736687864445,-85.11766745522199L60.849840495816444,-1.8353773983724866zM62.518713416789886,-86.9151183116355L65.24276758359031,-4.904795808183094L67.88223976563847,-5.053465126478806zM55.9736687864445,-85.11766745522199L60.264087164153544,0.27169470137530455L60.849840495816444,-1.8353773983724866zM69.88775597386574,-4.13123619396626L62.518713416789886,-86.9151183116355L67.88223976563847,-5.053465126478806zM70.71989350106222,-2.3793566249030738L64.276001778549,-87.3977218758459L69.88775597386574,-4.13123619396626z" style="fill:rgb(83,212,212)"/><path d="M65.24276758359031,-4.904795808183094L65.12940029922218,1.6994605387212927L67.68776358472395,0.5294813029209273z" style="fill:rgb(158,48,222)"/><path d="M65.12940029922218,1.6994605387212927L60.849840495816444,-1.8353773983724866L63.31949963366687,3.587033451779027z" style="fill:rgb(212,85,213)"/><path d="M67.88223976563847,-5.053465126478806L67.68776358472395,0.5294813029209273L70.31625875528376,0.3876983928987905z" style="fill:rgb(96,32,206)"/><path d="M64.91959251746533,-87.57446395811218L155.28540743868166,91.52946100051403L128.34236584534503,-104.99211231083298z" style="fill:rgb(83,212,212)"/><path d="M65.12940029922218,1.6994605387212927L65.24276758359031,-4.904795808183094L62.671391159563136,-3.7279649157018846z" style="fill:rgb(158,48,222)"/><path d="M72.31574800634657,1.315001810719548L67.88223976563847,-5.053465126478806L70.31625875528376,0.3876983928987905z" style="fill:rgb(42,41,169)"/><path d="M63.31949963366687,3.587033451779027L60.264087164153544,0.27169470137530455L62.74094420202172,5.692233770656708z" style="fill:rgb(243,133,180)"/><path d="M60.849840495816444,-1.8353773983724866L65.12940029922218,1.6994605387212927L62.671391159563136,-3.7279649157018846z" style="fill:rgb(212,85,213)"/><path d="M67.68776358472395,0.5294813029209273L67.88223976563847,-5.053465126478806L65.24276758359031,-4.904795808183094z" style="fill:rgb(96,32,206)"/><path d="M60.264087164153544,0.27169470137530455L63.31949963366687,3.587033451779027L60.849840495816444,-1.8353773983724866z" style="fill:rgb(243,133,180)"/><path d="M73.14845041289341,3.0687469466770656L69.88775597386574,-4.13123619396626L72.31574800634657,1.315001810719548z" style="fill:rgb(11,74,121)"/><path d="M67.88223976563847,-5.053465126478806L72.31574800634657,1.315001810719548L69.88775597386574,-4.13123619396626z" style="fill:rgb(42,41,169)"/><path d="M155.28540743868166,91.52946100051403L130.32651437734253,-99.41253626816469L128.34236584534503,-104.99211231083298z" style="fill:rgb(247,158,158)"/><path d="M-51.9973182127321,96.33227362887776L-48.23873100778017,-23.09234846788232L-53.99514540069981,98.39031715200171zM-49.3435778036926,95.12452436621652L-46.575639231752646,-22.267752701108147L-51.9973182127321,96.33227362887776z" style="fill:rgb(83,212,212)"/><path d="M69.88775597386574,-4.13123619396626L73.14845041289341,3.0687469466770656L70.71989350106222,-2.3793566249030738z" style="fill:rgb(11,74,121)"/><path d="M-48.23873100778017,-23.09234846788232L-54.80457576392803,100.75399938507672L-53.99514540069981,98.39031715200171zM-41.85829475216888,-23.5223569387496L-49.3435778036926,95.12452436621652L-46.73726343419844,95.08761189448542zM-40.0782259277314,-25.26526824368115L-46.73726343419844,95.08761189448542L-44.87176126537818,96.2351183742205zM-44.249707161762586,98.26637656733287L-40.0782259277314,-25.26526824368115L-44.87176126537818,96.2351183742205zM-56.66179735761519,139.44979124703542L-105.48135037189512,-40.7776568424454L-126.14200475975134,155.15896261279602zM55.33287548300413,-84.94169361338527L-44.249707161762586,98.26637656733287L66.70407284774663,111.5573062900281z" style="fill:rgb(83,212,212)"/><path d="M-49.3435778036926,95.12452436621652L-48.82737320978854,101.42744666712892L-46.18749128567545,100.22693002370674z" style="fill:rgb(158,48,222)"/><path d="M-48.82737320978854,101.42744666712892L-53.99514540069981,98.39031715200171L-50.81149779104912,103.47908457337824z" style="fill:rgb(212,85,213)"/><path d="M-46.73726343419844,95.08761189448542L-46.18749128567545,100.22693002370674L-43.591555846018785,100.19617639501307z" style="fill:rgb(96,32,206)"/><path d="M-48.82737320978854,101.42744666712892L-49.3435778036926,95.12452436621652L-51.9973182127321,96.33227362887776z" style="fill:rgb(158,48,222)"/><path d="M-41.73021543211976,101.34710630116354L-46.73726343419844,95.08761189448542L-43.591555846018785,100.19617639501307z" style="fill:rgb(42,41,169)"/><path d="M-50.81149779104912,103.47908457337824L-54.80457576392803,100.75399938507672L-51.61100209364019,105.83885561611375z" style="fill:rgb(243,133,180)"/><path d="M-53.99514540069981,98.39031715200171L-48.82737320978854,101.42744666712892L-51.9973182127321,96.33227362887776z" style="fill:rgb(212,85,213)"/><path d="M-46.18749128567545,100.22693002370674L-46.73726343419844,95.08761189448542L-49.3435778036926,95.12452436621652z" style="fill:rgb(96,32,206)"/><path d="M-54.80457576392803,100.75399938507672L-50.81149779104912,103.47908457337824L-53.99514540069981,98.39031715200171z" style="fill:rgb(243,133,180)"/><path d="M-54.80457576392803,100.75399938507672L-51.00678450489448,107.87817991714827L-51.61100209364019,105.83885561611375z" style="fill:rgb(243,180,133)"/><path d="M60.264087164153544,0.27169470137530455L67.47871883917067,111.38216790242934L61.076252663415126,2.0316157578338574z" style="fill:rgb(83,212,212)"/><path d="M-46.73726343419844,95.08761189448542L-41.73021543211976,101.34710630116354L-44.87176126537818,96.2351183742205z" style="fill:rgb(42,41,169)"/><path d="M61.076252663415126,2.0316157578338574L69.59657040023721,110.90332739296555L63.07602735027003,2.9699078634694587z" style="fill:rgb(83,212,212)"/><path d="M-51.00678450489448,107.87817991714827L-54.80457576392803,100.75399938507672L-54.20379812957125,102.79370452267106z" style="fill:rgb(243,180,133)"/><path d="M69.59657040023721,110.90332739296555L65.72972508879685,2.8292596739414515L63.07602735027003,2.9699078634694587zM70.14837101750715,-0.2642634743701356L78.29851766428047,108.93586033170317L70.71989350106222,-2.3793566249030738zM75.39378130589917,109.59260636107892L70.14837101750715,-0.2642634743701356L68.32107904109722,1.6443871826905807zM65.72972508879685,2.8292596739414515L75.39378130589917,109.59260636107892L68.32107904109722,1.6443871826905807zM-54.80457576392803,100.75399938507672L-55.9329256528808,139.28500273564453L-54.20379812957125,102.79370452267106zM-54.20379812957125,102.79370452267106L-53.94026254431205,138.8344662139415L-52.34600551519921,103.95985957693878zM-45.04555650893551,100.64024900365659L-45.75334428178041,136.98344485228634L-44.249707161762586,98.26637656733287zM155.28540743868166,91.52946100051403L64.91959251746533,-87.57446395811218L78.29851766428047,108.93586033170317zM-52.34600551519921,103.95985957693878L-51.21501239493289,138.21830116245704L-49.726110272642295,103.9331484124296zM-47.051092971240436,102.71695187871116L-46.48593334763494,137.14907509586615L-45.04555650893551,100.64024900365659zM-49.726110272642295,103.9331484124296L-48.486045167602256,137.60129511203334L-47.051092971240436,102.71695187871116z" style="fill:rgb(83,212,212)"/><path d="M130.32651437734253,-99.41253626816469L155.28540743868166,91.52946100051403L157.52515765517728,97.11750752467785z" style="fill:rgb(247,158,158)"/><path d="M-55.9329256528808,139.28500273564453L-54.80457576392803,100.75399938507672L-56.66179735761519,139.44979124703542zM-53.94026254431205,138.8344662139415L-54.20379812957125,102.79370452267106L-55.9329256528808,139.28500273564453zM-51.21501239493289,138.21830116245704L-52.34600551519921,103.95985957693878L-53.94026254431205,138.8344662139415zM-48.486045167602256,137.60129511203334L-49.726110272642295,103.9331484124296L-51.21501239493289,138.21830116245704zM-45.75334428178041,136.98344485228634L-45.04555650893551,100.64024900365659L-46.48593334763494,137.14907509586615zM-46.48593334763494,137.14907509586615L-47.051092971240436,102.71695187871116L-48.486045167602256,137.60129511203334z" style="fill:rgb(83,212,212)"/><path d="M-32.36606967887758,138.16887932897964L-126.14200475975134,155.15896261279602L-126.86117740549122,159.4346567031551z" style="fill:rgb(84,220,202)"/><path d="M67.47871883917067,111.38216790242934L60.264087164153544,0.27169470137530455L66.70407284774663,111.5573062900281z" style="fill:rgb(83,212,212)"/><path d="M-33.10410776184747,141.66924869238548L-126.86117740549122,159.4346567031551L-128.03192952203452,162.95353077028267z" style="fill:rgb(85,234,182)"/><path d="M69.59657040023721,110.90332739296555L61.076252663415126,2.0316157578338574L67.47871883917067,111.38216790242934zM-128.50192767475636,174.96190467112797L-32.36606967887758,138.16887932897964L-126.86117740549122,159.4346567031551z" style="fill:rgb(83,212,212)"/><path d="M-126.14200475975134,155.15896261279602L-32.36606967887758,138.16887932897964L-32.03360985731818,133.88147028226268z" style="fill:rgb(84,220,202)"/><path d="M65.72972508879685,2.8292596739414515L69.59657040023721,110.90332739296555L72.49313316752368,110.24842806482755zM75.39378130589917,109.59260636107892L65.72972508879685,2.8292596739414515L72.49313316752368,110.24842806482755zM70.14837101750715,-0.2642634743701356L75.39378130589917,109.59260636107892L77.51979211017765,109.11192107533122zM78.29851766428047,108.93586033170317L70.14837101750715,-0.2642634743701356L77.51979211017765,109.11192107533122z" style="fill:rgb(83,212,212)"/><path d="M-129.61695479940616,165.5735048072292L-33.10410776184747,141.66924869238548L-128.03192952203452,162.95353077028267z" style="fill:rgb(89,244,159)"/><path d="M66.70407284774663,111.5573062900281L-44.249707161762586,98.26637656733287L-45.75334428178041,136.98344485228634z" style="fill:rgb(83,212,212)"/><path d="M-126.86117740549122,159.4346567031551L-33.10410776184747,141.66924869238548L-32.36606967887758,138.16887932897964z" style="fill:rgb(85,234,182)"/><path d="M-32.03360985731818,133.88147028226268L-29.25272662453128,144.56135820427096L-28.840163822612585,138.98372138695922z" style="fill:rgb(247,158,158)"/><path d="M-122.50632974472113,160.0254406754091L155.28540743868166,91.52946100051403L-126.14200475975134,155.15896261279602z" style="fill:rgb(127,37,217)"/><path d="M-131.56253004441095,167.1814062077594L-34.22607692905755,144.24053840104116L-129.61695479940616,165.5735048072292z" style="fill:rgb(93,250,135)"/><path d="M-33.46371851425587,154.51788208305078L-128.03192952203452,162.95353077028267L-129.38949745519267,175.7207198343784zM-130.74859294388978,176.10867487499016L-34.22607692905755,144.24053840104116L-129.61695479940616,165.5735048072292z" style="fill:rgb(83,212,212)"/><path d="M-29.25272662453128,144.56135820427096L-32.03360985731818,133.88147028226268L-30.189665970268802,149.13888935437677zM-30.189665970268802,149.13888935437677L-32.03360985731818,133.88147028226268L-32.36606967887758,138.16887932897964z" style="fill:rgb(247,158,158)"/><path d="M-33.10410776184747,141.66924869238548L-129.61695479940616,165.5735048072292L-34.22607692905755,144.24053840104116z" style="fill:rgb(89,244,159)"/><path d="M-128.03192952203452,162.95353077028267L-33.46371851425587,154.51788208305078L-33.10410776184747,141.66924869238548zM-32.36606967887758,138.16887932897964L-128.50192767475636,174.96190467112797L-32.79489967060341,153.7936745251785z" style="fill:rgb(83,212,212)"/><path d="M-133.79943872955806,167.6991564113981L-35.69549730167712,145.77068344699225L-131.56253004441095,167.1814062077594z" style="fill:rgb(99,250,111)"/><path d="M-35.97660619385019,155.11764937420097L-131.56253004441095,167.1814062077594L-132.5736552630048,176.46779409262044z" style="fill:rgb(83,212,212)"/><path d="M-30.189665970268802,149.13888935437677L-32.36606967887758,138.16887932897964L-32.79489967060341,153.7936745251785z" style="fill:rgb(247,158,158)"/><path d="M-34.22607692905755,144.24053840104116L-131.56253004441095,167.1814062077594L-35.69549730167712,145.77068344699225z" style="fill:rgb(93,250,135)"/><path d="M-33.10410776184747,141.66924869238548L-32.79489967060341,153.7936745251785L-32.36606967887758,138.16887932897964zM-30.189665970268802,149.13888935437677L-32.79489967060341,153.7936745251785L-31.626225148608384,152.52821963772698z" style="fill:rgb(247,158,158)"/><path d="M-34.22607692905755,144.24053840104116L-130.74859294388978,176.10867487499016L-34.53223465718362,154.84374832709648zM-37.724157416745605,154.5105251591622L-133.79943872955806,167.6991564113981L-134.7151037358099,175.9717649344612z" style="fill:rgb(83,212,212)"/><path d="M-34.22607692905755,144.24053840104116L-33.46371851425587,154.51788208305078L-33.10410776184747,141.66924869238548z" style="fill:rgb(247,158,158)"/><path d="M-131.56253004441095,167.1814062077594L-35.97660619385019,155.11764937420097L-35.69549730167712,145.77068344699225z" style="fill:rgb(83,212,212)"/><path d="M-35.69549730167712,145.77068344699225L-133.79943872955806,167.6991564113981L-37.46143113691752,146.18368236392345z" style="fill:rgb(99,250,111)"/><path d="M-32.79489967060341,153.7936745251785L-33.10410776184747,141.66924869238548L-33.46371851425587,154.51788208305078z" style="fill:rgb(247,158,158)"/><path d="M-132.36082987799136,176.517089707289L-38.39826348043678,154.27633024206386L-135.54103613237083,175.78045326194956z" style="fill:rgb(148,8,167)"/><path d="M-39.715828395773,153.15086472076598L-136.24478648804558,167.08910399830432L-137.10807525693036,174.74466095201265z" style="fill:rgb(83,212,212)"/><path d="M-35.69549730167712,145.77068344699225L-34.53223465718362,154.84374832709648L-34.22607692905755,144.24053840104116zM-33.46371851425587,154.51788208305078L-34.22607692905755,144.24053840104116L-34.53223465718362,154.84374832709648z" style="fill:rgb(247,158,158)"/><path d="M155.28540743868166,91.52946100051403L-122.50632974472113,160.0254406754091L157.52515765517728,97.11750752467785z" style="fill:rgb(127,37,217)"/><path d="M-133.79943872955806,167.6991564113981L-37.724157416745605,154.5105251591622L-37.46143113691752,146.18368236392345z" style="fill:rgb(83,212,212)"/><path d="M-33.46371851425587,154.51788208305078L-34.53223465718362,154.84374832709648L-33.518408780923025,154.57709720795546z" style="fill:rgb(247,158,158)"/><path d="M-38.39826348043678,154.27633024206386L-132.36082987799136,176.517089707289L-35.802954413499585,155.17797927293353z" style="fill:rgb(148,8,167)"/><path d="M-135.54103613237083,175.78045326194956L-41.206434645193866,151.8775823346949L-138.8806607126996,173.57301942065163z" style="fill:rgb(140,16,189)"/><path d="M-41.875172463500576,150.9984173161317L-138.8045914631751,165.3582161292267L-139.65411720217452,172.74221025905464z" style="fill:rgb(83,212,212)"/><path d="M-34.53223465718362,154.84374832709648L-35.69549730167712,145.77068344699225L-35.97660619385019,155.11764937420097zM-37.46143113691752,146.18368236392345L-35.97660619385019,155.11764937420097L-35.69549730167712,145.77068344699225z" style="fill:rgb(247,158,158)"/><path d="M-136.24478648804558,167.08910399830432L-39.715828395773,153.15086472076598L-39.459571421264975,145.44513617802835z" style="fill:rgb(83,212,212)"/><path d="M-34.53223465718362,154.84374832709648L-35.97660619385019,155.11764937420097L-35.802954413499585,155.17797927293353z" style="fill:rgb(247,158,158)"/><path d="M-44.11661361579157,148.05165855783886L-141.37736802273682,162.56046902726078L-142.24622863779084,169.95789992651794z" style="fill:rgb(83,212,212)"/><path d="M-138.8806607126996,173.57301942065163L-44.11661361579157,148.05165855783886L-142.24622863779084,169.95789992651794z" style="fill:rgb(131,29,208)"/><path d="M-41.206434645193866,151.8775823346949L-135.54103613237083,175.78045326194956L-38.39826348043678,154.27633024206386z" style="fill:rgb(140,16,189)"/><path d="M-35.97660619385019,155.11764937420097L-37.46143113691752,146.18368236392345L-37.724157416745605,154.5105251591622z" style="fill:rgb(247,158,158)"/><path d="M-138.8045914631751,165.3582161292267L-41.875172463500576,150.9984173161317L-41.614107568382536,143.56634266823616z" style="fill:rgb(83,212,212)"/><path d="M-39.459571421264975,145.44513617802835L-37.724157416745605,154.5105251591622L-37.46143113691752,146.18368236392345z" style="fill:rgb(247,158,158)"/><path d="M155.77930173492436,95.82747339388509L52.302367350954,114.81347222280698L52.33261509610399,119.10776385340338z" style="fill:rgb(84,220,202)"/><path d="M-37.724157416745605,154.5105251591622L-39.459571421264975,145.44513617802835L-39.715828395773,153.15086472076598z" style="fill:rgb(247,158,158)"/><path d="M-141.37736802273682,162.56046902726078L-44.11661361579157,148.05165855783886L-43.84041194804056,140.60662279031433z" style="fill:rgb(83,212,212)"/><path d="M-44.11661361579157,148.05165855783886L-138.8806607126996,173.57301942065163L-41.206434645193866,151.8775823346949z" style="fill:rgb(131,29,208)"/><path d="M-41.614107568382536,143.56634266823616L-39.715828395773,153.15086472076598L-39.459571421264975,145.44513617802835zM-37.724157416745605,154.5105251591622L-39.715828395773,153.15086472076598L-38.39826348043678,154.27633024206386z" style="fill:rgb(247,158,158)"/><path d="M155.96777368453112,99.27640791317796L52.33261509610399,119.10776385340338L52.0009722123489,122.58736953868596z" style="fill:rgb(85,234,182)"/><path d="M53.0408172005745,134.808745053898L155.77930173492436,95.82747339388509L52.33261509610399,119.10776385340338z" style="fill:rgb(83,212,212)"/><path d="M-39.715828395773,153.15086472076598L-41.614107568382536,143.56634266823616L-41.875172463500576,150.9984173161317z" style="fill:rgb(247,158,158)"/><path d="M52.302367350954,114.81347222280698L155.77930173492436,95.82747339388509L155.28540743868166,91.52946100051403z" style="fill:rgb(84,220,202)"/><path d="M-43.84041194804056,140.60662279031433L-41.875172463500576,150.9984173161317L-41.614107568382536,143.56634266823616zM-39.715828395773,153.15086472076598L-41.875172463500576,150.9984173161317L-41.206434645193866,151.8775823346949z" style="fill:rgb(247,158,158)"/><path d="M51.314419862420735,125.11049904536844L155.96777368453112,99.27640791317796L52.0009722123489,122.58736953868596z" style="fill:rgb(89,244,159)"/><path d="M-41.875172463500576,150.9984173161317L-43.84041194804056,140.60662279031433L-44.11661361579157,148.05165855783886z" style="fill:rgb(247,158,158)"/><path d="M52.33261509610399,119.10776385340338L155.96777368453112,99.27640791317796L155.77930173492436,95.82747339388509z" style="fill:rgb(85,234,182)"/><path d="M155.77930173492436,95.82747339388509L157.52515765517728,97.11750752467785L155.28540743868166,91.52946100051403z" style="fill:rgb(247,158,158)"/><path d="M-142.24622863779084,169.95789992651794L-58.1859590559275,126.3845060234348L-158.2824189148023,149.3524377091165z" style="fill:rgb(127,37,217)"/><path d="M50.293273848361004,126.56614146321517L155.8391591502073,101.73485798740133L51.314419862420735,125.11049904536844z" style="fill:rgb(93,250,135)"/><path d="M-58.1859590559275,126.3845060234348L-142.24622863779084,169.95789992651794L-44.11661361579157,148.05165855783886z" style="fill:rgb(127,37,217)"/><path d="M157.74278198352295,112.254776328179L52.0009722123489,122.58736953868596L52.5779710106458,135.4997523387372zM51.78331106791975,135.76702946980973L155.8391591502073,101.73485798740133L51.314419862420735,125.11049904536844z" style="fill:rgb(83,212,212)"/><path d="M157.52515765517728,97.11750752467785L157.941362991005,111.60711793822888L158.17730017559953,102.71187106228517z" style="fill:rgb(247,158,158)"/><path d="M155.96777368453112,99.27640791317796L51.314419862420735,125.11049904536844L155.8391591502073,101.73485798740133z" style="fill:rgb(89,244,159)"/><path d="M52.0009722123489,122.58736953868596L157.74278198352295,112.254776328179L155.96777368453112,99.27640791317796zM155.77930173492436,95.82747339388509L53.0408172005745,134.808745053898L157.941362991005,111.60711793822888zM-58.1859590559275,126.3845060234348L-157.29289280320808,141.91003092850997L-158.2824189148023,149.3524377091165z" style="fill:rgb(83,212,212)"/><path d="M157.52515765517728,97.11750752467785L155.77930173492436,95.82747339388509L157.941362991005,111.60711793822888z" style="fill:rgb(247,158,158)"/><path d="M48.97129231842999,126.88040028681661L155.39311253530266,103.09338350667782L50.293273848361004,126.56614146321517z" style="fill:rgb(99,250,111)"/><path d="M-43.84041194804056,140.60662279031433L-58.1859590559275,126.3845060234348L-44.11661361579157,148.05165855783886zM158.17730017559953,102.71187106228517L157.941362991005,111.60711793822888L158.43744150673396,107.22727736054998z" style="fill:rgb(247,158,158)"/><path d="M156.6756481423279,112.5371107605225L50.293273848361004,126.56614146321517L50.69790280453038,135.96060423051338z" style="fill:rgb(83,212,212)"/><path d="M155.8391591502073,101.73485798740133L50.293273848361004,126.56614146321517L155.39311253530266,103.09338350667782z" style="fill:rgb(93,250,135)"/><path d="M155.96777368453112,99.27640791317796L157.941362991005,111.60711793822888L155.77930173492436,95.82747339388509z" style="fill:rgb(247,158,158)"/><path d="M-157.29289280320808,141.91003092850997L-58.1859590559275,126.3845060234348L-57.81289580297345,118.8990042674875zM49.32219828152384,135.24972331651145L154.64138550851337,103.28076433919584L48.97129231842999,126.88040028681661z" style="fill:rgb(83,212,212)"/><path d="M-58.1859590559275,126.3845060234348L-43.84041194804056,140.60662279031433L-57.81289580297345,118.8990042674875zM158.43744150673396,107.22727736054998L157.941362991005,111.60711793822888L158.28823035657527,110.47579289998372z" style="fill:rgb(247,158,158)"/><path d="M155.8391591502073,101.73485798740133L51.78331106791975,135.76702946980973L157.29981978849938,112.44666041798516z" style="fill:rgb(83,212,212)"/><path d="M155.8391591502073,101.73485798740133L157.74278198352295,112.254776328179L155.96777368453112,99.27640791317796z" style="fill:rgb(247,158,158)"/><path d="M50.293273848361004,126.56614146321517L156.6756481423279,112.5371107605225L155.39311253530266,103.09338350667782z" style="fill:rgb(83,212,212)"/><path d="M155.39311253530266,103.09338350667782L48.97129231842999,126.88040028681661L154.64138550851337,103.28076433919584z" style="fill:rgb(99,250,111)"/><path d="M157.941362991005,111.60711793822888L155.96777368453112,99.27640791317796L157.74278198352295,112.254776328179z" style="fill:rgb(247,158,158)"/><path d="M50.834590132191465,136.03123643636363L155.43201330525196,111.3688537914834L48.79145587760089,134.97546529201216z" style="fill:rgb(148,8,167)"/><path d="M154.6541372927378,110.05517262718769L47.3952419720419,126.02190787063611L47.70975035895216,133.76686915528995z" style="fill:rgb(83,212,212)"/><path d="M155.39311253530266,103.09338350667782L157.29981978849938,112.44666041798516L155.8391591502073,101.73485798740133zM157.74278198352295,112.254776328179L155.8391591502073,101.73485798740133L157.29981978849938,112.44666041798516zM157.74278198352295,112.254776328179L157.29981978849938,112.44666041798516L157.72653868777763,112.3077386081064z" style="fill:rgb(247,158,158)"/><path d="M155.43201330525196,111.3688537914834L50.834590132191465,136.03123643636363L156.76480493272078,112.62085678600265z" style="fill:rgb(148,8,167)"/><path d="M154.64138550851337,103.28076433919584L49.32219828152384,135.24972331651145L155.77827421403768,111.69412944152876z" style="fill:rgb(83,212,212)"/><path d="M48.79145587760089,134.97546529201216L153.77384557181196,108.56849957089288L46.485808274259554,132.39935833004276z" style="fill:rgb(140,16,189)"/><path d="M153.33228224029986,107.58877770374924L45.62376523397203,124.00601843200506L45.91625925890241,131.47563385793853z" style="fill:rgb(83,212,212)"/><path d="M157.29981978849938,112.44666041798516L155.39311253530266,103.09338350667782L156.6756481423279,112.5371107605225z" style="fill:rgb(247,158,158)"/><path d="M47.3952419720419,126.02190787063611L154.6541372927378,110.05517262718769L153.60818856052518,102.26962753868378z" style="fill:rgb(83,212,212)"/><path d="M155.77827421403768,111.69412944152876L155.39311253530266,103.09338350667782L154.64138550851337,103.28076433919584zM157.29981978849938,112.44666041798516L156.6756481423279,112.5371107605225L156.76480493272078,112.62085678600265zM155.39311253530266,103.09338350667782L155.77827421403768,111.69412944152876L156.6756481423279,112.5371107605225z" style="fill:rgb(247,158,158)"/><path d="M151.8518942946719,104.30409062999937L43.7254922118242,120.89707772302256L44.00703477851494,128.37914028206015z" style="fill:rgb(83,212,212)"/><path d="M46.485808274259554,132.39935833004276L151.8518942946719,104.30409062999937L44.00703477851494,128.37914028206015z" style="fill:rgb(131,29,208)"/><path d="M153.77384557181196,108.56849957089288L48.79145587760089,134.97546529201216L155.43201330525196,111.3688537914834z" style="fill:rgb(140,16,189)"/><path d="M45.62376523397203,124.00601843200506L153.33228224029986,107.58877770374924L152.33006088492937,100.080527371074z" style="fill:rgb(83,212,212)"/><path d="M154.6541372927378,110.05517262718769L154.64138550851337,103.28076433919584L153.60818856052518,102.26962753868378zM154.64138550851337,103.28076433919584L154.6541372927378,110.05517262718769L155.77827421403768,111.69412944152876z" style="fill:rgb(247,158,158)"/><path d="M43.7254922118242,120.89707772302256L151.8518942946719,104.30409062999937L150.85494879910823,96.7841302440755z" style="fill:rgb(83,212,212)"/><path d="M151.8518942946719,104.30409062999937L46.485808274259554,132.39935833004276L153.77384557181196,108.56849957089288z" style="fill:rgb(131,29,208)"/><path d="M155.77827421403768,111.69412944152876L154.6541372927378,110.05517262718769L155.43201330525196,111.3688537914834zM153.33228224029986,107.58877770374924L153.60818856052518,102.26962753868378L152.33006088492937,100.080527371074zM153.60818856052518,102.26962753868378L153.33228224029986,107.58877770374924L154.6541372927378,110.05517262718769zM154.6541372927378,110.05517262718769L153.33228224029986,107.58877770374924L153.77384557181196,108.56849957089288zM151.8518942946719,104.30409062999937L152.33006088492937,100.080527371074L150.85494879910823,96.7841302440755zM152.33006088492937,100.080527371074L151.8518942946719,104.30409062999937L153.33228224029986,107.58877770374924z" style="fill:rgb(247,158,158)"/><path d="M44.00703477851494,128.37914028206015L142.06703101408883,80.43487955197985L31.80547435922168,105.73526640886428zM142.06703101408883,80.43487955197985L44.00703477851494,128.37914028206015L151.8518942946719,104.30409062999937z" style="fill:rgb(127,37,217)"/><path d="M142.06703101408883,80.43487955197985L31.596980643189713,98.21732719048123L31.80547435922168,105.73526640886428z" style="fill:rgb(83,212,212)"/><path d="M150.85494879910823,96.7841302440755L142.06703101408883,80.43487955197985L151.8518942946719,104.30409062999937z" style="fill:rgb(247,158,158)"/><path d="M31.596980643189713,98.21732719048123L142.06703101408883,80.43487955197985L141.11073146985672,72.8853562041658z" style="fill:rgb(83,212,212)"/><path d="M142.06703101408883,80.43487955197985L150.85494879910823,96.7841302440755L141.11073146985672,72.8853562041658z" style="fill:rgb(247,158,158)"/></svg>
