<?xml version="1.0" encoding="UTF-8"?>
<!-- Generated by jsxcad -->
<!DOCTYPE svg PUBLIC "-//W3C//DTD SVG 1.1 Tiny//EN" "http://www.w3.org/Graphics/SVG/1.1/DTD/svg11-tiny.dtd">
<svg viewBox="-250 -250 500 500" width="500" height="500" xmlns="http://www.w3.org/2000/svg"><path d="M-122.51449633999894,-60.73607742564683L-36.58284966269739,-94.28760944363029L-121.3211798546336,-70.28519201485025zM-124.94882194962454,-72.90698049574782L-39.374645732114764,-102.5501958100797L-124.25065087284298,-78.3170136016004zM-38.059751720362165,-91.977222093375L-122.57869975245202,-74.16822673398357L-123.37960830167623,-67.85035850138925zM-37.50790618861602,-89.39806043500106L-121.97881547486585,-72.41506571369702L-122.87263547830489,-65.3167438186105zM-38.7666300845221,-94.59952658401289L-123.34304532356029,-76.18634269130784L-124.0808774752219,-70.41416582593422zM-125.94943227574043,-75.23008085817857L-40.30630757530878,-104.74153277846345L-125.27126646659748,-80.43083898170262zM-37.133063921076065,-86.963912735266L-121.55334583265109,-71.10806861776612L-122.58022327906598,-62.91347236258385z" style="fill:rgb(83,212,212)"/><path d="M-38.059751720362165,-91.977222093375L-124.0808774752219,-70.41416582593422L-123.37960830167623,-67.85035850138925z" style="fill:rgb(99,114,251)"/><path d="M-37.50790618861602,-89.39806043500106L-123.37960830167623,-67.85035850138925L-122.87263547830489,-65.3167438186105z" style="fill:rgb(93,139,249)"/><path d="M-124.0808774752219,-70.41416582593422L-39.600709593134845,-97.16155132972668L-124.94882194962454,-72.90698049574782z" style="fill:rgb(106,89,247)"/><path d="M-37.133063921076065,-86.963912735266L-122.87263547830489,-65.3167438186105L-122.58022327906598,-62.91347236258385z" style="fill:rgb(88,163,243)"/><path d="M-124.94882194962454,-72.90698049574782L-40.52926345942594,-99.5619376861273L-125.94943227574043,-75.23008085817857z" style="fill:rgb(114,66,238)"/><path d="M-41.51578005408935,-101.70498476052332L-126.36696506946915,-82.42260753187628L-127.04340298985379,-77.29075177568768z" style="fill:rgb(83,212,212)"/><path d="M-122.51449633999894,-60.73607742564683L-37.133063921076065,-86.963912735266L-122.58022327906598,-62.91347236258385z" style="fill:rgb(85,186,232)"/><path d="M-119.33592229695081,-53.82162484439204L-36.963852634203754,-83.37642068205568L-122.63768682677473,-59.33985134582175z" style="fill:rgb(127,37,217)"/><path d="M-121.97881547486585,-72.41506571369702L-37.50790618861602,-89.39806043500106L-37.22916837855814,-96.47071193701441zM-122.57869975245202,-74.16822673398357L-38.059751720362165,-91.977222093375L-37.80735288611129,-98.2715799523267zM-121.55334583265109,-71.10806861776612L-37.133063921076065,-86.963912735266L-36.81527739611426,-95.12959759957768z" style="fill:rgb(83,212,212)"/><path d="M-125.94943227574043,-75.23008085817857L-41.51578005408935,-101.70498476052332L-127.04340298985379,-77.29075177568768z" style="fill:rgb(123,46,225)"/><path d="M-122.63768682677473,-59.33985134582175L-36.95052557015568,-84.77151451582485L-122.51449633999894,-60.73607742564683z" style="fill:rgb(83,207,216)"/><path d="M-123.34304532356029,-76.18634269130784L-38.7666300845221,-94.59952658401289L-38.53112508164361,-100.34956285947166zM-39.374645732114764,-102.5501958100797L-124.94882194962454,-72.90698049574782L-39.600709593134845,-97.16155132972668zM-36.58284966269739,-94.28760944363029L-122.51449633999894,-60.73607742564683L-36.95052557015568,-84.77151451582485z" style="fill:rgb(83,212,212)"/><path d="M-36.80272006009273,-95.08890521767157L-35.47462965132859,-89.9303787861481L-36.093807552052596,-92.50533404173459z" style="fill:rgb(247,158,158)"/><path d="M-126.36696506946915,-82.42260753187628L-41.51578005408935,-101.70498476052332L-41.28993305810496,-106.81540037600654z" style="fill:rgb(83,212,212)"/><path d="M-35.47462965132859,-89.9303787861481L-36.80272006009273,-95.08890521767157L-35.345550675240595,-89.30308381195815z" style="fill:rgb(247,158,158)"/><path d="M-40.30630757530878,-104.74153277846345L-125.94943227574043,-75.23008085817857L-40.52926345942594,-99.5619376861273z" style="fill:rgb(83,212,212)"/><path d="M-35.345550675240595,-89.30308381195815L-36.80272006009273,-95.08890521767157L-37.59088296766883,-97.64274673255665z" style="fill:rgb(247,158,158)"/><path d="M-124.0808774752219,-70.41416582593422L-38.059751720362165,-91.977222093375L-38.7666300845221,-94.59952658401289z" style="fill:rgb(99,114,251)"/><path d="M-123.37960830167623,-67.85035850138925L-37.50790618861602,-89.39806043500106L-38.059751720362165,-91.977222093375z" style="fill:rgb(93,139,249)"/><path d="M-39.600709593134845,-97.16155132972668L-124.0808774752219,-70.41416582593422L-38.7666300845221,-94.59952658401289z" style="fill:rgb(106,89,247)"/><path d="M-36.963852634203754,-83.37642068205568L-119.33592229695081,-53.82162484439204L-34.02914239999722,-77.61522225560388z" style="fill:rgb(127,37,217)"/><path d="M-122.87263547830489,-65.3167438186105L-37.133063921076065,-86.963912735266L-37.50790618861602,-89.39806043500106z" style="fill:rgb(88,163,243)"/><path d="M-40.52926345942594,-99.5619376861273L-124.94882194962454,-72.90698049574782L-39.600709593134845,-97.16155132972668z" style="fill:rgb(114,66,238)"/><path d="M-37.133063921076065,-86.963912735266L-122.51449633999894,-60.73607742564683L-36.95052557015568,-84.77151451582485z" style="fill:rgb(85,186,232)"/><path d="M-41.51578005408935,-101.70498476052332L-125.94943227574043,-75.23008085817857L-40.52926345942594,-99.5619376861273z" style="fill:rgb(123,46,225)"/><path d="M-39.600709593134845,-97.16155132972668L-34.95441889061611,-87.40226071755076L-35.15171999824418,-88.36110579223066zM-34.95441889061611,-87.40226071755076L-39.600709593134845,-97.16155132972668L-34.86864202843831,-86.89518353444687zM-38.7666300845221,-94.59952658401289L-34.55918515371591,-85.0658518180896L-34.86864202843831,-86.89518353444687zM-40.52926345942594,-99.5619376861273L-35.15171999824418,-88.36110579223066L-35.345550675240595,-89.30308381195815zM-35.345550675240595,-89.30308381195815L-37.59088296766883,-97.64274673255665L-40.52926345942594,-99.5619376861273zM-38.059751720362165,-91.977222093375L-34.54104881751155,-84.95863681796766L-34.55918515371591,-85.0658518180896zM-34.54104881751155,-84.95863681796766L-38.059751720362165,-91.977222093375L-34.29645329225556,-83.06584468720389zM-40.52926345942594,-99.5619376861273L-37.59088296766883,-97.64274673255665L-38.446690902363244,-100.12883790490835z" style="fill:rgb(247,158,158)"/><path d="M-36.95052557015568,-84.77151451582485L-122.63768682677473,-59.33985134582175L-36.963852634203754,-83.37642068205568z" style="fill:rgb(83,207,216)"/><path d="M-37.50790618861602,-89.39806043500106L-34.24092171004641,-82.63611568998739L-34.29645329225556,-83.06584468720389zM-40.52926345942594,-99.5619376861273L-38.446690902363244,-100.12883790490835L-39.357546822425405,-102.5099700359708zM-34.24092171004641,-82.63611568998739L-37.50790618861602,-89.39806043500106L-34.10335618302605,-80.9990177574441zM-40.52926345942594,-99.5619376861273L-39.357546822425405,-102.5099700359708L-40.31000475072217,-104.75023245611543zM-37.133063921076065,-86.963912735266L-34.05888673909463,-80.46980887932779L-34.10335618302605,-80.9990177574441zM-34.55918515371591,-85.0658518180896L-38.7666300845221,-94.59952658401289L-38.059751720362165,-91.977222093375zM-34.86864202843831,-86.89518353444687L-39.600709593134845,-97.16155132972668L-38.7666300845221,-94.59952658401289zM-34.05888673909463,-80.46980887932779L-37.133063921076065,-86.963912735266L-34.013693575381716,-78.99886284724003zM-34.29645329225556,-83.06584468720389L-38.059751720362165,-91.977222093375L-37.50790618861602,-89.39806043500106zM-35.15171999824418,-88.36110579223066L-40.52926345942594,-99.5619376861273L-39.600709593134845,-97.16155132972668zM-40.52926345942594,-99.5619376861273L-40.31000475072217,-104.75023245611543L-41.28993305810496,-106.81540037600654zM-34.10335618302605,-80.9990177574441L-37.50790618861602,-89.39806043500106L-37.133063921076065,-86.963912735266zM-36.95052557015568,-84.77151451582485L-33.99814620743795,-78.49285385215818L-34.013693575381716,-78.99886284724003zM-33.99814620743795,-78.49285385215818L-36.95052557015568,-84.77151451582485L-34.02914239999722,-77.61522225560388zM-34.013693575381716,-78.99886284724003L-37.133063921076065,-86.963912735266L-36.95052557015568,-84.77151451582485zM-40.52926345942594,-99.5619376861273L-41.28993305810496,-106.81540037600654L-41.51578005408935,-101.70498476052332zM-34.02914239999722,-77.61522225560388L-36.95052557015568,-84.77151451582485L-36.963852634203754,-83.37642068205568z" style="fill:rgb(247,158,158)"/><path d="M-58.66721128750285,-77.24513951383183L-59.026795833326936,-40.95711966760366L-56.855169478867566,-77.7535028726965zM-59.33005093733511,-77.05917966589793L-60.99109525554717,-39.064937583888884L-58.66721128750285,-77.24513951383183zM-56.855169478867566,-77.7535028726965L-56.42701494192424,-42.15990922309825L-54.37720916867895,-78.4486893333338zM-54.37720916867895,-78.4486893333338L-53.880944918927355,-42.35408002111459L-51.8961733848499,-79.14474422834881zM-53.880944918927355,-42.35408002111459L-50.07797156252615,-79.65483576607276L-51.8961733848499,-79.14474422834881zM-50.07797156252615,-79.65483576607276L-51.47136695578071,-39.779096245704736L-49.41204673219488,-79.84165972640336zM-51.47136695578071,-39.779096245704736L52.55103196065799,-108.44724052806166L-49.41204673219488,-79.84165972640336zM130.6514997670871,-139.68562636250246L37.824062023204625,-119.77614858054771L38.08136927803815,-113.50851888718438zM-56.42701494192424,-42.15990922309825L-56.855169478867566,-77.7535028726965L-59.026795833326936,-40.95711966760366zM131.2963283948956,-137.01758816938522L38.381649300664186,-117.93235150320707L38.67447701364426,-110.88904912970068zM-59.026795833326936,-40.95711966760366L-58.66721128750285,-77.24513951383183L-60.99109525554717,-39.064937583888884zM129.93474007981078,-142.42393368833342L37.13852726957353,-121.90811174263564L37.369832529801606,-116.18311947819397zM-53.880944918927355,-42.35408002111459L-54.37720916867895,-78.4486893333338L-56.42701494192424,-42.15990922309825zM131.8437111477577,-134.5250690995976L38.78446960048467,-116.56060361764452L39.12562168713671,-108.42811542851214zM-60.99109525554717,-39.064937583888884L-59.33005093733511,-77.05917966589793L-61.796328475735564,-36.98449223341178zM129.17425602836585,-145.1246951429427L36.3551814789439,-124.17201990600687L36.56787694868367,-118.80743775979441zM132.271758399556,-132.30707412604647L39.016963004123575,-115.7015187022964L39.41657140213793,-106.22349558190372zM-50.07797156252615,-79.65483576607276L-53.880944918927355,-42.35408002111459L-52.06606731701614,-41.484802342518265zM128.39996222432657,-147.68127013724978L35.50685669257023,-126.43365222786812L35.70700200026214,-121.27776019007185z" style="fill:rgb(83,212,212)"/><path d="M130.6514997670871,-139.68562636250246L37.369832529801606,-116.18311947819397L38.08136927803815,-113.50851888718438z" style="fill:rgb(99,114,251)"/><path d="M131.2963283948956,-137.01758816938522L38.08136927803815,-113.50851888718438L38.67447701364426,-110.88904912970068z" style="fill:rgb(93,139,249)"/><path d="M37.369832529801606,-116.18311947819397L129.17425602836585,-145.1246951429427L36.56787694868367,-118.80743775979441z" style="fill:rgb(106,89,247)"/><path d="M131.8437111477577,-134.5250690995976L38.67447701364426,-110.88904912970068L39.12562168713671,-108.42811542851214z" style="fill:rgb(88,163,243)"/><path d="M-51.47136695578071,-39.779096245704736L-50.07797156252615,-79.65483576607276L-52.06606731701614,-41.484802342518265z" style="fill:rgb(83,212,212)"/><path d="M36.56787694868367,-118.80743775979441L128.39996222432657,-147.68127013724978L35.70700200026214,-121.27776019007185z" style="fill:rgb(114,66,238)"/><path d="M127.64246611005412,-149.99193925357315L34.62810643230883,-128.58218417161225L34.821124547880856,-123.49567867537027z" style="fill:rgb(83,212,212)"/><path d="M39.41657140213793,-106.22349558190372L131.8437111477577,-134.5250690995976L39.12562168713671,-108.42811542851214z" style="fill:rgb(85,186,232)"/><path d="M42.09668643406338,-98.84808441375499L132.4898826381339,-130.91819818561675L39.505363725157515,-104.83054684451172z" style="fill:rgb(127,37,217)"/><path d="M38.381649300664186,-117.93235150320707L131.2963283948956,-137.01758816938522L130.27983998936102,-144.0170699842712zM37.824062023204625,-119.77614858054771L130.6514997670871,-139.68562636250246L129.74884901426816,-145.91346720028727zM38.78446960048467,-116.56060361764452L131.8437111477577,-134.5250690995976L130.6682558194119,-142.60780020723067z" style="fill:rgb(83,212,212)"/><path d="M35.70700200026214,-121.27776019007185L127.64246611005412,-149.99193925357315L34.821124547880856,-123.49567867537027z" style="fill:rgb(123,46,225)"/><path d="M39.505363725157515,-104.83054684451172L132.271758399556,-132.30707412604647L39.41657140213793,-106.22349558190372z" style="fill:rgb(83,207,216)"/><path d="M39.016963004123575,-115.7015187022964L132.271758399556,-132.30707412604647L130.90061705773812,-141.72787388466486zM37.13852726957353,-121.90811174263564L129.93474007981078,-142.42393368833342L129.11237835961313,-148.11179833569335zM36.3551814789439,-124.17201990600687L129.17425602836585,-145.1246951429427L128.40597949099146,-150.45370061411109zM35.50685669257023,-126.43365222786812L128.39996222432657,-147.68127013724978L127.66400475482476,-152.80222551392066z" style="fill:rgb(83,212,212)"/><path d="M-56.42701494192424,-42.15990922309825L-55.8826516893444,-35.23774098374136L-53.296172518207555,-36.43338115303436z" style="fill:rgb(158,48,222)"/><path d="M-55.8826516893444,-35.23774098374136L-60.99109525554717,-39.064937583888884L-57.83372145055441,-33.3503958995079z" style="fill:rgb(212,85,213)"/><path d="M130.68004810637066,-142.56504085125331L132.0634082273822,-137.19098782761827L131.39122459125278,-139.8658229343636z" style="fill:rgb(247,158,158)"/><path d="M34.62810643230883,-128.58218417161225L127.64246611005412,-149.99193925357315L126.918926627693,-155.04326712721382z" style="fill:rgb(83,212,212)"/><path d="M132.0634082273822,-137.19098782761827L130.68004810637066,-142.56504085125331L132.21803545488007,-136.54317596454956z" style="fill:rgb(247,158,158)"/><path d="M-53.880944918927355,-42.35408002111459L-53.296172518207555,-36.43338115303436L-50.75998789487476,-36.619969110199804z" style="fill:rgb(96,32,206)"/><path d="M132.21803545488007,-136.54317596454956L130.68004810637066,-142.56504085125331L129.94038561327264,-145.24869247677344z" style="fill:rgb(247,158,158)"/><path d="M37.369832529801606,-116.18311947819397L130.6514997670871,-139.68562636250246L129.93474007981078,-142.42393368833342z" style="fill:rgb(99,114,251)"/><path d="M38.08136927803815,-113.50851888718438L131.2963283948956,-137.01758816938522L130.6514997670871,-139.68562636250246z" style="fill:rgb(93,139,249)"/><path d="M129.17425602836585,-145.1246951429427L37.369832529801606,-116.18311947819397L129.93474007981078,-142.42393368833342z" style="fill:rgb(106,89,247)"/><path d="M132.4898826381339,-130.91819818561675L42.09668643406338,-98.84808441375499L134.64362417602916,-124.66108584538719z" style="fill:rgb(127,37,217)"/><path d="M38.67447701364426,-110.88904912970068L131.8437111477577,-134.5250690995976L131.2963283948956,-137.01758816938522z" style="fill:rgb(88,163,243)"/><path d="M-55.8826516893444,-35.23774098374136L-56.42701494192424,-42.15990922309825L-59.026795833326936,-40.95711966760366z" style="fill:rgb(158,48,222)"/><path d="M-48.94895863169415,-35.74470595792603L-53.880944918927355,-42.35408002111459L-50.75998789487476,-36.619969110199804z" style="fill:rgb(42,41,169)"/><path d="M-57.83372145055441,-33.3503958995079L-61.796328475735564,-36.98449223341178L-58.629298574443,-31.27121509387408z" style="fill:rgb(243,133,180)"/><path d="M128.39996222432657,-147.68127013724978L36.56787694868367,-118.80743775979441L129.17425602836585,-145.1246951429427z" style="fill:rgb(114,66,238)"/><path d="M-60.99109525554717,-39.064937583888884L-55.8826516893444,-35.23774098374136L-59.026795833326936,-40.95711966760366z" style="fill:rgb(212,85,213)"/><path d="M-53.296172518207555,-36.43338115303436L-53.880944918927355,-42.35408002111459L-56.42701494192424,-42.15990922309825z" style="fill:rgb(96,32,206)"/><path d="M131.8437111477577,-134.5250690995976L39.41657140213793,-106.22349558190372L132.271758399556,-132.30707412604647z" style="fill:rgb(85,186,232)"/><path d="M-61.796328475735564,-36.98449223341178L-57.83372145055441,-33.3503958995079L-60.99109525554717,-39.064937583888884z" style="fill:rgb(243,133,180)"/><path d="M-61.796328475735564,-36.98449223341178L-58.051563016472564,-29.5544549864727L-58.629298574443,-31.27121509387408z" style="fill:rgb(243,180,133)"/><path d="M127.64246611005412,-149.99193925357315L35.70700200026214,-121.27776019007185L128.39996222432657,-147.68127013724978z" style="fill:rgb(123,46,225)"/><path d="M129.17425602836585,-145.1246951429427L132.68662275819733,-134.58014370710532L132.45024969488517,-135.5703772363239zM132.68662275819733,-134.58014370710532L129.17425602836585,-145.1246951429427L132.80384662251262,-134.05971381792315zM129.93474007981078,-142.42393368833342L133.22676161849654,-132.18215194429033L132.80384662251262,-134.05971381792315zM128.39996222432657,-147.68127013724978L132.45024969488517,-135.5703772363239L132.21803545488007,-136.54317596454956zM132.21803545488007,-136.54317596454956L129.94038561327264,-145.24869247677344L128.39996222432657,-147.68127013724978zM130.6514997670871,-139.68562636250246L133.2515537625719,-132.0721069362757L133.22676161849654,-132.18215194429033z" style="fill:rgb(247,158,158)"/><path d="M-53.880944918927355,-42.35408002111459L-48.94895863169415,-35.74470595792603L-52.06606731701614,-41.484802342518265z" style="fill:rgb(42,41,169)"/><path d="M133.2515537625719,-132.0721069362757L130.6514997670871,-139.68562636250246L133.65750065628006,-130.1425055844761zM128.39996222432657,-147.68127013724978L129.94038561327264,-145.24869247677344L129.18315871954354,-147.87694506872518z" style="fill:rgb(247,158,158)"/><path d="M132.271758399556,-132.30707412604647L39.505363725157515,-104.83054684451172L132.4898826381339,-130.91819818561675z" style="fill:rgb(83,207,216)"/><path d="M131.2963283948956,-137.01758816938522L133.74966882990554,-129.70440720397767L133.65750065628006,-130.1425055844761zM128.39996222432657,-147.68127013724978L129.18315871954354,-147.87694506872518L128.41959054706484,-150.41059188166116zM133.74966882990554,-129.70440720397767L131.2963283948956,-137.01758816938522L134.0698160732042,-128.0482333574358z" style="fill:rgb(247,158,158)"/><path d="M-58.051563016472564,-29.5544549864727L-61.796328475735564,-36.98449223341178L-61.22205565402116,-35.270379165313514z" style="fill:rgb(243,180,133)"/><path d="M128.39996222432657,-147.68127013724978L128.41959054706484,-150.41059188166116L127.66106000575533,-152.81154959389644zM131.8437111477577,-134.5250690995976L134.1733048351984,-127.51282910637975L134.0698160732042,-128.0482333574358zM133.22676161849654,-132.18215194429033L129.93474007981078,-142.42393368833342L130.6514997670871,-139.68562636250246zM132.80384662251262,-134.05971381792315L129.17425602836585,-145.1246951429427L129.93474007981078,-142.42393368833342zM134.1733048351984,-127.51282910637975L131.8437111477577,-134.5250690995976L134.42815757334435,-126.03823349155167zM133.65750065628006,-130.1425055844761L130.6514997670871,-139.68562636250246L131.2963283948956,-137.01758816938522zM132.45024969488517,-135.5703772363239L128.39996222432657,-147.68127013724978L129.17425602836585,-145.1246951429427zM128.39996222432657,-147.68127013724978L127.66106000575533,-152.81154959389644L126.918926627693,-155.04326712721382zM134.0698160732042,-128.0482333574358L131.2963283948956,-137.01758816938522L131.8437111477577,-134.5250690995976zM132.271758399556,-132.30707412604647L134.51582901918587,-125.53092717250344L134.42815757334435,-126.03823349155167zM134.51582901918587,-125.53092717250344L132.271758399556,-132.30707412604647L134.64362417602916,-124.66108584538719zM134.42815757334435,-126.03823349155167L131.8437111477577,-134.5250690995976L132.271758399556,-132.30707412604647zM128.39996222432657,-147.68127013724978L126.918926627693,-155.04326712721382L127.64246611005412,-149.99193925357315zM134.64362417602916,-124.66108584538719L132.271758399556,-132.30707412604647L132.4898826381339,-130.91819818561675z" style="fill:rgb(247,158,158)"/><path d="M-122.61641605733284,-59.30429110710956L-69.40213593563426,86.60272423155492L-59.33005093733511,-77.05917966589793zM53.251601396533765,-108.64378873950604L60.62795297923403,-16.92564220672949L55.166804749587065,-109.18108907986215zM52.55103196065799,-108.44724052806166L58.60839997403861,-14.842482204672748L53.251601396533765,-108.64378873950604zM60.62795297923403,-16.92564220672949L57.78591317522563,-109.91587538009189L55.166804749587065,-109.18108907986215zM57.78591317522563,-109.91587538009189L66.39680178271013,-18.412349509736185L60.40837355826982,-110.65161061696293zM66.39680178271013,-18.412349509736185L62.33027090371833,-111.19078893455178L60.40837355826982,-110.65161061696293zM62.33027090371833,-111.19078893455178L69.53483898789624,-15.506329557283228L63.03418735503938,-111.38827615650041zM52.55103196065799,-108.44724052806166L-51.47136695578071,-39.779096245704736L57.95531973087071,-12.532587574937173zM-61.796328475735564,-36.98449223341178L-68.48335373036151,84.02894629227528L-61.22205565402116,-35.270379165313514zM-61.22205565402116,-35.270379165313514L-66.27036571942897,81.7791004375644L-59.41466884941871,-34.3849338644408zM-59.41466884941871,-34.3849338644408L-63.35263283193137,80.44790876916898L-56.85566190140156,-34.571351857776136zM-63.35263283193137,80.44790876916898L-54.2354637788214,-35.782551157050975L-56.85566190140156,-34.571351857776136zM-52.26367371795149,-37.690895674590934L-57.824833697480535,83.82292512451339L-51.47136695578071,-39.779096245704736zM-54.2354637788214,-35.782551157050975L-58.47804543763446,81.6206706885137L-52.26367371795149,-37.690895674590934zM60.62795297923403,-16.92564220672949L53.251601396533765,-108.64378873950604L58.60839997403861,-14.842482204672748zM57.78591317522563,-109.91587538009189L60.62795297923403,-16.92564220672949L63.47544337495839,-18.23098633370358zM66.39680178271013,-18.412349509736185L57.78591317522563,-109.91587538009189L63.47544337495839,-18.23098633370358zM58.60839997403861,-14.842482204672748L52.55103196065799,-108.44724052806166L57.95531973087071,-12.532587574937173zM62.33027090371833,-111.19078893455178L66.39680178271013,-18.412349509736185L68.6156152842924,-17.417663385238054zM69.53483898789624,-15.506329557283228L62.33027090371833,-111.19078893455178L68.6156152842924,-17.417663385238054z" style="fill:rgb(83,212,212)"/><path d="M-51.47136695578071,-39.779096245704736L-57.824833697480535,83.82292512451339L-55.42433913747312,37.123071303781636z" style="fill:rgb(255,127,127)"/><path d="M63.03418735503938,-111.38827615650041L163.61239349729982,82.82382486106904L132.50376891274192,-130.87785778552487zM-122.61641605733284,-59.30429110710956L-72.47817569770659,136.58547985635346L-69.40213593563426,86.60272423155492z" style="fill:rgb(83,212,212)"/><path d="M-48.35101020163992,-34.03625162836638L-56.68197429437684,139.48547739536605L-52.15074175809955,45.10656876327625z" style="fill:rgb(255,127,127)"/><path d="M-66.27036571942897,81.7791004375644L-61.22205565402116,-35.270379165313514L-68.48335373036151,84.02894629227528zM-63.35263283193137,80.44790876916898L-59.41466884941871,-34.3849338644408L-66.27036571942897,81.7791004375644zM-68.48335373036151,84.02894629227528L-61.796328475735564,-36.98449223341178L-69.40213593563426,86.60272423155492z" style="fill:rgb(83,212,212)"/><path d="M63.47544337495839,-18.23098633370358L63.360385043297036,-10.842355782690154L66.19192568831288,-12.139278457465469z" style="fill:rgb(158,48,222)"/><path d="M63.360385043297036,-10.842355782690154L58.60839997403861,-14.842482204672748L61.35513713869426,-8.765198635721593z" style="fill:rgb(212,85,213)"/><path d="M-54.2354637788214,-35.782551157050975L-63.35263283193137,80.44790876916898L-60.50261472206743,80.38831583517504z" style="fill:rgb(83,212,212)"/><path d="M66.39680178271013,-18.412349509736185L66.19192568831288,-12.139278457465469L69.09984808753474,-12.312012638093742z" style="fill:rgb(96,32,206)"/><path d="M163.61239349729982,82.82382486106904L134.6548791838273,-124.6283823476558L132.50376891274192,-130.87785778552487z" style="fill:rgb(247,158,158)"/><path d="M63.360385043297036,-10.842355782690154L63.47544337495839,-18.23098633370358L60.62795297923403,-16.92564220672949z" style="fill:rgb(158,48,222)"/><path d="M-58.47804543763446,81.6206706885137L-54.2354637788214,-35.782551157050975L-60.50261472206743,80.38831583517504z" style="fill:rgb(83,212,212)"/><path d="M71.31129911493707,-11.31079953948201L66.39680178271013,-18.412349509736185L69.09984808753474,-12.312012638093742z" style="fill:rgb(42,41,169)"/><path d="M61.35513713869426,-8.765198635721593L57.95531973087071,-12.532587574937173L60.71092891446688,-6.457327795860011z" style="fill:rgb(243,133,180)"/><path d="M58.60839997403861,-14.842482204672748L63.360385043297036,-10.842355782690154L60.62795297923403,-16.92564220672949z" style="fill:rgb(212,85,213)"/><path d="M66.19192568831288,-12.139278457465469L66.39680178271013,-18.412349509736185L63.47544337495839,-18.23098633370358z" style="fill:rgb(96,32,206)"/><path d="M-57.824833697480535,83.82292512451339L-52.26367371795149,-37.690895674590934L-58.47804543763446,81.6206706885137z" style="fill:rgb(83,212,212)"/><path d="M57.95531973087071,-12.532587574937173L61.35513713869426,-8.765198635721593L58.60839997403861,-14.842482204672748z" style="fill:rgb(243,133,180)"/><path d="M72.23124421063277,-9.396841588490894L68.6156152842924,-17.417663385238054L71.31129911493707,-11.31079953948201z" style="fill:rgb(11,74,121)"/><path d="M66.39680178271013,-18.412349509736185L71.31129911493707,-11.31079953948201L68.6156152842924,-17.417663385238054z" style="fill:rgb(42,41,169)"/><path d="M68.6156152842924,-17.417663385238054L72.23124421063277,-9.396841588490894L69.53483898789624,-15.506329557283228z" style="fill:rgb(11,74,121)"/><path d="M-72.47817569770659,136.58547985635346L-122.61641605733284,-59.30429110710956L-149.26438507114833,154.0709440129723z" style="fill:rgb(83,212,212)"/><path d="M55.07928544914028,-102.43399473502605L67.6253597597557,111.38110576449282L60.71092891446688,-6.457327795860011z" style="fill:rgb(0,127,127)"/><path d="M-55.42433913747312,37.123071303781636L64.59856141390519,105.37087767308923L-51.47136695578071,-39.779096245704736zM-51.47136695578071,-39.779096245704736L64.59856141390519,105.37087767308923L57.95531973087071,-12.532587574937173z" style="fill:rgb(83,212,212)"/><path d="M-63.35263283193137,80.44790876916898L-62.699729654560265,87.46859217513128L-59.79874014940959,86.14617881933304z" style="fill:rgb(158,48,222)"/><path d="M-62.699729654560265,87.46859217513128L-68.48335373036151,84.02894629227528L-64.89596419656843,89.710857651388z" style="fill:rgb(212,85,213)"/><path d="M-60.50261472206743,80.38831583517504L-59.79874014940959,86.14617881933304L-56.96107605586437,86.09425982923412z" style="fill:rgb(96,32,206)"/><path d="M-62.699729654560265,87.46859217513128L-63.35263283193137,80.44790876916898L-66.27036571942897,81.7791004375644z" style="fill:rgb(158,48,222)"/><path d="M-54.94120159544945,87.33111456664676L-60.50261472206743,80.38831583517504L-56.96107605586437,86.09425982923412z" style="fill:rgb(42,41,169)"/><path d="M-64.89596419656843,89.710857651388L-69.40213593563426,86.60272423155492L-65.80240984621929,92.28022070508035z" style="fill:rgb(243,133,180)"/><path d="M-68.48335373036151,84.02894629227528L-62.699729654560265,87.46859217513128L-66.27036571942897,81.7791004375644z" style="fill:rgb(212,85,213)"/><path d="M-59.79874014940959,86.14617881933304L-60.50261472206743,80.38831583517504L-63.35263283193137,80.44790876916898z" style="fill:rgb(96,32,206)"/><path d="M-69.40213593563426,86.60272423155492L-64.89596419656843,89.710857651388L-68.48335373036151,84.02894629227528z" style="fill:rgb(243,133,180)"/><path d="M-69.40213593563426,86.60272423155492L-65.17038286686733,94.49266801663099L-65.80240984621929,92.28022070508035z" style="fill:rgb(243,180,133)"/><path d="M-60.50261472206743,80.38831583517504L-54.94120159544945,87.33111456664676L-58.47804543763446,81.6206706885137z" style="fill:rgb(42,41,169)"/><path d="M-65.17038286686733,94.49266801663099L-69.40213593563426,86.60272423155492L-68.77467806711203,88.8152526108323z" style="fill:rgb(243,180,133)"/><path d="M57.95531973087071,-12.532587574937173L65.4623044632427,105.17419078606224L58.85003132665126,-10.611347638457284zM65.4623044632427,105.17419078606224L61.0617707219968,-9.597137279476417L58.85003132665126,-10.611347638457284zM76.66165835573683,102.62391644691341L69.53483898789624,-15.506329557283228L68.89919695729105,-13.186814710603189zM61.0617707219968,-9.597137279476417L71.05436247417337,103.90078386973953L64.00056149067173,-9.768882106788377zM71.05436247417337,103.90078386973953L66.87257004634145,-11.08413099324296L64.00056149067173,-9.768882106788377zM66.87257004634145,-11.08413099324296L76.66165835573683,102.62391644691341L68.89919695729105,-13.186814710603189zM-69.40213593563426,86.60272423155492L-71.67108434921113,136.40168507415083L-68.77467806711203,88.8152526108323zM-68.77467806711203,88.8152526108323L-69.4643913157195,135.89919313860165L-66.7596713742671,90.06997461911162zM-61.20721932688902,134.01890042783407L-57.824833697480535,83.82292512451339L-58.72743626864471,86.40880234491334zM-69.4643913157195,135.89919313860165L-63.89346154954821,90.02248082849394L-66.7596713742671,90.06997461911162zM-63.42308245019108,134.52348052565947L-58.72743626864471,86.40880234491334L-60.9499866301725,88.68100961567582zM-66.44602609357413,135.21185224279424L-60.9499866301725,88.68100961567582L-63.89346154954821,90.02248082849394zM163.61239349729982,82.82382486106904L63.03418735503938,-111.38827615650041L77.53047836959765,102.42607345720907zM-71.67108434921113,136.40168507415083L-69.40213593563426,86.60272423155492L-72.47817569770659,136.58547985635346zM64.59856141390519,105.37087767308923L-55.42433913747312,37.123071303781636L-60.39553668061067,133.83406153449366zM-69.4643913157195,135.89919313860165L-68.77467806711203,88.8152526108323L-71.67108434921113,136.40168507415083z" style="fill:rgb(83,212,212)"/><path d="M134.6548791838273,-124.6283823476558L163.61239349729982,82.82382486106904L166.06071354642395,89.12607216860634z" style="fill:rgb(247,158,158)"/><path d="M-63.89346154954821,90.02248082849394L-69.4643913157195,135.89919313860165L-66.44602609357413,135.21185224279424zM-57.824833697480535,83.82292512451339L-61.20721932688902,134.01890042783407L-60.39553668061067,133.83406153449366zM-60.9499866301725,88.68100961567582L-66.44602609357413,135.21185224279424L-63.42308245019108,134.52348052565947zM-58.72743626864471,86.40880234491334L-63.42308245019108,134.52348052565947L-61.20721932688902,134.01890042783407z" style="fill:rgb(83,212,212)"/><path d="M-45.335386281841345,132.24356267401424L-149.29132591794266,154.03604007410797L-149.59124544007494,155.93640533025226z" style="fill:rgb(83,216,207)"/><path d="M-45.74537768562277,134.33382845219606L-149.59124544007494,155.93640533025226L-150.26763710043056,158.0350362551893z" style="fill:rgb(85,232,186)"/><path d="M-151.19537527640907,159.60988935607648L-45.74537768562277,134.33382845219606L-150.26763710043056,158.0350362551893z" style="fill:rgb(88,243,163)"/><path d="M-152.33899467400227,160.5925452091368L-46.386288703152275,135.8803667639837L-151.19537527640907,159.60988935607648z" style="fill:rgb(93,249,139)"/><path d="M-149.29132591794266,154.03604007410797L-45.335386281841345,132.24356267401424L-45.211991295510465,130.3343818678984z" style="fill:rgb(83,216,207)"/><path d="M65.4623044632427,105.17419078606224L57.95531973087071,-12.532587574937173L64.59856141390519,105.37087767308923zM-45.90140381518007,146.89311375180617L-149.59124544007494,155.93640533025226L-151.40965411168204,170.487596558038zM-152.57106716280376,170.53502394751217L-46.386288703152275,135.8803667639837L-151.19537527640907,159.60988935607648zM61.0617707219968,-9.597137279476417L65.4623044632427,105.17419078606224L67.82393271377678,104.63641067506548z" style="fill:rgb(83,212,212)"/><path d="M-153.65359359489085,160.93744141074347L-47.23416512242256,136.81559808713226L-152.33899467400227,160.5925452091368z" style="fill:rgb(99,251,114)"/><path d="M-149.59124544007494,155.93640533025226L-45.74537768562277,134.33382845219606L-45.335386281841345,132.24356267401424z" style="fill:rgb(85,232,186)"/><path d="M-46.2370593792944,146.96783728739138L-150.26763710043056,158.0350362551893L-151.8401112230311,170.58354089209462zM71.05436247417337,103.90078386973953L61.0617707219968,-9.597137279476417L67.82393271377678,104.63641067506548zM69.53483898789624,-15.506329557283228L76.66165835573683,102.62391644691341L77.53047836959765,102.42607345720907zM66.87257004634145,-11.08413099324296L71.05436247417337,103.90078386973953L74.28987644857497,103.16400870861536zM76.66165835573683,102.62391644691341L66.87257004634145,-11.08413099324296L74.28987644857497,103.16400870861536zM-149.59124544007494,155.93640533025226L-45.90140381518007,146.89311375180617L-45.335386281841345,132.24356267401424z" style="fill:rgb(83,212,212)"/><path d="M-45.74537768562277,134.33382845219606L-151.19537527640907,159.60988935607648L-46.386288703152275,135.8803667639837z" style="fill:rgb(88,243,163)"/><path d="M-145.0920606148424,159.4739256839709L163.61239349729982,82.82382486106904L-149.26438507114833,154.0709440129723z" style="fill:rgb(127,37,217)"/><path d="M-47.62877758932867,146.6564996494665L-152.33899467400227,160.5925452091368L-153.57797358056763,170.36610516952672z" style="fill:rgb(83,212,212)"/><path d="M-45.335386281841345,132.24356267401424L-41.57491606461806,136.03588827609514L-45.211991295510465,130.3343818678984z" style="fill:rgb(247,158,158)"/><path d="M-150.26763710043056,158.0350362551893L-46.2370593792944,146.96783728739138L-45.74537768562277,134.33382845219606z" style="fill:rgb(83,212,212)"/><path d="M-151.8179665988058,170.5850028181703L-47.33038127659614,146.8038379428107L-153.21144679465942,170.49251425649175z" style="fill:rgb(150,5,158)"/><path d="M-46.386288703152275,135.8803667639837L-152.33899467400227,160.5925452091368L-47.23416512242256,136.81559808713226z" style="fill:rgb(93,249,139)"/><path d="M-41.57491606461806,136.03588827609514L-45.90140381518007,146.89311375180617L-41.621276896622064,137.34854309999344z" style="fill:rgb(247,158,158)"/><path d="M-48.62615649837212,146.12841484206868L-153.65359359489085,160.93744141074347L-154.80030274281538,169.90829937181252z" style="fill:rgb(83,212,212)"/><path d="M-41.621276896622064,137.34854309999344L-45.90140381518007,146.89311375180617L-41.86568190429929,139.7245136687043z" style="fill:rgb(247,158,158)"/><path d="M-153.21144679465942,170.49251425649175L-48.51197975514546,146.22044210152785L-154.66275061753743,169.9919695361899z" style="fill:rgb(146,9,173)"/><path d="M-41.57491606461806,136.03588827609514L-45.335386281841345,132.24356267401424L-45.90140381518007,146.89311375180617z" style="fill:rgb(247,158,158)"/><path d="M-49.768286492585126,145.2011902892028L-155.08639345099272,160.6245498149019L-156.17562119676558,169.06480007761303z" style="fill:rgb(83,212,212)"/><path d="M-47.23416512242256,136.81559808713226L-153.65359359489085,160.93744141074347L-48.25619763296475,137.09558381716909z" style="fill:rgb(99,251,114)"/><path d="M-41.86568190429929,139.7245136687043L-45.90140381518007,146.89311375180617L-42.25929375297681,141.81619236532165z" style="fill:rgb(247,158,158)"/><path d="M-152.33899467400227,160.5925452091368L-47.62877758932867,146.6564996494665L-47.23416512242256,136.81559808713226zM-46.386288703152275,135.8803667639837L-152.57106716280376,170.53502394751217L-46.819809126049535,146.88042062672673z" style="fill:rgb(83,212,212)"/><path d="M-154.66275061753743,169.9919695361899L-49.745588942427666,145.22615721616353L-156.14878831750852,169.08803879409638z" style="fill:rgb(140,15,187)"/><path d="M-42.25929375297681,141.81619236532165L-45.90140381518007,146.89311375180617L-42.79730620904098,143.5893469092221z" style="fill:rgb(247,158,158)"/><path d="M-51.006480247921445,143.83931128254645L-156.57872731593164,159.6612215338895L-157.63965852016017,167.79732549457847z" style="fill:rgb(83,212,212)"/><path d="M-45.74537768562277,134.33382845219606L-45.90140381518007,146.89311375180617L-45.335386281841345,132.24356267401424z" style="fill:rgb(247,158,158)"/><path d="M-47.33038127659614,146.8038379428107L-151.8179665988058,170.5850028181703L-46.21940341483436,146.9704903445702z" style="fill:rgb(150,5,158)"/><path d="M-153.65359359489085,160.93744141074347L-48.62615649837212,146.12841484206868L-48.25619763296475,137.09558381716909z" style="fill:rgb(83,212,212)"/><path d="M-156.14878831750852,169.08803879409638L-51.01139999774943,143.83390216878172L-157.64547466064278,167.79229084603227z" style="fill:rgb(135,23,200)"/><path d="M-42.79730620904098,143.5893469092221L-45.90140381518007,146.89311375180617L-43.47266281482739,145.01391073391585z" style="fill:rgb(247,158,158)"/><path d="M-52.288739474384805,142.0636447056988L-158.06835137202722,158.0827468743754L-159.1281766713029,166.12320468837444z" style="fill:rgb(83,212,212)"/><path d="M-46.386288703152275,135.8803667639837L-46.2370593792944,146.96783728739138L-45.74537768562277,134.33382845219606zM-43.47266281482739,145.01391073391585L-45.90140381518007,146.89311375180617L-44.27609666904613,146.0646154309905z" style="fill:rgb(247,158,158)"/><path d="M-157.64547466064278,167.79229084603227L-52.288739474384805,142.0636447056988L-159.1281766713029,166.12320468837444z" style="fill:rgb(130,32,212)"/><path d="M-155.08639345099272,160.6245498149019L-49.768286492585126,145.2011902892028L-49.41175778430126,136.70267819924683z" style="fill:rgb(83,212,212)"/><path d="M-48.51197975514546,146.22044210152785L-153.21144679465942,170.49251425649175L-47.33038127659614,146.8038379428107z" style="fill:rgb(146,9,173)"/><path d="M-45.90140381518007,146.89311375180617L-45.74537768562277,134.33382845219606L-46.2370593792944,146.96783728739138zM-47.23416512242256,136.81559808713226L-46.819809126049535,146.88042062672673L-46.386288703152275,135.8803667639837zM-44.27609666904613,146.0646154309905L-45.90140381518007,146.89311375180617L-45.196172749928046,146.7214933417143z" style="fill:rgb(247,158,158)"/><path d="M-156.57872731593164,159.6612215338895L-51.006480247921445,143.83931128254645L-50.653853656275864,135.64727378263072z" style="fill:rgb(83,212,212)"/><path d="M-49.745588942427666,145.22615721616353L-154.66275061753743,169.9919695361899L-48.51197975514546,146.22044210152785z" style="fill:rgb(140,15,187)"/><path d="M-46.2370593792944,146.96783728739138L-46.386288703152275,135.8803667639837L-46.819809126049535,146.88042062672673zM-45.90140381518007,146.89311375180617L-46.2370593792944,146.96783728739138L-46.21940341483436,146.9704903445702zM-48.62615649837212,146.12841484206868L-47.23416512242256,136.81559808713226L-48.25619763296475,137.09558381716909z" style="fill:rgb(247,158,158)"/><path d="M-158.06835137202722,158.0827468743754L-52.288739474384805,142.0636447056988L-51.93098024279321,133.96831931780827z" style="fill:rgb(83,212,212)"/><path d="M-46.819809126049535,146.88042062672673L-47.23416512242256,136.81559808713226L-47.62877758932867,146.6564996494665z" style="fill:rgb(247,158,158)"/><path d="M-51.01139999774943,143.83390216878172L-156.14878831750852,169.08803879409638L-49.745588942427666,145.22615721616353z" style="fill:rgb(135,23,200)"/><path d="M-47.23416512242256,136.81559808713226L-48.62615649837212,146.12841484206868L-47.62877758932867,146.6564996494665zM-46.819809126049535,146.88042062672673L-47.62877758932867,146.6564996494665L-47.33038127659614,146.8038379428107zM-49.768286492585126,145.2011902892028L-48.25619763296475,137.09558381716909L-49.41175778430126,136.70267819924683z" style="fill:rgb(247,158,158)"/><path d="M-52.288739474384805,142.0636447056988L-157.64547466064278,167.79229084603227L-51.01139999774943,143.83390216878172z" style="fill:rgb(130,32,212)"/><path d="M-48.25619763296475,137.09558381716909L-49.768286492585126,145.2011902892028L-48.62615649837212,146.12841484206868zM-47.62877758932867,146.6564996494665L-48.62615649837212,146.12841484206868L-48.51197975514546,146.22044210152785zM-51.006480247921445,143.83931128254645L-49.41175778430126,136.70267819924683L-50.653853656275864,135.64727378263072z" style="fill:rgb(247,158,158)"/><path d="M163.61239349729982,82.82382486106904L-145.0920606148424,159.4739256839709L166.06071354642395,89.12607216860634z" style="fill:rgb(127,37,217)"/><path d="M-49.41175778430126,136.70267819924683L-51.006480247921445,143.83931128254645L-49.768286492585126,145.2011902892028zM-48.62615649837212,146.12841484206868L-49.768286492585126,145.2011902892028L-49.745588942427666,145.22615721616353zM-52.288739474384805,142.0636447056988L-50.653853656275864,135.64727378263072L-51.93098024279321,133.96831931780827zM-50.653853656275864,135.64727378263072L-52.288739474384805,142.0636447056988L-51.006480247921445,143.83931128254645zM-51.006480247921445,143.83931128254645L-52.288739474384805,142.0636447056988L-51.01139999774943,143.83390216878172z" style="fill:rgb(247,158,158)"/><path d="M163.85631813696529,84.70336116124298L48.527134466035804,108.98748215997489L48.57095551368396,110.90273272892135z" style="fill:rgb(83,216,207)"/><path d="M164.0257030454387,86.76667256427548L48.57095551368396,110.90273272892135L48.413642561238824,112.98257796728365z" style="fill:rgb(85,232,186)"/><path d="M48.04510770822166,114.50041792715878L164.0257030454387,86.76667256427548L48.413642561238824,112.98257796728365z" style="fill:rgb(88,243,163)"/><path d="M49.19178383203275,125.62771144394003L163.85631813696529,84.70336116124298L48.57095551368396,110.90273272892135z" style="fill:rgb(83,212,212)"/><path d="M47.4783903817435,115.38959595788096L164.00975053007667,88.24519111187001L48.04510770822166,114.50041792715878z" style="fill:rgb(93,249,139)"/><path d="M48.527134466035804,108.98748215997489L163.85631813696529,84.70336116124298L163.59656862760835,82.78309257860059z" style="fill:rgb(83,216,207)"/><path d="M46.734814594086345,115.60776077156618L163.80736145300273,89.07350763724024L47.4783903817435,115.38959595788096z" style="fill:rgb(99,251,114)"/><path d="M48.57095551368396,110.90273272892135L164.0257030454387,86.76667256427548L163.85631813696529,84.70336116124298z" style="fill:rgb(85,232,186)"/><path d="M165.88217329280522,99.53225125512637L48.413642561238824,112.98257796728365L48.94638501359822,125.68225612015735zM165.62398091685156,99.36069048770938L48.04510770822166,114.50041792715878L48.50483226507483,125.55807226382018z" style="fill:rgb(83,212,212)"/><path d="M164.0257030454387,86.76667256427548L48.04510770822166,114.50041792715878L164.00975053007667,88.24519111187001z" style="fill:rgb(88,243,163)"/><path d="M165.24872337439928,99.01820251653432L47.4783903817435,115.38959595788096L47.884517296486074,125.28228503811597z" style="fill:rgb(83,212,212)"/><path d="M163.85631813696529,84.70336116124298L166.04791784181904,89.09312170176422L163.59656862760835,82.78309257860059z" style="fill:rgb(247,158,158)"/><path d="M48.413642561238824,112.98257796728365L165.88217329280522,99.53225125512637L164.0257030454387,86.76667256427548z" style="fill:rgb(83,212,212)"/><path d="M48.95976204381283,125.68601010225258L165.39773196563905,99.2103494187286L48.11794654948973,125.44925733372104z" style="fill:rgb(150,5,158)"/><path d="M164.00975053007667,88.24519111187001L47.4783903817435,115.38959595788096L163.80736145300273,89.07350763724024z" style="fill:rgb(93,249,139)"/><path d="M166.04791784181904,89.09312170176422L166.01044762108305,99.50390903286372L166.24269194202262,90.41885708950451z" style="fill:rgb(247,158,158)"/><path d="M164.7447972209855,98.33958802359098L46.734814594086345,115.60776077156618L47.1016883779622,124.68818364065596zM163.85631813696529,84.70336116124298L49.19178383203275,125.62771144394003L166.01044762108305,99.50390903286372zM48.04510770822166,114.50041792715878L165.62398091685156,99.36069048770938L164.00975053007667,88.24519111187001z" style="fill:rgb(83,212,212)"/><path d="M166.24269194202262,90.41885708950451L166.01044762108305,99.50390903286372L166.52819866989518,92.79594418446402z" style="fill:rgb(247,158,158)"/><path d="M48.11794654948973,125.44925733372104L164.80765184302234,98.44938542280445L47.19355764173074,124.78802227227852z" style="fill:rgb(146,9,173)"/><path d="M166.04791784181904,89.09312170176422L163.85631813696529,84.70336116124298L166.01044762108305,99.50390903286372z" style="fill:rgb(247,158,158)"/><path d="M164.11491095142716,97.23432814340019L45.84344549980588,115.13949834545177L46.18216834519151,123.68269971483217z" style="fill:rgb(83,212,212)"/><path d="M163.80736145300273,89.07350763724024L46.734814594086345,115.60776077156618L163.4250209107193,89.21137070387891z" style="fill:rgb(99,251,114)"/><path d="M166.52819866989518,92.79594418446402L166.01044762108305,99.50390903286372L166.70501846395695,94.86370558864094z" style="fill:rgb(247,158,158)"/><path d="M47.4783903817435,115.38959595788096L165.24872337439928,99.01820251653432L163.80736145300273,89.07350763724024z" style="fill:rgb(83,212,212)"/><path d="M47.19355764173074,124.78802227227852L164.12848961737103,97.26294703863813L46.20090842484967,123.70927741960983z" style="fill:rgb(140,15,187)"/><path d="M166.70501846395695,94.86370558864094L166.01044762108305,99.50390903286372L166.76950392836844,96.58797584270503z" style="fill:rgb(247,158,158)"/><path d="M163.37359749485532,95.6730444830951L44.8401179248723,113.99810122783596L45.15978537205015,122.23297250537773z" style="fill:rgb(83,212,212)"/><path d="M164.0257030454387,86.76667256427548L166.01044762108305,99.50390903286372L163.85631813696529,84.70336116124298z" style="fill:rgb(247,158,158)"/><path d="M165.39773196563905,99.2103494187286L48.95976204381283,125.68601010225258L165.89000458312623,99.5374469531176z" style="fill:rgb(150,5,158)"/><path d="M46.734814594086345,115.60776077156618L164.7447972209855,98.33958802359098L163.4250209107193,89.21137070387891z" style="fill:rgb(83,212,212)"/><path d="M46.20090842484967,123.70927741960983L163.37065250562037,95.66684214502843L45.155723257361174,122.22720072496982z" style="fill:rgb(135,23,200)"/><path d="M166.76950392836844,96.58797584270503L166.01044762108305,99.50390903286372L166.71966072923868,97.93909858917448z" style="fill:rgb(247,158,158)"/><path d="M162.54602393158686,93.68420947267605L43.76609393295247,112.22594245944713L44.0748789593105,120.36316302526612z" style="fill:rgb(83,212,212)"/><path d="M164.00975053007667,88.24519111187001L165.88217329280522,99.53225125512637L164.0257030454387,86.76667256427548zM166.71966072923868,97.93909858917448L166.01044762108305,99.50390903286372L166.55517954946922,98.89256717276058z" style="fill:rgb(247,158,158)"/><path d="M45.155723257361174,122.22720072496982L162.54602393158686,93.68420947267605L44.0748789593105,120.36316302526612z" style="fill:rgb(130,32,212)"/><path d="M45.84344549980588,115.13949834545177L164.11491095142716,97.23432814340019L162.87678746878814,88.64633313461626z" style="fill:rgb(83,212,212)"/><path d="M164.80765184302234,98.44938542280445L48.11794654948973,125.44925733372104L165.39773196563905,99.2103494187286z" style="fill:rgb(146,9,173)"/><path d="M166.01044762108305,99.50390903286372L164.0257030454387,86.76667256427548L165.88217329280522,99.53225125512637zM163.80736145300273,89.07350763724024L165.62398091685156,99.36069048770938L164.00975053007667,88.24519111187001zM166.55517954946922,98.89256717276058L166.01044762108305,99.50390903286372L166.27752767272372,99.42954317778899z" style="fill:rgb(247,158,158)"/><path d="M44.8401179248723,113.99810122783596L163.37359749485532,95.6730444830951L162.18397499293678,87.39538714573288z" style="fill:rgb(83,212,212)"/><path d="M164.12848961737103,97.26294703863813L47.19355764173074,124.78802227227852L164.80765184302234,98.44938542280445z" style="fill:rgb(140,15,187)"/><path d="M165.88217329280522,99.53225125512637L164.00975053007667,88.24519111187001L165.62398091685156,99.36069048770938zM166.01044762108305,99.50390903286372L165.88217329280522,99.53225125512637L165.89000458312623,99.5374469531176zM164.7447972209855,98.33958802359098L163.80736145300273,89.07350763724024L163.4250209107193,89.21137070387891z" style="fill:rgb(247,158,158)"/><path d="M43.76609393295247,112.22594245944713L162.54602393158686,93.68420947267605L161.37449798202613,85.50530309924879z" style="fill:rgb(83,212,212)"/><path d="M165.62398091685156,99.36069048770938L163.80736145300273,89.07350763724024L165.24872337439928,99.01820251653432z" style="fill:rgb(247,158,158)"/><path d="M163.37065250562037,95.66684214502843L46.20090842484967,123.70927741960983L164.12848961737103,97.26294703863813z" style="fill:rgb(135,23,200)"/><path d="M163.80736145300273,89.07350763724024L164.7447972209855,98.33958802359098L165.24872337439928,99.01820251653432zM165.62398091685156,99.36069048770938L165.24872337439928,99.01820251653432L165.39773196563905,99.2103494187286zM164.11491095142716,97.23432814340019L163.4250209107193,89.21137070387891L162.87678746878814,88.64633313461626z" style="fill:rgb(247,158,158)"/><path d="M162.54602393158686,93.68420947267605L45.155723257361174,122.22720072496982L163.37065250562037,95.66684214502843z" style="fill:rgb(130,32,212)"/><path d="M163.4250209107193,89.21137070387891L164.11491095142716,97.23432814340019L164.7447972209855,98.33958802359098zM165.24872337439928,99.01820251653432L164.7447972209855,98.33958802359098L164.80765184302234,98.44938542280445zM163.37359749485532,95.6730444830951L162.87678746878814,88.64633313461626L162.18397499293678,87.39538714573288zM162.87678746878814,88.64633313461626L163.37359749485532,95.6730444830951L164.11491095142716,97.23432814340019zM164.7447972209855,98.33958802359098L164.11491095142716,97.23432814340019L164.12848961737103,97.26294703863813zM162.54602393158686,93.68420947267605L162.18397499293678,87.39538714573288L161.37449798202613,85.50530309924879zM162.18397499293678,87.39538714573288L162.54602393158686,93.68420947267605L163.37359749485532,95.6730444830951zM163.37359749485532,95.6730444830951L162.54602393158686,93.68420947267605L163.37065250562037,95.66684214502843z" style="fill:rgb(247,158,158)"/></svg>
