solid JSxCAD
facet normal -0.25881977290038316 0.9659256312759249 0
outer loop
vertex 34 -23.73205 -3
vertex 33 -24 0
vertex 34 -23.73205 0
endloop
endfacet
facet normal -0.25881977290038316 0.9659256312759249 0
outer loop
vertex 33 -24 0
vertex 34 -23.73205 -3
vertex 33 -24 -3
endloop
endfacet
facet normal -0.7071067811865498 0.7071067811865452 0
outer loop
vertex 34.73205 -23 0
vertex 34 -23.73205 -3
vertex 34 -23.73205 0
endloop
endfacet
facet normal -0.7071067811865451 0.7071067811865497 0
outer loop
vertex 34 -23.73205 -3
vertex 34.73205 -23 0
vertex 34.73205 -23 -3
endloop
endfacet
facet normal -0.9659256312759237 0.2588197729003874 0
outer loop
vertex 35 -22 -3
vertex 34.73205 -23 0
vertex 35 -22 0
endloop
endfacet
facet normal -0.9659256312759261 0.2588197729003789 0
outer loop
vertex 34.73205 -23 0
vertex 35 -22 -3
vertex 34.73205 -23 -3
endloop
endfacet
facet normal -0.9659256312759261 -0.2588197729003789 0
outer loop
vertex 34.73205 -21 -3
vertex 35 -22 0
vertex 34.73205 -21 0
endloop
endfacet
facet normal -0.9659256312759237 -0.2588197729003874 0
outer loop
vertex 35 -22 0
vertex 34.73205 -21 -3
vertex 35 -22 -3
endloop
endfacet
facet normal -0.7071067811865498 -0.7071067811865452 0
outer loop
vertex 34 -20.26795 -3
vertex 34.73205 -21 0
vertex 34 -20.26795 0
endloop
endfacet
facet normal -0.7071067811865451 -0.7071067811865497 0
outer loop
vertex 34.73205 -21 0
vertex 34 -20.26795 -3
vertex 34.73205 -21 -3
endloop
endfacet
facet normal -0.25881977290038316 -0.9659256312759249 0
outer loop
vertex 33 -20 -3
vertex 34 -20.26795 0
vertex 33 -20 0
endloop
endfacet
facet normal -0.25881977290038316 -0.9659256312759249 0
outer loop
vertex 34 -20.26795 0
vertex 33 -20 -3
vertex 34 -20.26795 -3
endloop
endfacet
facet normal 0.25881977290038316 -0.9659256312759249 0
outer loop
vertex 32 -20.26795 0
vertex 33 -20 -3
vertex 33 -20 0
endloop
endfacet
facet normal 0.25881977290038316 -0.9659256312759249 0
outer loop
vertex 33 -20 -3
vertex 32 -20.26795 0
vertex 32 -20.26795 -3
endloop
endfacet
facet normal 0.7071067811865451 -0.7071067811865497 0
outer loop
vertex 31.26795 -21 -3
vertex 32 -20.26795 0
vertex 31.26795 -21 0
endloop
endfacet
facet normal 0.7071067811865498 -0.7071067811865452 0
outer loop
vertex 32 -20.26795 0
vertex 31.26795 -21 -3
vertex 32 -20.26795 -3
endloop
endfacet
facet normal 0.9659256312759261 -0.2588197729003789 0
outer loop
vertex 31 -22 0
vertex 31.26795 -21 -3
vertex 31.26795 -21 0
endloop
endfacet
facet normal 0.9659256312759237 -0.2588197729003874 0
outer loop
vertex 31.26795 -21 -3
vertex 31 -22 0
vertex 31 -22 -3
endloop
endfacet
facet normal 0.9659256312759261 0.2588197729003789 0
outer loop
vertex 31.26795 -23 -3
vertex 31 -22 0
vertex 31.26795 -23 0
endloop
endfacet
facet normal 0.9659256312759237 0.2588197729003874 0
outer loop
vertex 31 -22 0
vertex 31.26795 -23 -3
vertex 31 -22 -3
endloop
endfacet
facet normal 0.7071067811865498 0.7071067811865452 0
outer loop
vertex 32 -23.73205 -3
vertex 31.26795 -23 0
vertex 32 -23.73205 0
endloop
endfacet
facet normal 0.7071067811865451 0.7071067811865497 0
outer loop
vertex 31.26795 -23 0
vertex 32 -23.73205 -3
vertex 31.26795 -23 -3
endloop
endfacet
facet normal 0.25881977290038316 0.9659256312759249 0
outer loop
vertex 33 -24 -3
vertex 32 -23.73205 0
vertex 33 -24 0
endloop
endfacet
facet normal 0.25881977290038316 0.9659256312759249 0
outer loop
vertex 32 -23.73205 0
vertex 33 -24 -3
vertex 32 -23.73205 -3
endloop
endfacet
facet normal -0.25881977290038316 0.9659256312759249 0
outer loop
vertex -30 -23.73205 -3
vertex -31 -24 0
vertex -30 -23.73205 0
endloop
endfacet
facet normal -0.25881977290038316 0.9659256312759249 0
outer loop
vertex -31 -24 0
vertex -30 -23.73205 -3
vertex -31 -24 -3
endloop
endfacet
facet normal -0.7071067811865451 0.7071067811865497 0
outer loop
vertex -29.26795 -23 -3
vertex -30 -23.73205 0
vertex -29.26795 -23 0
endloop
endfacet
facet normal -0.7071067811865498 0.7071067811865452 0
outer loop
vertex -30 -23.73205 0
vertex -29.26795 -23 -3
vertex -30 -23.73205 -3
endloop
endfacet
facet normal -0.9659256312759237 0.2588197729003874 0
outer loop
vertex -29 -22 -3
vertex -29.26795 -23 0
vertex -29 -22 0
endloop
endfacet
facet normal -0.9659256312759261 0.2588197729003789 0
outer loop
vertex -29.26795 -23 0
vertex -29 -22 -3
vertex -29.26795 -23 -3
endloop
endfacet
facet normal -0.9659256312759261 -0.2588197729003789 0
outer loop
vertex -29.26795 -21 -3
vertex -29 -22 0
vertex -29.26795 -21 0
endloop
endfacet
facet normal -0.9659256312759237 -0.2588197729003874 0
outer loop
vertex -29 -22 0
vertex -29.26795 -21 -3
vertex -29 -22 -3
endloop
endfacet
facet normal -0.7071067811865451 -0.7071067811865497 0
outer loop
vertex -30 -20.26795 0
vertex -29.26795 -21 -3
vertex -29.26795 -21 0
endloop
endfacet
facet normal -0.7071067811865498 -0.7071067811865452 0
outer loop
vertex -29.26795 -21 -3
vertex -30 -20.26795 0
vertex -30 -20.26795 -3
endloop
endfacet
facet normal -0.25881977290038316 -0.9659256312759249 0
outer loop
vertex -31 -20 -3
vertex -30 -20.26795 0
vertex -31 -20 0
endloop
endfacet
facet normal -0.25881977290038316 -0.9659256312759249 0
outer loop
vertex -30 -20.26795 0
vertex -31 -20 -3
vertex -30 -20.26795 -3
endloop
endfacet
facet normal 0.25881977290038316 -0.9659256312759249 0
outer loop
vertex -32 -20.26795 -3
vertex -31 -20 0
vertex -32 -20.26795 0
endloop
endfacet
facet normal 0.25881977290038316 -0.9659256312759249 0
outer loop
vertex -31 -20 0
vertex -32 -20.26795 -3
vertex -31 -20 -3
endloop
endfacet
facet normal 0.7071067811865451 -0.7071067811865497 0
outer loop
vertex -32.73205 -21 -3
vertex -32 -20.26795 0
vertex -32.73205 -21 0
endloop
endfacet
facet normal 0.7071067811865498 -0.7071067811865452 0
outer loop
vertex -32 -20.26795 0
vertex -32.73205 -21 -3
vertex -32 -20.26795 -3
endloop
endfacet
facet normal 0.9659256312759261 -0.2588197729003789 0
outer loop
vertex -33 -22 0
vertex -32.73205 -21 -3
vertex -32.73205 -21 0
endloop
endfacet
facet normal 0.9659256312759237 -0.2588197729003874 0
outer loop
vertex -32.73205 -21 -3
vertex -33 -22 0
vertex -33 -22 -3
endloop
endfacet
facet normal 0.9659256312759261 0.2588197729003789 0
outer loop
vertex -32.73205 -23 -3
vertex -33 -22 0
vertex -32.73205 -23 0
endloop
endfacet
facet normal 0.9659256312759237 0.2588197729003874 0
outer loop
vertex -33 -22 0
vertex -32.73205 -23 -3
vertex -33 -22 -3
endloop
endfacet
facet normal 0.7071067811865451 0.7071067811865497 0
outer loop
vertex -32 -23.73205 0
vertex -32.73205 -23 -3
vertex -32.73205 -23 0
endloop
endfacet
facet normal 0.7071067811865498 0.7071067811865452 0
outer loop
vertex -32.73205 -23 -3
vertex -32 -23.73205 0
vertex -32 -23.73205 -3
endloop
endfacet
facet normal 0.25881977290038316 0.9659256312759249 0
outer loop
vertex -31 -24 -3
vertex -32 -23.73205 0
vertex -31 -24 0
endloop
endfacet
facet normal 0.25881977290038316 0.9659256312759249 0
outer loop
vertex -32 -23.73205 0
vertex -31 -24 -3
vertex -32 -23.73205 -3
endloop
endfacet
facet normal -0.25881977290038316 0.9659256312759249 0
outer loop
vertex -1 20.26795 -3
vertex -2 20 0
vertex -1 20.26795 0
endloop
endfacet
facet normal -0.25881977290038316 0.9659256312759249 0
outer loop
vertex -2 20 0
vertex -1 20.26795 -3
vertex -2 20 -3
endloop
endfacet
facet normal -0.7071067811865481 0.7071067811865469 0
outer loop
vertex -0.26795 21 -3
vertex -1 20.26795 0
vertex -0.26795 21 0
endloop
endfacet
facet normal -0.707106781186548 0.7071067811865471 0
outer loop
vertex -1 20.26795 0
vertex -0.26795 21 -3
vertex -1 20.26795 -3
endloop
endfacet
facet normal -0.9659256312759248 0.25881977290038405 0
outer loop
vertex 0 22 -3
vertex -0.26795 21 0
vertex 0 22 0
endloop
endfacet
facet normal -0.9659256312759248 0.25881977290038405 0
outer loop
vertex -0.26795 21 0
vertex 0 22 -3
vertex -0.26795 21 -3
endloop
endfacet
facet normal -0.9659256312759248 -0.25881977290038405 0
outer loop
vertex -0.26795 23 0
vertex 0 22 -3
vertex 0 22 0
endloop
endfacet
facet normal -0.9659256312759248 -0.25881977290038405 0
outer loop
vertex 0 22 -3
vertex -0.26795 23 0
vertex -0.26795 23 -3
endloop
endfacet
facet normal -0.707106781186548 -0.7071067811865471 0
outer loop
vertex -1 23.73205 -3
vertex -0.26795 23 0
vertex -1 23.73205 0
endloop
endfacet
facet normal -0.7071067811865481 -0.7071067811865469 0
outer loop
vertex -0.26795 23 0
vertex -1 23.73205 -3
vertex -0.26795 23 -3
endloop
endfacet
facet normal -0.25881977290038316 -0.9659256312759249 0
outer loop
vertex -2 24 -3
vertex -1 23.73205 0
vertex -2 24 0
endloop
endfacet
facet normal -0.25881977290038316 -0.9659256312759249 0
outer loop
vertex -1 23.73205 0
vertex -2 24 -3
vertex -1 23.73205 -3
endloop
endfacet
facet normal 0.25881977290038316 -0.9659256312759249 0
outer loop
vertex -3 23.73205 -3
vertex -2 24 0
vertex -3 23.73205 0
endloop
endfacet
facet normal 0.25881977290038316 -0.9659256312759249 0
outer loop
vertex -2 24 0
vertex -3 23.73205 -3
vertex -2 24 -3
endloop
endfacet
facet normal 0.7071067811865481 -0.7071067811865469 0
outer loop
vertex -3.73205 23 -3
vertex -3 23.73205 0
vertex -3.73205 23 0
endloop
endfacet
facet normal 0.7071067811865481 -0.7071067811865469 0
outer loop
vertex -3 23.73205 0
vertex -3.73205 23 -3
vertex -3 23.73205 -3
endloop
endfacet
facet normal 0.9659256312759248 -0.2588197729003842 0
outer loop
vertex -4 22 -3
vertex -3.73205 23 0
vertex -4 22 0
endloop
endfacet
facet normal 0.9659256312759248 -0.2588197729003842 0
outer loop
vertex -3.73205 23 0
vertex -4 22 -3
vertex -3.73205 23 -3
endloop
endfacet
facet normal 0.9659256312759248 0.2588197729003842 0
outer loop
vertex -3.73205 21 -3
vertex -4 22 0
vertex -3.73205 21 0
endloop
endfacet
facet normal 0.9659256312759248 0.2588197729003842 0
outer loop
vertex -4 22 0
vertex -3.73205 21 -3
vertex -4 22 -3
endloop
endfacet
facet normal 0.7071067811865481 0.7071067811865469 0
outer loop
vertex -3 20.26795 -3
vertex -3.73205 21 0
vertex -3 20.26795 0
endloop
endfacet
facet normal 0.7071067811865481 0.7071067811865469 0
outer loop
vertex -3.73205 21 0
vertex -3 20.26795 -3
vertex -3.73205 21 -3
endloop
endfacet
facet normal 0.25881977290038316 0.9659256312759249 0
outer loop
vertex -2 20 0
vertex -3 20.26795 -3
vertex -3 20.26795 0
endloop
endfacet
facet normal 0.25881977290038316 0.9659256312759249 0
outer loop
vertex -3 20.26795 -3
vertex -2 20 0
vertex -2 20 -3
endloop
endfacet
facet normal -1 0 0
outer loop
vertex -50 24 -3
vertex -50 50 0
vertex -50 50 -3
endloop
endfacet
facet normal -1 0 0
outer loop
vertex -50 24 -3
vertex -50 24 0
vertex -50 50 0
endloop
endfacet
facet normal -1 0 0
outer loop
vertex -50 23.73205 -3
vertex -50 24 0
vertex -50 24 -3
endloop
endfacet
facet normal -1 0 0
outer loop
vertex -50 23.73205 -3
vertex -50 23.73205 0
vertex -50 24 0
endloop
endfacet
facet normal -1 0 0
outer loop
vertex -50 23 -3
vertex -50 23.73205 0
vertex -50 23.73205 -3
endloop
endfacet
facet normal -1 0 0
outer loop
vertex -50 23 -3
vertex -50 22 0
vertex -50 23.73205 0
endloop
endfacet
facet normal -1 0 0
outer loop
vertex -50 21 -3
vertex -50 22 0
vertex -50 23 -3
endloop
endfacet
facet normal -1 0 0
outer loop
vertex -50 21 -3
vertex -50 21 0
vertex -50 22 0
endloop
endfacet
facet normal -1 0 0
outer loop
vertex -50 20.26795 -3
vertex -50 21 0
vertex -50 21 -3
endloop
endfacet
facet normal -1 0 0
outer loop
vertex -50 20.26795 -3
vertex -50 20.26795 0
vertex -50 21 0
endloop
endfacet
facet normal -1 0 0
outer loop
vertex -50 20 -3
vertex -50 20.26795 0
vertex -50 20.26795 -3
endloop
endfacet
facet normal -1 0 0
outer loop
vertex -50 20 -3
vertex -50 20 0
vertex -50 20.26795 0
endloop
endfacet
facet normal -1 0 0
outer loop
vertex -50 15 -3
vertex -50 20 0
vertex -50 20 -3
endloop
endfacet
facet normal -1 0 0
outer loop
vertex -50 15 -3
vertex -50 15 0
vertex -50 20 0
endloop
endfacet
facet normal -1 0 0
outer loop
vertex -50 -15 -3
vertex -50 15 0
vertex -50 15 -3
endloop
endfacet
facet normal -1 0 0
outer loop
vertex -50 -15 -3
vertex -50 -15 0
vertex -50 15 0
endloop
endfacet
facet normal -1 0 0
outer loop
vertex -50 -15 -3
vertex -50 -20 0
vertex -50 -15 0
endloop
endfacet
facet normal -1 0 0
outer loop
vertex -50 -20.26795 -3
vertex -50 -20 0
vertex -50 -15 -3
endloop
endfacet
facet normal -1 0 0
outer loop
vertex -50 -20.26795 -3
vertex -50 -20.26795 0
vertex -50 -20 0
endloop
endfacet
facet normal -1 0 0
outer loop
vertex -50 -20.26795 -3
vertex -50 -21 0
vertex -50 -20.26795 0
endloop
endfacet
facet normal -1 0 0
outer loop
vertex -50 -21 -3
vertex -50 -21 0
vertex -50 -20.26795 -3
endloop
endfacet
facet normal -1 0 0
outer loop
vertex -50 -21 -3
vertex -50 -23 0
vertex -50 -21 0
endloop
endfacet
facet normal -1 0 0
outer loop
vertex -50 -21 -3
vertex -50 -23.73205 0
vertex -50 -23 0
endloop
endfacet
facet normal -1 0 0
outer loop
vertex -50 -24 -3
vertex -50 -23.73205 0
vertex -50 -21 -3
endloop
endfacet
facet normal -1 0 0
outer loop
vertex -50 -24 -3
vertex -50 -24 0
vertex -50 -23.73205 0
endloop
endfacet
facet normal -1 0 0
outer loop
vertex -50 -50 -3
vertex -50 -24 0
vertex -50 -24 -3
endloop
endfacet
facet normal -1 0 0
outer loop
vertex -50 -24 0
vertex -50 -50 -3
vertex -50 -50 0
endloop
endfacet
facet normal 1 0 0
outer loop
vertex 50 50 0
vertex 50 24 -3
vertex 50 50 -3
endloop
endfacet
facet normal 1 0 0
outer loop
vertex 50 24 0
vertex 50 24 -3
vertex 50 50 0
endloop
endfacet
facet normal 1 0 0
outer loop
vertex 50 23.73205 0
vertex 50 24 -3
vertex 50 24 0
endloop
endfacet
facet normal 1 0 0
outer loop
vertex 50 23.73205 0
vertex 50 23.73205 -3
vertex 50 24 -3
endloop
endfacet
facet normal 1 0 0
outer loop
vertex 50 23.73205 0
vertex 50 23 -3
vertex 50 23.73205 -3
endloop
endfacet
facet normal 1 0 0
outer loop
vertex 50 22 0
vertex 50 23 -3
vertex 50 23.73205 0
endloop
endfacet
facet normal 1 0 0
outer loop
vertex 50 21 0
vertex 50 23 -3
vertex 50 22 0
endloop
endfacet
facet normal 1 0 0
outer loop
vertex 50 21 0
vertex 50 21 -3
vertex 50 23 -3
endloop
endfacet
facet normal 1 0 0
outer loop
vertex 50 21 0
vertex 50 20.26795 -3
vertex 50 21 -3
endloop
endfacet
facet normal 1 0 0
outer loop
vertex 50 20.26795 0
vertex 50 20.26795 -3
vertex 50 21 0
endloop
endfacet
facet normal 1 0 0
outer loop
vertex 50 20 0
vertex 50 20.26795 -3
vertex 50 20.26795 0
endloop
endfacet
facet normal 1 0 0
outer loop
vertex 50 20 0
vertex 50 20 -3
vertex 50 20.26795 -3
endloop
endfacet
facet normal 1 0 0
outer loop
vertex 50 15 0
vertex 50 20 -3
vertex 50 20 0
endloop
endfacet
facet normal 1 0 0
outer loop
vertex 50 15 0
vertex 50 15 -3
vertex 50 20 -3
endloop
endfacet
facet normal 1 0 0
outer loop
vertex 50 -15 0
vertex 50 15 -3
vertex 50 15 0
endloop
endfacet
facet normal 1 0 0
outer loop
vertex 50 -15 0
vertex 50 -15 -3
vertex 50 15 -3
endloop
endfacet
facet normal 1 0 0
outer loop
vertex 50 -20 0
vertex 50 -15 -3
vertex 50 -15 0
endloop
endfacet
facet normal 1 0 0
outer loop
vertex 50 -20 0
vertex 50 -20.26795 -3
vertex 50 -15 -3
endloop
endfacet
facet normal 1 0 0
outer loop
vertex 50 -20.26795 0
vertex 50 -20.26795 -3
vertex 50 -20 0
endloop
endfacet
facet normal 1 0 0
outer loop
vertex 50 -21 0
vertex 50 -20.26795 -3
vertex 50 -20.26795 0
endloop
endfacet
facet normal 1 0 0
outer loop
vertex 50 -21 0
vertex 50 -21 -3
vertex 50 -20.26795 -3
endloop
endfacet
facet normal 1 0 0
outer loop
vertex 50 -23 0
vertex 50 -21 -3
vertex 50 -21 0
endloop
endfacet
facet normal 1 0 0
outer loop
vertex 50 -23.73205 0
vertex 50 -21 -3
vertex 50 -23 0
endloop
endfacet
facet normal 1 0 0
outer loop
vertex 50 -24 0
vertex 50 -21 -3
vertex 50 -23.73205 0
endloop
endfacet
facet normal 1 0 0
outer loop
vertex 50 -24 0
vertex 50 -24 -3
vertex 50 -21 -3
endloop
endfacet
facet normal 1 0 0
outer loop
vertex 50 -50 0
vertex 50 -24 -3
vertex 50 -24 0
endloop
endfacet
facet normal 1 0 0
outer loop
vertex 50 -24 -3
vertex 50 -50 0
vertex 50 -50 -3
endloop
endfacet
facet normal 0 -1 0
outer loop
vertex 50 -50 0
vertex -50 -50 -3
vertex 50 -50 -3
endloop
endfacet
facet normal 0 -1 0
outer loop
vertex -50 -50 -3
vertex 50 -50 0
vertex -50 -50 0
endloop
endfacet
facet normal 0 0 -1
outer loop
vertex -2 24 -3
vertex 50 50 -3
vertex 50 24 -3
endloop
endfacet
facet normal 0 0 -1
outer loop
vertex -2 24 -3
vertex -50 50 -3
vertex 50 50 -3
endloop
endfacet
facet normal 0 0 -1
outer loop
vertex -50 50 -3
vertex -2 24 -3
vertex -50 24 -3
endloop
endfacet
facet normal 0 0 -1
outer loop
vertex -50 23.73205 -3
vertex -2 24 -3
vertex -3 23.73205 -3
endloop
endfacet
facet normal 0 0 -1
outer loop
vertex -2 24 -3
vertex -50 23.73205 -3
vertex -50 24 -3
endloop
endfacet
facet normal 0 0 -1
outer loop
vertex 34.73205 -21 -3
vertex 50 -20.26795 -3
vertex 50 -21 -3
endloop
endfacet
facet normal 0 0 -1
outer loop
vertex 50 -20.26795 -3
vertex 34.73205 -21 -3
vertex 34 -20.26795 -3
endloop
endfacet
facet normal 0 0 -1
outer loop
vertex 35 -22 -3
vertex 50 -21 -3
vertex 50 -22 -3
endloop
endfacet
facet normal 0 0 -1
outer loop
vertex 50 -21 -3
vertex 35 -22 -3
vertex 34.73205 -21 -3
endloop
endfacet
facet normal 0 0 -1
outer loop
vertex 34 -20.26795 -3
vertex 50 -20 -3
vertex 50 -20.26795 -3
endloop
endfacet
facet normal 0 0 -1
outer loop
vertex 50 -20 -3
vertex 34 -20.26795 -3
vertex 33 -20 -3
endloop
endfacet
facet normal 0 0 -1
outer loop
vertex 33 -20 -3
vertex 50 20 -3
vertex 50 -20 -3
endloop
endfacet
facet normal 0 0 -1
outer loop
vertex 33 -20 -3
vertex -2 20 -3
vertex 50 20 -3
endloop
endfacet
facet normal 0 0 -1
outer loop
vertex -31 -20 -3
vertex -2 20 -3
vertex 33 -20 -3
endloop
endfacet
facet normal 0 0 -1
outer loop
vertex -50 15 -3
vertex -2 20 -3
vertex -31 -20 -3
endloop
endfacet
facet normal 0 0 -1
outer loop
vertex -2 20 -3
vertex -50 15 -3
vertex -50 20 -3
endloop
endfacet
facet normal 0 0 -1
outer loop
vertex 50 20.26795 -3
vertex -0.26795 21 -3
vertex 50 21 -3
endloop
endfacet
facet normal 0 0 -1
outer loop
vertex -0.26795 21 -3
vertex 50 20.26795 -3
vertex -1 20.26795 -3
endloop
endfacet
facet normal 0 0 -1
outer loop
vertex 50 20 -3
vertex -1 20.26795 -3
vertex 50 20.26795 -3
endloop
endfacet
facet normal 0 0 -1
outer loop
vertex -1 20.26795 -3
vertex 50 20 -3
vertex -2 20 -3
endloop
endfacet
facet normal 0 0 -1
outer loop
vertex 50 21 -3
vertex 0 22 -3
vertex 50 22 -3
endloop
endfacet
facet normal 0 0 -1
outer loop
vertex 0 22 -3
vertex 50 21 -3
vertex -0.26795 21 -3
endloop
endfacet
facet normal 0 0 -1
outer loop
vertex -0.26795 23 -3
vertex 50 23.73205 -3
vertex 50 23 -3
endloop
endfacet
facet normal 0 0 -1
outer loop
vertex 50 23.73205 -3
vertex -0.26795 23 -3
vertex -1 23.73205 -3
endloop
endfacet
facet normal 0 0 -1
outer loop
vertex 0 22 -3
vertex 50 23 -3
vertex 50 22 -3
endloop
endfacet
facet normal 0 0 -1
outer loop
vertex 50 23 -3
vertex 0 22 -3
vertex -0.26795 23 -3
endloop
endfacet
facet normal 0 0 -1
outer loop
vertex -1 23.73205 -3
vertex 50 24 -3
vertex 50 23.73205 -3
endloop
endfacet
facet normal 0 0 -1
outer loop
vertex 50 24 -3
vertex -1 23.73205 -3
vertex -2 24 -3
endloop
endfacet
facet normal 0 0 -1
outer loop
vertex 31.26795 -23 -3
vertex -29 -22 -3
vertex 31 -22 -3
endloop
endfacet
facet normal 0 0 -1
outer loop
vertex -29 -22 -3
vertex 31.26795 -23 -3
vertex -29.26795 -23 -3
endloop
endfacet
facet normal 0 0 -1
outer loop
vertex -50 20 -3
vertex -3 20.26795 -3
vertex -2 20 -3
endloop
endfacet
facet normal 0 0 -1
outer loop
vertex -3 20.26795 -3
vertex -50 20 -3
vertex -50 20.26795 -3
endloop
endfacet
facet normal 0 0 -1
outer loop
vertex -50 23 -3
vertex -3 23.73205 -3
vertex -3.73205 23 -3
endloop
endfacet
facet normal 0 0 -1
outer loop
vertex -3 23.73205 -3
vertex -50 23 -3
vertex -50 23.73205 -3
endloop
endfacet
facet normal 0 0 -1
outer loop
vertex -50 22 -3
vertex -3.73205 23 -3
vertex -4 22 -3
endloop
endfacet
facet normal 0 0 -0.9999999999999999
outer loop
vertex -3.73205 23 -3
vertex -50 22 -3
vertex -50 23 -3
endloop
endfacet
facet normal 0 0 -1
outer loop
vertex -50 21 -3
vertex -4 22 -3
vertex -3.73205 21 -3
endloop
endfacet
facet normal 0 0 -1
outer loop
vertex -4 22 -3
vertex -50 21 -3
vertex -50 22 -3
endloop
endfacet
facet normal 0 0 -1
outer loop
vertex -50 20.26795 -3
vertex -3.73205 21 -3
vertex -3 20.26795 -3
endloop
endfacet
facet normal 0 0 -1
outer loop
vertex -3.73205 21 -3
vertex -50 20.26795 -3
vertex -50 21 -3
endloop
endfacet
facet normal 0 0 -1
outer loop
vertex -30 -20.26795 -3
vertex 33 -20 -3
vertex 32 -20.26795 -3
endloop
endfacet
facet normal 0 0 -1
outer loop
vertex 33 -20 -3
vertex -30 -20.26795 -3
vertex -31 -20 -3
endloop
endfacet
facet normal 0 0 -0.9999999999999999
outer loop
vertex -29.26795 -21 -3
vertex 32 -20.26795 -3
vertex 31.26795 -21 -3
endloop
endfacet
facet normal 0 0 -1
outer loop
vertex 32 -20.26795 -3
vertex -29.26795 -21 -3
vertex -30 -20.26795 -3
endloop
endfacet
facet normal 0 0 -0.9999999999999999
outer loop
vertex 32 -23.73205 -3
vertex -29.26795 -23 -3
vertex 31.26795 -23 -3
endloop
endfacet
facet normal 0 0 -1
outer loop
vertex -29.26795 -23 -3
vertex 32 -23.73205 -3
vertex -30 -23.73205 -3
endloop
endfacet
facet normal 0 0 -1
outer loop
vertex 50 -50 -3
vertex 33 -24 -3
vertex 50 -24 -3
endloop
endfacet
facet normal 0 0 -1
outer loop
vertex 50 -50 -3
vertex -31 -24 -3
vertex 33 -24 -3
endloop
endfacet
facet normal 0 0 -1
outer loop
vertex -50 -50 -3
vertex -31 -24 -3
vertex 50 -50 -3
endloop
endfacet
facet normal 0 0 -1
outer loop
vertex -31 -24 -3
vertex -50 -50 -3
vertex -50 -24 -3
endloop
endfacet
facet normal 0 0 -1
outer loop
vertex 33 -24 -3
vertex -30 -23.73205 -3
vertex 32 -23.73205 -3
endloop
endfacet
facet normal 0 0 -1
outer loop
vertex -30 -23.73205 -3
vertex 33 -24 -3
vertex -31 -24 -3
endloop
endfacet
facet normal 0 0 -0.9999999999999999
outer loop
vertex -29 -22 -3
vertex 31.26795 -21 -3
vertex 31 -22 -3
endloop
endfacet
facet normal 0 0 -1
outer loop
vertex 31.26795 -21 -3
vertex -29 -22 -3
vertex -29.26795 -21 -3
endloop
endfacet
facet normal 0 0 -1
outer loop
vertex 50 -23.73205 -3
vertex 34.73205 -23 -3
vertex 50 -23 -3
endloop
endfacet
facet normal 0 0 -1
outer loop
vertex 34.73205 -23 -3
vertex 50 -23.73205 -3
vertex 34 -23.73205 -3
endloop
endfacet
facet normal 0 0 -1
outer loop
vertex 50 -24 -3
vertex 34 -23.73205 -3
vertex 50 -23.73205 -3
endloop
endfacet
facet normal 0 0 -1
outer loop
vertex 34 -23.73205 -3
vertex 50 -24 -3
vertex 33 -24 -3
endloop
endfacet
facet normal 0 0 -1
outer loop
vertex 50 -23 -3
vertex 35 -22 -3
vertex 50 -22 -3
endloop
endfacet
facet normal 0 0 -1
outer loop
vertex 35 -22 -3
vertex 50 -23 -3
vertex 34.73205 -23 -3
endloop
endfacet
facet normal 0 0 -1
outer loop
vertex -50 -23 -3
vertex -33 -22 -3
vertex -32.73205 -23 -3
endloop
endfacet
facet normal 0 0 -1
outer loop
vertex -33 -22 -3
vertex -50 -23 -3
vertex -50 -22 -3
endloop
endfacet
facet normal 0 0 -1
outer loop
vertex -31 -20 -3
vertex -50 -20 -3
vertex -50 15 -3
endloop
endfacet
facet normal 0 0 -1
outer loop
vertex -50 -20.26795 -3
vertex -31 -20 -3
vertex -32 -20.26795 -3
endloop
endfacet
facet normal 0 0 -1
outer loop
vertex -31 -20 -3
vertex -50 -20.26795 -3
vertex -50 -20 -3
endloop
endfacet
facet normal 0 0 -1
outer loop
vertex -50 -21 -3
vertex -32 -20.26795 -3
vertex -32.73205 -21 -3
endloop
endfacet
facet normal 0 0 -1
outer loop
vertex -32 -20.26795 -3
vertex -50 -21 -3
vertex -50 -20.26795 -3
endloop
endfacet
facet normal 0 0 -1
outer loop
vertex -50 -24 -3
vertex -32 -23.73205 -3
vertex -31 -24 -3
endloop
endfacet
facet normal 0 0 -1
outer loop
vertex -32 -23.73205 -3
vertex -50 -24 -3
vertex -50 -23.73205 -3
endloop
endfacet
facet normal 0 0 -1
outer loop
vertex -50 -23.73205 -3
vertex -32.73205 -23 -3
vertex -32 -23.73205 -3
endloop
endfacet
facet normal 0 0 -1
outer loop
vertex -32.73205 -23 -3
vertex -50 -23.73205 -3
vertex -50 -23 -3
endloop
endfacet
facet normal 0 0 -1
outer loop
vertex -50 -22 -3
vertex -32.73205 -21 -3
vertex -33 -22 -3
endloop
endfacet
facet normal 0 0 -1
outer loop
vertex -32.73205 -21 -3
vertex -50 -22 -3
vertex -50 -21 -3
endloop
endfacet
facet normal 0 0 1
outer loop
vertex -50 -23.73205 0
vertex -31 -24 0
vertex -32 -23.73205 0
endloop
endfacet
facet normal 0 0 1
outer loop
vertex -31 -24 0
vertex -50 -23.73205 0
vertex -50 -24 0
endloop
endfacet
facet normal 0 0 1
outer loop
vertex -30 -23.73205 0
vertex 33 -24 0
vertex 32 -23.73205 0
endloop
endfacet
facet normal 0 0 1
outer loop
vertex 33 -24 0
vertex -30 -23.73205 0
vertex -31 -24 0
endloop
endfacet
facet normal 0 0 1
outer loop
vertex -29.26795 -23 0
vertex 32 -23.73205 0
vertex 31.26795 -23 0
endloop
endfacet
facet normal 0 0 0.9999999999999999
outer loop
vertex 32 -23.73205 0
vertex -29.26795 -23 0
vertex -30 -23.73205 0
endloop
endfacet
facet normal 0 0 0.9999999999999999
outer loop
vertex 32 -20.26795 0
vertex -29.26795 -21 0
vertex 31.26795 -21 0
endloop
endfacet
facet normal 0 0 1
outer loop
vertex -29.26795 -21 0
vertex 32 -20.26795 0
vertex -30 -20.26795 0
endloop
endfacet
facet normal 0 0 1
outer loop
vertex 50 20 0
vertex 33 -20 0
vertex 50 -20 0
endloop
endfacet
facet normal 0 0 1
outer loop
vertex -2 20 0
vertex 33 -20 0
vertex 50 20 0
endloop
endfacet
facet normal 0 0 1
outer loop
vertex -2 20 0
vertex -31 -20 0
vertex 33 -20 0
endloop
endfacet
facet normal 0 0 1
outer loop
vertex -2 20 0
vertex -50 15 0
vertex -31 -20 0
endloop
endfacet
facet normal 0 0 1
outer loop
vertex -50 15 0
vertex -2 20 0
vertex -50 20 0
endloop
endfacet
facet normal 0 0 1
outer loop
vertex 33 -20 0
vertex -30 -20.26795 0
vertex 32 -20.26795 0
endloop
endfacet
facet normal 0 0 1
outer loop
vertex -30 -20.26795 0
vertex 33 -20 0
vertex -31 -20 0
endloop
endfacet
facet normal 0 0 1
outer loop
vertex 31.26795 -21 0
vertex -29 -22 0
vertex 31 -22 0
endloop
endfacet
facet normal 0 0 1
outer loop
vertex -29 -22 0
vertex 31.26795 -21 0
vertex -29.26795 -21 0
endloop
endfacet
facet normal 0 0 1
outer loop
vertex -50 21 0
vertex -3 20.26795 0
vertex -3.73205 21 0
endloop
endfacet
facet normal 0 0 1
outer loop
vertex -3 20.26795 0
vertex -50 21 0
vertex -50 20.26795 0
endloop
endfacet
facet normal 0 0 1
outer loop
vertex -50 22 0
vertex -3.73205 21 0
vertex -4 22 0
endloop
endfacet
facet normal 0 0 0.9999999999999999
outer loop
vertex -3.73205 21 0
vertex -50 22 0
vertex -50 21 0
endloop
endfacet
facet normal 0 0 1
outer loop
vertex -50 23 0
vertex -4 22 0
vertex -3.73205 23 0
endloop
endfacet
facet normal 0 0 1
outer loop
vertex -4 22 0
vertex -50 23 0
vertex -50 22 0
endloop
endfacet
facet normal 0 0 1
outer loop
vertex -50 23.73205 0
vertex -3.73205 23 0
vertex -3 23.73205 0
endloop
endfacet
facet normal 0 0 1
outer loop
vertex -3.73205 23 0
vertex -50 23.73205 0
vertex -50 23 0
endloop
endfacet
facet normal 0 0 1
outer loop
vertex -29 -22 0
vertex 31.26795 -23 0
vertex 31 -22 0
endloop
endfacet
facet normal 0 0 1
outer loop
vertex 31.26795 -23 0
vertex -29 -22 0
vertex -29.26795 -23 0
endloop
endfacet
facet normal 0 0 1
outer loop
vertex 50 -20.26795 0
vertex 34.73205 -21 0
vertex 50 -21 0
endloop
endfacet
facet normal 0 0 1
outer loop
vertex 34.73205 -21 0
vertex 50 -20.26795 0
vertex 34 -20.26795 0
endloop
endfacet
facet normal 0 0 1
outer loop
vertex 50 -20 0
vertex 34 -20.26795 0
vertex 50 -20.26795 0
endloop
endfacet
facet normal 0 0 1
outer loop
vertex 34 -20.26795 0
vertex 50 -20 0
vertex 33 -20 0
endloop
endfacet
facet normal 0 0 1
outer loop
vertex 50 -21 0
vertex 35 -22 0
vertex 50 -22 0
endloop
endfacet
facet normal 0 0 1
outer loop
vertex 35 -22 0
vertex 50 -21 0
vertex 34.73205 -21 0
endloop
endfacet
facet normal 0 0 1
outer loop
vertex 34.73205 -23 0
vertex 50 -23.73205 0
vertex 50 -23 0
endloop
endfacet
facet normal 0 0 1
outer loop
vertex 50 -23.73205 0
vertex 34.73205 -23 0
vertex 34 -23.73205 0
endloop
endfacet
facet normal 0 0 1
outer loop
vertex 35 -22 0
vertex 50 -23 0
vertex 50 -22 0
endloop
endfacet
facet normal 0 0 1
outer loop
vertex 50 -23 0
vertex 35 -22 0
vertex 34.73205 -23 0
endloop
endfacet
facet normal 0 0 1
outer loop
vertex 34 -23.73205 0
vertex 50 -24 0
vertex 50 -23.73205 0
endloop
endfacet
facet normal 0 0 1
outer loop
vertex 50 -24 0
vertex 34 -23.73205 0
vertex 33 -24 0
endloop
endfacet
facet normal 0 0 1
outer loop
vertex 33 -24 0
vertex 50 -50 0
vertex 50 -24 0
endloop
endfacet
facet normal 0 0 1
outer loop
vertex -31 -24 0
vertex 50 -50 0
vertex 33 -24 0
endloop
endfacet
facet normal 0 0 1
outer loop
vertex -50 -24 0
vertex 50 -50 0
vertex -31 -24 0
endloop
endfacet
facet normal 0 0 1
outer loop
vertex 50 -50 0
vertex -50 -24 0
vertex -50 -50 0
endloop
endfacet
facet normal 0 0 1
outer loop
vertex -50 20.26795 0
vertex -2 20 0
vertex -3 20.26795 0
endloop
endfacet
facet normal 0 0 1
outer loop
vertex -2 20 0
vertex -50 20.26795 0
vertex -50 20 0
endloop
endfacet
facet normal 0 0 1
outer loop
vertex 50 50 0
vertex -2 24 0
vertex 50 24 0
endloop
endfacet
facet normal 0 0 1
outer loop
vertex -50 50 0
vertex -2 24 0
vertex 50 50 0
endloop
endfacet
facet normal 0 0 1
outer loop
vertex -2 24 0
vertex -50 50 0
vertex -50 24 0
endloop
endfacet
facet normal 0 0 1
outer loop
vertex -50 24 0
vertex -3 23.73205 0
vertex -2 24 0
endloop
endfacet
facet normal 0 0 1
outer loop
vertex -3 23.73205 0
vertex -50 24 0
vertex -50 23.73205 0
endloop
endfacet
facet normal 0 0 1
outer loop
vertex 50 23.73205 0
vertex -0.26795 23 0
vertex 50 23 0
endloop
endfacet
facet normal 0 0 1
outer loop
vertex -0.26795 23 0
vertex 50 23.73205 0
vertex -1 23.73205 0
endloop
endfacet
facet normal 0 0 1
outer loop
vertex 50 24 0
vertex -1 23.73205 0
vertex 50 23.73205 0
endloop
endfacet
facet normal 0 0 1
outer loop
vertex -1 23.73205 0
vertex 50 24 0
vertex -2 24 0
endloop
endfacet
facet normal 0 0 1
outer loop
vertex 50 23 0
vertex 0 22 0
vertex 50 22 0
endloop
endfacet
facet normal 0 0 1
outer loop
vertex 0 22 0
vertex 50 23 0
vertex -0.26795 23 0
endloop
endfacet
facet normal 0 0 1
outer loop
vertex -0.26795 21 0
vertex 50 20.26795 0
vertex 50 21 0
endloop
endfacet
facet normal 0 0 1
outer loop
vertex 50 20.26795 0
vertex -0.26795 21 0
vertex -1 20.26795 0
endloop
endfacet
facet normal 0 0 1
outer loop
vertex 0 22 0
vertex 50 21 0
vertex 50 22 0
endloop
endfacet
facet normal 0 0 1
outer loop
vertex 50 21 0
vertex 0 22 0
vertex -0.26795 21 0
endloop
endfacet
facet normal 0 0 1
outer loop
vertex -1 20.26795 0
vertex 50 20 0
vertex 50 20.26795 0
endloop
endfacet
facet normal 0 0 1
outer loop
vertex 50 20 0
vertex -1 20.26795 0
vertex -2 20 0
endloop
endfacet
facet normal 0 0 1
outer loop
vertex -50 -20.26795 0
vertex -32.73205 -21 0
vertex -32 -20.26795 0
endloop
endfacet
facet normal 0 0 1
outer loop
vertex -32.73205 -21 0
vertex -50 -20.26795 0
vertex -50 -21 0
endloop
endfacet
facet normal 0 0 1
outer loop
vertex -50 -20 0
vertex -32 -20.26795 0
vertex -31 -20 0
endloop
endfacet
facet normal 0 0 1
outer loop
vertex -32 -20.26795 0
vertex -50 -20 0
vertex -50 -20.26795 0
endloop
endfacet
facet normal 0 0 1
outer loop
vertex -50 -23 0
vertex -32 -23.73205 0
vertex -32.73205 -23 0
endloop
endfacet
facet normal 0 0 1
outer loop
vertex -32 -23.73205 0
vertex -50 -23 0
vertex -50 -23.73205 0
endloop
endfacet
facet normal 0 0 1
outer loop
vertex -50 -22 0
vertex -32.73205 -23 0
vertex -33 -22 0
endloop
endfacet
facet normal 0 0 1
outer loop
vertex -32.73205 -23 0
vertex -50 -22 0
vertex -50 -23 0
endloop
endfacet
facet normal 0 0 1
outer loop
vertex -50 -21 0
vertex -33 -22 0
vertex -32.73205 -21 0
endloop
endfacet
facet normal 0 0 1
outer loop
vertex -33 -22 0
vertex -50 -21 0
vertex -50 -22 0
endloop
endfacet
facet normal 0 0 1
outer loop
vertex -50 -15 0
vertex -31 -20 0
vertex -50 15 0
endloop
endfacet
facet normal 0 0 1
outer loop
vertex -31 -20 0
vertex -50 -15 0
vertex -50 -20 0
endloop
endfacet
facet normal 0 1 0
outer loop
vertex -50 50 -3
vertex 50 50 0
vertex 50 50 -3
endloop
endfacet
facet normal 0 1 0
outer loop
vertex 50 50 0
vertex -50 50 -3
vertex -50 50 0
endloop
endfacet
facet normal -1 0 0
outer loop
vertex 50 50 0
vertex 50 15 -3
vertex 50 20 0
endloop
endfacet
facet normal -1 0 0
outer loop
vertex 50 50 -3
vertex 50 15 -3
vertex 50 50 0
endloop
endfacet
facet normal -1 0 0
outer loop
vertex 50 15 0
vertex 50 20 0
vertex 50 15 -3
endloop
endfacet
facet normal 0 0 1
outer loop
vertex 50 24 0
vertex 59.73865 50 0
vertex 50 50 0
endloop
endfacet
facet normal 0 0 0.9999999999999999
outer loop
vertex 50 23.73205 0
vertex 59.73865 50 0
vertex 50 24 0
endloop
endfacet
facet normal 0 0 0.9999999999999999
outer loop
vertex 50 23 0
vertex 59.73865 50 0
vertex 50 23.73205 0
endloop
endfacet
facet normal 0 0 1
outer loop
vertex 50 22 0
vertex 59.73865 50 0
vertex 50 23 0
endloop
endfacet
facet normal 0 0 1
outer loop
vertex 50 21 0
vertex 59.73865 50 0
vertex 50 22 0
endloop
endfacet
facet normal 0 0 0.9999999999999999
outer loop
vertex 50 20.26795 0
vertex 59.73865 50 0
vertex 50 21 0
endloop
endfacet
facet normal 0 0 0.9999999999999999
outer loop
vertex 50 20 0
vertex 59.73865 50 0
vertex 50 20.26795 0
endloop
endfacet
facet normal 0 0 1
outer loop
vertex 50 15 0
vertex 59.73865 50 0
vertex 50 20 0
endloop
endfacet
facet normal 0 0 1
outer loop
vertex 59.73865 50 0
vertex 50 15 0
vertex 59.73865 15 0
endloop
endfacet
facet normal 1 0 0
outer loop
vertex 59.73865 15 -3
vertex 59.73865 50 0
vertex 59.73865 15 0
endloop
endfacet
facet normal 1 0 0
outer loop
vertex 59.73865 50 0
vertex 59.73865 15 -3
vertex 59.73865 50 -3
endloop
endfacet
facet normal 0 0 -1
outer loop
vertex 50 15 -3
vertex 59.73865 50 -3
vertex 59.73865 15 -3
endloop
endfacet
facet normal 0 0 -1
outer loop
vertex 50 15 -3
vertex 50 50 -3
vertex 59.73865 50 -3
endloop
endfacet
facet normal 0 -1 0
outer loop
vertex 50 15 0
vertex 59.73865 15 -3
vertex 59.73865 15 0
endloop
endfacet
facet normal 0 -0.9999999999999999 0
outer loop
vertex 59.73865 15 -3
vertex 50 15 0
vertex 50 15 -3
endloop
endfacet
facet normal 0 1 0
outer loop
vertex 50 50 -3
vertex 59.73865 50 0
vertex 59.73865 50 -3
endloop
endfacet
facet normal 0 0.9999999999999999 0
outer loop
vertex 59.73865 50 0
vertex 50 50 -3
vertex 50 50 0
endloop
endfacet
facet normal 0 0 1
outer loop
vertex 59.73865 50 0
vertex 74.73865 15 0
vertex 74.73865 50 0
endloop
endfacet
facet normal 0 0 1
outer loop
vertex 74.73865 15 0
vertex 59.73865 50 0
vertex 59.73865 15 0
endloop
endfacet
facet normal 1 0 0
outer loop
vertex 74.73865 15 -3
vertex 74.73865 50 0
vertex 74.73865 15 0
endloop
endfacet
facet normal 1 0 0
outer loop
vertex 74.73865 50 0
vertex 74.73865 15 -3
vertex 74.73865 50 -3
endloop
endfacet
facet normal 0 0 -1
outer loop
vertex 59.73865 15 -3
vertex 74.73865 50 -3
vertex 74.73865 15 -3
endloop
endfacet
facet normal 0 0 -1
outer loop
vertex 74.73865 50 -3
vertex 59.73865 15 -3
vertex 59.73865 50 -3
endloop
endfacet
facet normal -1 0 0
outer loop
vertex 59.73865 15 -3
vertex 59.73865 50 0
vertex 59.73865 50 -3
endloop
endfacet
facet normal -1 0 0
outer loop
vertex 59.73865 50 0
vertex 59.73865 15 -3
vertex 59.73865 15 0
endloop
endfacet
facet normal 0 -1 0
outer loop
vertex 59.73865 15 0
vertex 74.73865 15 -3
vertex 74.73865 15 0
endloop
endfacet
facet normal 0 -1 0
outer loop
vertex 74.73865 15 -3
vertex 59.73865 15 0
vertex 59.73865 15 -3
endloop
endfacet
facet normal 0 1 0
outer loop
vertex 74.73865 50 -3
vertex 59.73865 50 0
vertex 74.73865 50 0
endloop
endfacet
facet normal 0 1 0
outer loop
vertex 59.73865 50 0
vertex 74.73865 50 -3
vertex 59.73865 50 -3
endloop
endfacet
facet normal -1 0 0
outer loop
vertex 50 -20 0
vertex 50 -50 -3
vertex 50 -24 0
endloop
endfacet
facet normal -1 0 0
outer loop
vertex 50 -15 0
vertex 50 -50 -3
vertex 50 -20 0
endloop
endfacet
facet normal -1 0 0
outer loop
vertex 50 -15 0
vertex 50 -20 -3
vertex 50 -50 -3
endloop
endfacet
facet normal -1 0 0
outer loop
vertex 50 -20 -3
vertex 50 -15 0
vertex 50 -15 -3
endloop
endfacet
facet normal -1 0 0
outer loop
vertex 50 -50 0
vertex 50 -24 0
vertex 50 -50 -3
endloop
endfacet
facet normal 0 0 1
outer loop
vertex 50 -15 0
vertex 59.73865 -50 0
vertex 59.73865 -15 0
endloop
endfacet
facet normal 0 0 1
outer loop
vertex 50 -15 0
vertex 50 -50 0
vertex 59.73865 -50 0
endloop
endfacet
facet normal 1 0 0
outer loop
vertex 59.73865 -50 -3
vertex 59.73865 -15 0
vertex 59.73865 -50 0
endloop
endfacet
facet normal 1 0 0
outer loop
vertex 59.73865 -15 0
vertex 59.73865 -50 -3
vertex 59.73865 -15 -3
endloop
endfacet
facet normal 0 0 -1
outer loop
vertex 50 -50 -3
vertex 59.73865 -15 -3
vertex 59.73865 -50 -3
endloop
endfacet
facet normal 0 0 -1
outer loop
vertex 50 -50 -3
vertex 50 -15 -3
vertex 59.73865 -15 -3
endloop
endfacet
facet normal 0 -1 0
outer loop
vertex 50 -50 0
vertex 59.73865 -50 -3
vertex 59.73865 -50 0
endloop
endfacet
facet normal 0 -0.9999999999999999 0
outer loop
vertex 59.73865 -50 -3
vertex 50 -50 0
vertex 50 -50 -3
endloop
endfacet
facet normal 0 1 0
outer loop
vertex 50 -15 -3
vertex 59.73865 -15 0
vertex 59.73865 -15 -3
endloop
endfacet
facet normal 0 0.9999999999999999 0
outer loop
vertex 59.73865 -15 0
vertex 50 -15 -3
vertex 50 -15 0
endloop
endfacet
facet normal 0 0 1
outer loop
vertex 59.73865 -15 0
vertex 74.73865 -50 0
vertex 74.73865 -15 0
endloop
endfacet
facet normal 0 0 1
outer loop
vertex 74.73865 -50 0
vertex 59.73865 -15 0
vertex 59.73865 -50 0
endloop
endfacet
facet normal 1 0 0
outer loop
vertex 74.73865 -50 -3
vertex 74.73865 -15 0
vertex 74.73865 -50 0
endloop
endfacet
facet normal 1 0 0
outer loop
vertex 74.73865 -15 0
vertex 74.73865 -50 -3
vertex 74.73865 -15 -3
endloop
endfacet
facet normal 0 0 -1
outer loop
vertex 59.73865 -50 -3
vertex 74.73865 -15 -3
vertex 74.73865 -50 -3
endloop
endfacet
facet normal 0 0 -1
outer loop
vertex 74.73865 -15 -3
vertex 59.73865 -50 -3
vertex 59.73865 -15 -3
endloop
endfacet
facet normal -1 0 0
outer loop
vertex 59.73865 -50 -3
vertex 59.73865 -15 0
vertex 59.73865 -15 -3
endloop
endfacet
facet normal -1 0 0
outer loop
vertex 59.73865 -15 0
vertex 59.73865 -50 -3
vertex 59.73865 -50 0
endloop
endfacet
facet normal 0 -1 0
outer loop
vertex 59.73865 -50 0
vertex 74.73865 -50 -3
vertex 74.73865 -50 0
endloop
endfacet
facet normal 0 -1 0
outer loop
vertex 74.73865 -50 -3
vertex 59.73865 -50 0
vertex 59.73865 -50 -3
endloop
endfacet
facet normal 0 1 0
outer loop
vertex 74.73865 -15 -3
vertex 59.73865 -15 0
vertex 74.73865 -15 0
endloop
endfacet
facet normal 0 1 0
outer loop
vertex 59.73865 -15 0
vertex 74.73865 -15 -3
vertex 59.73865 -15 -3
endloop
endfacet
facet normal 1 0 0
outer loop
vertex -50 50 0
vertex -50 24 -3
vertex -50 50 -3
endloop
endfacet
facet normal 1 0 0
outer loop
vertex -50 24 0
vertex -50 24 -3
vertex -50 50 0
endloop
endfacet
facet normal 1 0 0
outer loop
vertex -50 23.73205 0
vertex -50 24 -3
vertex -50 24 0
endloop
endfacet
facet normal 1 0 0
outer loop
vertex -50 23.73205 0
vertex -50 23.73205 -3
vertex -50 24 -3
endloop
endfacet
facet normal 1 0 0
outer loop
vertex -50 23.73205 0
vertex -50 23 -3
vertex -50 23.73205 -3
endloop
endfacet
facet normal 1 0 0
outer loop
vertex -50 23 0
vertex -50 23 -3
vertex -50 23.73205 0
endloop
endfacet
facet normal 1 0 0
outer loop
vertex -50 23 0
vertex -50 22 -3
vertex -50 23 -3
endloop
endfacet
facet normal 1 0 0
outer loop
vertex -50 22 0
vertex -50 22 -3
vertex -50 23 0
endloop
endfacet
facet normal 1 0 0
outer loop
vertex -50 21 0
vertex -50 22 -3
vertex -50 22 0
endloop
endfacet
facet normal 1 0 0
outer loop
vertex -50 21 0
vertex -50 21 -3
vertex -50 22 -3
endloop
endfacet
facet normal 1 0 0
outer loop
vertex -50 21 0
vertex -50 20.26795 -3
vertex -50 21 -3
endloop
endfacet
facet normal 1 0 0
outer loop
vertex -50 20.26795 0
vertex -50 20.26795 -3
vertex -50 21 0
endloop
endfacet
facet normal 1 0 0
outer loop
vertex -50 20 0
vertex -50 20.26795 -3
vertex -50 20.26795 0
endloop
endfacet
facet normal 1 0 0
outer loop
vertex -50 20 0
vertex -50 20 -3
vertex -50 20.26795 -3
endloop
endfacet
facet normal 1 0 0
outer loop
vertex -50 15 0
vertex -50 20 -3
vertex -50 20 0
endloop
endfacet
facet normal 1 0 0
outer loop
vertex -50 20 -3
vertex -50 15 0
vertex -50 15 -3
endloop
endfacet
facet normal 0 0 1
outer loop
vertex -50 24 0
vertex -59.73865 50 0
vertex -50 20 0
endloop
endfacet
facet normal 0 0 1
outer loop
vertex -59.73865 50 0
vertex -50 24 0
vertex -50 50 0
endloop
endfacet
facet normal 0 0 1
outer loop
vertex -59.73865 50 0
vertex -50 15 0
vertex -50 20 0
endloop
endfacet
facet normal 0 0 1
outer loop
vertex -50 15 0
vertex -59.73865 50 0
vertex -59.73865 15 0
endloop
endfacet
facet normal -1 0 0
outer loop
vertex -59.73865 50 -3
vertex -59.73865 15 0
vertex -59.73865 50 0
endloop
endfacet
facet normal -1 0 0
outer loop
vertex -59.73865 15 0
vertex -59.73865 50 -3
vertex -59.73865 15 -3
endloop
endfacet
facet normal 0 0 -1
outer loop
vertex -50 24 -3
vertex -59.73865 50 -3
vertex -50 50 -3
endloop
endfacet
facet normal 0 0 -0.9999999999999999
outer loop
vertex -50 23.73205 -3
vertex -59.73865 50 -3
vertex -50 24 -3
endloop
endfacet
facet normal 0 0 -0.9999999999999999
outer loop
vertex -50 23 -3
vertex -59.73865 50 -3
vertex -50 23.73205 -3
endloop
endfacet
facet normal 0 0 -1
outer loop
vertex -50 22 -3
vertex -59.73865 50 -3
vertex -50 23 -3
endloop
endfacet
facet normal 0 0 -1
outer loop
vertex -50 21 -3
vertex -59.73865 50 -3
vertex -50 22 -3
endloop
endfacet
facet normal 0 0 -0.9999999999999999
outer loop
vertex -50 20.26795 -3
vertex -59.73865 50 -3
vertex -50 21 -3
endloop
endfacet
facet normal 0 0 -0.9999999999999999
outer loop
vertex -50 20 -3
vertex -59.73865 50 -3
vertex -50 20.26795 -3
endloop
endfacet
facet normal 0 0 -1
outer loop
vertex -50 20 -3
vertex -59.73865 15 -3
vertex -59.73865 50 -3
endloop
endfacet
facet normal 0 0 -1
outer loop
vertex -59.73865 15 -3
vertex -50 20 -3
vertex -50 15 -3
endloop
endfacet
facet normal 0 0.9999999999999999 0
outer loop
vertex -59.73865 50 -3
vertex -50 50 0
vertex -50 50 -3
endloop
endfacet
facet normal 0 1 0
outer loop
vertex -50 50 0
vertex -59.73865 50 -3
vertex -59.73865 50 0
endloop
endfacet
facet normal 0 -1 0
outer loop
vertex -59.73865 15 -3
vertex -50 15 0
vertex -59.73865 15 0
endloop
endfacet
facet normal 0 -0.9999999999999999 0
outer loop
vertex -50 15 0
vertex -59.73865 15 -3
vertex -50 15 -3
endloop
endfacet
facet normal 0 0 1
outer loop
vertex -74.73865 50 0
vertex -59.73865 15 0
vertex -59.73865 50 0
endloop
endfacet
facet normal 0 0 1
outer loop
vertex -59.73865 15 0
vertex -74.73865 50 0
vertex -74.73865 15 0
endloop
endfacet
facet normal -1 0 0
outer loop
vertex -74.73865 50 -3
vertex -74.73865 15 0
vertex -74.73865 50 0
endloop
endfacet
facet normal -1 0 0
outer loop
vertex -74.73865 15 0
vertex -74.73865 50 -3
vertex -74.73865 15 -3
endloop
endfacet
facet normal 0 0 -1
outer loop
vertex -59.73865 15 -3
vertex -74.73865 50 -3
vertex -59.73865 50 -3
endloop
endfacet
facet normal 0 0 -1
outer loop
vertex -74.73865 50 -3
vertex -59.73865 15 -3
vertex -74.73865 15 -3
endloop
endfacet
facet normal 1 0 0
outer loop
vertex -59.73865 15 0
vertex -59.73865 50 -3
vertex -59.73865 50 0
endloop
endfacet
facet normal 1 0 0
outer loop
vertex -59.73865 50 -3
vertex -59.73865 15 0
vertex -59.73865 15 -3
endloop
endfacet
facet normal 0 1 0
outer loop
vertex -74.73865 50 -3
vertex -59.73865 50 0
vertex -59.73865 50 -3
endloop
endfacet
facet normal 0 1 0
outer loop
vertex -59.73865 50 0
vertex -74.73865 50 -3
vertex -74.73865 50 0
endloop
endfacet
facet normal 0 -1 0
outer loop
vertex -74.73865 15 -3
vertex -59.73865 15 0
vertex -74.73865 15 0
endloop
endfacet
facet normal 0 -1 0
outer loop
vertex -59.73865 15 0
vertex -74.73865 15 -3
vertex -59.73865 15 -3
endloop
endfacet
facet normal 1 0 0
outer loop
vertex -50 -15 0
vertex -50 -20 -3
vertex -50 -15 -3
endloop
endfacet
facet normal 1 0 0
outer loop
vertex -50 -20 0
vertex -50 -20 -3
vertex -50 -15 0
endloop
endfacet
facet normal 1 0 0
outer loop
vertex -50 -20 0
vertex -50 -20.26795 -3
vertex -50 -20 -3
endloop
endfacet
facet normal 1 0 0
outer loop
vertex -50 -20.26795 0
vertex -50 -20.26795 -3
vertex -50 -20 0
endloop
endfacet
facet normal 1 0 0
outer loop
vertex -50 -21 0
vertex -50 -20.26795 -3
vertex -50 -20.26795 0
endloop
endfacet
facet normal 1 0 0
outer loop
vertex -50 -21 0
vertex -50 -21 -3
vertex -50 -20.26795 -3
endloop
endfacet
facet normal 1 0 0
outer loop
vertex -50 -21 0
vertex -50 -22 -3
vertex -50 -21 -3
endloop
endfacet
facet normal 1 0 0
outer loop
vertex -50 -22 0
vertex -50 -22 -3
vertex -50 -21 0
endloop
endfacet
facet normal 1 0 0
outer loop
vertex -50 -23 0
vertex -50 -22 -3
vertex -50 -22 0
endloop
endfacet
facet normal 1 0 0
outer loop
vertex -50 -23 0
vertex -50 -23 -3
vertex -50 -22 -3
endloop
endfacet
facet normal 1 0 0
outer loop
vertex -50 -23 0
vertex -50 -23.73205 -3
vertex -50 -23 -3
endloop
endfacet
facet normal 1 0 0
outer loop
vertex -50 -23.73205 0
vertex -50 -23.73205 -3
vertex -50 -23 0
endloop
endfacet
facet normal 1 0 0
outer loop
vertex -50 -24 0
vertex -50 -23.73205 -3
vertex -50 -23.73205 0
endloop
endfacet
facet normal 1 0 0
outer loop
vertex -50 -24 0
vertex -50 -24 -3
vertex -50 -23.73205 -3
endloop
endfacet
facet normal 1 0 0
outer loop
vertex -50 -50 0
vertex -50 -24 -3
vertex -50 -24 0
endloop
endfacet
facet normal 1 0 0
outer loop
vertex -50 -24 -3
vertex -50 -50 0
vertex -50 -50 -3
endloop
endfacet
facet normal 0 0 1
outer loop
vertex -59.73865 -15 0
vertex -50 -20 0
vertex -50 -15 0
endloop
endfacet
facet normal 0 0 1
outer loop
vertex -59.73865 -15 0
vertex -50 -20.26795 0
vertex -50 -20 0
endloop
endfacet
facet normal 0 0 1
outer loop
vertex -59.73865 -15 0
vertex -50 -21 0
vertex -50 -20.26795 0
endloop
endfacet
facet normal 0 0 1
outer loop
vertex -59.73865 -15 0
vertex -50 -22 0
vertex -50 -21 0
endloop
endfacet
facet normal 0 0 1
outer loop
vertex -59.73865 -15 0
vertex -50 -23 0
vertex -50 -22 0
endloop
endfacet
facet normal 0 0 0.9999999999999999
outer loop
vertex -59.73865 -15 0
vertex -50 -23.73205 0
vertex -50 -23 0
endloop
endfacet
facet normal 0 0 0.9999999999999999
outer loop
vertex -59.73865 -15 0
vertex -50 -24 0
vertex -50 -23.73205 0
endloop
endfacet
facet normal 0 0 1
outer loop
vertex -59.73865 -50 0
vertex -50 -24 0
vertex -59.73865 -15 0
endloop
endfacet
facet normal 0 0 1
outer loop
vertex -50 -24 0
vertex -59.73865 -50 0
vertex -50 -50 0
endloop
endfacet
facet normal -1 0 0
outer loop
vertex -59.73865 -15 -3
vertex -59.73865 -50 0
vertex -59.73865 -15 0
endloop
endfacet
facet normal -1 0 0
outer loop
vertex -59.73865 -50 0
vertex -59.73865 -15 -3
vertex -59.73865 -50 -3
endloop
endfacet
facet normal 0 0 -1
outer loop
vertex -50 -20 -3
vertex -59.73865 -15 -3
vertex -50 -15 -3
endloop
endfacet
facet normal 0 0 -1
outer loop
vertex -50 -20.26795 -3
vertex -59.73865 -15 -3
vertex -50 -20 -3
endloop
endfacet
facet normal 0 0 -1
outer loop
vertex -50 -21 -3
vertex -59.73865 -15 -3
vertex -50 -20.26795 -3
endloop
endfacet
facet normal 0 0 -1
outer loop
vertex -50 -22 -3
vertex -59.73865 -15 -3
vertex -50 -21 -3
endloop
endfacet
facet normal 0 0 -1
outer loop
vertex -50 -23 -3
vertex -59.73865 -15 -3
vertex -50 -22 -3
endloop
endfacet
facet normal 0 0 -0.9999999999999999
outer loop
vertex -50 -23.73205 -3
vertex -59.73865 -15 -3
vertex -50 -23 -3
endloop
endfacet
facet normal 0 0 -0.9999999999999999
outer loop
vertex -50 -24 -3
vertex -59.73865 -15 -3
vertex -50 -23.73205 -3
endloop
endfacet
facet normal 0 0 -1
outer loop
vertex -50 -50 -3
vertex -59.73865 -15 -3
vertex -50 -24 -3
endloop
endfacet
facet normal 0 0 -1
outer loop
vertex -59.73865 -15 -3
vertex -50 -50 -3
vertex -59.73865 -50 -3
endloop
endfacet
facet normal 0 0.9999999999999999 0
outer loop
vertex -59.73865 -15 -3
vertex -50 -15 0
vertex -50 -15 -3
endloop
endfacet
facet normal 0 1 0
outer loop
vertex -50 -15 0
vertex -59.73865 -15 -3
vertex -59.73865 -15 0
endloop
endfacet
facet normal 0 -0.9999999999999999 0
outer loop
vertex -59.73865 -50 0
vertex -50 -50 -3
vertex -50 -50 0
endloop
endfacet
facet normal 0 -1 0
outer loop
vertex -50 -50 -3
vertex -59.73865 -50 0
vertex -59.73865 -50 -3
endloop
endfacet
facet normal 0 0 1
outer loop
vertex -74.73865 -15 0
vertex -59.73865 -50 0
vertex -59.73865 -15 0
endloop
endfacet
facet normal 0 0 1
outer loop
vertex -59.73865 -50 0
vertex -74.73865 -15 0
vertex -74.73865 -50 0
endloop
endfacet
facet normal -1 0 0
outer loop
vertex -74.73865 -15 -3
vertex -74.73865 -50 0
vertex -74.73865 -15 0
endloop
endfacet
facet normal -1 0 0
outer loop
vertex -74.73865 -50 0
vertex -74.73865 -15 -3
vertex -74.73865 -50 -3
endloop
endfacet
facet normal 0 0 -1
outer loop
vertex -59.73865 -50 -3
vertex -74.73865 -15 -3
vertex -59.73865 -15 -3
endloop
endfacet
facet normal 0 0 -1
outer loop
vertex -74.73865 -15 -3
vertex -59.73865 -50 -3
vertex -74.73865 -50 -3
endloop
endfacet
facet normal 1 0 0
outer loop
vertex -59.73865 -50 0
vertex -59.73865 -15 -3
vertex -59.73865 -15 0
endloop
endfacet
facet normal 1 0 0
outer loop
vertex -59.73865 -15 -3
vertex -59.73865 -50 0
vertex -59.73865 -50 -3
endloop
endfacet
facet normal 0 1 0
outer loop
vertex -74.73865 -15 -3
vertex -59.73865 -15 0
vertex -59.73865 -15 -3
endloop
endfacet
facet normal 0 1 0
outer loop
vertex -59.73865 -15 0
vertex -74.73865 -15 -3
vertex -74.73865 -15 0
endloop
endfacet
facet normal 0 -1 0
outer loop
vertex -74.73865 -50 0
vertex -59.73865 -50 -3
vertex -59.73865 -50 0
endloop
endfacet
facet normal 0 -1 0
outer loop
vertex -59.73865 -50 -3
vertex -74.73865 -50 0
vertex -74.73865 -50 -3
endloop
endfacet
endsolid JSxCAD
