<?xml version="1.0" encoding="UTF-8"?>
<!-- Generated by jsxcad -->
<!DOCTYPE svg PUBLIC "-//W3C//DTD SVG 1.1 Tiny//EN" "http://www.w3.org/Graphics/SVG/1.1/DTD/svg11-tiny.dtd">
<svg viewBox="-250 -250 500 500" width="500" height="500" xmlns="http://www.w3.org/2000/svg"><path d="M-112.83280648973063,-44.78875135728686L-26.307784004358034,-73.96709121026157L-112.22833585802024,-50.12629844492123zM-25.004670858748764,-64.24408100430392L-110.63015981932992,-46.70733636135327L-111.31959221858051,-40.51031237787696zM-24.665015790260703,-62.71955847260294L-110.25765444636556,-45.74600500925302L-111.00335230829879,-39.01408672301717zM-25.426788504672718,-65.77773173913685L-111.09547875681797,-47.78067580873576L-111.74101651567032,-42.00874056024791zM-24.42064407357697,-61.26147828304606L-109.98689928547563,-44.978827096844526L-110.80423411459958,-37.576335768251376zM-25.915535263758514,-67.26286808370071L-111.62785367353571,-48.99844026857841L-112.25179386078383,-43.453028157231415zM-24.280886393361495,-59.924819156406436L-109.8202166294002,-44.50655370487618L-110.72989458723843,-36.25129264368429z" style="fill:rgb(83,212,212)"/><path d="M-25.004670858748764,-64.24408100430392L-111.74101651567032,-42.00874056024791L-111.31959221858051,-40.51031237787696z" style="fill:rgb(99,111,250)"/><path d="M-24.665015790260703,-62.71955847260294L-111.31959221858051,-40.51031237787696L-111.00335230829879,-39.01408672301717z" style="fill:rgb(93,135,250)"/><path d="M-27.01781136985527,-69.86755838249513L-112.85389948562653,-51.30125817736584L-113.46227598719368,-45.96532864866352z" style="fill:rgb(83,212,212)"/><path d="M-111.74101651567032,-42.00874056024791L-25.915535263758514,-67.26286808370071L-112.25179386078383,-43.453028157231415z" style="fill:rgb(106,87,246)"/><path d="M-24.42064407357697,-61.26147828304606L-111.00335230829879,-39.01408672301717L-110.80423411459958,-37.576335768251376z" style="fill:rgb(89,159,244)"/><path d="M-107.5228216980632,-29.662139420655105L-24.251245629759012,-58.760287635647686L-110.78342590812386,-35.08921016741124z" style="fill:rgb(127,37,217)"/><path d="M-110.72989458723843,-36.25129264368429L-24.42064407357697,-61.26147828304606L-110.80423411459958,-37.576335768251376z" style="fill:rgb(85,182,234)"/><path d="M-112.25179386078383,-43.453028157231415L-26.45259106699935,-68.64356303787946L-112.83280648973063,-44.78875135728686z" style="fill:rgb(114,65,238)"/><path d="M-110.78342590812386,-35.08921016741124L-24.280886393361495,-59.924819156406436L-110.72989458723843,-36.25129264368429z" style="fill:rgb(84,202,220)"/><path d="M-112.83280648973063,-44.78875135728686L-27.01781136985527,-69.86755838249513L-113.46227598719368,-45.96532864866352z" style="fill:rgb(123,46,225)"/><path d="M-110.25765444636556,-45.74600500925302L-24.665015790260703,-62.71955847260294L-24.495711129127546,-69.43543482275896zM-109.98689928547563,-44.978827096844526L-24.42064407357697,-61.26147828304606L-24.236584240630705,-68.64670479776198zM-110.63015981932992,-46.70733636135327L-25.004670858748764,-64.24408100430392L-24.846434903970103,-70.4259808652289zM-109.8202166294002,-44.50655370487618L-24.280886393361495,-59.924819156406436L-24.07706724689858,-68.16116655279757zM-111.09547875681797,-47.78067580873576L-25.426788504672718,-65.77773173913685L-25.27669241709666,-71.53522497990308zM-111.62785367353571,-48.99844026857841L-25.915535263758514,-67.26286808370071L-25.76834322179077,-72.79404976285059zM-112.85389948562653,-51.30125817736584L-27.01781136985527,-69.86755838249513L-26.86977721205739,-75.18916586043777z" style="fill:rgb(83,212,212)"/><path d="M-24.251245629759012,-58.760287635647686L-107.5228216980632,-29.662139420655105L-21.365051484033874,-53.09257779481435z" style="fill:rgb(127,37,217)"/><path d="M-26.307784004358034,-73.96709121026157L-112.83280648973063,-44.78875135728686L-26.45259106699935,-68.64356303787946z" style="fill:rgb(83,212,212)"/><path d="M-111.31959221858051,-40.51031237787696L-24.665015790260703,-62.71955847260294L-25.004670858748764,-64.24408100430392z" style="fill:rgb(93,135,250)"/><path d="M-111.74101651567032,-42.00874056024791L-25.004670858748764,-64.24408100430392L-25.426788504672718,-65.77773173913685z" style="fill:rgb(99,111,250)"/><path d="M-25.915535263758514,-67.26286808370071L-111.74101651567032,-42.00874056024791L-25.426788504672718,-65.77773173913685z" style="fill:rgb(106,87,246)"/><path d="M-111.00335230829879,-39.01408672301717L-24.42064407357697,-61.26147828304606L-24.665015790260703,-62.71955847260294z" style="fill:rgb(89,159,244)"/><path d="M-26.45259106699935,-68.64356303787946L-112.25179386078383,-43.453028157231415L-25.915535263758514,-67.26286808370071z" style="fill:rgb(114,65,238)"/><path d="M-24.42064407357697,-61.26147828304606L-110.72989458723843,-36.25129264368429L-24.280886393361495,-59.924819156406436z" style="fill:rgb(85,182,234)"/><path d="M-27.01781136985527,-69.86755838249513L-112.83280648973063,-44.78875135728686L-26.45259106699935,-68.64356303787946z" style="fill:rgb(123,46,225)"/><path d="M-24.280886393361495,-59.924819156406436L-110.78342590812386,-35.08921016741124L-24.251245629759012,-58.760287635647686z" style="fill:rgb(84,202,220)"/><path d="M-21.71134766403157,-58.08004682863148L-21.365051484033874,-53.09257779481435L-21.429563220989895,-55.41839776248122zM-23.71181072516183,-67.04939904988616L-24.280886393361495,-59.924819156406436L-22.8742277894351,-64.00480730553753zM-24.665015790260703,-62.71955847260294L-24.236584240630705,-68.64670479776198L-24.495711129127546,-69.43543482275896zM-24.42064407357697,-61.26147828304606L-24.07706724689858,-68.16116655279757L-24.236584240630705,-68.64670479776198zM-24.6811377091522,-69.99982795336587L-25.004670858748764,-64.24408100430392L-24.495711129127546,-69.43543482275896zM-22.8742277894351,-64.00480730553753L-24.280886393361495,-59.924819156406436L-22.19907072370998,-60.97791738892748zM-24.280886393361495,-59.924819156406436L-23.71181072516183,-67.04939904988616L-24.07706724689858,-68.16116655279757zM-25.004670858748764,-64.24408100430392L-24.6811377091522,-69.99982795336587L-24.846434903970103,-70.4259808652289zM-25.426788504672718,-65.77773173913685L-24.846434903970103,-70.4259808652289L-25.27669241709666,-71.53522497990308zM-22.19907072370998,-60.97791738892748L-24.280886393361495,-59.924819156406436L-21.71134766403157,-58.08004682863148zM-25.746801729862447,-72.74720913804389L-25.915535263758514,-67.26286808370071L-25.27669241709666,-71.53522497990308zM-25.915535263758514,-67.26286808370071L-25.746801729862447,-72.74720913804389L-25.76834322179077,-72.79404976285059zM-26.45259106699935,-68.64356303787946L-25.76834322179077,-72.79404976285059L-26.307784004358034,-73.96709121026157zM-21.71134766403157,-58.08004682863148L-24.251245629759012,-58.760287635647686L-21.365051484033874,-53.09257779481435zM-24.495711129127546,-69.43543482275896L-25.004670858748764,-64.24408100430392L-24.665015790260703,-62.71955847260294zM-24.846434903970103,-70.4259808652289L-25.426788504672718,-65.77773173913685L-25.004670858748764,-64.24408100430392zM-24.236584240630705,-68.64670479776198L-24.665015790260703,-62.71955847260294L-24.42064407357697,-61.26147828304606zM-27.01781136985527,-69.86755838249513L-26.307784004358034,-73.96709121026157L-26.86977721205739,-75.18916586043777zM-25.27669241709666,-71.53522497990308L-25.915535263758514,-67.26286808370071L-25.426788504672718,-65.77773173913685zM-24.07706724689858,-68.16116655279757L-24.42064407357697,-61.26147828304606L-24.280886393361495,-59.924819156406436zM-25.76834322179077,-72.79404976285059L-26.45259106699935,-68.64356303787946L-25.915535263758514,-67.26286808370071zM-21.71134766403157,-58.08004682863148L-24.280886393361495,-59.924819156406436L-24.251245629759012,-58.760287635647686zM-26.307784004358034,-73.96709121026157L-27.01781136985527,-69.86755838249513L-26.45259106699935,-68.64356303787946z" style="fill:rgb(247,158,158)"/><path d="M-47.76503438492322,-19.148725506709205L-46.1942068342976,-52.7577391578167L-46.8637596164638,-52.57458179467162zM-47.76503438492322,-19.148725506709205L-44.363819779183274,-53.25844440173176L-46.1942068342976,-52.7577391578167zM-44.363819779183274,-53.25844440173176L-43.20410765603202,-22.263789417140767L-41.86075496435378,-53.943161907872806zM-41.86075496435378,-53.943161907872806L-40.638868458901605,-22.43532922832747L-39.354557197484915,-54.628741578326405zM-40.638868458901605,-22.43532922832747L-37.51790419463355,-55.13116088459955L-39.354557197484915,-54.628741578326405zM-38.796556677038815,-21.52765792278561L-36.84522059291126,-55.3151747461092L-37.51790419463355,-55.13116088459955z" style="fill:rgb(83,212,212)"/><path d="M-57.75362348013425,-130.53417011836672L-113.46227598719368,-45.96532864866352L-27.01781136985527,-69.86755838249513z" style="fill:rgb(127,37,217)"/><path d="M-26.86977721205739,-75.18916586043777L-57.75362348013425,-130.53417011836672L-27.01781136985527,-69.86755838249513z" style="fill:rgb(247,158,158)"/><path d="M-43.20410765603202,-22.263789417140767L-44.363819779183274,-53.25844440173176L-45.80973587582763,-21.06192814935641zM-44.363819779183274,-53.25844440173176L-47.76503438492322,-19.148725506709205L-45.80973587582763,-21.06192814935641zM-40.638868458901605,-22.43532922832747L-41.86075496435378,-53.943161907872806L-43.20410765603202,-22.263789417140767zM-37.51790419463355,-55.13116088459955L-40.638868458901605,-22.43532922832747L-38.796556677038815,-21.52765792278561zM52.412188055467105,-83.88225083507743L145.10938944513683,-116.28428347564176L52.04557572952283,-90.57791139328071zM-36.84522059291126,-55.3151747461092L-38.796556677038815,-21.52765792278561L-38.17345523352951,-19.777978617924038z" style="fill:rgb(83,212,212)"/><path d="M-113.46227598719368,-45.96532864866352L-57.75362348013425,-130.53417011836672L-148.11355065078703,-103.98245064762482z" style="fill:rgb(127,37,217)"/><path d="M51.160741586194106,-88.51898990018681L144.04575686201508,-119.85732355969633L50.86462651128263,-94.0325536051648zM145.76688646976638,-111.20065548477596L51.71537892037812,-91.5948225141837L52.05104201213425,-85.4318695359855zM145.34446262509445,-112.80428029792199L51.318038484258444,-92.73656766059705L51.62861083591926,-86.9970474963757zM146.49400649872703,-108.12382825370662L52.293693891690666,-89.76977094253719L52.69844292501588,-82.40642660621337zM146.77130132621014,-106.76640944037507L52.44643609926936,-89.272288217202L52.89892908112638,-81.06003399304855zM-49.156943075793,-4.202268505491302L-47.9461905478659,-15.27276041596595L-46.8637596164638,-52.57458179467162zM144.46060962015838,-115.84305742604363L50.3823399110839,-95.24667467339209L50.66498203241489,-89.94039651184647z" style="fill:rgb(83,212,212)"/><path d="M-43.20410765603202,-22.263789417140767L-42.730715875206016,-15.43906751745256L-40.13844974727252,-16.633788090260627z" style="fill:rgb(158,48,222)"/><path d="M-42.730715875206016,-15.43906751745256L-47.76503438492322,-19.148725506709205L-44.67287106728718,-13.53090799462053z" style="fill:rgb(212,85,213)"/><path d="M145.76688646976638,-111.20065548477596L51.62861083591926,-86.9970474963757L52.05104201213425,-85.4318695359855z" style="fill:rgb(99,111,250)"/><path d="M146.1549261399019,-109.62071587353411L52.05104201213425,-85.4318695359855L52.412188055467105,-83.88225083507743z" style="fill:rgb(93,135,250)"/><path d="M-40.638868458901605,-22.43532922832747L-40.13844974727252,-16.633788090260627L-37.58328739748244,-16.797961343263907z" style="fill:rgb(96,32,206)"/><path d="M144.03240181264889,-117.16361568277219L49.87987842150061,-96.51157418701558L50.15995905599103,-91.20751950818902z" style="fill:rgb(83,212,212)"/><path d="M51.62861083591926,-86.9970474963757L144.90352244481087,-114.37139602010684L51.160741586194106,-88.51898990018681z" style="fill:rgb(106,87,246)"/><path d="M146.49400649872703,-108.12382825370662L52.412188055467105,-83.88225083507743L52.69844292501588,-82.40642660621337z" style="fill:rgb(89,159,244)"/><path d="M55.54166370876887,-74.00720831740503L146.9762000914711,-105.59994678360907L53.00588609077941,-79.8941514801098z" style="fill:rgb(127,37,217)"/><path d="M52.89892908112638,-81.06003399304855L146.49400649872703,-108.12382825370662L52.69844292501588,-82.40642660621337z" style="fill:rgb(85,182,234)"/><path d="M51.160741586194106,-88.51898990018681L144.46060962015838,-115.84305742604363L50.66498203241489,-89.94039651184647z" style="fill:rgb(114,65,238)"/><path d="M-42.730715875206016,-15.43906751745256L-43.20410765603202,-22.263789417140767L-45.80973587582763,-21.06192814935641z" style="fill:rgb(158,48,222)"/><path d="M-35.74509911020452,-15.884679510952747L-40.638868458901605,-22.43532922832747L-37.58328739748244,-16.797961343263907z" style="fill:rgb(42,41,169)"/><path d="M-44.67287106728718,-13.53090799462053L-48.54878050325236,-17.030832126924885L-45.44717174776991,-11.414645140891448z" style="fill:rgb(243,133,180)"/><path d="M-47.76503438492322,-19.148725506709205L-42.730715875206016,-15.43906751745256L-45.80973587582763,-21.06192814935641z" style="fill:rgb(212,85,213)"/><path d="M-40.13844974727252,-16.633788090260627L-40.638868458901605,-22.43532922832747L-43.20410765603202,-22.263789417140767z" style="fill:rgb(96,32,206)"/><path d="M53.00588609077941,-79.8941514801098L146.77130132621014,-106.76640944037507L52.89892908112638,-81.06003399304855z" style="fill:rgb(84,202,220)"/><path d="M50.66498203241489,-89.94039651184647L144.03240181264889,-117.16361568277219L50.15995905599103,-91.20751950818902z" style="fill:rgb(123,46,225)"/><path d="M-48.54878050325236,-17.030832126924885L-44.67287106728718,-13.53090799462053L-47.76503438492322,-19.148725506709205z" style="fill:rgb(243,133,180)"/><path d="M-48.54878050325236,-17.030832126924885L-44.841398979483984,-9.654355934350825L-45.44717174776991,-11.414645140891448z" style="fill:rgb(243,180,133)"/><path d="M52.293693891690666,-89.76977094253719L146.49400649872703,-108.12382825370662L145.34332182437393,-115.45232327250919zM51.71537892037812,-91.5948225141837L145.76688646976638,-111.20065548477596L144.80552303697624,-117.33363772087144zM52.44643609926936,-89.272288217202L146.77130132621014,-106.76640944037507L145.48733437576635,-114.94017965477244zM51.318038484258444,-92.73656766059705L145.34446262509445,-112.80428029792199L144.45027079450935,-118.5154671258762z" style="fill:rgb(83,212,212)"/><path d="M-40.638868458901605,-22.43532922832747L-35.74509911020452,-15.884679510952747L-38.796556677038815,-21.52765792278561z" style="fill:rgb(42,41,169)"/><path d="M50.3823399110839,-95.24667467339209L144.46060962015838,-115.84305742604363L143.6363721805143,-121.12231783327584z" style="fill:rgb(83,212,212)"/><path d="M-44.841398979483984,-9.654355934350825L-48.54878050325236,-17.030832126924885L-47.9461905478659,-15.27276041596595z" style="fill:rgb(243,180,133)"/><path d="M145.10938944513683,-116.28428347564176L52.412188055467105,-83.88225083507743L146.1549261399019,-109.62071587353411zM49.87987842150061,-96.51157418701558L144.03240181264889,-117.16361568277219L143.2098375294477,-122.44029187234793zM144.04575686201508,-119.85732355969633L51.160741586194106,-88.51898990018681L144.90352244481087,-114.37139602010684z" style="fill:rgb(83,212,212)"/><path d="M146.9762000914711,-105.59994678360907L55.54166370876887,-74.00720831740503L149.06525219266877,-99.44076591340976z" style="fill:rgb(127,37,217)"/><path d="M145.81706356717189,-113.76751285731407L147.42576561333874,-107.44898900839218L146.6552132300764,-110.58506799317202zM-57.75362348013425,-130.53417011836672L-26.86977721205739,-75.18916586043777L-57.420010434574365,-135.794138102615zM147.42576561333874,-107.44898900839218L145.81706356717189,-113.76751285731407L145.48733437576635,-114.94017965477244z" style="fill:rgb(247,158,158)"/><path d="M52.05104201213425,-85.4318695359855L146.1549261399019,-109.62071587353411L145.76688646976638,-111.20065548477596z" style="fill:rgb(93,135,250)"/><path d="M51.62861083591926,-86.9970474963757L145.76688646976638,-111.20065548477596L145.34446262509445,-112.80428029792199z" style="fill:rgb(99,111,250)"/><path d="M144.90352244481087,-114.37139602010684L51.62861083591926,-86.9970474963757L145.34446262509445,-112.80428029792199z" style="fill:rgb(106,87,246)"/><path d="M52.412188055467105,-83.88225083507743L146.49400649872703,-108.12382825370662L146.1549261399019,-109.62071587353411z" style="fill:rgb(89,159,244)"/><path d="M147.42576561333874,-107.44898900839218L145.48733437576635,-114.94017965477244L148.10034059791425,-104.47440597839251z" style="fill:rgb(247,158,158)"/><path d="M144.46060962015838,-115.84305742604363L51.160741586194106,-88.51898990018681L144.90352244481087,-114.37139602010684z" style="fill:rgb(114,65,238)"/><path d="M146.49400649872703,-108.12382825370662L52.89892908112638,-81.06003399304855L146.77130132621014,-106.76640944037507z" style="fill:rgb(85,182,234)"/><path d="M144.03240181264889,-117.16361568277219L50.66498203241489,-89.94039651184647L144.46060962015838,-115.84305742604363z" style="fill:rgb(123,46,225)"/><path d="M146.77130132621014,-106.76640944037507L53.00588609077941,-79.8941514801098L146.9762000914711,-105.59994678360907z" style="fill:rgb(84,202,220)"/><path d="M144.9419936826422,-116.87961500610936L146.1549261399019,-109.62071587353411L145.10938944513683,-116.28428347564176zM145.10938944513683,-116.28428347564176L146.49400649872703,-108.12382825370662L145.34332182437393,-115.45232327250919zM146.1549261399019,-109.62071587353411L144.9419936826422,-116.87961500610936L144.80552303697624,-117.33363772087144zM145.34332182437393,-115.45232327250919L146.77130132621014,-106.76640944037507L145.48733437576635,-114.94017965477244zM144.45027079450935,-118.5154671258762L145.76688646976638,-111.20065548477596L144.80552303697624,-117.33363772087144zM148.10034059791425,-104.47440597839251L145.48733437576635,-114.94017965477244L146.77130132621014,-106.76640944037507zM144.0621075102235,-119.80680787179509L145.34446262509445,-112.80428029792199L144.45027079450935,-118.5154671258762zM145.34446262509445,-112.80428029792199L144.0621075102235,-119.80680787179509L144.04575686201508,-119.85732355969633z" style="fill:rgb(247,158,158)"/><path d="M-57.75362348013425,-130.53417011836672L-147.27724574511984,-109.27385308483487L-148.11355065078703,-103.98245064762482z" style="fill:rgb(83,212,212)"/><path d="M148.10034059791425,-104.47440597839251L146.77130132621014,-106.76640944037507L148.65383640499186,-101.77126347353101zM143.6363721805143,-121.12231783327584L144.90352244481087,-114.37139602010684L144.04575686201508,-119.85732355969633zM143.2098375294477,-122.44029187234793L144.46060962015838,-115.84305742604363L143.6363721805143,-121.12231783327584zM146.1549261399019,-109.62071587353411L144.80552303697624,-117.33363772087144L145.76688646976638,-111.20065548477596zM148.65383640499186,-101.77126347353101L146.77130132621014,-106.76640944037507L149.06525219266877,-99.44076591340976zM146.49400649872703,-108.12382825370662L145.10938944513683,-116.28428347564176L146.1549261399019,-109.62071587353411zM145.76688646976638,-111.20065548477596L144.45027079450935,-118.5154671258762L145.34446262509445,-112.80428029792199zM146.77130132621014,-106.76640944037507L145.34332182437393,-115.45232327250919L146.49400649872703,-108.12382825370662zM145.34446262509445,-112.80428029792199L144.04575686201508,-119.85732355969633L144.90352244481087,-114.37139602010684zM144.90352244481087,-114.37139602010684L143.6363721805143,-121.12231783327584L144.46060962015838,-115.84305742604363zM144.46060962015838,-115.84305742604363L143.2098375294477,-122.44029187234793L144.03240181264889,-117.16361568277219zM149.06525219266877,-99.44076591340976L146.77130132621014,-106.76640944037507L146.9762000914711,-105.59994678360907z" style="fill:rgb(247,158,158)"/><path d="M-147.27724574511984,-109.27385308483487L-57.75362348013425,-130.53417011836672L-57.420010434574365,-135.794138102615z" style="fill:rgb(83,212,212)"/><path d="M121.67091246017597,-183.25700057641794L50.15995905599103,-91.20751950818902L144.03240181264889,-117.16361568277219z" style="fill:rgb(127,37,217)"/><path d="M-135.06108565619934,185.37691872600604L-46.8637596164638,-52.57458179467162L-110.78342590812386,-35.08921016741124zM66.8794782735651,-83.68930102297156L75.36918359724167,6.922220361713304L68.81482908829324,-84.21872391926453zM66.17154179768099,-83.49564372256751L73.35670705405583,9.036848266001455L66.8794782735651,-83.68930102297156zM68.81482908829324,-84.21872391926453L78.22956551930318,5.615630058975711L71.46151105196395,-84.9427289030064zM78.22956551930318,5.615630058975711L74.11160556629271,-85.66766661561708L71.46151105196395,-84.9427289030064zM74.11160556629271,-85.66766661561708L83.43754533386355,6.510437490746032L76.05376938753346,-86.19895323144594zM83.43754533386355,6.510437490746032L76.76510716690123,-86.39354241283449L76.05376938753346,-86.19895323144594z" style="fill:rgb(83,212,212)"/><path d="M143.2098375294477,-122.44029187234793L121.67091246017597,-183.25700057641794L144.03240181264889,-117.16361568277219z" style="fill:rgb(247,158,158)"/><path d="M-36.84522059291126,-55.3151747461092L-43.44944968869845,121.3823392514274L66.17154179768099,-83.49564372256751z" style="fill:rgb(83,212,212)"/><path d="M50.15995905599103,-91.20751950818902L121.67091246017597,-183.25700057641794L23.099318911004346,-154.29233096368313z" style="fill:rgb(127,37,217)"/><path d="M-46.8637596164638,-52.57458179467162L-135.06108565619934,185.37691872600604L-48.54878050325236,-17.030832126924885z" style="fill:rgb(83,212,212)"/><path d="M121.67091246017597,-183.25700057641794L143.2098375294477,-122.44029187234793L120.93665691447661,-188.433977887216z" style="fill:rgb(247,158,158)"/><path d="M-47.9461905478659,-15.27276041596595L-52.10366327862878,119.08623624530085L-46.11122436884359,-14.348622132973647zM-46.11122436884359,-14.348622132973647L-49.14098376230606,117.74149152860589L-43.532816046916174,-14.51208301443633zM-49.14098376230606,117.74149152860589L-40.90667379062305,-15.722338276551266L-43.532816046916174,-14.51208301443633zM23.099318911004346,-154.29233096368313L120.93665691447661,-188.433977887216L22.963197090967533,-159.51828675848196zM-46.2305652805304,117.72993214308212L-38.94402979281667,-17.652009407075283L-40.90667379062305,-15.722338276551266zM-38.94402979281667,-17.652009407075283L-43.44944968869845,121.3823392514274L-38.17345523352951,-19.777978617924038zM-47.9461905478659,-15.27276041596595L-49.156943075793,-4.202268505491302L-55.23899756541564,124.09232190346809zM78.22956551930318,5.615630058975711L68.81482908829324,-84.21872391926453L75.36918359724167,6.922220361713304zM75.36918359724167,6.922220361713304L66.8794782735651,-83.68930102297156L73.35670705405583,9.036848266001455zM74.11160556629271,-85.66766661561708L78.22956551930318,5.615630058975711L81.18040962484571,5.46356962005289zM73.35670705405583,9.036848266001455L66.17154179768099,-83.49564372256751L72.72883642060796,11.400183546250695zM83.43754533386355,6.510437490746032L74.11160556629271,-85.66766661561708L81.18040962484571,5.46356962005289zM120.93665691447661,-188.433977887216L23.099318911004346,-154.29233096368313L121.67091246017597,-183.25700057641794zM76.76510716690123,-86.39354241283449L83.43754533386355,6.510437490746032L84.39371676379427,8.483035565628759z" style="fill:rgb(83,212,212)"/><path d="M-48.54878050325236,-17.030832126924885L-57.337801674924684,168.36440795322375L-49.156943075793,-4.202268505491302z" style="fill:rgb(255,127,127)"/><path d="M66.17154179768099,-83.49564372256751L-43.44944968869845,121.3823392514274L72.72883642060796,11.400183546250695z" style="fill:rgb(83,212,212)"/><path d="M78.22956551930318,5.615630058975711L78.02673335429101,12.890545158637922L80.87101466320748,11.592396294306218z" style="fill:rgb(158,48,222)"/><path d="M78.02673335429101,12.890545158637922L73.35670705405583,9.036848266001455L76.02850025749576,14.998851978256729z" style="fill:rgb(212,85,213)"/><path d="M81.18040962484571,5.46356962005289L80.87101466320748,11.592396294306218L83.80811438623212,11.448685447867085z" style="fill:rgb(96,32,206)"/><path d="M78.02673335429101,12.890545158637922L78.22956551930318,5.615630058975711L75.36918359724167,6.922220361713304z" style="fill:rgb(158,48,222)"/><path d="M86.05748643201751,12.501568341528253L81.18040962484571,5.46356962005289L83.80811438623212,11.448685447867085z" style="fill:rgb(42,41,169)"/><path d="M76.02850025749576,14.998851978256729L72.72883642060796,11.400183546250695L75.40924343171717,17.359631091849284z" style="fill:rgb(243,133,180)"/><path d="M73.35670705405583,9.036848266001455L78.02673335429101,12.890545158637922L75.36918359724167,6.922220361713304z" style="fill:rgb(212,85,213)"/><path d="M80.87101466320748,11.592396294306218L81.18040962484571,5.46356962005289L78.22956551930318,5.615630058975711z" style="fill:rgb(96,32,206)"/><path d="M76.76510716690123,-86.39354241283449L181.7945164040089,116.02177259504467L146.9762000914711,-105.59994678360907z" style="fill:rgb(83,212,212)"/><path d="M72.72883642060796,11.400183546250695L76.02850025749576,14.998851978256729L73.35670705405583,9.036848266001455z" style="fill:rgb(243,133,180)"/><path d="M87.01400317101998,14.476184845318558L83.43754533386355,6.510437490746032L86.05748643201751,12.501568341528253z" style="fill:rgb(11,74,121)"/><path d="M81.18040962484571,5.46356962005289L86.05748643201751,12.501568341528253L83.43754533386355,6.510437490746032z" style="fill:rgb(42,41,169)"/><path d="M181.7945164040089,116.02177259504467L149.06525219266877,-99.44076591340976L146.9762000914711,-105.59994678360907z" style="fill:rgb(247,158,158)"/><path d="M-52.10366327862878,119.08623624530085L-47.9461905478659,-15.27276041596595L-54.33439947863835,121.40766295193029zM-49.14098376230606,117.74149152860589L-46.11122436884359,-14.348622132973647L-52.10366327862878,119.08623624530085z" style="fill:rgb(83,212,212)"/><path d="M83.43754533386355,6.510437490746032L87.01400317101998,14.476184845318558L84.39371676379427,8.483035565628759z" style="fill:rgb(11,74,121)"/><path d="M-47.9461905478659,-15.27276041596595L-55.23899756541564,124.09232190346809L-54.33439947863835,121.40766295193029zM-40.90667379062305,-15.722338276551266L-49.14098376230606,117.74149152860589L-46.2305652805304,117.72993214308212zM-38.94402979281667,-17.652009407075283L-46.2305652805304,117.72993214308212L-44.146059465226884,119.05941685349293zM-43.44944968869845,121.3823392514274L-38.94402979281667,-17.652009407075283L-44.146059465226884,119.05941685349293zM-57.337801674924684,168.36440795322375L-48.54878050325236,-17.030832126924885L-135.06108565619934,185.37691872600604z" style="fill:rgb(83,212,212)"/><path d="M-49.14098376230606,117.74149152860589L-48.56629895531128,124.63409965294366L-45.620881918422405,123.2983199255374z" style="fill:rgb(158,48,222)"/><path d="M-48.56629895531128,124.63409965294366L-54.33439947863835,121.40766295193029L-50.779965083380944,126.94725876349952z" style="fill:rgb(212,85,213)"/><path d="M-46.2305652805304,117.72993214308212L-45.620881918422405,123.2983199255374L-42.7234052283417,123.29407259968889z" style="fill:rgb(96,32,206)"/><path d="M-48.56629895531128,124.63409965294366L-49.14098376230606,117.74149152860589L-52.10366327862878,119.08623624530085z" style="fill:rgb(158,48,222)"/><path d="M-40.644099859218215,124.6272382980323L-46.2305652805304,117.72993214308212L-42.7234052283417,123.29407259968889z" style="fill:rgb(42,41,169)"/><path d="M-50.779965083380944,126.94725876349952L-55.23899756541564,124.09232190346809L-51.67219628840245,129.62649289839206z" style="fill:rgb(243,133,180)"/><path d="M-54.33439947863835,121.40766295193029L-48.56629895531128,124.63409965294366L-52.10366327862878,119.08623624530085z" style="fill:rgb(212,85,213)"/><path d="M-45.620881918422405,123.2983199255374L-46.2305652805304,117.72993214308212L-49.14098376230606,117.74149152860589z" style="fill:rgb(96,32,206)"/><path d="M-55.23899756541564,124.09232190346809L-50.779965083380944,126.94725876349952L-54.33439947863835,121.40766295193029z" style="fill:rgb(243,133,180)"/><path d="M-55.23899756541564,124.09232190346809L-50.99783260845127,131.9587395836409L-51.67219628840245,129.62649289839206z" style="fill:rgb(243,180,133)"/><path d="M-46.2305652805304,117.72993214308212L-40.644099859218215,124.6272382980323L-44.146059465226884,119.05941685349293z" style="fill:rgb(42,41,169)"/><path d="M72.72883642060796,11.400183546250695L82.35044741790567,137.78864863351055L73.66027918938408,13.382699754896734z" style="fill:rgb(83,212,212)"/><path d="M-50.99783260845127,131.9587395836409L-55.23899756541564,124.09232190346809L-54.568935025773435,126.42571708393679z" style="fill:rgb(243,180,133)"/><path d="M73.66027918938408,13.382699754896734L84.74271967684622,137.265023743914L75.91051126807427,14.4495993895724zM84.74271967684622,137.265023743914L78.87918076302456,14.307653165677861L75.91051126807427,14.4495993895724zM83.78368340500442,10.856486198515597L94.57545955295775,135.1127703648033L84.39371676379427,8.483035565628759zM91.29268486596058,135.83132069861398L83.78368340500442,10.856486198515597L81.76430337733706,12.991146427458036zM78.87918076302456,14.307653165677861L91.29268486596058,135.83132069861398L81.76430337733706,12.991146427458036zM-43.44944968869845,121.3823392514274L81.47550342680717,137.9801671358313L72.72883642060796,11.400183546250695zM-55.23899756541564,124.09232190346809L-56.52071838352294,168.18555452351606L-54.568935025773435,126.42571708393679zM-54.568935025773435,126.42571708393679L-54.286708851415405,167.69655726162202L-52.49404065914918,127.77884775981418zM-45.92713407337816,165.86676583119467L-43.44944968869845,121.3823392514274L-44.33710532275333,124.08018302584429zM-52.49404065914918,127.77884775981418L-51.23094837750823,167.02769675836612L-49.566682966808884,127.78046149542658zM-51.23094837750823,167.02769675836612L-46.57745256495446,126.42524353024307L-49.566682966808884,127.78046149542658zM-46.57745256495446,126.42524353024307L-45.92713407337816,165.86676583119467L-44.33710532275333,124.08018302584429zM181.7945164040089,116.02177259504467L76.76510716690123,-86.39354241283449L94.57545955295775,135.1127703648033zM-56.52071838352294,168.18555452351606L-55.23899756541564,124.09232190346809L-57.337801674924684,168.36440795322375z" style="fill:rgb(83,212,212)"/><path d="M149.06525219266877,-99.44076591340976L181.7945164040089,116.02177259504467L184.14423786582492,122.16041918573168z" style="fill:rgb(247,158,158)"/><path d="M-54.286708851415405,167.69655726162202L-54.568935025773435,126.42571708393679L-56.52071838352294,168.18555452351606zM-51.23094837750823,167.02769675836612L-52.49404065914918,127.77884775981418L-54.286708851415405,167.69655726162202z" style="fill:rgb(83,212,212)"/><path d="M-29.81717544351192,163.79690866356378L-135.06108565619934,185.37691872600604L-135.31431514371187,186.85046166424334z" style="fill:rgb(84,220,202)"/><path d="M-43.44944968869845,121.3823392514274L-45.92713407337816,165.86676583119467L-45.10537236754089,165.68690024937382zM-46.57745256495446,126.42524353024307L-51.23094837750823,167.02769675836612L-48.17050667188583,166.35781254392472zM-45.92713407337816,165.86676583119467L-46.57745256495446,126.42524353024307L-48.17050667188583,166.35781254392472z" style="fill:rgb(83,212,212)"/><path d="M-30.059937979853242,165.0098499815286L-135.31431514371187,186.85046166424334L-135.71839213372414,188.06813866839093z" style="fill:rgb(85,234,182)"/><path d="M-136.25862543016842,188.9824073171127L-30.059937979853242,165.0098499815286L-135.71839213372414,188.06813866839093z" style="fill:rgb(89,244,159)"/><path d="M-136.91504081227586,189.55672977048707L-30.42863461867425,165.90823666301426L-136.25862543016842,188.9824073171127z" style="fill:rgb(93,250,135)"/><path d="M-137.66302215715163,189.76722609979817L-30.909821914434733,166.45603099583818L-136.91504081227586,189.55672977048707z" style="fill:rgb(99,250,111)"/><path d="M-30.130394683252664,176.45410800024325L-135.31431514371187,186.85046166424334L-136.69803003827025,199.40756640455797zM82.35044741790567,137.78864863351055L72.72883642060796,11.400183546250695L81.47550342680717,137.9801671358313zM-30.343589774224835,176.391109646973L-135.71839213372414,188.06813866839093L-136.9650595883227,199.35906540871454z" style="fill:rgb(83,212,212)"/><path d="M-135.06108565619934,185.37691872600604L-29.81717544351192,163.79690866356378L-29.70893455338583,162.31683902860223z" style="fill:rgb(84,220,202)"/><path d="M84.74271967684622,137.265023743914L73.66027918938408,13.382699754896734L82.35044741790567,137.78864863351055zM-30.690321145645477,176.28866178467317L-136.25862543016842,188.9824073171127L-137.39931234909682,199.28016556316774z" style="fill:rgb(83,212,212)"/><path d="M-135.31431514371187,186.85046166424334L-30.059937979853242,165.0098499815286L-29.81717544351192,163.79690866356378z" style="fill:rgb(85,234,182)"/><path d="M78.87918076302456,14.307653165677861L84.74271967684622,137.265023743914L88.01510488179963,136.54874655038222zM91.29268486596058,135.83132069861398L78.87918076302456,14.307653165677861L88.01510488179963,136.54874655038222zM-31.155092515341803,176.03816607858406L-136.91504081227586,189.55672977048707L-137.9725649086702,199.06238542845674zM83.78368340500442,10.856486198515597L91.29268486596058,135.83132069861398L93.69533375350429,135.3054245335338zM94.57545955295775,135.1127703648033L83.78368340500442,10.856486198515597L93.69533375350429,135.3054245335338zM81.47550342680717,137.9801671358313L-43.44944968869845,121.3823392514274L-45.10537236754089,165.68690024937382z" style="fill:rgb(83,212,212)"/><path d="M-136.0874877545987,199.51849912238106L-30.938745106172032,176.2152445943105L-137.71042585025282,199.2236439467798z" style="fill:rgb(148,8,167)"/><path d="M-30.059937979853242,165.0098499815286L-136.25862543016842,188.9824073171127L-30.42863461867425,165.90823666301426z" style="fill:rgb(89,244,159)"/><path d="M-31.718825763621528,175.57674041317858L-137.66302215715163,189.76722609979817L-138.6556064113617,198.642201986808zM-135.31431514371187,186.85046166424334L-30.130394683252664,176.45410800024325L-29.81717544351192,163.79690866356378z" style="fill:rgb(83,212,212)"/><path d="M-29.70893455338583,162.31683902860223L-26.348099178047175,170.8201160278141L-26.14290290219189,167.85856052270464z" style="fill:rgb(247,158,158)"/><path d="M-32.36342865742545,175.03603158084104L-138.47410978812528,189.6038438041598L-139.43554310749403,198.1488038539282z" style="fill:rgb(83,212,212)"/><path d="M-30.42863461867425,165.90823666301426L-136.91504081227586,189.55672977048707L-30.909821914434733,166.45603099583818z" style="fill:rgb(93,250,135)"/><path d="M-135.71839213372414,188.06813866839093L-30.343589774224835,176.391109646973L-30.059937979853242,165.0098499815286z" style="fill:rgb(83,212,212)"/><path d="M-130.94128815405125,190.63262485513468L181.7945164040089,116.02177259504467L-135.06108565619934,185.37691872600604z" style="fill:rgb(127,37,217)"/><path d="M-137.71042585025282,199.2236439467798L-32.33576036916027,175.07178519674574L-139.4030511034274,198.18240125041197z" style="fill:rgb(140,16,189)"/><path d="M-33.05663747484101,174.14012228965038L-139.31711802068668,189.07106793011232L-140.24982172399163,197.30696582109042z" style="fill:rgb(83,212,212)"/><path d="M-26.348099178047175,170.8201160278141L-29.70893455338583,162.31683902860223L-26.820744275940683,173.2609189387918z" style="fill:rgb(247,158,158)"/><path d="M-136.25862543016842,188.9824073171127L-30.690321145645477,176.28866178467317L-30.42863461867425,165.90823666301426z" style="fill:rgb(83,212,212)"/><path d="M-30.909821914434733,166.45603099583818L-137.66302215715163,189.76722609979817L-31.48559457911574,166.63029157488018z" style="fill:rgb(99,250,111)"/><path d="M-33.779528860358475,173.2058731882331L-140.15928908024156,188.18799601853425L-141.09890398325578,196.42914092417618zM-136.91504081227586,189.55672977048707L-31.155092515341803,176.03816607858406L-30.909821914434733,166.45603099583818z" style="fill:rgb(83,212,212)"/><path d="M-26.820744275940683,173.2609189387918L-29.70893455338583,162.31683902860223L-27.545613995873378,175.0839642276956z" style="fill:rgb(247,158,158)"/><path d="M-139.4030511034274,198.18240125041197L-33.779528860358475,173.2058731882331L-141.09890398325578,196.42914092417618z" style="fill:rgb(131,29,208)"/><path d="M-27.545613995873378,175.0839642276956L-29.70893455338583,162.31683902860223L-29.81717544351192,163.79690866356378z" style="fill:rgb(247,158,158)"/><path d="M-137.66302215715163,189.76722609979817L-31.718825763621528,175.57674041317858L-31.48559457911574,166.63029157488018z" style="fill:rgb(83,212,212)"/><path d="M-30.938745106172032,176.2152445943105L-136.0874877545987,199.51849912238106L-29.642945414297913,176.59814079623695z" style="fill:rgb(148,8,167)"/><path d="M-138.47410978812528,189.6038438041598L-32.36342865742545,175.03603158084104L-32.13420484367483,166.42226046867643zM-139.31711802068668,189.07106793011232L-33.05663747484101,174.14012228965038L-32.83080940959341,165.83804119030376z" style="fill:rgb(83,212,212)"/><path d="M-30.059937979853242,165.0098499815286L-30.130394683252664,176.45410800024325L-29.81717544351192,163.79690866356378zM-27.545613995873378,175.0839642276956L-29.81717544351192,163.79690866356378L-30.130394683252664,176.45410800024325z" style="fill:rgb(247,158,158)"/><path d="M-32.33576036916027,175.07178519674574L-137.71042585025282,199.2236439467798L-30.938745106172032,176.2152445943105z" style="fill:rgb(140,16,189)"/><path d="M-140.15928908024156,188.18799601853425L-33.779528860358475,173.2058731882331L-33.54844264001344,164.89868222123806z" style="fill:rgb(83,212,212)"/><path d="M-30.42863461867425,165.90823666301426L-30.343589774224835,176.391109646973L-30.059937979853242,165.0098499815286zM-27.545613995873378,175.0839642276956L-30.130394683252664,176.45410800024325L-28.49774502680953,176.21338116235523zM-30.909821914434733,166.45603099583818L-30.690321145645477,176.28866178467317L-30.42863461867425,165.90823666301426zM-30.130394683252664,176.45410800024325L-30.059937979853242,165.0098499815286L-30.343589774224835,176.391109646973z" style="fill:rgb(247,158,158)"/><path d="M-33.779528860358475,173.2058731882331L-139.4030511034274,198.18240125041197L-32.33576036916027,175.07178519674574z" style="fill:rgb(131,29,208)"/><path d="M-28.49774502680953,176.21338116235523L-30.130394683252664,176.45410800024325L-29.642945414297913,176.59814079623695zM-31.48559457911574,166.63029157488018L-31.155092515341803,176.03816607858406L-30.909821914434733,166.45603099583818zM-30.343589774224835,176.391109646973L-30.42863461867425,165.90823666301426L-30.690321145645477,176.28866178467317zM-32.13420484367483,166.42226046867643L-31.718825763621528,175.57674041317858L-31.48559457911574,166.63029157488018zM-30.690321145645477,176.28866178467317L-30.909821914434733,166.45603099583818L-31.155092515341803,176.03816607858406zM-31.155092515341803,176.03816607858406L-31.48559457911574,166.63029157488018L-31.718825763621528,175.57674041317858zM-32.83080940959341,165.83804119030376L-32.36342865742545,175.03603158084104L-32.13420484367483,166.42226046867643zM-30.690321145645477,176.28866178467317L-31.155092515341803,176.03816607858406L-30.938745106172032,176.2152445943105zM-31.718825763621528,175.57674041317858L-32.13420484367483,166.42226046867643L-32.36342865742545,175.03603158084104zM-33.54844264001344,164.89868222123806L-33.05663747484101,174.14012228965038L-32.83080940959341,165.83804119030376zM-32.36342865742545,175.03603158084104L-32.83080940959341,165.83804119030376L-33.05663747484101,174.14012228965038zM-31.718825763621528,175.57674041317858L-32.36342865742545,175.03603158084104L-32.33576036916027,175.07178519674574zM-33.05663747484101,174.14012228965038L-33.54844264001344,164.89868222123806L-33.779528860358475,173.2058731882331z" style="fill:rgb(247,158,158)"/><path d="M181.7945164040089,116.02177259504467L-130.94128815405125,190.63262485513468L184.14423786582492,122.16041918573168z" style="fill:rgb(127,37,217)"/><path d="M182.00144044468016,117.50966065324324L65.21664877361384,141.53900002348473L65.24588310653502,143.02343428526856z" style="fill:rgb(84,220,202)"/><path d="M-73.20765550120599,113.12450792271356L-141.09890398325578,196.42914092417618L-33.779528860358475,173.2058731882331z" style="fill:rgb(127,37,217)"/><path d="M182.1098997681356,118.70712051320231L65.24588310653502,143.02343428526856L65.15623018806245,144.23041405683685z" style="fill:rgb(85,234,182)"/><path d="M64.95052093605739,145.112656515767L182.1098997681356,118.70712051320231L65.15623018806245,144.23041405683685z" style="fill:rgb(89,244,159)"/><path d="M64.63600043919459,145.63466391208533L182.11529209670815,119.5671555321197L64.95052093605739,145.112656515767z" style="fill:rgb(93,250,135)"/><path d="M64.2241637432842,145.77436253795346L182.01684199381623,120.05498845233426L64.63600043919459,145.63466391208533z" style="fill:rgb(99,250,111)"/><path d="M-33.54844264001344,164.89868222123806L-73.20765550120599,113.12450792271356L-33.779528860358475,173.2058731882331z" style="fill:rgb(247,158,158)"/><path d="M65.5224790490118,155.5586555250884L182.11529209670815,119.5671555321197L64.95052093605739,145.112656515767zM184.0152394862806,130.3295627685789L65.24588310653502,143.02343428526856L65.94766479040949,155.75997737615495zM183.9200053875854,130.23534393644516L65.15623018806245,144.23041405683685L65.78577460284342,155.68333389240428z" style="fill:rgb(83,212,212)"/><path d="M65.21664877361384,141.53900002348473L182.00144044468016,117.50966065324324L181.7945164040089,116.02177259504467z" style="fill:rgb(84,220,202)"/><path d="M64.71133480213501,154.77749342963574L181.81772193638477,120.1497582274441L64.2241637432842,145.77436253795346z" style="fill:rgb(83,212,212)"/><path d="M65.24588310653502,143.02343428526856L182.1098997681356,118.70712051320231L182.00144044468016,117.50966065324324z" style="fill:rgb(85,234,182)"/><path d="M183.53837500065356,129.76158201804645L64.63600043919459,145.63466391208533L65.1611922534809,155.27746508824998z" style="fill:rgb(83,212,212)"/><path d="M66.31778321787375,155.93524335755964L183.65414702977873,129.97229306263765L65.33382945049331,155.46932868130133z" style="fill:rgb(148,8,167)"/><path d="M182.1098997681356,118.70712051320231L64.95052093605739,145.112656515767L182.11529209670815,119.5671555321197z" style="fill:rgb(89,244,159)"/><path d="M-141.09890398325578,196.42914092417618L-73.20765550120599,113.12450792271356L-186.61536097587393,139.62366695549093z" style="fill:rgb(127,37,217)"/><path d="M65.24588310653502,143.02343428526856L184.0152394862806,130.3295627685789L182.00144044468016,117.50966065324324zM182.88940076373686,128.57117496308516L63.73039698662288,145.52423463724676L64.1959415629136,154.19254859450834z" style="fill:rgb(83,212,212)"/><path d="M182.11529209670815,119.5671555321197L64.63600043919459,145.63466391208533L182.01684199381623,120.05498845233426z" style="fill:rgb(93,250,135)"/><path d="M65.15623018806245,144.23041405683685L183.9200053875854,130.23534393644516L182.1098997681356,118.70712051320231z" style="fill:rgb(83,212,212)"/><path d="M65.33382945049331,155.46932868130133L182.906431078402,128.61146193651967L64.21898655456224,154.2303042169548z" style="fill:rgb(140,16,189)"/><path d="M182.00144044468016,117.50966065324324L184.14423786582492,122.16041918573168L181.7945164040089,116.02177259504467z" style="fill:rgb(247,158,158)"/><path d="M182.46275366810616,127.56157916617394L63.17346969013749,144.891958197273L63.61847855911516,153.24648381444072z" style="fill:rgb(83,212,212)"/><path d="M182.01684199381623,120.05498845233426L64.2241637432842,145.77436253795346L181.81772193638477,120.1497582274441z" style="fill:rgb(99,250,111)"/><path d="M182.0177719464516,126.50862356813619L62.574833274493464,143.90038720409012L63.01625408795661,152.2598374575513zM64.63600043919459,145.63466391208533L183.53837500065356,129.76158201804645L182.01684199381623,120.05498845233426z" style="fill:rgb(83,212,212)"/><path d="M184.14423786582492,122.16041918573168L184.0152394862806,130.3295627685789L184.5630345446919,125.13940468447437z" style="fill:rgb(247,158,158)"/><path d="M64.21898655456224,154.2303042169548L182.0177719464516,126.50862356813619L63.01625408795661,152.2598374575513z" style="fill:rgb(131,29,208)"/><path d="M182.11529209670815,119.5671555321197L65.5224790490118,155.5586555250884L183.7651244460167,130.0821087105271z" style="fill:rgb(83,212,212)"/><path d="M184.14423786582492,122.16041918573168L182.00144044468016,117.50966065324324L184.0152394862806,130.3295627685789zM184.5630345446919,125.13940468447437L184.0152394862806,130.3295627685789L184.78800909777692,127.55221723571577z" style="fill:rgb(247,158,158)"/><path d="M183.65414702977873,129.97229306263765L66.31778321787375,155.93524335755964L184.23293469652742,130.5449560034787z" style="fill:rgb(148,8,167)"/><path d="M63.73039698662288,145.52423463724676L182.88940076373686,128.57117496308516L181.52508658255186,119.84556403938642zM181.81772193638477,120.1497582274441L64.71133480213501,154.77749342963574L183.2366566641077,129.21246831885156z" style="fill:rgb(83,212,212)"/><path d="M184.78800909777692,127.55221723571577L184.0152394862806,130.3295627685789L184.80869687376577,129.30227121743945z" style="fill:rgb(247,158,158)"/><path d="M63.17346969013749,144.891958197273L182.46275366810616,127.56157916617394L181.14979654915993,119.15205758773196z" style="fill:rgb(83,212,212)"/><path d="M182.1098997681356,118.70712051320231L184.0152394862806,130.3295627685789L182.00144044468016,117.50966065324324z" style="fill:rgb(247,158,158)"/><path d="M182.906431078402,128.61146193651967L65.33382945049331,155.46932868130133L183.65414702977873,129.97229306263765z" style="fill:rgb(140,16,189)"/><path d="M62.574833274493464,143.90038720409012L182.0177719464516,126.50862356813619L180.7061031460436,118.09441635501437z" style="fill:rgb(83,212,212)"/><path d="M182.11529209670815,119.5671555321197L183.9200053875854,130.23534393644516L182.1098997681356,118.70712051320231zM184.80869687376577,129.30227121743945L184.23293469652742,130.5449560034787L184.62205703057998,130.31566975341823zM182.01684199381623,120.05498845233426L183.7651244460167,130.0821087105271L182.11529209670815,119.5671555321197zM184.80869687376577,129.30227121743945L184.0152394862806,130.3295627685789L184.23293469652742,130.5449560034787zM-73.20765550120599,113.12450792271356L-33.54844264001344,164.89868222123806L-72.67244235122585,104.68597690268285zM184.0152394862806,130.3295627685789L182.1098997681356,118.70712051320231L183.9200053875854,130.23534393644516z" style="fill:rgb(247,158,158)"/><path d="M182.0177719464516,126.50862356813619L64.21898655456224,154.2303042169548L182.906431078402,128.61146193651967z" style="fill:rgb(131,29,208)"/><path d="M183.9200053875854,130.23534393644516L182.11529209670815,119.5671555321197L183.7651244460167,130.0821087105271zM183.2366566641077,129.21246831885156L182.01684199381623,120.05498845233426L181.81772193638477,120.1497582274441zM183.7651244460167,130.0821087105271L182.01684199381623,120.05498845233426L183.53837500065356,129.76158201804645zM182.88940076373686,128.57117496308516L181.81772193638477,120.1497582274441L181.52508658255186,119.84556403938642zM182.01684199381623,120.05498845233426L183.2366566641077,129.21246831885156L183.53837500065356,129.76158201804645z" style="fill:rgb(247,158,158)"/><path d="M-73.20765550120599,113.12450792271356L-185.28970117600159,131.2360266770814L-186.61536097587393,139.62366695549093z" style="fill:rgb(83,212,212)"/><path d="M182.46275366810616,127.56157916617394L181.52508658255186,119.84556403938642L181.14979654915993,119.15205758773196zM181.81772193638477,120.1497582274441L182.88940076373686,128.57117496308516L183.2366566641077,129.21246831885156zM183.7651244460167,130.0821087105271L183.53837500065356,129.76158201804645L183.65414702977873,129.97229306263765zM182.0177719464516,126.50862356813619L181.14979654915993,119.15205758773196L180.7061031460436,118.09441635501437zM181.52508658255186,119.84556403938642L182.46275366810616,127.56157916617394L182.88940076373686,128.57117496308516zM183.2366566641077,129.21246831885156L182.88940076373686,128.57117496308516L182.906431078402,128.61146193651967zM181.14979654915993,119.15205758773196L182.0177719464516,126.50862356813619L182.46275366810616,127.56157916617394z" style="fill:rgb(247,158,158)"/><path d="M-185.28970117600159,131.2360266770814L-73.20765550120599,113.12450792271356L-72.67244235122585,104.68597690268285z" style="fill:rgb(83,212,212)"/><path d="M156.10730584202676,59.54215584610011L63.01625408795661,152.2598374575513L182.0177719464516,126.50862356813619z" style="fill:rgb(127,37,217)"/><path d="M154.90066331687615,51.03452770182691L182.0177719464516,126.50862356813619L180.7061031460436,118.09441635501437z" style="fill:rgb(247,158,158)"/><path d="M63.01625408795661,152.2598374575513L156.10730584202676,59.54215584610011L29.4400455887806,89.13956890622305z" style="fill:rgb(127,37,217)"/><path d="M182.0177719464516,126.50862356813619L154.90066331687615,51.03452770182691L156.10730584202676,59.54215584610011z" style="fill:rgb(247,158,158)"/><path d="M156.10730584202676,59.54215584610011L29.21929390555813,80.66450797721424L29.4400455887806,89.13956890622305zM29.21929390555813,80.66450797721424L156.10730584202676,59.54215584610011L154.90066331687615,51.03452770182691z" style="fill:rgb(83,212,212)"/></svg>
