<?xml version="1.0" encoding="UTF-8"?>
<!-- Generated by jsxcad -->
<!DOCTYPE svg PUBLIC "-//W3C//DTD SVG 1.1 Tiny//EN" "http://www.w3.org/Graphics/SVG/1.1/DTD/svg11-tiny.dtd">
<svg viewBox="-250 -250 500 500" width="500" height="500" xmlns="http://www.w3.org/2000/svg"><path d="M-75.59754042075579,-83.36399135288968L-30.426618557424373,-63.17529758944089L-29.39123425495451,-96.45357223655118z" style="fill:rgb(83,212,212)"/><path d="M-30.426618557424373,-63.17529758944089L-27.58923821653593,-92.8269861709134L-29.39123425495451,-96.45357223655118z" style="fill:rgb(247,158,158)"/><path d="M-30.426618557424373,-63.17529758944089L-75.59754042075579,-83.36399135288968L-78.22896698214565,-50.026194834989084z" style="fill:rgb(83,212,212)"/><path d="M-27.58923821653593,-92.8269861709134L-30.426618557424373,-63.17529758944089L-28.557936538628255,-59.53115372190515z" style="fill:rgb(247,158,158)"/><path d="M-76.22664484012839,-46.46814584097957L-30.426618557424373,-63.17529758944089L-78.22896698214565,-50.026194834989084zM-30.426618557424373,-63.17529758944089L-76.22664484012839,-46.46814584097957L-28.557936538628255,-59.53115372190515z" style="fill:rgb(127,37,217)"/><path d="M25.893937320562326,-112.11506345514437L77.20189116102117,-92.7809139711287L74.50684837489088,-125.88639203787369z" style="fill:rgb(83,212,212)"/><path d="M74.50684837489088,-125.88639203787369L78.75596241965384,-88.93917012537733L76.01565595679888,-122.0700930573787z" style="fill:rgb(247,158,158)"/><path d="M77.20189116102117,-92.7809139711287L25.893937320562326,-112.11506345514437L26.8191226354886,-78.92201008793197z" style="fill:rgb(83,212,212)"/><path d="M78.75596241965384,-88.93917012537733L74.50684837489088,-125.88639203787369L77.20189116102117,-92.7809139711287z" style="fill:rgb(247,158,158)"/><path d="M-84.12131960054451,-44.57168876962045L-37.27184343781213,-61.67714499871574L-86.20080990839266,-48.21345344280992z" style="fill:rgb(127,37,217)"/><path d="M-37.27184343781213,-61.67714499871574L-86.00794798521837,-50.43493175077399L-86.20080990839266,-48.21345344280992z" style="fill:rgb(83,212,212)"/><path d="M28.522827312160768,-75.17341348289547L77.20189116102117,-92.7809139711287L26.8191226354886,-78.92201008793197zM-37.27184343781213,-61.67714499871574L-84.12131960054451,-44.57168876962045L-35.332277938904376,-57.944991383892294z" style="fill:rgb(127,37,217)"/><path d="M-86.00794798521837,-50.43493175077399L-37.27184343781213,-61.67714499871574L-37.18742509995722,-63.89551959591912z" style="fill:rgb(83,212,212)"/><path d="M77.20189116102117,-92.7809139711287L28.522827312160768,-75.17341348289547L78.75596241965384,-88.93917012537733z" style="fill:rgb(127,37,217)"/><path d="M-37.18742509995722,-63.89551959591912L-35.332277938904376,-57.944991383892294L-35.252522706788525,-60.16430273113599zM-35.332277938904376,-57.944991383892294L-37.18742509995722,-63.89551959591912L-37.27184343781213,-61.67714499871574z" style="fill:rgb(247,158,158)"/><path d="M-43.4244357483407,-59.984148174802755L-43.114612896936656,-39.51149649241638L-42.219079779231926,-60.31582636731489zM-42.219079779231926,-60.31582636731489L-41.41866262150548,-40.295326077502764L-40.57135702972896,-60.76922579880522zM-44.890979209160044,-36.92195486265135L-43.4244357483407,-59.984148174802755L-43.86544422528823,-59.8627997672973zM-40.57135702972896,-60.76922579880522L-39.748578186463725,-40.42043530090885L-38.92228106156415,-61.222998522206574zM-39.748578186463725,-40.42043530090885L-37.71421187853638,-61.55542330795383L-38.92228106156415,-61.222998522206574zM-38.54981401322611,-39.85210639580908L-37.27184343781213,-61.67714499871574L-37.71421187853638,-61.55542330795383zM-41.41866262150548,-40.295326077502764L-42.219079779231926,-60.31582636731489L-43.114612896936656,-39.51149649241638zM-43.114612896936656,-39.51149649241638L-43.4244357483407,-59.984148174802755L-44.38515372675525,-38.27767084154511zM-39.748578186463725,-40.42043530090885L-40.57135702972896,-60.76922579880522L-41.41866262150548,-40.295326077502764zM-43.4244357483407,-59.984148174802755L-44.890979209160044,-36.92195486265135L-44.38515372675525,-38.27767084154511zM-37.71421187853638,-61.55542330795383L-39.748578186463725,-40.42043530090885L-38.54981401322611,-39.85210639580908zM-37.27184343781213,-61.67714499871574L-38.54981401322611,-39.85210639580908L-38.14469509622883,-38.74011718888742z" style="fill:rgb(83,212,212)"/><path d="M-41.41866262150548,-40.295326077502764L-41.116324739559246,-35.78161512576596L-39.42604541801423,-36.56240213599456z" style="fill:rgb(158,48,222)"/><path d="M23.128950114952367,-73.9694947076081L73.00261359344599,-92.02117172279877L21.362364593338395,-77.81142079857844z" style="fill:rgb(127,37,217)"/><path d="M-41.116324739559246,-35.78161512576596L-44.38515372675525,-38.27767084154511L-42.38130020892868,-34.54984819904872z" style="fill:rgb(212,85,213)"/><path d="M73.00261359344599,-92.02117172279877L21.313274148015196,-80.0250807944719L21.362364593338395,-77.81142079857844z" style="fill:rgb(83,212,212)"/><path d="M-39.748578186463725,-40.42043530090885L-39.42604541801423,-36.56240213599456L-37.76023908402033,-36.68428998030845z" style="fill:rgb(96,32,206)"/><path d="M-41.116324739559246,-35.78161512576596L-41.41866262150548,-40.295326077502764L-43.114612896936656,-39.51149649241638z" style="fill:rgb(158,48,222)"/><path d="M-36.56321996350165,-36.11342381263663L-39.748578186463725,-40.42043530090885L-37.76023908402033,-36.68428998030845z" style="fill:rgb(42,41,169)"/><path d="M-42.38130020892868,-34.54984819904872L-44.890979209160044,-36.92195486265135L-42.88314544836552,-33.19466543592356z" style="fill:rgb(243,133,180)"/><path d="M-44.38515372675525,-38.27767084154511L-41.116324739559246,-35.78161512576596L-43.114612896936656,-39.51149649241638z" style="fill:rgb(212,85,213)"/><path d="M-39.42604541801423,-36.56240213599456L-39.748578186463725,-40.42043530090885L-41.41866262150548,-40.295326077502764z" style="fill:rgb(96,32,206)"/><path d="M-44.890979209160044,-36.92195486265135L-42.38130020892868,-34.54984819904872L-44.38515372675525,-38.27767084154511z" style="fill:rgb(243,133,180)"/><path d="M-44.890979209160044,-36.92195486265135L-42.485377806603225,-32.07798176252483L-42.88314544836552,-33.19466543592356z" style="fill:rgb(243,180,133)"/><path d="M-39.748578186463725,-40.42043530090885L-36.56321996350165,-36.11342381263663L-38.54981401322611,-39.85210639580908z" style="fill:rgb(42,41,169)"/><path d="M73.00261359344599,-92.02117172279877L23.128950114952367,-73.9694947076081L74.61205520928141,-88.08125390001543z" style="fill:rgb(127,37,217)"/><path d="M-42.485377806603225,-32.07798176252483L-44.890979209160044,-36.92195486265135L-44.49453080336329,-35.806406503214525z" style="fill:rgb(243,180,133)"/><path d="M21.313274148015196,-80.0250807944719L73.00261359344599,-92.02117172279877L72.83272980807584,-94.22980763205202z" style="fill:rgb(83,212,212)"/><path d="M74.43902819215236,-90.29136776837856L73.00261359344599,-92.02117172279877L74.61205520928141,-88.08125390001543zM73.00261359344599,-92.02117172279877L74.43902819215236,-90.29136776837856L72.83272980807584,-94.22980763205202z" style="fill:rgb(247,158,158)"/><path d="M-97.84041239877583,85.85720197808773L-43.86544422528823,-59.8627997672973L-86.20080990839266,-48.21345344280992zM32.18916254961236,-21.598356470973357L31.5865795633763,-80.62480013290062L30.336387401711907,-80.28078463573642zM31.5865795633763,-80.62480013290062L35.28480380005338,-23.740264566563674L33.29561578265416,-81.09507129388324zM31.744842457399393,-20.145243961624367L30.336387401711907,-80.28078463573642L29.878974690839417,-80.15492306988682zM35.28480380005338,-23.740264566563674L35.00608149090979,-81.56573651304474L33.29561578265416,-81.09507129388324zM35.00608149090979,-81.56573651304474L38.477057141856754,-23.237330969536515L36.2591397262649,-81.9105406654354zM36.71798548123702,-82.03679655329329L36.2591397262649,-81.9105406654354L38.477057141856754,-23.237330969536515zM-37.27184343781213,-61.67714499871574L-41.411366713748414,47.10235648069597L29.878974690839417,-80.15492306988682zM39.01502009996809,-22.03787121720851L81.73706178024278,-94.42461564799129L36.71798548123702,-82.03679655329329z" style="fill:rgb(83,212,212)"/><path d="M-41.411366713748414,47.10235648069597L-37.27184343781213,-61.67714499871574L-38.14469509622883,-38.74011718888742z" style="fill:rgb(255,127,127)"/><path d="M-48.72837185766091,48.91911152174948L-44.49453080336329,-35.806406503214525L-44.890979209160044,-36.92195486265135zM-44.49453080336329,-35.806406503214525L-46.793327208415796,45.94953731912907L-43.298859378426556,-35.23122186503154zM-43.298859378426556,-35.23122186503154L-44.95302024609425,45.1072501768386L-41.62319743390255,-35.35304510879918zM-44.95302024609425,45.1072501768386L-39.91858364740001,-36.14043744387181L-41.62319743390255,-35.35304510879918zM-43.14318366870174,45.04096170038846L-38.644949953261175,-37.38111527384097L-39.91858364740001,-36.14043744387181zM-38.644949953261175,-37.38111527384097L-41.411366713748414,47.10235648069597L-38.14469509622883,-38.74011718888742zM35.28480380005338,-23.740264566563674L31.5865795633763,-80.62480013290062L33.48447413559145,-22.91318924320659zM31.5865795633763,-80.62480013290062L32.18916254961236,-21.598356470973357L33.48447413559145,-22.91318924320659zM35.00608149090979,-81.56573651304474L35.28480380005338,-23.740264566563674L37.11130813881697,-23.859412331298813zM30.336387401711907,-80.28078463573642L31.744842457399393,-20.145243961624367L32.18916254961236,-21.598356470973357zM38.477057141856754,-23.237330969536515L35.00608149090979,-81.56573651304474L37.11130813881697,-23.859412331298813z" style="fill:rgb(83,212,212)"/><path d="M35.28480380005338,-23.740264566563674L35.317298640184035,-19.031269685842812L37.11123758374978,-19.854956730858692z" style="fill:rgb(158,48,222)"/><path d="M35.317298640184035,-19.031269685842812L32.18916254961236,-21.598356470973357L34.02785698280962,-17.71881382304819z" style="fill:rgb(212,85,213)"/><path d="M37.11130813881697,-23.859412331298813L37.11123758374978,-19.854956730858692L38.932517575948545,-19.97060258795056z" style="fill:rgb(96,32,206)"/><path d="M35.317298640184035,-19.031269685842812L35.28480380005338,-23.740264566563674L33.48447413559145,-22.91318924320659z" style="fill:rgb(158,48,222)"/><path d="M93.30820802585144,39.59430184203165L83.31948131854092,-90.46800188657856L81.73706178024278,-94.42461564799129z" style="fill:rgb(247,158,158)"/><path d="M40.29559502597659,-19.345839213338166L37.11130813881697,-23.859412331298813L38.932517575948545,-19.97060258795056z" style="fill:rgb(42,41,169)"/><path d="M34.02785698280962,-17.71881382304819L31.744842457399393,-20.145243961624367L33.58732887045925,-16.266442182747756z" style="fill:rgb(243,133,180)"/><path d="M32.18916254961236,-21.598356470973357L35.317298640184035,-19.031269685842812L33.48447413559145,-22.91318924320659z" style="fill:rgb(212,85,213)"/><path d="M37.11123758374978,-19.854956730858692L37.11130813881697,-23.859412331298813L35.28480380005338,-23.740264566563674z" style="fill:rgb(96,32,206)"/><path d="M31.744842457399393,-20.145243961624367L34.02785698280962,-17.71881382304819L32.18916254961236,-21.598356470973357z" style="fill:rgb(243,133,180)"/><path d="M31.744842457399393,-20.145243961624367L34.116198314171996,-15.06192209815993L33.58732887045925,-16.266442182747756z" style="fill:rgb(243,180,133)"/><path d="M37.11130813881697,-23.859412331298813L40.29559502597659,-19.345839213338166L38.477057141856754,-23.237330969536515z" style="fill:rgb(42,41,169)"/><path d="M-46.793327208415796,45.94953731912907L-44.49453080336329,-35.806406503214525L-48.174709519623306,47.34362652821741zM-44.95302024609425,45.1072501768386L-43.298859378426556,-35.23122186503154L-46.793327208415796,45.94953731912907zM-44.49453080336329,-35.806406503214525L-48.72837185766091,48.91911152174948L-48.174709519623306,47.34362652821741z" style="fill:rgb(83,212,212)"/><path d="M34.116198314171996,-15.06192209815993L31.744842457399393,-20.145243961624367L32.27303722641387,-18.94181637831161z" style="fill:rgb(243,180,133)"/><path d="M-39.91858364740001,-36.14043744387181L-44.95302024609425,45.1072501768386L-43.14318366870174,45.04096170038846zM-38.644949953261175,-37.38111527384097L-43.14318366870174,45.04096170038846L-41.84636412911468,45.77006821539313zM-41.411366713748414,47.10235648069597L-38.644949953261175,-37.38111527384097L-41.84636412911468,45.77006821539313zM-43.86544422528823,-59.8627997672973L-97.84041239877583,85.85720197808773L-49.860519241003026,74.2448294933146zM38.57747099714684,-20.58096379667976L41.85137465999503,52.04818455241076L36.71798548123702,-82.03679655329329zM-41.411366713748414,47.10235648069597L34.0482574714946,53.93673917871872L29.878974690839417,-80.15492306988682zM81.73706178024278,-94.42461564799129L39.01502009996809,-22.03787121720851L93.30820802585144,39.59430184203165z" style="fill:rgb(83,212,212)"/><path d="M-44.95302024609425,45.1072501768386L-44.61140382215291,49.676548819118544L-42.777772326156665,48.83778148799252z" style="fill:rgb(158,48,222)"/><path d="M-44.61140382215291,49.676548819118544L-48.174709519623306,47.34362652821741L-45.986214613131345,51.06780201566449z" style="fill:rgb(212,85,213)"/><path d="M-43.14318366870174,45.04096170038846L-42.777772326156665,48.83778148799252L-40.97295341236482,48.774766120209506z" style="fill:rgb(96,32,206)"/><path d="M-44.61140382215291,49.676548819118544L-44.95302024609425,45.1072501768386L-46.793327208415796,45.94953731912907z" style="fill:rgb(158,48,222)"/><path d="M-39.678157624459416,49.50601978105754L-43.14318366870174,45.04096170038846L-40.97295341236482,48.774766120209506z" style="fill:rgb(42,41,169)"/><path d="M-45.986214613131345,51.06780201566449L-48.72837185766091,48.91911152174948L-46.53515515813822,52.64187972514225z" style="fill:rgb(243,133,180)"/><path d="M-48.174709519623306,47.34362652821741L-44.61140382215291,49.676548819118544L-46.793327208415796,45.94953731912907z" style="fill:rgb(212,85,213)"/><path d="M-42.777772326156665,48.83778148799252L-43.14318366870174,45.04096170038846L-44.95302024609425,45.1072501768386z" style="fill:rgb(96,32,206)"/><path d="M-48.72837185766091,48.91911152174948L-45.986214613131345,51.06780201566449L-48.174709519623306,47.34362652821741z" style="fill:rgb(243,133,180)"/><path d="M-48.72837185766091,48.91911152174948L-46.10877614190087,53.97867004840785L-46.53515515813822,52.64187972514225z" style="fill:rgb(243,180,133)"/><path d="M31.744842457399393,-20.145243961624367L34.570038260617025,53.810454954964584L32.27303722641387,-18.94181637831161z" style="fill:rgb(83,212,212)"/><path d="M-43.14318366870174,45.04096170038846L-39.678157624459416,49.50601978105754L-41.84636412911468,45.77006821539313z" style="fill:rgb(42,41,169)"/><path d="M32.27303722641387,-18.94181637831161L35.996243943846224,53.465277674899355L33.635788916081225,-18.311974049588738z" style="fill:rgb(83,212,212)"/><path d="M-46.10877614190087,53.97867004840785L-48.72837185766091,48.91911152174948L-48.30358783797243,50.25550576236213z" style="fill:rgb(243,180,133)"/><path d="M35.996243943846224,53.465277674899355L35.46906788007934,-18.427326849325713L33.635788916081225,-18.311974049588738zM39.89779790670183,52.52099904652879L38.57747099714684,-20.58096379667976L37.2791622314262,-19.25836824958165zM35.46906788007934,-18.427326849325713L39.89779790670183,52.52099904652879L37.2791622314262,-19.25836824958165zM-48.72837185766091,48.91911152174948L-49.35998154347727,74.12368955195778L-48.30358783797243,50.25550576236213zM-48.30358783797243,50.25550576236213L-47.991844600330765,73.79256253980404L-47.010435523595184,50.99322908024724zM-41.958490343912096,48.68235603365475L-42.37531361261475,72.43322056272544L-41.411366713748414,47.10235648069597zM-47.010435523595184,50.99322908024724L-46.12141785898988,73.33987246309714L-45.1940527415767,50.9314514598293zM-43.34353983667517,50.08505831262444L-42.87760584917645,72.55478421164483L-41.958490343912096,48.68235603365475zM-45.1940527415767,50.9314514598293L-44.24924424478622,72.88675866912982L-43.34353983667517,50.08505831262444z" style="fill:rgb(83,212,212)"/><path d="M83.31948131854092,-90.46800188657856L93.30820802585144,39.59430184203165L95.06776737541414,43.57619340848517z" style="fill:rgb(247,158,158)"/><path d="M-49.35998154347727,74.12368955195778L-48.72837185766091,48.91911152174948L-49.860519241003026,74.2448294933146zM-47.991844600330765,73.79256253980404L-48.30358783797243,50.25550576236213L-49.35998154347727,74.12368955195778zM-46.12141785898988,73.33987246309714L-47.010435523595184,50.99322908024724L-47.991844600330765,73.79256253980404zM-44.24924424478622,72.88675866912982L-45.1940527415767,50.9314514598293L-46.12141785898988,73.33987246309714zM-42.37531361261475,72.43322056272544L-41.958490343912096,48.68235603365475L-42.87760584917645,72.55478421164483zM-42.87760584917645,72.55478421164483L-43.34353983667517,50.08505831262444L-44.24924424478622,72.88675866912982zM-88.93004999033693,86.52242461576849L-32.97928437341653,70.1591372439505L-88.70318483667488,83.64575513293215z" style="fill:rgb(83,212,212)"/><path d="M-86.54897181887448,90.16082676557605L-33.06482193139188,73.04142602069189L-88.93004999033693,86.52242461576849z" style="fill:rgb(127,37,217)"/><path d="M34.570038260617025,53.810454954964584L31.744842457399393,-20.145243961624367L34.0482574714946,53.93673917871872zM35.996243943846224,53.465277674899355L32.27303722641387,-18.94181637831161L34.570038260617025,53.810454954964584zM35.46906788007934,-18.427326849325713L35.996243943846224,53.465277674899355L37.94609117466084,52.99336189809664z" style="fill:rgb(83,212,212)"/><path d="M-33.06482193139188,73.04142602069189L-86.54897181887448,90.16082676557605L-30.86609427182864,76.78307179066164z" style="fill:rgb(127,37,217)"/><path d="M39.89779790670183,52.52099904652879L35.46906788007934,-18.427326849325713L37.94609117466084,52.99336189809664zM38.57747099714684,-20.58096379667976L39.89779790670183,52.52099904652879L41.32773046261999,52.17491976858978zM41.85137465999503,52.04818455241076L38.57747099714684,-20.58096379667976L41.32773046261999,52.17491976858978zM34.0482574714946,53.93673917871872L-41.411366713748414,47.10235648069597L-42.37531361261475,72.43322056272544zM-32.97928437341653,70.1591372439505L-88.93004999033693,86.52242461576849L-33.06482193139188,73.04142602069189z" style="fill:rgb(83,212,212)"/><path d="M-32.97928437341653,70.1591372439505L-30.86609427182864,76.78307179066164L-30.786552440325508,73.90224746700403z" style="fill:rgb(247,158,158)"/><path d="M-95.43706518488388,89.48053301433305L93.30820802585144,39.59430184203165L-97.84041239877583,85.85720197808773z" style="fill:rgb(127,37,217)"/><path d="M93.30820802585144,39.59430184203165L39.01502009996809,-22.03787121720851L41.85137465999503,52.04818455241076z" style="fill:rgb(83,212,212)"/><path d="M-30.86609427182864,76.78307179066164L-32.97928437341653,70.1591372439505L-33.06482193139188,73.04142602069189z" style="fill:rgb(247,158,158)"/><path d="M93.30820802585144,39.59430184203165L-95.43706518488388,89.48053301433305L95.06776737541414,43.57619340848517z" style="fill:rgb(127,37,217)"/><path d="M-82.16388995127934,114.02004144373048L-27.28377194335773,150.13309025453668L-26.156535751938456,100.91629290214124z" style="fill:rgb(83,212,212)"/><path d="M-27.28377194335773,150.13309025453668L-23.982692872353702,104.55326348013638L-26.156535751938456,100.91629290214124z" style="fill:rgb(247,158,158)"/><path d="M-27.28377194335773,150.13309025453668L-82.16388995127934,114.02004144373048L-85.65338299210539,163.07858728215447z" style="fill:rgb(83,212,212)"/><path d="M36.10948979591467,60.69225896360787L93.55785462132177,42.48574973922704L34.13804630839311,56.82451029536089z" style="fill:rgb(127,37,217)"/><path d="M93.55785462132177,42.48574973922704L34.0482574714946,53.93673917871872L34.13804630839311,56.82451029536089z" style="fill:rgb(83,212,212)"/><path d="M93.55785462132177,42.48574973922704L36.10948979591467,60.69225896360787L95.32110813600906,46.46673065153416z" style="fill:rgb(127,37,217)"/><path d="M34.0482574714946,53.93673917871872L93.55785462132177,42.48574973922704L93.30820802585144,39.59430184203165z" style="fill:rgb(83,212,212)"/><path d="M-23.982692872353702,104.55326348013638L-27.28377194335773,150.13309025453668L-25.01207777509589,153.72770611844913zM93.30820802585144,39.59430184203165L95.32110813600906,46.46673065153416L95.06776737541414,43.57619340848517zM95.32110813600906,46.46673065153416L93.30820802585144,39.59430184203165L93.55785462132177,42.48574973922704z" style="fill:rgb(247,158,158)"/><path d="M-83.18258154468923,166.56975911186882L-27.28377194335773,150.13309025453668L-85.65338299210539,163.07858728215447zM-27.28377194335773,150.13309025453668L-83.18258154468923,166.56975911186882L-25.01207777509589,153.72770611844913z" style="fill:rgb(127,37,217)"/><path d="M41.21903701882838,85.15279029030854L105.28013201374911,120.73241365334935L100.79310660724117,71.21455701307568z" style="fill:rgb(83,212,212)"/><path d="M105.28013201374911,120.73241365334935L102.5290218842326,75.08436979891796L100.79310660724117,71.21455701307568z" style="fill:rgb(247,158,158)"/><path d="M105.28013201374911,120.73241365334935L41.21903701882838,85.15279029030854L43.026478347528474,134.5393400078072z" style="fill:rgb(83,212,212)"/><path d="M102.5290218842326,75.08436979891796L105.28013201374911,120.73241365334935L107.07431592391056,124.56754166546457z" style="fill:rgb(247,158,158)"/><path d="M45.04927851723319,138.2605491958014L105.28013201374911,120.73241365334935L43.026478347528474,134.5393400078072zM105.28013201374911,120.73241365334935L45.04927851723319,138.2605491958014L107.07431592391056,124.56754166546457z" style="fill:rgb(127,37,217)"/></svg>
