<?xml version="1.0" encoding="UTF-8"?>
<!-- Generated by jsxcad -->
<!DOCTYPE svg PUBLIC "-//W3C//DTD SVG 1.1 Tiny//EN" "http://www.w3.org/Graphics/SVG/1.1/DTD/svg11-tiny.dtd">
<svg viewBox="-250 -250 500 500" width="500" height="500" xmlns="http://www.w3.org/2000/svg"><path d="M-84.48347922914564,-67.38011999001635L-83.71367858675814,-64.58287036991318L-83.74994330046229,-64.7511832268661z" style="fill:rgb(247,158,158)"/><path d="M-106.40847636207293,-61.24360566915507L-85.08675754283996,-60.42687698510498L-84.48347922914564,-67.38011999001635zM-107.45528985287034,-64.87962792220715L-86.06431847493221,-64.97006716938652L-85.52929977018097,-71.03829035860998zM-86.06431847493221,-64.97006716938652L-107.45528985287034,-64.87962792220715L-108.12372103612898,-58.8068947787184zM-105.63970360330762,-58.46274019197819L-84.4431057428696,-56.0739780255914L-83.71367858675814,-64.58287036991318zM-85.08675754283996,-60.42687698510498L-106.40847636207293,-61.24360566915507L-107.16408168349798,-54.28553852572581zM-87.34016043090207,-69.5402489719242L-108.79882127021185,-68.71339594811906L-109.39893483609679,-63.34980462906879zM-108.79882127021185,-68.71339594811906L-87.34016043090207,-69.5402489719242L-86.85838187393986,-74.8995784883187zM-105.20300326021284,-56.40813896695925L-84.15800143790433,-52.06925031077741L-83.26888166317167,-62.51842025945821zM-84.4431057428696,-56.0739780255914L-105.63970360330762,-58.46274019197819L-106.55504385733508,-49.948306614246235z" style="fill:rgb(83,212,212)"/><path d="M-85.39669917355779,-70.65306967315985L-85.08675754283996,-60.42687698510498L-84.48347922914564,-67.38011999001635zM-85.08675754283996,-60.42687698510498L-85.39669917355779,-70.65306967315985L-85.52929977018097,-71.03829035860998z" style="fill:rgb(247,158,158)"/><path d="M-88.8687476378342,-73.97336736329122L-110.38243159095184,-72.67969880943498L-110.94418982946756,-67.75112493409854z" style="fill:rgb(83,212,212)"/><path d="M-86.85838187393986,-74.8995784883187L-86.06431847493221,-64.97006716938652L-85.52929977018097,-71.03829035860998z" style="fill:rgb(247,158,158)"/><path d="M-110.38243159095184,-72.67969880943498L-88.8687476378342,-73.97336736329122L-88.41625489660318,-78.89776363685448z" style="fill:rgb(83,212,212)"/><path d="M-83.71367858675814,-64.58287036991318L-84.48347922914564,-67.38011999001635L-84.4431057428696,-56.0739780255914zM-84.4431057428696,-56.0739780255914L-83.26888166317167,-62.51842025945821L-83.71367858675814,-64.58287036991318z" style="fill:rgb(247,158,158)"/><path d="M-86.06431847493221,-64.97006716938652L-109.39893483609679,-63.34980462906879L-108.12372103612898,-58.8068947787184z" style="fill:rgb(99,111,250)"/><path d="M-85.08675754283996,-60.42687698510498L-108.12372103612898,-58.8068947787184L-107.16408168349798,-54.28553852572581z" style="fill:rgb(93,135,250)"/><path d="M-87.36850327584429,-76.3816070191049L-87.34016043090207,-69.5402489719242L-86.85838187393986,-74.8995784883187z" style="fill:rgb(247,158,158)"/><path d="M-84.15800143790433,-52.06925031077741L-105.20300326021284,-56.40813896695925L-106.3200450176626,-45.95253840736421z" style="fill:rgb(83,212,212)"/><path d="M-87.34016043090207,-69.5402489719242L-87.36850327584429,-76.3816070191049L-88.41625489660318,-78.89776363685448zM-84.15800143790433,-52.06925031077741L-82.48571781456998,-58.883441062790304L-83.26888166317167,-62.51842025945821z" style="fill:rgb(247,158,158)"/><path d="M-109.39893483609679,-63.34980462906879L-88.8687476378342,-73.97336736329122L-110.94418982946756,-67.75112493409854z" style="fill:rgb(106,87,246)"/><path d="M-84.4431057428696,-56.0739780255914L-107.16408168349798,-54.28553852572581L-106.55504385733508,-49.948306614246235z" style="fill:rgb(89,159,244)"/><path d="M-82.48571781456998,-58.883441062790304L-84.15800143790433,-52.06925031077741L-81.64934591482863,-53.25648436049436z" style="fill:rgb(247,158,158)"/><path d="M-90.59585878600274,-78.10923167713266L-112.15479146775668,-76.58102748602923L-112.70470672521053,-71.85173897277433z" style="fill:rgb(83,212,212)"/><path d="M-85.08675754283996,-60.42687698510498L-85.52929977018097,-71.03829035860998L-86.06431847493221,-64.97006716938652z" style="fill:rgb(247,158,158)"/><path d="M-112.15479146775668,-76.58102748602923L-90.59585878600274,-78.10923167713266L-90.15134689749696,-82.83427215484954z" style="fill:rgb(83,212,212)"/><path d="M-108.12372103612898,-58.8068947787184L-85.08675754283996,-60.42687698510498L-86.06431847493221,-64.97006716938652z" style="fill:rgb(93,135,250)"/><path d="M-109.39893483609679,-63.34980462906879L-86.06431847493221,-64.97006716938652L-87.34016043090207,-69.5402489719242z" style="fill:rgb(99,111,250)"/><path d="M-86.06431847493221,-64.97006716938652L-86.85838187393986,-74.8995784883187L-87.34016043090207,-69.5402489719242zM-89.59713249332924,-81.73365325439975L-88.8687476378342,-73.97336736329122L-88.41625489660318,-78.89776363685448zM-84.4431057428696,-56.0739780255914L-84.48347922914564,-67.38011999001635L-85.08675754283996,-60.42687698510498z" style="fill:rgb(247,158,158)"/><path d="M-88.8687476378342,-73.97336736329122L-109.39893483609679,-63.34980462906879L-87.34016043090207,-69.5402489719242z" style="fill:rgb(106,87,246)"/><path d="M-106.3200450176626,-45.95253840736421L-84.4431057428696,-56.0739780255914L-106.55504385733508,-49.948306614246235z" style="fill:rgb(85,182,234)"/><path d="M-110.94418982946756,-67.75112493409854L-90.59585878600274,-78.10923167713266L-112.70470672521053,-71.85173897277433z" style="fill:rgb(114,65,238)"/><path d="M-114.61790273208442,-75.5012302696141L-92.00517557602801,-86.51581991703745L-114.05715613494473,-80.2253137255021z" style="fill:rgb(83,212,212)"/><path d="M-107.16408168349798,-54.28553852572581L-84.4431057428696,-56.0739780255914L-85.08675754283996,-60.42687698510498z" style="fill:rgb(89,159,244)"/><path d="M-88.8687476378342,-73.97336736329122L-89.59713249332924,-81.73365325439975L-90.15134689749696,-82.83427215484954zM-87.34016043090207,-69.5402489719242L-88.41625489660318,-78.89776363685448L-88.8687476378342,-73.97336736329122zM-81.64934591482863,-53.25648436049436L-84.15800143790433,-52.06925031077741L-81.27277449355037,-48.07082653857222zM-83.26888166317167,-62.51842025945821L-84.4431057428696,-56.0739780255914L-84.15800143790433,-52.06925031077741z" style="fill:rgb(247,158,158)"/><path d="M-90.59585878600274,-78.10923167713266L-110.94418982946756,-67.75112493409854L-88.8687476378342,-73.97336736329122z" style="fill:rgb(114,65,238)"/><path d="M-92.00517557602801,-86.51581991703745L-90.59585878600274,-78.10923167713266L-90.15134689749696,-82.83427215484954zM-88.8687476378342,-73.97336736329122L-90.15134689749696,-82.83427215484954L-90.59585878600274,-78.10923167713266z" style="fill:rgb(247,158,158)"/><path d="M-106.47007717914569,-42.445687963114764L-84.15800143790433,-52.06925031077741L-106.3200450176626,-45.95253840736421z" style="fill:rgb(84,202,220)"/><path d="M-112.70470672521053,-71.85173897277433L-92.46005485434137,-81.79620487829999L-114.61790273208442,-75.5012302696141z" style="fill:rgb(123,46,225)"/><path d="M-84.4431057428696,-56.0739780255914L-106.3200450176626,-45.95253840736421L-84.15800143790433,-52.06925031077741z" style="fill:rgb(85,182,234)"/><path d="M-81.27277449355037,-48.07082653857222L-84.15800143790433,-52.06925031077741L-81.37334330633912,-43.51542983405727z" style="fill:rgb(247,158,158)"/><path d="M-103.51300666173542,-37.4569479874267L-84.24415406778758,-48.56048115201325L-106.47007717914569,-42.445687963114764zM-84.24415406778758,-48.56048115201325L-103.51300666173542,-37.4569479874267L-81.37334330633912,-43.51542983405727z" style="fill:rgb(127,37,217)"/><path d="M-92.46005485434137,-81.79620487829999L-112.70470672521053,-71.85173897277433L-90.59585878600274,-78.10923167713266z" style="fill:rgb(123,46,225)"/><path d="M-92.00517557602801,-86.51581991703745L-114.61790273208442,-75.5012302696141L-92.46005485434137,-81.79620487829999z" style="fill:rgb(83,212,212)"/><path d="M-90.59585878600274,-78.10923167713266L-92.00517557602801,-86.51581991703745L-92.46005485434137,-81.79620487829999z" style="fill:rgb(247,158,158)"/><path d="M-84.15800143790433,-52.06925031077741L-106.47007717914569,-42.445687963114764L-84.24415406778758,-48.56048115201325z" style="fill:rgb(84,202,220)"/><path d="M-81.37334330633912,-43.51542983405727L-84.15800143790433,-52.06925031077741L-84.24415406778758,-48.56048115201325zM-101.83318331882187,-104.16771365069033L-92.46005485434137,-81.79620487829999L-92.00517557602801,-86.51581991703745z" style="fill:rgb(247,158,158)"/><path d="M-102.34457081193888,-99.46251899532241L-114.61790273208442,-75.5012302696141L-92.46005485434137,-81.79620487829999zM-114.61790273208442,-75.5012302696141L-102.34457081193888,-99.46251899532241L-124.79264861251167,-92.96856085775708z" style="fill:rgb(127,37,217)"/><path d="M-92.46005485434137,-81.79620487829999L-101.83318331882187,-104.16771365069033L-102.34457081193888,-99.46251899532241z" style="fill:rgb(247,158,158)"/><path d="M-102.34457081193888,-99.46251899532241L-124.17262449494385,-97.67936360137283L-124.79264861251167,-92.96856085775708zM-124.17262449494385,-97.67936360137283L-102.34457081193888,-99.46251899532241L-101.83318331882187,-104.16771365069033zM-47.54640231190166,-58.65676375028335L-47.237689337003275,-30.03456208222227L-45.87903024007925,-59.11548985387227zM-45.87903024007925,-59.11548985387227L-44.87037420819814,-31.127722608138754L-43.599106112051984,-59.742740311506644zM-49.72925201164399,-26.394153195188114L-47.54640231190166,-58.65676375028335L-48.15635870738446,-58.48895351183314zM-43.599106112051984,-59.742740311506644L-42.541570450215424,-31.29285056284028L-41.316586566447285,-60.37071078974011zM-42.541570450215424,-31.29285056284028L-39.6440142627713,-60.83086757914419L-41.316586566447285,-60.37071078974011zM-40.87130756018521,-30.48332474027922L-39.031460131767766,-60.99939314882948L-39.6440142627713,-60.83086757914419zM39.82004488833694,-100.14086805948558L63.162856823410415,-112.80353499992614L39.56468550669561,-106.17519089459033zM40.60339720578833,-102.39026003233485L64.6757167077894,-102.08689501437755L64.19994730204073,-108.99461361819057zM41.37831099237648,-99.49933344496112L65.5632921011107,-97.6302626734647L64.97570049699023,-106.08599014048171zM64.6757167077894,-102.08689501437755L40.60339720578833,-102.39026003233485L40.90255862045552,-95.47382572877534zM62.29464382549358,-111.53288034559237L38.322630619691985,-110.19480363259522L38.54195380850501,-104.86706075402752zM38.322630619691985,-110.19480363259522L62.29464382549358,-111.53288034559237L61.938106433899534,-116.85326375882447zM41.87049509822443,-97.3790056242147L66.20272695470133,-93.5687285760725L65.47705215020636,-103.95518423056498zM65.5632921011107,-97.6302626734647L41.37831099237648,-99.49933344496112L41.75033888402936,-91.03336368863484z" style="fill:rgb(83,212,212)"/><path d="M63.28503399732302,-112.39953647506172L63.57289321158729,-106.7771644588067L64.19994730204073,-108.99461361819057zM64.93482919861593,-106.25970612494301L64.6757167077894,-102.08689501437755L64.97570049699023,-106.08599014048171zM64.6757167077894,-102.08689501437755L64.93482919861593,-106.25970612494301L64.19994730204073,-108.99461361819057zM63.57289321158729,-106.7771644588067L63.28503399732302,-112.39953647506172L63.162856823410415,-112.80353499992614z" style="fill:rgb(247,158,158)"/><path d="M60.886580892124755,-116.18379728483627L36.91893705621009,-114.3769747948963L37.1138933704006,-109.48316890290509zM63.162856823410415,-112.80353499992614L39.82004488833694,-100.14086805948558L63.57289321158729,-106.7771644588067zM36.91893705621009,-114.3769747948963L60.886580892124755,-116.18379728483627L60.56489593223831,-121.07053913862333z" style="fill:rgb(83,212,212)"/><path d="M62.29464382549358,-111.53288034559237L63.162856823410415,-112.80353499992614L61.938106433899534,-116.85326375882447zM65.5632921011107,-97.6302626734647L65.47705215020636,-103.95518423056498L64.97570049699023,-106.08599014048171z" style="fill:rgb(247,158,158)"/><path d="M63.57289321158729,-106.7771644588067L38.54195380850501,-104.86706075402752L39.82004488833694,-100.14086805948558z" style="fill:rgb(99,111,250)"/><path d="M64.6757167077894,-102.08689501437755L39.82004488833694,-100.14086805948558L40.90255862045552,-95.47382572877534z" style="fill:rgb(93,135,250)"/><path d="M66.20272695470133,-93.5687285760725L41.87049509822443,-97.3790056242147L42.33184728866543,-86.98038361787587z" style="fill:rgb(83,212,212)"/><path d="M61.46800072169411,-118.40769757239045L60.886580892124755,-116.18379728483627L61.938106433899534,-116.85326375882447zM66.20272695470133,-93.5687285760725L66.35982538108587,-100.20326470288644L65.47705215020636,-103.95518423056498z" style="fill:rgb(247,158,158)"/><path d="M38.54195380850501,-104.86706075402752L60.886580892124755,-116.18379728483627L37.1138933704006,-109.48316890290509z" style="fill:rgb(106,87,246)"/><path d="M60.886580892124755,-116.18379728483627L61.46800072169411,-118.40769757239045L60.56489593223831,-121.07053913862333z" style="fill:rgb(247,158,158)"/><path d="M65.5632921011107,-97.6302626734647L40.90255862045552,-95.47382572877534L41.75033888402936,-91.03336368863484z" style="fill:rgb(89,159,244)"/><path d="M64.19994730204073,-108.99461361819057L63.57289321158729,-106.7771644588067L64.6757167077894,-102.08689501437755zM63.162856823410415,-112.80353499992614L62.29464382549358,-111.53288034559237L63.57289321158729,-106.7771644588067zM66.35982538108587,-100.20326470288644L66.20272695470133,-93.5687285760725L67.50953436954987,-94.4428695162994z" style="fill:rgb(247,158,158)"/><path d="M59.398854343689344,-120.56241659919033L35.40652827383769,-118.51702534408925L35.58667724003177,-113.82283339327765zM35.40652827383769,-118.51702534408925L59.398854343689344,-120.56241659919033L59.09641740847598,-125.24954709982342z" style="fill:rgb(83,212,212)"/><path d="M39.82004488833694,-100.14086805948558L64.6757167077894,-102.08689501437755L63.57289321158729,-106.7771644588067z" style="fill:rgb(93,135,250)"/><path d="M38.54195380850501,-104.86706075402752L63.57289321158729,-106.7771644588067L62.29464382549358,-111.53288034559237z" style="fill:rgb(99,111,250)"/><path d="M64.97570049699023,-106.08599014048171L64.6757167077894,-102.08689501437755L65.5632921011107,-97.6302626734647z" style="fill:rgb(247,158,158)"/><path d="M60.886580892124755,-116.18379728483627L38.54195380850501,-104.86706075402752L62.29464382549358,-111.53288034559237z" style="fill:rgb(106,87,246)"/><path d="M61.938106433899534,-116.85326375882447L60.886580892124755,-116.18379728483627L62.29464382549358,-111.53288034559237z" style="fill:rgb(247,158,158)"/><path d="M42.33184728866543,-86.98038361787587L65.5632921011107,-97.6302626734647L41.75033888402936,-91.03336368863484z" style="fill:rgb(85,182,234)"/><path d="M37.1138933704006,-109.48316890290509L59.398854343689344,-120.56241659919033L35.58667724003177,-113.82283339327765z" style="fill:rgb(114,65,238)"/><path d="M34.014959513506085,-117.7273966820293L57.58922727758578,-129.18880677142673L33.842288932074,-122.41480030134194z" style="fill:rgb(83,212,212)"/><path d="M59.546939133996304,-124.07203933285487L59.398854343689344,-120.56241659919033L60.56489593223831,-121.07053913862333z" style="fill:rgb(247,158,158)"/><path d="M40.90255862045552,-95.47382572877534L65.5632921011107,-97.6302626734647L64.6757167077894,-102.08689501437755z" style="fill:rgb(89,159,244)"/><path d="M-44.87037420819814,-31.127722608138754L-45.87903024007925,-59.11548985387227L-47.237689337003275,-30.03456208222227zM-47.237689337003275,-30.03456208222227L-47.54640231190166,-58.65676375028335L-49.015344306379895,-28.303753711977752z" style="fill:rgb(83,212,212)"/><path d="M67.50953436954987,-94.4428695162994L66.20272695470133,-93.5687285760725L68.34183057310436,-89.1834659563809z" style="fill:rgb(247,158,158)"/><path d="M-42.541570450215424,-31.29285056284028L-43.599106112051984,-59.742740311506644L-44.87037420819814,-31.127722608138754z" style="fill:rgb(83,212,212)"/><path d="M59.398854343689344,-120.56241659919033L59.546939133996304,-124.07203933285487L59.09641740847598,-125.24954709982342zM65.47705215020636,-103.95518423056498L65.5632921011107,-97.6302626734647L66.20272695470133,-93.5687285760725z" style="fill:rgb(247,158,158)"/><path d="M-47.54640231190166,-58.65676375028335L-49.72925201164399,-26.394153195188114L-49.015344306379895,-28.303753711977752z" style="fill:rgb(83,212,212)"/><path d="M59.398854343689344,-120.56241659919033L37.1138933704006,-109.48316890290509L60.886580892124755,-116.18379728483627z" style="fill:rgb(114,65,238)"/><path d="M60.56489593223831,-121.07053913862333L59.398854343689344,-120.56241659919033L60.886580892124755,-116.18379728483627z" style="fill:rgb(247,158,158)"/><path d="M-39.6440142627713,-60.83086757914419L-42.541570450215424,-31.29285056284028L-40.87130756018521,-30.48332474027922z" style="fill:rgb(83,212,212)"/><path d="M42.62418723457821,-83.4644906878054L66.20272695470133,-93.5687285760725L42.33184728866543,-86.98038361787587z" style="fill:rgb(84,202,220)"/><path d="M35.58667724003177,-113.82283339327765L57.88477811118524,-124.50873699771748L34.014959513506085,-117.7273966820293z" style="fill:rgb(123,46,225)"/><path d="M65.5632921011107,-97.6302626734647L42.33184728866543,-86.98038361787587L66.20272695470133,-93.5687285760725z" style="fill:rgb(85,182,234)"/><path d="M44.980611668724265,-78.0919853661502L66.56914757391027,-90.05222041741865L42.62418723457821,-83.4644906878054z" style="fill:rgb(127,37,217)"/><path d="M57.88477811118524,-124.50873699771748L59.09641740847598,-125.24954709982342L57.58922727758578,-129.18880677142673z" style="fill:rgb(247,158,158)"/><path d="M66.56914757391027,-90.05222041741865L44.980611668724265,-78.0919853661502L68.82428239488463,-84.61676254437246z" style="fill:rgb(127,37,217)"/><path d="M-39.031460131767766,-60.99939314882948L-40.87130756018521,-30.48332474027922L-40.30931910132841,-28.91113915721349z" style="fill:rgb(83,212,212)"/><path d="M57.88477811118524,-124.50873699771748L35.58667724003177,-113.82283339327765L59.398854343689344,-120.56241659919033z" style="fill:rgb(123,46,225)"/><path d="M57.58922727758578,-129.18880677142673L34.014959513506085,-117.7273966820293L57.88477811118524,-124.50873699771748z" style="fill:rgb(83,212,212)"/><path d="M59.09641740847598,-125.24954709982342L57.88477811118524,-124.50873699771748L59.398854343689344,-120.56241659919033zM68.34183057310436,-89.1834659563809L66.56914757391027,-90.05222041741865L68.82428239488463,-84.61676254437246zM68.34183057310436,-89.1834659563809L66.20272695470133,-93.5687285760725L66.56914757391027,-90.05222041741865z" style="fill:rgb(247,158,158)"/><path d="M66.20272695470133,-93.5687285760725L42.62418723457821,-83.4644906878054L66.56914757391027,-90.05222041741865z" style="fill:rgb(84,202,220)"/><path d="M-44.87037420819814,-31.127722608138754L-44.43180972058278,-24.87988850093347L-42.075529342240834,-25.967138698234827z" style="fill:rgb(158,48,222)"/><path d="M-44.43180972058278,-24.87988850093347L-49.015344306379895,-28.303753711977752L-46.19859761601836,-23.153171378975188z" style="fill:rgb(212,85,213)"/><path d="M-42.541570450215424,-31.29285056284028L-42.075529342240834,-25.967138698234827L-39.755026136571,-26.12609333117549z" style="fill:rgb(96,32,206)"/><path d="M-44.43180972058278,-24.87988850093347L-44.87037420819814,-31.127722608138754L-47.237689337003275,-30.03456208222227z" style="fill:rgb(158,48,222)"/><path d="M-38.08813545798502,-25.31178528934741L-42.541570450215424,-31.29285056284028L-39.755026136571,-26.12609333117549z" style="fill:rgb(42,41,169)"/><path d="M-46.19859761601836,-23.153171378975188L-49.72925201164399,-26.394153195188114L-46.904680881470405,-21.244774543370525z" style="fill:rgb(243,133,180)"/><path d="M-49.015344306379895,-28.303753711977752L-44.43180972058278,-24.87988850093347L-47.237689337003275,-30.03456208222227z" style="fill:rgb(212,85,213)"/><path d="M-42.075529342240834,-25.967138698234827L-42.541570450215424,-31.29285056284028L-44.87037420819814,-31.127722608138754z" style="fill:rgb(96,32,206)"/><path d="M-49.72925201164399,-26.394153195188114L-46.19859761601836,-23.153171378975188L-49.015344306379895,-28.303753711977752z" style="fill:rgb(243,133,180)"/><path d="M-49.72925201164399,-26.394153195188114L-46.35696391970631,-19.663641234348983L-46.904680881470405,-21.244774543370525z" style="fill:rgb(243,180,133)"/><path d="M-42.541570450215424,-31.29285056284028L-38.08813545798502,-25.31178528934741L-40.87130756018521,-30.48332474027922z" style="fill:rgb(42,41,169)"/><path d="M50.07408428785635,-143.55544069712133L34.014959513506085,-117.7273966820293L57.88477811118524,-124.50873699771748z" style="fill:rgb(127,37,217)"/><path d="M57.58922727758578,-129.18880677142673L50.07408428785635,-143.55544069712133L57.88477811118524,-124.50873699771748z" style="fill:rgb(247,158,158)"/><path d="M-46.35696391970631,-19.663641234348983L-49.72925201164399,-26.394153195188114L-49.1841818976213,-24.815024703063436z" style="fill:rgb(243,180,133)"/><path d="M34.014959513506085,-117.7273966820293L50.07408428785635,-143.55544069712133L25.862832959079412,-136.55141556321183z" style="fill:rgb(127,37,217)"/><path d="M50.07408428785635,-143.55544069712133L57.58922727758578,-129.18880677142673L49.81425885008697,-148.21272985650322z" style="fill:rgb(247,158,158)"/><path d="M50.07408428785635,-143.55544069712133L25.729424394693478,-141.21744078473304L25.862832959079412,-136.55141556321183zM25.729424394693478,-141.21744078473304L50.07408428785635,-143.55544069712133L49.81425885008697,-148.21272985650322zM-127.36284076598365,153.5248407903537L-48.15635870738446,-58.48895351183314L-106.47007717914569,-42.445687963114764zM55.20341667645515,-86.92528376309497L61.846342792658426,-5.549719238020133L56.95759231370385,-87.4078960241222zM56.95759231370385,-87.4078960241222L64.42208808636822,-6.72885159989584L59.35626490693155,-88.06781781887732zM59.432699225291174,-1.5477807646753576L55.20341667645515,-86.92528376309497L54.56171593526085,-86.74874484215037zM64.42208808636822,-6.72885159989584L61.75774822930605,-88.72851157858977L59.35626490693155,-88.06781781887732zM61.75774822930605,-88.72851157858977L69.07276552574685,-5.959343914414049L63.51753576171897,-89.21266778979623zM63.51753576171897,-89.21266778979623L69.90470196345278,-4.208116593827166L64.1620424088561,-89.38997865859889zM-39.031460131767766,-60.99939314882948L-45.3055925611609,96.55007188073697L54.56171593526085,-86.74874484215037zM-55.87682578956368,99.04674382058948L-49.1841818976213,-24.815024703063436L-49.72925201164399,-26.394153195188114zM-49.1841818976213,-24.815024703063436L-53.061616111841175,94.62158718000482L-47.5199966483087,-23.99201190098541zM-53.061616111841175,94.62158718000482L-45.18034444711908,-24.15058817463284L-47.5199966483087,-23.99201190098541zM-50.40322385106498,93.4114078352898L-42.796112803771926,-25.250688993523855L-45.18034444711908,-24.15058817463284zM-47.79343281774449,93.37241304628232L-41.01238050363077,-26.99498939737692L-42.796112803771926,-25.250688993523855zM-41.01238050363077,-26.99498939737692L-45.3055925611609,96.55007188073697L-40.30931910132841,-28.91113915721349zM64.42208808636822,-6.72885159989584L56.95759231370385,-87.4078960241222L61.846342792658426,-5.549719238020133zM61.846342792658426,-5.549719238020133L55.20341667645515,-86.92528376309497L60.020876603549375,-3.65545969425299zM61.75774822930605,-88.72851157858977L64.42208808636822,-6.72885159989584L67.06523669381497,-6.879846763868793zM55.20341667645515,-86.92528376309497L59.432699225291174,-1.5477807646753576L60.020876603549375,-3.65545969425299zM69.07276552574685,-5.959343914414049L61.75774822930605,-88.72851157858977L67.06523669381497,-6.879846763868793z" style="fill:rgb(83,212,212)"/><path d="M-45.3055925611609,96.55007188073697L-39.031460131767766,-60.99939314882948L-42.66167072801749,30.15866281503477z" style="fill:rgb(255,127,127)"/><path d="M69.90470196345278,-4.208116593827166L63.51753576171897,-89.21266778979623L69.07276552574685,-5.959343914414049z" style="fill:rgb(83,212,212)"/><path d="M-40.30931910132841,-28.91113915721349L-45.3055925611609,96.55007188073697L-42.66167072801749,30.15866281503477z" style="fill:rgb(255,127,127)"/><path d="M64.42208808636822,-6.72885159989584L64.31290505764082,-0.10340790974289381L66.87559312843302,-1.275662307537665z" style="fill:rgb(158,48,222)"/><path d="M64.31290505764082,-0.10340790974289381L60.020876603549375,-3.65545969425299L62.49913707785901,1.7858361831581173z" style="fill:rgb(212,85,213)"/><path d="M67.06523669381497,-6.879846763868793L66.87559312843302,-1.275662307537665L69.5077360702927,-1.4197255574415724z" style="fill:rgb(96,32,206)"/><path d="M64.1620424088561,-89.38997865859889L154.5329302896051,89.65205462570309L127.6766699804957,-106.86411783436134z" style="fill:rgb(83,212,212)"/><path d="M64.31290505764082,-0.10340790974289381L64.42208808636822,-6.72885159989584L61.846342792658426,-5.549719238020133z" style="fill:rgb(158,48,222)"/><path d="M71.50923242780658,-0.49409624436617666L67.06523669381497,-6.879846763868793L69.5077360702927,-1.4197255574415724z" style="fill:rgb(42,41,169)"/><path d="M62.49913707785901,1.7858361831581173L59.432699225291174,-1.5477807646753576L61.918192012433586,3.8916691718954035z" style="fill:rgb(243,133,180)"/><path d="M60.020876603549375,-3.65545969425299L64.31290505764082,-0.10340790974289381L61.846342792658426,-5.549719238020133z" style="fill:rgb(212,85,213)"/><path d="M127.6766699804957,-106.86411783436134L156.7815037535286,95.26214406009016L129.66727753203895,-101.26635113211829z" style="fill:rgb(247,158,158)"/><path d="M66.87559312843302,-1.275662307537665L67.06523669381497,-6.879846763868793L64.42208808636822,-6.72885159989584z" style="fill:rgb(96,32,206)"/><path d="M59.432699225291174,-1.5477807646753576L62.49913707785901,1.7858361831581173L60.020876603549375,-3.65545969425299z" style="fill:rgb(243,133,180)"/><path d="M72.34175289762985,1.2590418808953763L69.07276552574685,-5.959343914414049L71.50923242780658,-0.49409624436617666z" style="fill:rgb(11,74,121)"/><path d="M67.06523669381497,-6.879846763868793L71.50923242780658,-0.49409624436617666L69.07276552574685,-5.959343914414049z" style="fill:rgb(42,41,169)"/><path d="M-53.061616111841175,94.62158718000482L-49.1841818976213,-24.815024703063436L-55.06405103794713,96.68176996013881zM-45.18034444711908,-24.15058817463284L-53.061616111841175,94.62158718000482L-50.40322385106498,93.4114078352898z" style="fill:rgb(83,212,212)"/><path d="M69.07276552574685,-5.959343914414049L72.34175289762985,1.2590418808953763L69.90470196345278,-4.208116593827166z" style="fill:rgb(11,74,121)"/><path d="M-49.1841818976213,-24.815024703063436L-55.87682578956368,99.04674382058948L-55.06405103794713,96.68176996013881zM-42.796112803771926,-25.250688993523855L-50.40322385106498,93.4114078352898L-47.79343281774449,93.37241304628232zM-41.01238050363077,-26.99498939737692L-47.79343281774449,93.37241304628232L-45.92655136989962,94.5187466603275zM-45.3055925611609,96.55007188073697L-41.01238050363077,-26.99498939737692L-45.92655136989962,94.5187466603275zM-48.15635870738446,-58.48895351183314L-127.36284076598365,153.5248407903537L-57.77393682773168,137.75717790163878zM54.56171593526085,-86.74874484215037L-45.3055925611609,96.55007188073697L65.79612658383274,109.75829889455436z" style="fill:rgb(83,212,212)"/><path d="M-50.40322385106498,93.4114078352898L-49.88021741658145,99.73517017307337L-47.23573209142244,98.53225220447642z" style="fill:rgb(158,48,222)"/><path d="M-49.88021741658145,99.73517017307337L-55.06405103794713,96.68176996013881L-51.86888955986096,101.78894123953366z" style="fill:rgb(212,85,213)"/><path d="M-47.79343281774449,93.37241304628232L-47.23573209142244,98.53225220447642L-44.63634414973278,98.49946019458329z" style="fill:rgb(96,32,206)"/><path d="M-49.88021741658145,99.73517017307337L-50.40322385106498,93.4114078352898L-53.061616111841175,94.62158718000482z" style="fill:rgb(158,48,222)"/><path d="M-42.77361525498378,99.6492646714194L-47.79343281774449,93.37241304628232L-44.63634414973278,98.49946019458329z" style="fill:rgb(42,41,169)"/><path d="M-51.86888955986096,101.78894123953366L-55.87682578956368,99.04674382058948L-52.6716821336876,104.15002197301433z" style="fill:rgb(243,133,180)"/><path d="M-55.06405103794713,96.68176996013881L-49.88021741658145,99.73517017307337L-53.061616111841175,94.62158718000482z" style="fill:rgb(212,85,213)"/><path d="M-47.23573209142244,98.53225220447642L-47.79343281774449,93.37241304628232L-50.40322385106498,93.4114078352898z" style="fill:rgb(96,32,206)"/><path d="M-55.87682578956368,99.04674382058948L-51.86888955986096,101.78894123953366L-55.06405103794713,96.68176996013881z" style="fill:rgb(243,133,180)"/><path d="M-55.87682578956368,99.04674382058948L-52.06860077141208,106.1894856185401L-52.6716821336876,104.15002197301433z" style="fill:rgb(243,180,133)"/><path d="M59.432699225291174,-1.5477807646753576L66.5721000643683,109.5824821887721L60.24459534645494,0.21152033020226788z" style="fill:rgb(83,212,212)"/><path d="M-47.79343281774449,93.37241304628232L-42.77361525498378,99.6492646714194L-45.92655136989962,94.5187466603275z" style="fill:rgb(42,41,169)"/><path d="M60.24459534645494,0.21152033020226788L68.69358379561527,109.10178645638851L62.24635252564235,1.148119822989479z" style="fill:rgb(83,212,212)"/><path d="M-52.06860077141208,106.1894856185401L-55.87682578956368,99.04674382058948L-55.27722128385835,101.08655082970336z" style="fill:rgb(243,180,133)"/><path d="M68.69358379561527,109.10178645638851L64.90376467259136,1.0051477242732343L62.24635252564235,1.148119822989479zM69.33079346695558,-2.092414814433167L77.41049950046632,107.12668657684092L69.90470196345278,-4.208116593827166zM74.50075869746709,107.78598225994054L69.33079346695558,-2.092414814433167L67.49955576678005,-0.1820581776918275zM64.90376467259136,1.0051477242732343L74.50075869746709,107.78598225994054L67.49955576678005,-0.1820581776918275zM-55.87682578956368,99.04674382058948L-57.043900811864496,137.5917703450013L-55.27722128385835,101.08655082970336zM-55.27722128385835,101.08655082970336L-55.04805203759778,137.13954079633828L-53.41808877916937,102.25157823001986zM-46.10475620791227,98.92524680336751L-46.848006121152075,135.28155471475245L-45.3055925611609,96.55007188073697zM154.5329302896051,89.65205462570309L64.1620424088561,-89.38997865859889L77.41049950046632,107.12668657684092zM-53.41808877916937,102.25157823001986L-52.31843898104616,136.5210589320493L-50.79468394242385,102.22279537658422zM-48.11493978262462,101.00413417182345L-47.58177527066728,135.44780875713892L-46.10475620791227,98.92524680336751zM-50.79468394242385,102.22279537658422L-49.58509589231267,135.9017313074736L-48.11493978262462,101.00413417182345zM-57.043900811864496,137.5917703450013L-55.87682578956368,99.04674382058948L-57.77393682773168,137.75717790163878zM-55.04805203759778,137.13954079633828L-55.27722128385835,101.08655082970336L-57.043900811864496,137.5917703450013z" style="fill:rgb(83,212,212)"/><path d="M156.7815037535286,95.26214406009016L127.6766699804957,-106.86411783436134L154.5329302896051,89.65205462570309z" style="fill:rgb(247,158,158)"/><path d="M-52.31843898104616,136.5210589320493L-53.41808877916937,102.25157823001986L-55.04805203759778,137.13954079633828zM-49.58509589231267,135.9017313074736L-50.79468394242385,102.22279537658422L-52.31843898104616,136.5210589320493zM-46.848006121152075,135.28155471475245L-46.10475620791227,98.92524680336751L-47.58177527066728,135.44780875713892zM-47.58177527066728,135.44780875713892L-48.11493978262462,101.00413417182345L-49.58509589231267,135.9017313074736zM66.5721000643683,109.5824821887721L59.432699225291174,-1.5477807646753576L65.79612658383274,109.75829889455436zM68.69358379561527,109.10178645638851L60.24459534645494,0.21152033020226788L66.5721000643683,109.5824821887721zM64.90376467259136,1.0051477242732343L68.69358379561527,109.10178645638851L71.59512109121302,108.44434823139771zM74.50075869746709,107.78598225994054L64.90376467259136,1.0051477242732343L71.59512109121302,108.44434823139771zM69.33079346695558,-2.092414814433167L74.50075869746709,107.78598225994054L76.63043152892593,107.30343100940497zM77.41049950046632,107.12668657684092L69.33079346695558,-2.092414814433167L76.63043152892593,107.30343100940497zM65.79612658383274,109.75829889455436L-45.3055925611609,96.55007188073697L-46.848006121152075,135.28155471475245z" style="fill:rgb(83,212,212)"/><path d="M-123.71377384776619,158.40922965622755L154.5329302896051,89.65205462570309L-127.36284076598365,153.5248407903537z" style="fill:rgb(127,37,217)"/><path d="M-33.44383715504299,136.45604364247086L-60.49609505365874,138.37397123320778L-60.948495742590445,142.65927218546832zM-60.49609505365874,138.37397123320778L-33.44383715504299,136.45604364247086L-33.106130641775955,132.16787649337672z" style="fill:rgb(84,220,202)"/><path d="M-33.44383715504299,136.45604364247086L-29.900649168059978,137.2893569275528L-33.106130641775955,132.16787649337672z" style="fill:rgb(247,158,158)"/><path d="M-34.188547441926765,139.95470889240886L-60.948495742590445,142.65927218546832L-61.821614995446126,146.1639471843742zM-60.948495742590445,142.65927218546832L-34.188547441926765,139.95470889240886L-33.44383715504299,136.45604364247086z" style="fill:rgb(85,234,182)"/><path d="M-29.900649168059978,137.2893569275528L-33.88779838935788,152.08812095497223L-30.31989505969242,142.86808958859913zM-29.900649168059978,137.2893569275528L-33.44383715504299,136.45604364247086L-33.88779838935788,152.08812095497223z" style="fill:rgb(247,158,158)"/><path d="M-63.088953636818424,148.7459711531625L-34.188547441926765,139.95470889240886L-61.821614995446126,146.1639471843742z" style="fill:rgb(89,244,159)"/><path d="M-60.948495742590445,142.65927218546832L-33.88779838935788,152.08812095497223L-33.44383715504299,136.45604364247086z" style="fill:rgb(83,212,212)"/><path d="M-30.31989505969242,142.86808958859913L-33.88779838935788,152.08812095497223L-31.265376504533087,147.44358728651696z" style="fill:rgb(247,158,158)"/><path d="M-62.48979408974302,158.99628918115823L-34.188547441926765,139.95470889240886L-61.821614995446126,146.1639471843742zM-33.88779838935788,152.08812095497223L-60.948495742590445,142.65927218546832L-61.75195790591364,158.26456060167973z" style="fill:rgb(83,212,212)"/><path d="M-34.188547441926765,139.95470889240886L-33.88779838935788,152.08812095497223L-33.44383715504299,136.45604364247086z" style="fill:rgb(247,158,158)"/><path d="M-34.188547441926765,139.95470889240886L-63.088953636818424,148.7459711531625L-35.318407521883984,142.52184559028152z" style="fill:rgb(89,244,159)"/><path d="M-64.70864303504409,150.29299440233436L-35.318407521883984,142.52184559028152L-63.088953636818424,148.7459711531625z" style="fill:rgb(93,250,135)"/><path d="M-31.265376504533087,147.44358728651696L-33.88779838935788,152.08812095497223L-32.712077641748586,150.82774758141568z" style="fill:rgb(247,158,158)"/><path d="M-63.65043556028215,159.33556476381312L-35.318407521883984,142.52184559028152L-63.088953636818424,148.7459711531625zM-34.188547441926765,139.95470889240886L-62.48979408974302,158.99628918115823L-34.560653814813534,152.80942868472923z" style="fill:rgb(83,212,212)"/><path d="M-35.318407521883984,142.52184559028152L-34.560653814813534,152.80942868472923L-34.188547441926765,139.95470889240886zM-33.88779838935788,152.08812095497223L-34.188547441926765,139.95470889240886L-34.560653814813534,152.80942868472923z" style="fill:rgb(247,158,158)"/><path d="M-35.318407521883984,142.52184559028152L-64.70864303504409,150.29299440233436L-36.796667535801,144.04548202008922z" style="fill:rgb(93,250,135)"/><path d="M-66.6240102469975,150.72859719700432L-36.796667535801,144.04548202008922L-64.70864303504409,150.29299440233436z" style="fill:rgb(99,250,111)"/><path d="M-65.21564350760937,159.62783556245296L-36.796667535801,144.04548202008922L-64.70864303504409,150.29299440233436zM-35.318407521883984,142.52184559028152L-63.65043556028215,159.33556476381312L-35.63494688174159,153.1301434523015z" style="fill:rgb(83,212,212)"/><path d="M-36.796667535801,144.04548202008922L-35.63494688174159,153.1301434523015L-35.318407521883984,142.52184559028152zM-34.560653814813534,152.80942868472923L-35.318407521883984,142.52184559028152L-35.63494688174159,153.1301434523015z" style="fill:rgb(247,158,158)"/><path d="M154.5329302896051,89.65205462570309L-123.71377384776619,158.40922965622755L156.7815037535286,95.26214406009016z" style="fill:rgb(127,37,217)"/><path d="M-34.560653814813534,152.80942868472923L-35.63494688174159,153.1301434523015L-34.61567469589244,152.86840705484133z" style="fill:rgb(247,158,158)"/><path d="M-36.796667535801,144.04548202008922L-66.6240102469975,150.72859719700432L-38.57207542091188,144.44979556930062z" style="fill:rgb(99,250,111)"/><path d="M-36.796667535801,144.04548202008922L-65.21564350760937,159.62783556245296L-37.087010864446164,153.3969791930518z" style="fill:rgb(83,212,212)"/><path d="M-35.63494688174159,153.1301434523015L-36.796667535801,144.04548202008922L-37.087010864446164,153.3969791930518z" style="fill:rgb(247,158,158)"/><path d="M-38.843118470986454,152.78069311029438L-66.6240102469975,150.72859719700432L-67.08887327468854,159.04457876749146zM-66.6240102469975,150.72859719700432L-38.843118470986454,152.78069311029438L-38.57207542091188,144.44979556930062z" style="fill:rgb(83,212,212)"/><path d="M-38.843118470986454,152.78069311029438L-36.796667535801,144.04548202008922L-38.57207542091188,144.44979556930062zM-35.63494688174159,153.1301434523015L-37.087010864446164,153.3969791930518L-36.912510577155395,153.45821888159523zM-36.796667535801,144.04548202008922L-38.843118470986454,152.78069311029438L-37.087010864446164,153.3969791930518z" style="fill:rgb(247,158,158)"/><path d="M-65.02949784066473,159.68579354322205L-39.5205335393315,152.54296109560653L-67.81143189507945,158.8195961448399zM-39.5205335393315,152.54296109560653L-65.02949784066473,159.68579354322205L-36.912510577155395,153.45821888159523z" style="fill:rgb(148,8,167)"/><path d="M-40.84401986464365,151.4101320259235L-68.7648636858721,150.01765213375987L-69.20914061380039,157.71333684553173zM-68.7648636858721,150.01765213375987L-40.84401986464365,151.4101320259235L-40.57997045635445,143.7006557066109z" style="fill:rgb(83,212,212)"/><path d="M-40.84401986464365,151.4101320259235L-38.57207542091188,144.44979556930062L-40.57997045635445,143.7006557066109zM-38.57207542091188,144.44979556930062L-40.84401986464365,151.4101320259235L-38.843118470986454,152.78069311029438z" style="fill:rgb(247,158,158)"/><path d="M-67.81143189507945,158.8195961448399L-42.341346676883255,150.12850312601674L-70.79036373735636,156.46183167935382zM-42.341346676883255,150.12850312601674L-67.81143189507945,158.8195961448399L-39.5205335393315,152.54296109560653z" style="fill:rgb(140,16,189)"/><path d="M-38.843118470986454,152.78069311029438L-40.84401986464365,151.4101320259235L-39.5205335393315,152.54296109560653z" style="fill:rgb(247,158,158)"/><path d="M-43.01284259756362,149.2453810638816L-71.04960964453231,148.17051950188497L-71.49303844519878,155.59299806724576zM-71.04960964453231,148.17051950188497L-43.01284259756362,149.2453810638816L-42.74416048111746,141.8097180497248z" style="fill:rgb(83,212,212)"/><path d="M-43.01284259756362,149.2453810638816L-40.57997045635445,143.7006557066109L-42.74416048111746,141.8097180497248zM-40.57997045635445,143.7006557066109L-43.01284259756362,149.2453810638816L-40.84401986464365,151.4101320259235z" style="fill:rgb(247,158,158)"/><path d="M-45.263562581844404,146.28532699869393L-73.38821276133312,145.24539781621291L-73.84817395828547,152.68094325853065z" style="fill:rgb(83,212,212)"/><path d="M-70.79036373735636,156.46183167935382L-45.263562581844404,146.28532699869393L-73.84817395828547,152.68094325853065z" style="fill:rgb(131,29,208)"/><path d="M-73.38821276133312,145.24539781621291L-45.263562581844404,146.28532699869393L-44.97962348343513,138.8367456297789z" style="fill:rgb(83,212,212)"/><path d="M-40.84401986464365,151.4101320259235L-43.01284259756362,149.2453810638816L-42.341346676883255,150.12850312601674z" style="fill:rgb(247,158,158)"/><path d="M-45.263562581844404,146.28532699869393L-70.79036373735636,156.46183167935382L-42.341346676883255,150.12850312601674z" style="fill:rgb(131,29,208)"/><path d="M-45.263562581844404,146.28532699869393L-42.74416048111746,141.8097180497248L-44.97962348343513,138.8367456297789zM-42.74416048111746,141.8097180497248L-45.263562581844404,146.28532699869393L-43.01284259756362,149.2453810638816zM154.5329302896051,89.65205462570309L157.43060105183608,100.85674944384137L156.7815037535286,95.26214406009016z" style="fill:rgb(247,158,158)"/><path d="M155.02440432637317,93.95014403406987L124.53152355357341,96.44986344976286L124.88532818627922,100.74751578706467zM124.53152355357341,96.44986344976286L155.02440432637317,93.95014403406987L154.5329302896051,89.65205462570309z" style="fill:rgb(84,220,202)"/><path d="M157.43060105183608,100.85674944384137L154.5329302896051,89.65205462570309L157.68630567963805,105.36882918103184z" style="fill:rgb(247,158,158)"/><path d="M155.2093876836811,97.39634925796156L124.88532818627922,100.74751578706467L124.91579536800732,104.20341631523557z" style="fill:rgb(85,234,182)"/><path d="M157.68630567963805,105.36882918103184L154.5329302896051,89.65205462570309L155.02440432637317,93.95014403406987z" style="fill:rgb(247,158,158)"/><path d="M124.88532818627922,100.74751578706467L155.2093876836811,97.39634925796156L155.02440432637317,93.95014403406987z" style="fill:rgb(85,234,182)"/><path d="M-56.98750391241573,128.2301584311168L-73.84817395828547,152.68094325853065L-45.263562581844404,146.28532699869393z" style="fill:rgb(127,37,217)"/><path d="M-44.97962348343513,138.8367456297789L-56.98750391241573,128.2301584311168L-45.263562581844404,146.28532699869393z" style="fill:rgb(247,158,158)"/><path d="M124.61689856726494,106.67607879932956L155.2093876836811,97.39634925796156L124.91579536800732,104.20341631523557z" style="fill:rgb(89,244,159)"/><path d="M124.88532818627922,100.74751578706467L157.18031888769852,109.73544062369294L155.02440432637317,93.95014403406987z" style="fill:rgb(83,212,212)"/><path d="M-73.84817395828547,152.68094325853065L-56.98750391241573,128.2301584311168L-86.05896454622152,134.88538801698172z" style="fill:rgb(127,37,217)"/><path d="M157.18031888769852,109.73544062369294L124.88532818627922,100.74751578706467L126.60946856056313,116.51185113494304z" style="fill:rgb(83,212,212)"/><path d="M-56.98750391241573,128.2301584311168L-44.97962348343513,138.8367456297789L-56.62285681049404,120.7478468627461zM157.68630567963805,105.36882918103184L155.02440432637317,93.95014403406987L157.18031888769852,109.73544062369294zM155.2093876836811,97.39634925796156L157.18031888769852,109.73544062369294L155.02440432637317,93.95014403406987z" style="fill:rgb(247,158,158)"/><path d="M155.2093876836811,97.39634925796156L124.61689856726494,106.67607879932956L155.07632101397735,99.84930481524002z" style="fill:rgb(89,244,159)"/><path d="M124.91579536800732,104.20341631523557L156.97932968206806,110.37946895684684L155.2093876836811,97.39634925796156z" style="fill:rgb(83,212,212)"/><path d="M123.99455046153075,108.05568482261303L155.07632101397735,99.84930481524002L124.61689856726494,106.67607879932956z" style="fill:rgb(93,250,135)"/><path d="M156.97932968206806,110.37946895684684L124.91579536800732,104.20341631523557L126.32989406838752,117.16892781793418z" style="fill:rgb(83,212,212)"/><path d="M157.68630567963805,105.36882918103184L157.18031888769852,109.73544062369294L157.5313997500933,108.61047298851557z" style="fill:rgb(247,158,158)"/><path d="M-56.98750391241573,128.2301584311168L-85.51228548970528,127.41496656900786L-86.05896454622152,134.88538801698172zM-85.51228548970528,127.41496656900786L-56.98750391241573,128.2301584311168L-56.62285681049404,120.7478468627461z" style="fill:rgb(83,212,212)"/><path d="M155.07632101397735,99.84930481524002L156.97932968206806,110.37946895684684L155.2093876836811,97.39634925796156z" style="fill:rgb(247,158,158)"/><path d="M124.61689856726494,106.67607879932956L156.53277528982582,110.5650917455371L155.07632101397735,99.84930481524002z" style="fill:rgb(83,212,212)"/><path d="M157.18031888769852,109.73544062369294L155.2093876836811,97.39634925796156L156.97932968206806,110.37946895684684z" style="fill:rgb(247,158,158)"/><path d="M156.53277528982582,110.5650917455371L124.61689856726494,106.67607879932956L125.7787185259564,117.3771038791995z" style="fill:rgb(83,212,212)"/><path d="M155.07632101397735,99.84930481524002L123.99455046153075,108.05568482261303L154.62497711055246,101.1996968259103z" style="fill:rgb(93,250,135)"/><path d="M123.0672282747636,108.27046299684993L154.62497711055246,101.1996968259103L123.99455046153075,108.05568482261303z" style="fill:rgb(99,250,111)"/><path d="M154.62497711055246,101.1996968259103L156.53277528982582,110.5650917455371L155.07632101397735,99.84930481524002zM156.97932968206806,110.37946895684684L155.07632101397735,99.84930481524002L156.53277528982582,110.5650917455371z" style="fill:rgb(247,158,158)"/><path d="M123.99455046153075,108.05568482261303L155.90376945649928,110.64698296613699L154.62497711055246,101.1996968259103zM155.90376945649928,110.64698296613699L123.99455046153075,108.05568482261303L125.01248241213823,117.4898033483198z" style="fill:rgb(83,212,212)"/><path d="M156.97932968206806,110.37946895684684L156.53277528982582,110.5650917455371L156.96288933861953,110.43213465553588z" style="fill:rgb(247,158,158)"/><path d="M154.62497711055246,101.1996968259103L123.0672282747636,108.27046299684993L153.86728631100266,101.3765586908258z" style="fill:rgb(99,250,111)"/><path d="M156.53277528982582,110.5650917455371L154.62497711055246,101.1996968259103L155.90376945649928,110.64698296613699zM153.86728631100266,101.3765586908258L155.90376945649928,110.64698296613699L154.62497711055246,101.1996968259103z" style="fill:rgb(247,158,158)"/><path d="M155.0007967257573,109.79309073619713L123.0672282747636,108.27046299684993L123.96714409222419,116.67523249877233zM123.0672282747636,108.27046299684993L155.0007967257573,109.79309073619713L153.86728631100266,101.3765586908258z" style="fill:rgb(83,212,212)"/><path d="M156.53277528982582,110.5650917455371L155.90376945649928,110.64698296613699L155.99346812139882,110.73181199913985z" style="fill:rgb(247,158,158)"/><path d="M125.11632769983919,117.5707277829397L154.65237537908476,109.46360046077639L123.5637920261355,116.36093119228603zM154.65237537908476,109.46360046077639L125.11632769983919,117.5707277829397L155.99346812139882,110.73181199913985z" style="fill:rgb(148,8,167)"/><path d="M122.69140875496271,115.06978447749054L152.8277080193175,100.35281154937948L121.86606716728721,107.29215116904395z" style="fill:rgb(83,212,212)"/><path d="M155.90376945649928,110.64698296613699L153.86728631100266,101.3765586908258L155.0007967257573,109.79309073619713zM152.8277080193175,100.35281154937948L155.0007967257573,109.79309073619713L153.86728631100266,101.3765586908258z" style="fill:rgb(247,158,158)"/><path d="M152.8277080193175,100.35281154937948L122.69140875496271,115.06978447749054L153.87048048420704,108.14127471400704z" style="fill:rgb(83,212,212)"/><path d="M155.0007967257573,109.79309073619713L152.8277080193175,100.35281154937948L153.87048048420704,108.14127471400704z" style="fill:rgb(247,158,158)"/><path d="M123.5637920261355,116.36093119228603L152.9856024750217,106.64479836784818L121.704173697815,113.60867760512151zM152.9856024750217,106.64479836784818L123.5637920261355,116.36093119228603L154.65237537908476,109.46360046077639z" style="fill:rgb(140,16,189)"/><path d="M151.54297363829937,98.1494642144968L153.87048048420704,108.14127471400704L152.8277080193175,100.35281154937948zM155.0007967257573,109.79309073619713L153.87048048420704,108.14127471400704L154.65237537908476,109.46360046077639z" style="fill:rgb(247,158,158)"/><path d="M152.5420751003486,105.66048542097394L120.43443048881345,105.14017872257655L121.22251682951521,112.64093564147917zM120.43443048881345,105.14017872257655L152.5420751003486,105.66048542097394L151.54297363829937,98.1494642144968z" style="fill:rgb(83,212,212)"/><path d="M153.87048048420704,108.14127471400704L151.54297363829937,98.1494642144968L152.5420751003486,105.66048542097394zM150.06132719297838,94.83770031498823L152.5420751003486,105.66048542097394L151.54297363829937,98.1494642144968z" style="fill:rgb(247,158,158)"/><path d="M151.05508462505694,102.36036645946024L118.8266967379718,101.88388418898325L119.60771094030545,109.39650924598844z" style="fill:rgb(83,212,212)"/><path d="M121.704173697815,113.60867760512151L151.05508462505694,102.36036645946024L119.60771094030545,109.39650924598844z" style="fill:rgb(131,29,208)"/><path d="M118.8266967379718,101.88388418898325L151.05508462505694,102.36036645946024L150.06132719297838,94.83770031498823z" style="fill:rgb(83,212,212)"/><path d="M153.87048048420704,108.14127471400704L152.5420751003486,105.66048542097394L152.9856024750217,106.64479836784818z" style="fill:rgb(247,158,158)"/><path d="M151.05508462505694,102.36036645946024L121.704173697815,113.60867760512151L152.9856024750217,106.64479836784818z" style="fill:rgb(131,29,208)"/><path d="M152.5420751003486,105.66048542097394L150.06132719297838,94.83770031498823L151.05508462505694,102.36036645946024z" style="fill:rgb(247,158,158)"/><path d="M142.90142397627235,82.47031828239878L119.60771094030545,109.39650924598844L151.05508462505694,102.36036645946024z" style="fill:rgb(127,37,217)"/><path d="M150.06132719297838,94.83770031498823L142.90142397627235,82.47031828239878L151.05508462505694,102.36036645946024z" style="fill:rgb(247,158,158)"/><path d="M119.60771094030545,109.39650924598844L142.90142397627235,82.47031828239878L110.85550282701057,89.80647421459855z" style="fill:rgb(127,37,217)"/><path d="M142.90142397627235,82.47031828239878L150.06132719297838,94.83770031498823L141.94153307430472,74.9230047330369z" style="fill:rgb(247,158,158)"/><path d="M142.90142397627235,82.47031828239878L110.11652726674676,82.26760374347L110.85550282701057,89.80647421459855zM110.11652726674676,82.26760374347L142.90142397627235,82.47031828239878L141.94153307430472,74.9230047330369z" style="fill:rgb(83,212,212)"/></svg>
