<?xml version="1.0" encoding="UTF-8"?>
<!-- Generated by jsxcad -->
<!DOCTYPE svg PUBLIC "-//W3C//DTD SVG 1.1 Tiny//EN" "http://www.w3.org/Graphics/SVG/1.1/DTD/svg11-tiny.dtd">
<svg viewBox="-250 -250 500 500" width="500" height="500" xmlns="http://www.w3.org/2000/svg"><path d="M-96.53092819308209,-84.75106176499304L-30.836917180533273,-83.50995136831592L-30.187786099086733,-103.66800736447995zM-30.836917180533273,-83.50995136831592L-96.53092819308209,-84.75106176499304L-98.5716302763878,-64.53311313929797z" style="fill:rgb(83,212,212)"/><path d="M-30.836917180533273,-83.50995136831592L-27.95688822192216,-99.15612463135479L-30.187786099086733,-103.66800736447995z" style="fill:rgb(247,158,158)"/><path d="M-96.06066771228971,-60.156869051365035L-30.836917180533273,-83.50995136831592L-98.5716302763878,-64.53311313929797z" style="fill:rgb(127,37,217)"/><path d="M-27.95688822192216,-99.15612463135479L-30.836917180533273,-83.50995136831592L-28.555628892173505,-78.98255950540836z" style="fill:rgb(247,158,158)"/><path d="M-30.836917180533273,-83.50995136831592L-96.06066771228971,-60.156869051365035L-28.555628892173505,-78.98255950540836z" style="fill:rgb(127,37,217)"/><path d="M-99.9433791508709,-50.942717706992305L-30.836917180533273,-83.50995136831592L-98.5716302763878,-64.53311313929797z" style="fill:rgb(83,212,212)"/><path d="M-97.39211087378396,-46.560333783221594L-31.27351880530045,-69.95176527674799L-99.9433791508709,-50.942717706992305z" style="fill:rgb(127,37,217)"/><path d="M-30.836917180533273,-83.50995136831592L-28.95828117673079,-65.41586445825635L-28.555628892173505,-78.98255950540836z" style="fill:rgb(247,158,158)"/><path d="M-30.836917180533273,-83.50995136831592L-99.9433791508709,-50.942717706992305L-31.27351880530045,-69.95176527674799z" style="fill:rgb(83,212,212)"/><path d="M-31.27351880530045,-69.95176527674799L-97.39211087378396,-46.560333783221594L-28.95828117673079,-65.41586445825635z" style="fill:rgb(127,37,217)"/><path d="M-28.95828117673079,-65.41586445825635L-30.836917180533273,-83.50995136831592L-31.27351880530045,-69.95176527674799z" style="fill:rgb(247,158,158)"/><path d="M28.477443891932833,-120.39569556272733L101.32545777046099,-120.53711842983319L99.12383720149413,-140.53967067598163zM101.32545777046099,-120.53711842983319L28.477443891932833,-120.39569556272733L29.09893701757862,-100.30183545201095z" style="fill:rgb(83,212,212)"/><path d="M101.32545777046099,-120.53711842983319L100.90047411805526,-135.73317726215848L99.12383720149413,-140.53967067598163z" style="fill:rgb(247,158,158)"/><path d="M-48.628529977815866,-65.14758992874955L-48.389329600484,-40.52871844972404L-47.179338440575606,-65.54875118000061zM-47.179338440575606,-65.54875118000061L-46.33931941626915,-41.47656624582042L-45.19800443874385,-66.09721819512463zM-50.548791685470405,-37.39872230541705L-48.628529977815866,-65.14758992874955L-49.158707148305055,-65.00082706650198z" style="fill:rgb(83,212,212)"/><path d="M31.16935698217008,-95.63856751063079L101.32545777046099,-120.53711842983319L29.09893701757862,-100.30183545201095z" style="fill:rgb(127,37,217)"/><path d="M-45.19800443874385,-66.09721819512463L-44.32414506830897,-41.628931846671236L-43.21470629151023,-66.64623299021986zM-44.32414506830897,-41.628931846671236L-41.761586440399036,-67.04848166775089L-43.21470629151023,-66.64623299021986zM-42.880805863936956,-40.94324571060718L-41.22944514990529,-67.19578823407774L-41.761586440399036,-67.04848166775089z" style="fill:rgb(83,212,212)"/><path d="M100.90047411805526,-135.73317726215848L101.32545777046099,-120.53711842983319L103.13224110174588,-115.70745322446672z" style="fill:rgb(247,158,158)"/><path d="M101.32545777046099,-120.53711842983319L31.16935698217008,-95.63856751063079L103.13224110174588,-115.70745322446672z" style="fill:rgb(127,37,217)"/><path d="M-46.33931941626915,-41.47656624582042L-47.179338440575606,-65.54875118000061L-48.389329600484,-40.52871844972404zM-48.389329600484,-40.52871844972404L-48.628529977815866,-65.14758992874955L-49.92949046370279,-39.03745980364274zM-44.32414506830897,-41.628931846671236L-45.19800443874385,-66.09721819512463L-46.33931941626915,-41.47656624582042zM-42.39768845824061,-39.59957436401679L39.828365721100944,-89.63404933478631L-41.22944514990529,-67.19578823407774zM-48.628529977815866,-65.14758992874955L-50.548791685470405,-37.39872230541705L-49.92949046370279,-39.03745980364274zM-41.761586440399036,-67.04848166775089L-44.32414506830897,-41.628931846671236L-42.880805863936956,-40.94324571060718zM-41.22944514990529,-67.19578823407774L-42.880805863936956,-40.94324571060718L-42.39768845824061,-39.59957436401679zM102.80797112638595,-107.06793158907139L29.09893701757862,-100.30183545201095L29.51716923785083,-86.77972333015677zM29.09893701757862,-100.30183545201095L102.80797112638595,-107.06793158907139L101.32545777046099,-120.53711842983319z" style="fill:rgb(83,212,212)"/><path d="M-46.33931941626915,-41.47656624582042L-45.95297497919282,-36.01797886099232L-43.91124897301228,-36.961381217976346z" style="fill:rgb(158,48,222)"/><path d="M-45.95297497919282,-36.01797886099232L-49.92949046370279,-39.03745980364274L-47.48497792976849,-34.529725071529704z" style="fill:rgb(212,85,213)"/><path d="M-44.32414506830897,-41.628931846671236L-43.91124897301228,-36.961381217976346L-41.90229120680792,-37.10903392186254z" style="fill:rgb(96,32,206)"/><path d="M31.615491081244297,-82.10572388021917L102.80797112638595,-107.06793158907139L29.51716923785083,-86.77972333015677z" style="fill:rgb(127,37,217)"/><path d="M-45.95297497919282,-36.01797886099232L-46.33931941626915,-41.47656624582042L-48.389329600484,-40.52871844972404z" style="fill:rgb(158,48,222)"/><path d="M-40.46145609452053,-36.41962977672444L-44.32414506830897,-41.628931846671236L-41.90229120680792,-37.10903392186254z" style="fill:rgb(42,41,169)"/><path d="M-47.48497792976849,-34.529725071529704L-50.548791685470405,-37.39872230541705L-48.098401189605404,-32.8917663935477z" style="fill:rgb(243,133,180)"/><path d="M-49.92949046370279,-39.03745980364274L-45.95297497919282,-36.01797886099232L-48.389329600484,-40.52871844972404z" style="fill:rgb(212,85,213)"/><path d="M-43.91124897301228,-36.961381217976346L-44.32414506830897,-41.628931846671236L-46.33931941626915,-41.47656624582042z" style="fill:rgb(96,32,206)"/><path d="M-50.548791685470405,-37.39872230541705L-47.48497792976849,-34.529725071529704L-49.92949046370279,-39.03745980364274z" style="fill:rgb(243,133,180)"/><path d="M-50.548791685470405,-37.39872230541705L-47.62595845910664,-31.541220674418003L-48.098401189605404,-32.8917663935477z" style="fill:rgb(243,180,133)"/><path d="M102.80797112638595,-107.06793158907139L103.13224110174588,-115.70745322446672L101.32545777046099,-120.53711842983319z" style="fill:rgb(247,158,158)"/><path d="M-44.32414506830897,-41.628931846671236L-40.46145609452053,-36.41962977672444L-42.880805863936956,-40.94324571060718z" style="fill:rgb(42,41,169)"/><path d="M-47.62595845910664,-31.541220674418003L-50.548791685470405,-37.39872230541705L-50.07835146456478,-36.04984050319512z" style="fill:rgb(243,180,133)"/><path d="M102.80797112638595,-107.06793158907139L31.615491081244297,-82.10572388021917L104.63482717950704,-102.22469523224919z" style="fill:rgb(127,37,217)"/><path d="M103.13224110174588,-115.70745322446672L102.80797112638595,-107.06793158907139L104.63482717950704,-102.22469523224919z" style="fill:rgb(247,158,158)"/><path d="M-116.60606901949296,114.14037329665666L-49.158707148305055,-65.00082706650198L-99.9433791508709,-50.942717706992305zM40.38241230826667,-89.7874158453332L44.97745545673255,-20.288204759740584L41.89686593745046,-90.20664663636896zM41.89686593745046,-90.20664663636896L47.18195786032244,-21.300028166056727L43.96746570095097,-90.7798242925334zM42.87321801084646,-16.893825032648284L40.38241230826667,-89.7874158453332L39.828365721100944,-89.63404933478631zM47.18195786032244,-21.300028166056727L46.04015953634195,-91.35358246132344L43.96746570095097,-90.7798242925334zM46.04015953634195,-91.35358246132344L51.12047413282147,-20.678087253065332L47.558814132002155,-91.77397500695308zM47.558814132002155,-91.77397500695308L51.80134685689219,-19.204641271833193L48.114959123975254,-91.92792238677396zM39.828365721100944,-89.63404933478631L-42.39768845824061,-39.59957436401679L-46.87131010893292,66.07619844497276zM-55.87048159666601,68.27098113841096L-50.07835146456478,-36.04984050319512L-50.548791685470405,-37.39872230541705zM-50.07835146456478,-36.04984050319512L-53.472052746700975,64.57113987230727L-48.639577246666526,-35.354127445656275zM-48.639577246666526,-35.354127445656275L-51.20730462728407,63.5364815752275L-46.61629101113046,-35.501689387223zM-51.20730462728407,63.5364815752275L-44.5536037024958,-36.45475200774129L-46.61629101113046,-35.501689387223zM-48.985100379452966,63.47332802923704L-43.008877725106984,-37.95603329720445L-44.5536037024958,-36.45475200774129zM-43.008877725106984,-37.95603329720445L-46.87131010893292,66.07619844497276L-42.39768845824061,-39.59957436401679zM47.18195786032244,-21.300028166056727L41.89686593745046,-90.20664663636896L44.97745545673255,-20.288204759740584zM44.97745545673255,-20.288204759740584L40.38241230826667,-89.7874158453332L43.40093712810788,-18.676978358423096zM46.04015953634195,-91.35358246132344L47.18195786032244,-21.300028166056727L49.429079951466115,-21.443495398500115zM40.38241230826667,-89.7874158453332L42.87321801084646,-16.893825032648284L43.40093712810788,-18.676978358423096zM51.12047413282147,-20.678087253065332L46.04015953634195,-91.35358246132344L49.429079951466115,-21.443495398500115zM51.80134685689219,-19.204641271833193L47.558814132002155,-91.77397500695308L51.12047413282147,-20.678087253065332zM48.114959123975254,-91.92792238677396L120.98450525322336,58.072661103334966L102.80797112638595,-107.06793158907139z" style="fill:rgb(83,212,212)"/><path d="M47.18195786032244,-21.300028166056727L47.167246072322094,-15.55339283572223L49.36217354223281,-16.560149438989402z" style="fill:rgb(158,48,222)"/><path d="M47.167246072322094,-15.55339283572223L43.40093712810788,-18.676978358423096L45.599433218539104,-13.945744193322374z" style="fill:rgb(212,85,213)"/><path d="M49.429079951466115,-21.443495398500115L49.36217354223281,-16.560149438989402L51.60137501154765,-16.698395471461225z" style="fill:rgb(96,32,206)"/><path d="M102.80797112638595,-107.06793158907139L123.04262204439036,62.949098806496615L104.63482717950704,-102.22469523224919z" style="fill:rgb(247,158,158)"/><path d="M47.167246072322094,-15.55339283572223L47.18195786032244,-21.300028166056727L44.97745545673255,-20.288204759740584z" style="fill:rgb(158,48,222)"/><path d="M53.28858777235856,-15.929017276400257L49.429079951466115,-21.443495398500115L51.60137501154765,-16.698395471461225z" style="fill:rgb(42,41,169)"/><path d="M45.599433218539104,-13.945744193322374L42.87321801084646,-16.893825032648284L45.07723893953005,-12.163745337981991z" style="fill:rgb(243,133,180)"/><path d="M43.40093712810788,-18.676978358423096L47.167246072322094,-15.55339283572223L44.97745545673255,-20.288204759740584z" style="fill:rgb(212,85,213)"/><path d="M49.36217354223281,-16.560149438989402L49.429079951466115,-21.443495398500115L47.18195786032244,-21.300028166056727z" style="fill:rgb(96,32,206)"/><path d="M42.87321801084646,-16.893825032648284L45.599433218539104,-13.945744193322374L43.40093712810788,-18.676978358423096z" style="fill:rgb(243,133,180)"/><path d="M42.87321801084646,-16.893825032648284L45.74428674980074,-10.682779236731635L45.07723893953005,-12.163745337981991z" style="fill:rgb(243,180,133)"/><path d="M53.97017187669194,-14.453931434146467L51.12047413282147,-20.678087253065332L53.28858777235856,-15.929017276400257z" style="fill:rgb(11,74,121)"/><path d="M49.429079951466115,-21.443495398500115L53.28858777235856,-15.929017276400257L51.12047413282147,-20.678087253065332z" style="fill:rgb(42,41,169)"/><path d="M-53.472052746700975,64.57113987230727L-50.07835146456478,-36.04984050319512L-55.17813884291538,66.30232080371603zM-51.20730462728407,63.5364815752275L-48.639577246666526,-35.354127445656275L-53.472052746700975,64.57113987230727z" style="fill:rgb(83,212,212)"/><path d="M45.74428674980074,-10.682779236731635L42.87321801084646,-16.893825032648284L43.53942679333986,-15.414437410868674z" style="fill:rgb(243,180,133)"/><path d="M-50.07835146456478,-36.04984050319512L-55.87048159666601,68.27098113841096L-55.17813884291538,66.30232080371603z" style="fill:rgb(83,212,212)"/><path d="M51.12047413282147,-20.678087253065332L53.97017187669194,-14.453931434146467L51.80134685689219,-19.204641271833193z" style="fill:rgb(11,74,121)"/><path d="M-44.5536037024958,-36.45475200774129L-51.20730462728407,63.5364815752275L-48.985100379452966,63.47332802923704zM-43.008877725106984,-37.95603329720445L-48.985100379452966,63.47332802923704L-47.397275294417575,64.4011556608609zM-46.87131010893292,66.07619844497276L-43.008877725106984,-37.95603329720445L-47.397275294417575,64.4011556608609zM-49.158707148305055,-65.00082706650198L-116.60606901949296,114.14037329665666L-57.477822905208775,100.18701851558522zM39.828365721100944,-89.63404933478631L-46.87131010893292,66.07619844497276L46.74461248733511,75.59213244027433z" style="fill:rgb(83,212,212)"/><path d="M-51.20730462728407,63.5364815752275L-50.75756288266089,69.06956459158779L-48.50292055741972,68.04021501077337z" style="fill:rgb(158,48,222)"/><path d="M-50.75756288266089,69.06956459158779L-55.17813884291538,66.30232080371603L-52.453653897302765,70.7963111077723z" style="fill:rgb(212,85,213)"/><path d="M-48.985100379452966,63.47332802923704L-48.50292055741972,68.04021501077337L-46.288262317622454,67.98184498788378z" style="fill:rgb(96,32,206)"/><path d="M-50.75756288266089,69.06956459158779L-51.20730462728407,63.5364815752275L-53.472052746700975,64.57113987230727z" style="fill:rgb(158,48,222)"/><path d="M-44.70342843530864,68.9126441246109L-48.985100379452966,63.47332802923704L-46.288262317622454,67.98184498788378z" style="fill:rgb(42,41,169)"/><path d="M-52.453653897302765,70.7963111077723L-55.87048159666601,68.27098113841096L-53.138749230892174,72.76257025598495z" style="fill:rgb(243,133,180)"/><path d="M-55.17813884291538,66.30232080371603L-50.75756288266089,69.06956459158779L-53.472052746700975,64.57113987230727z" style="fill:rgb(212,85,213)"/><path d="M-48.50292055741972,68.04021501077337L-48.985100379452966,63.47332802923704L-51.20730462728407,63.5364815752275z" style="fill:rgb(96,32,206)"/><path d="M-55.87048159666601,68.27098113841096L-52.453653897302765,70.7963111077723L-55.17813884291538,66.30232080371603z" style="fill:rgb(243,133,180)"/><path d="M-55.87048159666601,68.27098113841096L-52.62573473060372,74.44408210198637L-53.138749230892174,72.76257025598495z" style="fill:rgb(243,180,133)"/><path d="M42.87321801084646,-16.893825032648284L47.39598567764669,75.4384173815723L43.53942679333986,-15.414437410868674z" style="fill:rgb(83,212,212)"/><path d="M-48.985100379452966,63.47332802923704L-44.70342843530864,68.9126441246109L-47.397275294417575,64.4011556608609z" style="fill:rgb(42,41,169)"/><path d="M43.53942679333986,-15.414437410868674L49.176633159346814,75.01821375851924L45.226429996493245,-14.637366983626869z" style="fill:rgb(83,212,212)"/><path d="M-52.62573473060372,74.44408210198637L-55.87048159666601,68.27098113841096L-55.35999847502219,69.95222309538752z" style="fill:rgb(243,180,133)"/><path d="M49.176633159346814,75.01821375851924L47.48383405997227,-14.77511126548863L45.226429996493245,-14.637366983626869zM51.28390522777205,-17.415767311764547L56.49007588133927,73.29235355816672L51.80134685689219,-19.204641271833193zM49.70299604543924,-15.792876346757259L55.83580584857977,73.44675222910799L51.28390522777205,-17.415767311764547zM47.48383405997227,-14.77511126548863L54.04935968677753,73.86832309522488L49.70299604543924,-15.792876346757259zM-55.87048159666601,68.27098113841096L-56.85920043825576,100.04103729727133L-55.35999847502219,69.95222309538752zM120.98450525322336,58.072661103334966L48.114959123975254,-91.92792238677396L56.49007588133927,73.29235355816672zM-55.35999847502219,69.95222309538752L-55.168109087732006,99.64196234691268L-53.77779853320642,70.89330968558895zM-47.55379579818305,68.05192313930391L-48.22288201882855,98.0030005324323L-46.87131010893292,66.07619844497276zM-53.77779853320642,70.89330968558895L-52.85571423155237,99.09627461815784L-51.545737269188606,70.83721599974031zM-49.26550693154815,69.79635846867325L-48.8441854315712,98.14961440345365L-47.55379579818305,68.05192313930391zM-51.545737269188606,70.83721599974031L-50.54063866648054,98.54995468111734L-49.26550693154815,69.79635846867325z" style="fill:rgb(83,212,212)"/><path d="M123.04262204439036,62.949098806496615L102.80797112638595,-107.06793158907139L120.98450525322336,58.072661103334966z" style="fill:rgb(247,158,158)"/><path d="M-56.85920043825576,100.04103729727133L-55.87048159666601,68.27098113841096L-57.477822905208775,100.18701851558522zM-55.168109087732006,99.64196234691268L-55.35999847502219,69.95222309538752L-56.85920043825576,100.04103729727133zM-52.85571423155237,99.09627461815784L-53.77779853320642,70.89330968558895L-55.168109087732006,99.64196234691268zM-50.54063866648054,98.54995468111734L-51.545737269188606,70.83721599974031L-52.85571423155237,99.09627461815784zM-48.22288201882855,98.0030005324323L-47.55379579818305,68.05192313930391L-48.8441854315712,98.14961440345365zM-48.8441854315712,98.14961440345365L-49.26550693154815,69.79635846867325L-50.54063866648054,98.54995468111734zM47.39598567764669,75.4384173815723L42.87321801084646,-16.893825032648284L46.74461248733511,75.59213244027433zM49.176633159346814,75.01821375851924L43.53942679333986,-15.414437410868674L47.39598567764669,75.4384173815723zM47.48383405997227,-14.77511126548863L49.176633159346814,75.01821375851924L51.61155042663883,74.44360779508276zM54.04935968677753,73.86832309522488L47.48383405997227,-14.77511126548863L51.61155042663883,74.44360779508276zM56.49007588133927,73.29235355816672L51.28390522777205,-17.415767311764547L55.83580584857977,73.44675222910799zM55.83580584857977,73.44675222910799L49.70299604543924,-15.792876346757259L54.04935968677753,73.86832309522488zM46.74461248733511,75.59213244027433L-46.87131010893292,66.07619844497276L-48.22288201882855,98.0030005324323zM-37.21009530125384,114.40212695140386L-116.60606901949296,114.14037329665666L-118.53057916655601,133.20716780882788z" style="fill:rgb(83,212,212)"/><path d="M-113.55350656112871,118.47786897325176L120.98450525322336,58.072661103334966L-116.60606901949296,114.14037329665666z" style="fill:rgb(127,37,217)"/><path d="M-116.60606901949296,114.14037329665666L-37.21009530125384,114.40212695140386L-36.59363658619772,95.25867557062432z" style="fill:rgb(83,212,212)"/><path d="M-115.4187266316828,137.52526897166925L-37.21009530125384,114.40212695140386L-118.53057916655601,133.20716780882788z" style="fill:rgb(127,37,217)"/><path d="M-36.59363658619772,95.25867557062432L-34.42869067988896,118.90043116139829L-33.861033193322484,99.7741619041716z" style="fill:rgb(247,158,158)"/><path d="M-37.21009530125384,114.40212695140386L-115.4187266316828,137.52526897166925L-34.42869067988896,118.90043116139829z" style="fill:rgb(127,37,217)"/><path d="M-34.42869067988896,118.90043116139829L-36.59363658619772,95.25867557062432L-37.21009530125384,114.40212695140386z" style="fill:rgb(247,158,158)"/><path d="M120.98450525322336,58.072661103334966L-113.55350656112871,118.47786897325176L123.04262204439036,62.949098806496615z" style="fill:rgb(127,37,217)"/><path d="M-118.53057916655601,133.20716780882788L-38.20131349283479,145.18332412621626L-37.21009530125384,114.40212695140386zM-38.20131349283479,145.18332412621626L-118.53057916655601,133.20716780882788L-121.62233310756474,163.8382544598237z" style="fill:rgb(83,212,212)"/><path d="M-38.20131349283479,145.18332412621626L-34.42869067988896,118.90043116139829L-37.21009530125384,114.40212695140386z" style="fill:rgb(247,158,158)"/><path d="M-118.4146274059071,168.11905221027337L-38.20131349283479,145.18332412621626L-121.62233310756474,163.8382544598237z" style="fill:rgb(127,37,217)"/><path d="M-34.42869067988896,118.90043116139829L-38.20131349283479,145.18332412621626L-35.34124893864091,149.64755488096208z" style="fill:rgb(247,158,158)"/><path d="M-38.20131349283479,145.18332412621626L-118.4146274059071,168.11905221027337L-35.34124893864091,149.64755488096208z" style="fill:rgb(127,37,217)"/><path d="M123.10411334523876,77.33009126843007L34.627690138817925,78.45153642065813L35.221569016091166,97.65258401106875zM34.627690138817925,78.45153642065813L123.10411334523876,77.33009126843007L120.98450525322336,58.072661103334966z" style="fill:rgb(83,212,212)"/><path d="M37.69522893493951,102.3144804007038L123.10411334523876,77.33009126843007L35.221569016091166,97.65258401106875z" style="fill:rgb(127,37,217)"/><path d="M120.98450525322336,58.072661103334966L125.18741258094992,82.19438010946074L123.04262204439036,62.949098806496615z" style="fill:rgb(247,158,158)"/><path d="M123.10411334523876,77.33009126843007L37.69522893493951,102.3144804007038L125.18741258094992,82.19438010946074z" style="fill:rgb(127,37,217)"/><path d="M125.18741258094992,82.19438010946074L120.98450525322336,58.072661103334966L123.10411334523876,77.33009126843007z" style="fill:rgb(247,158,158)"/><path d="M35.221569016091166,97.65258401106875L126.51817559247857,108.34810990229455L123.10411334523876,77.33009126843007zM126.51817559247857,108.34810990229455L35.221569016091166,97.65258401106875L36.177226279007144,128.55050156224087z" style="fill:rgb(83,212,212)"/><path d="M126.51817559247857,108.34810990229455L125.18741258094992,82.19438010946074L123.10411334523876,77.33009126843007z" style="fill:rgb(247,158,158)"/><path d="M38.71281541453027,133.18151956515956L126.51817559247857,108.34810990229455L36.177226279007144,128.55050156224087z" style="fill:rgb(127,37,217)"/><path d="M125.18741258094992,82.19438010946074L126.51817559247857,108.34810990229455L128.64125172194537,113.1858008149391z" style="fill:rgb(247,158,158)"/><path d="M126.51817559247857,108.34810990229455L38.71281541453027,133.18151956515956L128.64125172194537,113.1858008149391z" style="fill:rgb(127,37,217)"/></svg>
