<?xml version="1.0" encoding="UTF-8"?>
<!-- Generated by jsxcad -->
<!DOCTYPE svg PUBLIC "-//W3C//DTD SVG 1.1 Tiny//EN" "http://www.w3.org/Graphics/SVG/1.1/DTD/svg11-tiny.dtd">
<svg viewBox="-250 -250 500 500" width="500" height="500" xmlns="http://www.w3.org/2000/svg"><path d="M-119.28612778363281,-52.84577371976478L-31.779609661480272,-83.87152593512572L-118.47460121118263,-59.56918188022538zM-120.55296277022707,-57.34557658434781L-33.079768197768516,-87.29558017012428L-119.87435088938214,-62.88339149499679zM-32.34481225535015,-78.71052762699082L-118.85468418929564,-60.54751722980216L-119.60485019517698,-54.35853384126249zM-32.77318910640456,-80.26569557383168L-119.3302194851233,-61.64174269720128L-120.0324814895647,-55.87750251872199zM-31.75808043650473,-75.6986159055799L-118.1987402124777,-58.78945261564474L-119.08834654801946,-51.39610358487482zM-31.62198165962406,-74.35524698249397L-118.02891397158342,-58.309454188315044L-119.01911838058473,-50.06419096631059zM-33.820185000336444,-83.18436191040325L-120.48954386268953,-64.03750724255515L-121.1468238267195,-58.70745809235996z" style="fill:rgb(83,212,212)"/><path d="M-32.34481225535015,-78.71052762699082L-120.0324814895647,-55.87750251872199L-119.60485019517698,-54.35853384126249z" style="fill:rgb(99,111,250)"/><path d="M-32.002131872206924,-77.16885355355618L-119.60485019517698,-54.35853384126249L-119.28612778363281,-52.84577371976478z" style="fill:rgb(93,135,250)"/><path d="M-34.399559684390105,-84.43771970252811L-121.13044564284694,-65.23984699552935L-121.79181372221943,-59.91159285211576z" style="fill:rgb(83,212,212)"/><path d="M-120.0324814895647,-55.87750251872199L-33.27119727362324,-81.77592472609498L-120.55296277022707,-57.34557658434781z" style="fill:rgb(106,87,246)"/><path d="M-31.75808043650473,-75.6986159055799L-119.28612778363281,-52.84577371976478L-119.08834654801946,-51.39610358487482z" style="fill:rgb(89,159,244)"/><path d="M-115.73677026854837,-43.333714358380256L-31.599208441569047,-73.18970193462775L-119.08135159309788,-48.900559599332944z" style="fill:rgb(127,37,217)"/><path d="M-119.01911838058473,-50.06419096631059L-31.75808043650473,-75.6986159055799L-119.08834654801946,-51.39610358487482z" style="fill:rgb(85,182,234)"/><path d="M-120.55296277022707,-57.34557658434781L-33.820185000336444,-83.18436191040325L-121.1468238267195,-58.70745809235996z" style="fill:rgb(114,65,238)"/><path d="M-119.08135159309788,-48.900559599332944L-31.62198165962406,-74.35524698249397L-119.01911838058473,-50.06419096631059z" style="fill:rgb(84,202,220)"/><path d="M-121.1468238267195,-58.70745809235996L-34.399559684390105,-84.43771970252811L-121.79181372221943,-59.91159285211576z" style="fill:rgb(123,46,225)"/><path d="M-118.1987402124777,-58.78945261564474L-31.75808043650473,-75.6986159055799L-31.51560824656946,-83.06956003816074zM-118.85468418929564,-60.54751722980216L-32.34481225535015,-78.71052762699082L-32.13746534590514,-84.8800469785517zM-118.02891397158342,-58.309454188315044L-31.62198165962406,-74.35524698249397L-31.353091379896462,-82.57587642242619zM-119.3302194851233,-61.64174269720128L-32.77318910640456,-80.26569557383168L-32.57721060056279,-86.01143314154073zM-120.48954386268953,-64.03750724255515L-33.820185000336444,-83.18436191040325L-33.63263438684208,-88.49658732408606zM-31.779609661480272,-83.87152593512572L-119.28612778363281,-52.84577371976478L-32.002131872206924,-77.16885355355618zM-121.13044564284694,-65.23984699552935L-34.399559684390105,-84.43771970252811L-34.208622407166544,-89.74783129409835zM-33.079768197768516,-87.29558017012428L-120.55296277022707,-57.34557658434781L-33.27119727362324,-81.77592472609498z" style="fill:rgb(83,212,212)"/><path d="M-31.599208441569047,-73.18970193462775L-115.73677026854837,-43.333714358380256L-28.63701803376687,-67.37276110797514z" style="fill:rgb(127,37,217)"/><path d="M-119.60485019517698,-54.35853384126249L-32.002131872206924,-77.16885355355618L-32.34481225535015,-78.71052762699082z" style="fill:rgb(93,135,250)"/><path d="M-120.0324814895647,-55.87750251872199L-32.34481225535015,-78.71052762699082L-32.77318910640456,-80.26569557383168z" style="fill:rgb(99,111,250)"/><path d="M-33.27119727362324,-81.77592472609498L-120.0324814895647,-55.87750251872199L-32.77318910640456,-80.26569557383168z" style="fill:rgb(106,87,246)"/><path d="M-119.28612778363281,-52.84577371976478L-31.75808043650473,-75.6986159055799L-32.002131872206924,-77.16885355355618z" style="fill:rgb(89,159,244)"/><path d="M-33.820185000336444,-83.18436191040325L-120.55296277022707,-57.34557658434781L-33.27119727362324,-81.77592472609498z" style="fill:rgb(114,65,238)"/><path d="M-31.75808043650473,-75.6986159055799L-119.01911838058473,-50.06419096631059L-31.62198165962406,-74.35524698249397z" style="fill:rgb(85,182,234)"/><path d="M-34.399559684390105,-84.43771970252811L-121.1468238267195,-58.70745809235996L-33.820185000336444,-83.18436191040325z" style="fill:rgb(123,46,225)"/><path d="M-31.62198165962406,-74.35524698249397L-119.08135159309788,-48.900559599332944L-31.599208441569047,-73.18970193462775z" style="fill:rgb(84,202,220)"/><path d="M-28.962766630315564,-72.37588040423368L-28.63701803376687,-67.37276110797514L-28.6880966833184,-69.70083524295174zM-30.980967891945383,-81.44546410131034L-31.62198165962406,-74.35524698249397L-30.131063422451586,-78.35847795795092zM-32.002131872206924,-77.16885355355618L-31.51560824656946,-83.06956003816074L-31.779609661480272,-83.87152593512572zM-31.75808043650473,-75.6986159055799L-31.353091379896462,-82.57587642242619L-31.51560824656946,-83.06956003816074zM-31.968522172603922,-84.44539165279228L-32.34481225535015,-78.71052762699082L-31.779609661480272,-83.87152593512572zM-30.131063422451586,-78.35847795795092L-31.62198165962406,-74.35524698249397L-29.44992163718966,-75.2977809805222zM-31.62198165962406,-74.35524698249397L-30.980967891945383,-81.44546410131034L-31.353091379896462,-82.57587642242619zM-32.34481225535015,-78.71052762699082L-31.968522172603922,-84.44539165279228L-32.13746534590514,-84.8800469785517zM-32.77318910640456,-80.26569557383168L-32.13746534590514,-84.8800469785517L-32.57721060056279,-86.01143314154073zM-29.44992163718966,-75.2977809805222L-31.62198165962406,-74.35524698249397L-28.962766630315564,-72.37588040423368zM-33.057693561995734,-87.24762859653947L-33.27119727362324,-81.77592472609498L-32.57721060056279,-86.01143314154073zM-33.27119727362324,-81.77592472609498L-33.057693561995734,-87.24762859653947L-33.079768197768516,-87.29558017012428zM-33.820185000336444,-83.18436191040325L-33.079768197768516,-87.29558017012428L-33.63263438684208,-88.49658732408606zM-28.962766630315564,-72.37588040423368L-31.599208441569047,-73.18970193462775L-28.63701803376687,-67.37276110797514zM-31.779609661480272,-83.87152593512572L-32.34481225535015,-78.71052762699082L-32.002131872206924,-77.16885355355618zM-32.13746534590514,-84.8800469785517L-32.77318910640456,-80.26569557383168L-32.34481225535015,-78.71052762699082zM-31.51560824656946,-83.06956003816074L-32.002131872206924,-77.16885355355618L-31.75808043650473,-75.6986159055799zM-34.399559684390105,-84.43771970252811L-33.63263438684208,-88.49658732408606L-34.208622407166544,-89.74783129409835zM-32.57721060056279,-86.01143314154073L-33.27119727362324,-81.77592472609498L-32.77318910640456,-80.26569557383168zM-31.353091379896462,-82.57587642242619L-31.75808043650473,-75.6986159055799L-31.62198165962406,-74.35524698249397zM-33.079768197768516,-87.29558017012428L-33.820185000336444,-83.18436191040325L-33.27119727362324,-81.77592472609498zM-28.962766630315564,-72.37588040423368L-31.62198165962406,-74.35524698249397L-31.599208441569047,-73.18970193462775zM-33.63263438684208,-88.49658732408606L-34.399559684390105,-84.43771970252811L-33.820185000336444,-83.18436191040325z" style="fill:rgb(247,158,158)"/><path d="M-49.75933419476983,-114.75497030319318L-121.79181372221943,-59.91159285211576L-34.399559684390105,-84.43771970252811zM-121.79181372221943,-59.91159285211576L-49.75933419476983,-114.75497030319318L-139.10867784949465,-88.9054595228549z" style="fill:rgb(127,37,217)"/><path d="M-53.7877336783028,-67.02913043425912L-53.65254311051854,-35.38433976149953L-51.93698412145854,-67.54298404652172zM-53.7877336783028,-67.02913043425912L-54.464730034393774,-66.84116557140888L-55.64145451206595,-33.45853718044241zM-51.93698412145854,-67.54298404652172L-51.01289707349872,-36.60443194290135L-49.40603506199531,-68.24569186237107z" style="fill:rgb(83,212,212)"/><path d="M-34.208622407166544,-89.74783129409835L-49.75933419476983,-114.75497030319318L-34.399559684390105,-84.43771970252811z" style="fill:rgb(247,158,158)"/><path d="M-49.40603506199531,-68.24569186237107L-48.422160905746324,-36.795039342022555L-46.8718819709069,-68.9492959177485zM-48.422160905746324,-36.795039342022555L-45.01471389797026,-69.46493160923805L-46.8718819709069,-68.9492959177485zM-46.569610615870914,-35.902163908978345L-44.33450832910393,-69.65378749723749L-45.01471389797026,-69.46493160923805zM-49.75933419476983,-114.75497030319318L-138.33349965386097,-94.21163346316325L-139.10867784949465,-88.9054595228549z" style="fill:rgb(83,212,212)"/><path d="M-49.75933419476983,-114.75497030319318L-34.208622407166544,-89.74783129409835L-49.47574713683109,-120.03445545638323z" style="fill:rgb(247,158,158)"/><path d="M-138.33349965386097,-94.21163346316325L-49.75933419476983,-114.75497030319318L-49.47574713683109,-120.03445545638323zM-51.01289707349872,-36.60443194290135L-51.93698412145854,-67.54298404652172L-53.65254311051854,-35.38433976149953zM-53.65254311051854,-35.38433976149953L-53.7877336783028,-67.02913043425912L-55.64145451206595,-33.45853718044241zM-48.422160905746324,-36.795039342022555L-49.40603506199531,-68.24569186237107L-51.01289707349872,-36.60443194290135zM-45.01471389797026,-69.46493160923805L-48.422160905746324,-36.795039342022555L-46.569610615870914,-35.902163908978345zM45.96073461107524,-98.89445006886632L139.81225225417023,-131.97215846928776L45.634990872716116,-105.5723894038273zM-44.33450832910393,-69.65378749723749L-46.569610615870914,-35.902163908978345L-45.954380936547935,-34.15895293050682zM44.69063523603011,-103.59760116813368L138.7258571722118,-135.61831999055576L44.428537951012586,-109.09588243598078zM44.183869320159204,-105.0482272142661L138.30605641480156,-136.91487586359426L43.93411093016406,-110.33954637384785zM140.4410968780628,-126.9305503492982L45.2981112317818,-106.60817443536693L45.59604361745489,-100.46178411478799zM140.01235094690009,-128.55770579646273L44.89201172302266,-107.77322415159605L45.16731801404452,-102.04936994522335zM141.174418341838,-123.8227526993903L45.88774770490046,-104.75038482743373L46.2476547389927,-97.40627142936323zM141.45134104709575,-122.45903571088205L46.04334395490894,-104.24436819985799L46.445898983935095,-96.05334327669719z" style="fill:rgb(83,212,212)"/><path d="M-51.01289707349872,-36.60443194290135L-50.49018680781118,-29.60929164669109L-47.864252739333196,-30.822026843155843z" style="fill:rgb(158,48,222)"/><path d="M-50.49018680781118,-29.60929164669109L-55.64145451206595,-33.45853718044241L-52.46552165758447,-27.688527873850635z" style="fill:rgb(212,85,213)"/><path d="M140.4410968780628,-126.9305503492982L45.16731801404452,-102.04936994522335L45.59604361745489,-100.46178411478799z" style="fill:rgb(99,111,250)"/><path d="M140.8333712962348,-125.33221964631366L45.59604361745489,-100.46178411478799L45.96073461107524,-98.89445006886632z" style="fill:rgb(93,135,250)"/><path d="M-48.422160905746324,-36.795039342022555L-47.864252739333196,-30.822026843155843L-45.28376920470464,-31.004892063622133z" style="fill:rgb(96,32,206)"/><path d="M138.67137653574989,-133.00908549152075L43.41898296575349,-111.63527598665607L43.66604337633579,-106.3463790871399z" style="fill:rgb(83,212,212)"/><path d="M45.16731801404452,-102.04936994522335L139.56322134674016,-130.15263995985052L44.69063523603011,-103.59760116813368z" style="fill:rgb(106,87,246)"/><path d="M141.174418341838,-123.8227526993903L45.96073461107524,-98.89445006886632L46.2476547389927,-97.40627142936323z" style="fill:rgb(89,159,244)"/><path d="M49.15164028070513,-88.84199614957659L141.65355572051485,-121.2927958282209L46.54778311948144,-94.88697727470527z" style="fill:rgb(127,37,217)"/><path d="M46.445898983935095,-96.05334327669719L141.174418341838,-123.8227526993903L46.2476547389927,-97.40627142936323z" style="fill:rgb(85,182,234)"/><path d="M44.69063523603011,-103.59760116813368L139.11055030104032,-131.65535141548813L44.183869320159204,-105.0482272142661z" style="fill:rgb(114,65,238)"/><path d="M-50.49018680781118,-29.60929164669109L-51.01289707349872,-36.60443194290135L-53.65254311051854,-35.38433976149953z" style="fill:rgb(158,48,222)"/><path d="M-43.43529767314643,-30.105963244480225L-48.422160905746324,-36.795039342022555L-45.28376920470464,-31.004892063622133z" style="fill:rgb(42,41,169)"/><path d="M-52.46552165758447,-27.688527873850635L-56.4495148158146,-31.336952186956818L-53.26372833766376,-25.568351501490064z" style="fill:rgb(243,133,180)"/><path d="M-55.64145451206595,-33.45853718044241L-50.49018680781118,-29.60929164669109L-53.65254311051854,-35.38433976149953z" style="fill:rgb(212,85,213)"/><path d="M-47.864252739333196,-30.822026843155843L-48.422160905746324,-36.795039342022555L-51.01289707349872,-36.60443194290135z" style="fill:rgb(96,32,206)"/><path d="M46.54778311948144,-94.88697727470527L141.45134104709575,-122.45903571088205L46.445898983935095,-96.05334327669719z" style="fill:rgb(84,202,220)"/><path d="M44.183869320159204,-105.0482272142661L138.67137653574989,-133.00908549152075L43.66604337633579,-106.3463790871399z" style="fill:rgb(123,46,225)"/><path d="M-56.4495148158146,-31.336952186956818L-52.46552165758447,-27.688527873850635L-55.64145451206595,-33.45853718044241z" style="fill:rgb(243,133,180)"/><path d="M-56.4495148158146,-31.336952186956818L-52.666112780277984,-23.813885812628293L-53.26372833766376,-25.568351501490064z" style="fill:rgb(243,180,133)"/><path d="M45.88774770490046,-104.75038482743373L141.174418341838,-123.8227526993903L140.05049554056774,-131.12554049125555zM45.2981112317818,-106.60817443536693L140.4410968780628,-126.9305503492982L139.50230416211815,-133.0415255163505zM46.04334395490894,-104.24436819985799L141.45134104709575,-122.45903571088205L140.19715208560933,-130.60438841623804zM44.89201172302266,-107.77322415159605L140.01235094690009,-128.55770579646273L139.13928127973475,-134.248115039052z" style="fill:rgb(83,212,212)"/><path d="M-48.422160905746324,-36.795039342022555L-43.43529767314643,-30.105963244480225L-46.569610615870914,-35.902163908978345z" style="fill:rgb(42,41,169)"/><path d="M-52.666112780277984,-23.813885812628293L-56.4495148158146,-31.336952186956818L-55.85534087080084,-29.585085506712467z" style="fill:rgb(243,180,133)"/><path d="M139.81225225417023,-131.97215846928776L45.96073461107524,-98.89445006886632L140.8333712962348,-125.33221964631366zM43.41898296575349,-111.63527598665607L138.67137653574989,-133.00908549152075L137.86866078183525,-138.26576898226563zM138.7258571722118,-135.61831999055576L44.69063523603011,-103.59760116813368L139.56322134674016,-130.15263995985052z" style="fill:rgb(83,212,212)"/><path d="M141.65355572051485,-121.2927958282209L49.15164028070513,-88.84199614957659L143.7999977833998,-114.96441121942978z" style="fill:rgb(127,37,217)"/><path d="M138.30605641480156,-136.91487586359426L44.183869320159204,-105.0482272142661L139.11055030104032,-131.65535141548813z" style="fill:rgb(83,212,212)"/><path d="M45.59604361745489,-100.46178411478799L140.8333712962348,-125.33221964631366L140.4410968780628,-126.9305503492982z" style="fill:rgb(93,135,250)"/><path d="M45.16731801404452,-102.04936994522335L140.4410968780628,-126.9305503492982L140.01235094690009,-128.55770579646273z" style="fill:rgb(99,111,250)"/><path d="M139.56322134674016,-130.15263995985052L45.16731801404452,-102.04936994522335L140.01235094690009,-128.55770579646273z" style="fill:rgb(106,87,246)"/><path d="M45.96073461107524,-98.89445006886632L141.174418341838,-123.8227526993903L140.8333712962348,-125.33221964631366z" style="fill:rgb(89,159,244)"/><path d="M139.11055030104032,-131.65535141548813L44.69063523603011,-103.59760116813368L139.56322134674016,-130.15263995985052z" style="fill:rgb(114,65,238)"/><path d="M141.174418341838,-123.8227526993903L46.445898983935095,-96.05334327669719L141.45134104709575,-122.45903571088205z" style="fill:rgb(85,182,234)"/><path d="M138.67137653574989,-133.00908549152075L44.183869320159204,-105.0482272142661L139.11055030104032,-131.65535141548813z" style="fill:rgb(123,46,225)"/><path d="M141.45134104709575,-122.45903571088205L46.54778311948144,-94.88697727470527L141.65355572051485,-121.2927958282209z" style="fill:rgb(84,202,220)"/><path d="M142.8409188980747,-120.01053003749392L143.7999977833998,-114.96441121942978L143.39377383835253,-117.29478852805636zM140.5329553703873,-129.41106405392196L141.45134104709575,-122.45903571088205L141.38355013616064,-126.18230047778664zM140.8333712962348,-125.33221964631366L140.05049554056774,-131.12554049125555L139.81225225417023,-131.97215846928776zM141.174418341838,-123.8227526993903L140.19715208560933,-130.60438841623804L140.05049554056774,-131.12554049125555zM139.64175750446645,-132.5779904475105L140.4410968780628,-126.9305503492982L139.81225225417023,-131.97215846928776zM141.38355013616064,-126.18230047778664L141.45134104709575,-122.45903571088205L142.16242818666097,-123.00998912364449zM141.45134104709575,-122.45903571088205L140.5329553703873,-129.41106405392196L140.19715208560933,-130.60438841623804zM140.4410968780628,-126.9305503492982L139.64175750446645,-132.5779904475105L139.50230416211815,-133.0415255163505zM140.01235094690009,-128.55770579646273L139.50230416211815,-133.0415255163505L139.13928127973475,-134.248115039052zM142.16242818666097,-123.00998912364449L141.45134104709575,-122.45903571088205L142.8409188980747,-120.01053003749392zM138.74262350053343,-135.56655545476946L139.56322134674016,-130.15263995985052L139.13928127973475,-134.248115039052zM139.56322134674016,-130.15263995985052L138.74262350053343,-135.56655545476946L138.7258571722118,-135.61831999055576zM139.11055030104032,-131.65535141548813L138.7258571722118,-135.61831999055576L138.30605641480156,-136.91487586359426zM142.8409188980747,-120.01053003749392L141.65355572051485,-121.2927958282209L143.7999977833998,-114.96441121942978zM139.81225225417023,-131.97215846928776L140.4410968780628,-126.9305503492982L140.8333712962348,-125.33221964631366zM139.50230416211815,-133.0415255163505L140.01235094690009,-128.55770579646273L140.4410968780628,-126.9305503492982zM140.05049554056774,-131.12554049125555L140.8333712962348,-125.33221964631366L141.174418341838,-123.8227526993903zM138.67137653574989,-133.00908549152075L138.30605641480156,-136.91487586359426L137.86866078183525,-138.26576898226563zM139.13928127973475,-134.248115039052L139.56322134674016,-130.15263995985052L140.01235094690009,-128.55770579646273zM140.19715208560933,-130.60438841623804L141.174418341838,-123.8227526993903L141.45134104709575,-122.45903571088205zM138.7258571722118,-135.61831999055576L139.11055030104032,-131.65535141548813L139.56322134674016,-130.15263995985052zM142.8409188980747,-120.01053003749392L141.45134104709575,-122.45903571088205L141.65355572051485,-121.2927958282209zM138.30605641480156,-136.91487586359426L138.67137653574989,-133.00908549152075L139.11055030104032,-131.65535141548813z" style="fill:rgb(247,158,158)"/><path d="M127.49708569551169,-166.03671537861413L43.66604337633579,-106.3463790871399L138.67137653574989,-133.00908549152075zM43.66604337633579,-106.3463790871399L127.49708569551169,-166.03671537861413L30.143174279604587,-137.87141887820587z" style="fill:rgb(127,37,217)"/><path d="M126.73842467763491,-171.2438075014617L138.67137653574989,-133.00908549152075L137.86866078183525,-138.26576898226563z" style="fill:rgb(247,158,158)"/><path d="M30.143174279604587,-137.87141887820587L126.73842467763491,-171.2438075014617L29.96796879110935,-143.12148620570838zM-145.58674717138553,171.9491444486829L-54.464730034393774,-66.84116557140888L-119.08135159309788,-48.900559599332944zM60.585343803728286,-98.78445849807007L68.58840037135442,-8.30605288278715L62.543669764397045,-99.32818567771433zM62.543669764397045,-99.32818567771433L71.48984190052144,-9.634232408432633L65.2218104244263,-100.07176220617654zM65.88933013523514,-3.806335560175851L60.585343803728286,-98.78445849807007L59.869010264038344,-98.58557716561701zM71.48984190052144,-9.634232408432633L67.9034497687549,-100.81630864500328L65.2218104244263,-100.07176220617654zM67.9034497687549,-100.81630864500328L76.75224977157757,-8.77710745086662L69.86876244210832,-101.36197567132098zM69.86876244210832,-101.36197567132098L77.70724387494673,-6.810368568724071L70.58858392683956,-101.56182689313839z" style="fill:rgb(83,212,212)"/><path d="M138.67137653574989,-133.00908549152075L126.73842467763491,-171.2438075014617L127.49708569551169,-166.03671537861413z" style="fill:rgb(247,158,158)"/><path d="M126.73842467763491,-171.2438075014617L30.143174279604587,-137.87141887820587L127.49708569551169,-166.03671537861413zM-52.403926778144125,107.16424645402172L59.869010264038344,-98.58557716561701L-44.33450832910393,-69.65378749723749zM-64.34832571850377,109.95849811048822L-55.85534087080084,-29.585085506712467L-54.464730034393774,-66.84116557140888zM-54.464730034393774,-66.84116557140888L-145.58674717138553,171.9491444486829L-56.4495148158146,-31.336952186956818z" style="fill:rgb(83,212,212)"/><path d="M-62.99830228632193,160.0350717041624L-53.26372833766376,-25.568351501490064L-51.40067422216162,-61.09011694745898z" style="fill:rgb(255,127,127)"/><path d="M-55.85534087080084,-29.585085506712467L-61.137234131272905,104.9183501292765L-54.010438484167786,-28.675482593786665zM-54.010438484167786,-28.675482593786665L-58.130497643447015,103.55066220863183L-51.40628926443608,-28.8580101148075zM-58.130497643447015,103.55066220863183L-48.745592618285635,-30.086755383992305L-51.40628926443608,-28.8580101148075zM-55.187282983611645,103.52003124659062L-46.749033444805576,-32.02929099603975L-48.745592618285635,-30.086755383992305z" style="fill:rgb(83,212,212)"/><path d="M-45.954380936547935,-34.15895293050682L-54.433173412320244,151.62933816030662L-44.33450832910393,-69.65378749723749z" style="fill:rgb(255,127,127)"/><path d="M71.48984190052144,-9.634232408432633L62.543669764397045,-99.32818567771433L68.58840037135442,-8.30605288278715zM68.58840037135442,-8.30605288278715L60.585343803728286,-98.78445849807007L66.53944248116237,-6.175608611514377zM67.9034497687549,-100.81630864500328L71.48984190052144,-9.634232408432633L74.47558238626772,-9.807990469492582zM60.585343803728286,-98.78445849807007L65.88933013523514,-3.806335560175851L66.53944248116237,-6.175608611514377zM76.75224977157757,-8.77710745086662L67.9034497687549,-100.81630864500328L74.47558238626772,-9.807990469492582zM77.70724387494673,-6.810368568724071L69.86876244210832,-101.36197567132098L76.75224977157757,-8.77710745086662zM-46.749033444805576,-32.02929099603975L-54.433173412320244,151.62933816030662L-45.954380936547935,-34.15895293050682zM59.869010264038344,-98.58557716561701L-52.403926778144125,107.16424645402172L65.88933013523514,-3.806335560175851zM87.23810364095897,120.04819111165327L141.65355572051485,-121.2927958282209L70.58858392683956,-101.56182689313839z" style="fill:rgb(83,212,212)"/><path d="M71.48984190052144,-9.634232408432633L71.32452555830163,-2.161264132704708L74.2094085507923,-3.480723887261908z" style="fill:rgb(158,48,222)"/><path d="M71.32452555830163,-2.161264132704708L66.53944248116237,-6.175608611514377L69.29031232474127,-0.03714862447501061z" style="fill:rgb(212,85,213)"/><path d="M74.47558238626772,-9.807990469492582L74.2094085507923,-3.480723887261908L77.18109195104093,-3.6456586549399397z" style="fill:rgb(96,32,206)"/><path d="M71.32452555830163,-2.161264132704708L71.48984190052144,-9.634232408432633L68.58840037135442,-8.30605288278715z" style="fill:rgb(158,48,222)"/><path d="M79.44992608903463,-2.6082156340967213L74.47558238626772,-9.807990469492582L77.18109195104093,-3.6456586549399397z" style="fill:rgb(42,41,169)"/><path d="M69.29031232474127,-0.03714862447501061L65.88933013523514,-3.806335560175851L68.64922030741882,2.3298297818309104z" style="fill:rgb(243,133,180)"/><path d="M66.53944248116237,-6.175608611514377L71.32452555830163,-2.161264132704708L68.58840037135442,-8.30605288278715z" style="fill:rgb(212,85,213)"/><path d="M74.2094085507923,-3.480723887261908L74.47558238626772,-9.807990469492582L71.48984190052144,-9.634232408432633z" style="fill:rgb(96,32,206)"/><path d="M65.88933013523514,-3.806335560175851L69.29031232474127,-0.03714862447501061L66.53944248116237,-6.175608611514377z" style="fill:rgb(243,133,180)"/><path d="M80.40545484338291,-0.6389894546553239L76.75224977157757,-8.77710745086662L79.44992608903463,-2.6082156340967213z" style="fill:rgb(11,74,121)"/><path d="M74.47558238626772,-9.807990469492582L79.44992608903463,-2.6082156340967213L76.75224977157757,-8.77710745086662z" style="fill:rgb(42,41,169)"/><path d="M175.78061529222083,100.31043154903735L143.7999977833998,-114.96441121942978L141.65355572051485,-121.2927958282209z" style="fill:rgb(247,158,158)"/><path d="M-61.137234131272905,104.9183501292765L-55.85534087080084,-29.585085506712467L-63.41176372042259,107.26056438401882zM-58.130497643447015,103.55066220863183L-54.010438484167786,-28.675482593786665L-61.137234131272905,104.9183501292765z" style="fill:rgb(83,212,212)"/><path d="M76.75224977157757,-8.77710745086662L80.40545484338291,-0.6389894546553239L77.70724387494673,-6.810368568724071z" style="fill:rgb(11,74,121)"/><path d="M-55.85534087080084,-29.585085506712467L-64.34832571850377,109.95849811048822L-63.41176372042259,107.26056438401882zM-48.745592618285635,-30.086755383992305L-58.130497643447015,103.55066220863183L-55.187282983611645,103.52003124659062zM-46.749033444805576,-32.02929099603975L-55.187282983611645,103.52003124659062L-53.089893509561044,104.83947096366441zM-54.433173412320244,151.62933816030662L-46.749033444805576,-32.02929099603975L-53.089893509561044,104.83947096366441zM-66.83235810997614,154.39333655578037L-56.4495148158146,-31.336952186956818L-145.58674717138553,171.9491444486829z" style="fill:rgb(83,212,212)"/><path d="M-58.130497643447015,103.55066220863183L-57.49071111030877,110.63741338902462L-54.50175229254792,109.27899507335124z" style="fill:rgb(158,48,222)"/><path d="M-57.49071111030877,110.63741338902462L-63.41176372042259,107.26056438401882L-59.74752812727061,112.97128567371439z" style="fill:rgb(212,85,213)"/><path d="M-55.187282983611645,103.52003124659062L-54.50175229254792,109.27899507335124L-51.57173406688294,109.25613152865601z" style="fill:rgb(96,32,206)"/><path d="M-57.49071111030877,110.63741338902462L-58.130497643447015,103.55066220863183L-61.137234131272905,104.9183501292765z" style="fill:rgb(158,48,222)"/><path d="M-49.479472158083944,110.57973747657505L-55.187282983611645,103.52003124659062L-51.57173406688294,109.25613152865601z" style="fill:rgb(42,41,169)"/><path d="M-59.74752812727061,112.97128567371439L-64.34832571850377,109.95849811048822L-60.671115289395466,115.66396799944748z" style="fill:rgb(243,133,180)"/><path d="M-63.41176372042259,107.26056438401882L-57.49071111030877,110.63741338902462L-61.137234131272905,104.9183501292765z" style="fill:rgb(212,85,213)"/><path d="M-54.50175229254792,109.27899507335124L-55.187282983611645,103.52003124659062L-58.130497643447015,103.55066220863183z" style="fill:rgb(96,32,206)"/><path d="M-64.34832571850377,109.95849811048822L-59.74752812727061,112.97128567371439L-63.41176372042259,107.26056438401882z" style="fill:rgb(243,133,180)"/><path d="M-64.34832571850377,109.95849811048822L-60.007804481277844,117.99881045290876L-60.671115289395466,115.66396799944748z" style="fill:rgb(243,180,133)"/><path d="M-55.187282983611645,103.52003124659062L-49.479472158083944,110.57973747657505L-53.089893509561044,104.83947096366441z" style="fill:rgb(42,41,169)"/><path d="M73.94472492330556,123.01152392024123L66.81887681518612,-1.8293432479422032L65.88933013523514,-3.806335560175851z" style="fill:rgb(83,212,212)"/><path d="M-60.007804481277844,117.99881045290876L-64.34832571850377,109.95849811048822L-63.68970880768062,112.29411320916996z" style="fill:rgb(243,180,133)"/><path d="M66.81887681518612,-1.8293432479422032L77.26005099144574,122.27247894710835L69.08832977507168,-0.7780687287297279zM77.26005099144574,122.27247894710835L72.09230354441482,-0.9416882322927025L69.08832977507168,-0.7780687287297279zM86.34493935546625,120.24728896947026L77.70724387494673,-6.810368568724071L77.07537678298132,-4.4309572138524995zM80.58070978187163,121.53224374126252L75.01920474567237,-2.2801208631911827L72.09230354441482,-0.9416882322927025zM83.90672742588312,120.79081542508004L77.07537678298132,-4.4309572138524995L75.01920474567237,-2.2801208631911827zM-52.403926778144125,107.16424645402172L73.94472492330556,123.01152392024123L65.88933013523514,-3.806335560175851zM-64.34832571850377,109.95849811048822L-66.0041742739993,154.20872613216244L-63.68970880768062,112.29411320916996zM-63.68970880768062,112.29411320916996L-63.739786732829124,153.70394763459228L-61.60238271728371,113.63769423925544zM-61.60238271728371,113.63769423925544L-60.64240519552428,153.01348644352987L-58.64187503806927,113.62036497693268zM-60.64240519552428,153.01348644352987L-55.60779437185462,112.24183732541276L-58.64187503806927,113.62036497693268zM-55.60779437185462,112.24183732541276L-55.26617867644757,151.81502334843833L-53.32320183551384,109.87546946365997zM141.65355572051485,-121.2927958282209L87.23810364095897,120.04819111165327L175.78061529222083,100.31043154903735zM-66.0041742739993,154.20872613216244L-64.34832571850377,109.95849811048822L-66.83235810997614,154.39333655578037z" style="fill:rgb(83,212,212)"/><path d="M143.7999977833998,-114.96441121942978L175.78061529222083,100.31043154903735L178.21051725567483,106.65854985248255z" style="fill:rgb(247,158,158)"/><path d="M-63.739786732829124,153.70394763459228L-63.68970880768062,112.29411320916996L-66.0041742739993,154.20872613216244zM-60.64240519552428,153.01348644352987L-61.60238271728371,113.63769423925544L-63.739786732829124,153.70394763459228z" style="fill:rgb(83,212,212)"/><path d="M-38.94846205459072,149.63320814838005L-145.58674717138553,171.9491444486829L-145.85895550273327,173.42669217774528z" style="fill:rgb(84,220,202)"/><path d="M-55.60779437185462,112.24183732541276L-60.64240519552428,153.01348644352987L-57.54020901254735,152.32195141338565zM-54.433173412320244,151.62933816030662L-53.32320183551384,109.87546946365997L-55.26617867644757,151.81502334843833zM-55.26617867644757,151.81502334843833L-55.60779437185462,112.24183732541276L-57.54020901254735,152.32195141338565z" style="fill:rgb(83,212,212)"/><path d="M-39.21029607862055,150.84227184176322L-145.85895550273327,173.42669217774528L-146.28641443102146,174.64186488254745z" style="fill:rgb(85,234,182)"/><path d="M-146.85357543048409,175.54714574276414L-39.21029607862055,150.84227184176322L-146.28641443102146,174.64186488254745z" style="fill:rgb(89,244,159)"/><path d="M-147.5394661217787,176.10628671782536L-39.60134566163603,151.7298268151168L-146.85357543048409,175.54714574276414z" style="fill:rgb(93,250,135)"/><path d="M-148.31836001205204,176.29595472618544L-40.10734155140711,152.2602393705457L-147.5394661217787,176.10628671782536z" style="fill:rgb(99,250,111)"/><path d="M-148.1024967359521,185.89429276762948L-39.60134566163603,151.7298268151168L-146.85357543048409,175.54714574276414zM-39.36427496418149,162.34563401227862L-145.85895550273327,173.42669217774528L-147.3741693526384,186.0436335429605zM-39.58633029364703,162.2733856187241L-146.28641443102146,174.64186488254745L-147.65149282051468,185.98677170781016zM66.81887681518612,-1.8293432479422032L73.94472492330556,123.01152392024123L74.83254362621636,122.81361914852897z" style="fill:rgb(83,212,212)"/><path d="M-145.58674717138553,171.9491444486829L-38.94846205459072,149.63320814838005L-38.825125055492755,148.1500122375744z" style="fill:rgb(84,220,202)"/><path d="M77.26005099144574,122.27247894710835L66.81887681518612,-1.8293432479422032L74.83254362621636,122.81361914852897z" style="fill:rgb(83,212,212)"/><path d="M-145.85895550273327,173.42669217774528L-39.21029607862055,150.84227184176322L-38.94846205459072,149.63320814838005z" style="fill:rgb(85,234,182)"/><path d="M72.09230354441482,-0.9416882322927025L77.26005099144574,122.27247894710835L80.58070978187163,121.53224374126252zM77.70724387494673,-6.810368568724071L86.34493935546625,120.24728896947026L87.23810364095897,120.04819111165327zM75.01920474567237,-2.2801208631911827L80.58070978187163,121.53224374126252L83.90672742588312,120.79081542508004zM-40.43079926609946,161.88458648788446L-147.5394661217787,176.10628671782536L-148.6971853373635,185.657645933882zM77.07537678298132,-4.4309572138524995L83.90672742588312,120.79081542508004L86.34493935546625,120.24728896947026zM73.94472492330556,123.01152392024123L-52.403926778144125,107.16424645402172L-54.433173412320244,151.62933816030662z" style="fill:rgb(83,212,212)"/><path d="M-146.74010874224544,186.173638606401L-40.20623848461624,162.0716911805697L-148.42561932446148,185.8280410661713z" style="fill:rgb(148,8,167)"/><path d="M-39.21029607862055,150.84227184176322L-146.85357543048409,175.54714574276414L-39.60134566163603,151.7298268151168z" style="fill:rgb(89,244,159)"/><path d="M-41.0159425591386,161.39702132114323L-148.31836001205204,176.29595472618544L-149.4048092505977,185.2136440118024zM-151.05432796151104,183.8198052387999L-42.107850139674035,151.55777301719544L-150.03383088948118,175.54435112289585zM-145.85895550273327,173.42669217774528L-39.36427496418149,162.34563401227862L-38.94846205459072,149.63320814838005zM-41.68496100305401,160.82631036712206L-149.16061338625676,176.10684043750615L-150.21276677929367,184.6929138680692z" style="fill:rgb(83,212,212)"/><path d="M-39.60134566163603,151.7298268151168L-147.5394661217787,176.10628671782536L-40.10734155140711,152.2602393705457z" style="fill:rgb(93,250,135)"/><path d="M-146.28641443102146,174.64186488254745L-39.58633029364703,162.2733856187241L-39.21029607862055,150.84227184176322zM-151.93189609764062,182.90934726950695L-42.85026087013714,150.58296816331574L-150.9040650933828,174.6287165920151z" style="fill:rgb(83,212,212)"/><path d="M-141.33711730471455,177.37048015054938L175.78061529222083,100.31043154903735L-145.58674717138553,171.9491444486829z" style="fill:rgb(127,37,217)"/><path d="M-148.42561932446148,185.8280410661713L-41.65633606397084,160.86342334944828L-150.1791867076245,184.72777128345018z" style="fill:rgb(140,16,189)"/><path d="M-38.94846205459072,149.63320814838005L-35.1436225854927,153.8711801033325L-38.825125055492755,148.1500122375744z" style="fill:rgb(247,158,158)"/><path d="M-40.10734155140711,152.2602393705457L-148.31836001205204,176.29595472618544L-40.70944731121351,152.4111315024432z" style="fill:rgb(99,250,111)"/><path d="M-147.5394661217787,176.10628671782536L-40.43079926609946,161.88458648788446L-40.10734155140711,152.2602393705457z" style="fill:rgb(83,212,212)"/><path d="M-35.1436225854927,153.8711801033325L-39.36427496418149,162.34563401227862L-35.37834303333891,156.8395136795356z" style="fill:rgb(247,158,158)"/><path d="M-150.1791867076245,184.72777128345018L-43.150273048443026,158.9265508258607L-151.93189609764062,182.90934726950695z" style="fill:rgb(131,29,208)"/><path d="M-39.60134566163603,151.7298268151168L-148.1024967359521,185.89429276762948L-39.94748043629488,162.15587815997154zM-148.31836001205204,176.29595472618544L-41.0159425591386,161.39702132114323L-40.70944731121351,152.4111315024432z" style="fill:rgb(83,212,212)"/><path d="M-35.1436225854927,153.8711801033325L-38.94846205459072,149.63320814838005L-39.36427496418149,162.34563401227862zM-35.37834303333891,156.8395136795356L-39.36427496418149,162.34563401227862L-35.888462479437166,159.27340736643603z" style="fill:rgb(247,158,158)"/><path d="M-40.20623848461624,162.0716911805697L-146.74010874224544,186.173638606401L-38.85658326200589,162.51081089570326z" style="fill:rgb(148,8,167)"/><path d="M-149.16061338625676,176.10684043750615L-41.68496100305401,160.82631036712206L-41.38490796179653,152.17458281373294z" style="fill:rgb(83,212,212)"/><path d="M-35.888462479437166,159.27340736643603L-39.36427496418149,162.34563401227862L-36.657470736030945,161.07593007210903zM-39.21029607862055,150.84227184176322L-39.36427496418149,162.34563401227862L-38.94846205459072,149.63320814838005z" style="fill:rgb(247,158,158)"/><path d="M-41.65633606397084,160.86342334944828L-148.42561932446148,185.8280410661713L-40.20623848461624,162.0716911805697z" style="fill:rgb(140,16,189)"/><path d="M-39.60134566163603,151.7298268151168L-39.58633029364703,162.2733856187241L-39.21029607862055,150.84227184176322zM-36.657470736030945,161.07593007210903L-38.85658326200589,162.51081089570326L-37.65884178486498,162.1717150244449z" style="fill:rgb(247,158,158)"/><path d="M-42.107850139674035,151.55777301719544L-151.05432796151104,183.8198052387999L-42.40224673331027,159.8963571932145z" style="fill:rgb(83,212,212)"/><path d="M-40.10734155140711,152.2602393705457L-39.94748043629488,162.15587815997154L-39.60134566163603,151.7298268151168zM-36.657470736030945,161.07593007210903L-39.36427496418149,162.34563401227862L-38.85658326200589,162.51081089570326z" style="fill:rgb(247,158,158)"/><path d="M-42.85026087013714,150.58296816331574L-151.93189609764062,182.90934726950695L-43.150273048443026,158.9265508258607z" style="fill:rgb(83,212,212)"/><path d="M-39.36427496418149,162.34563401227862L-39.21029607862055,150.84227184176322L-39.58633029364703,162.2733856187241z" style="fill:rgb(247,158,158)"/><path d="M-43.150273048443026,158.9265508258607L-150.1791867076245,184.72777128345018L-41.65633606397084,160.86342334944828z" style="fill:rgb(131,29,208)"/><path d="M-39.58633029364703,162.2733856187241L-39.60134566163603,151.7298268151168L-39.94748043629488,162.15587815997154zM-41.0159425591386,161.39702132114323L-40.10734155140711,152.2602393705457L-40.70944731121351,152.4111315024432zM-39.94748043629488,162.15587815997154L-40.10734155140711,152.2602393705457L-40.43079926609946,161.88458648788446zM-41.68496100305401,160.82631036712206L-40.70944731121351,152.4111315024432L-41.38490796179653,152.17458281373294zM-40.10734155140711,152.2602393705457L-41.0159425591386,161.39702132114323L-40.43079926609946,161.88458648788446zM-42.40224673331027,159.8963571932145L-41.38490796179653,152.17458281373294L-42.107850139674035,151.55777301719544zM-40.70944731121351,152.4111315024432L-41.68496100305401,160.82631036712206L-41.0159425591386,161.39702132114323zM-39.94748043629488,162.15587815997154L-40.43079926609946,161.88458648788446L-40.20623848461624,162.0716911805697zM-43.150273048443026,158.9265508258607L-42.107850139674035,151.55777301719544L-42.85026087013714,150.58296816331574zM-41.38490796179653,152.17458281373294L-42.40224673331027,159.8963571932145L-41.68496100305401,160.82631036712206zM-41.0159425591386,161.39702132114323L-41.68496100305401,160.82631036712206L-41.65633606397084,160.86342334944828zM-42.107850139674035,151.55777301719544L-43.150273048443026,158.9265508258607L-42.40224673331027,159.8963571932145z" style="fill:rgb(247,158,158)"/><path d="M175.78061529222083,100.31043154903735L-141.33711730471455,177.37048015054938L178.21051725567483,106.65854985248255zM-62.84780583387853,128.91106896049988L-151.93189609764062,182.90934726950695L-43.150273048443026,158.9265508258607zM-151.93189609764062,182.90934726950695L-62.84780583387853,128.91106896049988L-174.67207464744206,154.5291328631462z" style="fill:rgb(127,37,217)"/><path d="M-62.39608908488771,120.5015154689108L-43.150273048443026,158.9265508258607L-42.85026087013714,150.58296816331574z" style="fill:rgb(247,158,158)"/><path d="M-62.84780583387853,128.91106896049988L-173.45161738936332,146.17500785027005L-174.67207464744206,154.5291328631462z" style="fill:rgb(83,212,212)"/><path d="M175.98177871138134,101.79936240717298L57.447748135422344,126.68900692163699L57.46581589699904,128.1757033865019z" style="fill:rgb(84,220,202)"/><path d="M176.08157657376432,102.98976250274741L57.46581589699904,128.1757033865019L57.3614614474212,129.37745053040496z" style="fill:rgb(85,234,182)"/><path d="M57.138048097848014,130.24708851758172L176.08157657376432,102.98976250274741L57.3614614474212,129.37745053040496z" style="fill:rgb(89,244,159)"/><path d="M56.803470734416514,130.74953505244181L176.07568679017584,103.8348110522732L57.138048097848014,130.24708851758172z" style="fill:rgb(93,250,135)"/><path d="M-173.45161738936332,146.17500785027005L-62.84780583387853,128.91106896049988L-62.39608908488771,120.5015154689108z" style="fill:rgb(83,212,212)"/><path d="M-43.150273048443026,158.9265508258607L-62.39608908488771,120.5015154689108L-62.84780583387853,128.91106896049988z" style="fill:rgb(247,158,158)"/><path d="M56.369971666263424,130.86341963102257L175.96374096509095,104.300263756478L56.803470734416514,130.74953505244181z" style="fill:rgb(99,250,111)"/><path d="M177.96245295166565,114.66287140813274L57.46581589699904,128.1757033865019L58.094240491458926,140.96265954675937zM57.272751447603746,140.4308973559333L175.96374096509095,104.300263756478L56.803470734416514,130.74953505244181zM177.86187300688746,114.55741142065314L57.3614614474212,129.37745053040496L57.92495610078713,140.875888297713z" style="fill:rgb(83,212,212)"/><path d="M57.447748135422344,126.68900692163699L175.98177871138134,101.79936240717298L175.78061529222083,100.31043154903735z" style="fill:rgb(84,220,202)"/><path d="M177.6982744517949,114.38586569354158L57.138048097848014,130.24708851758172L57.6496275027441,140.73476895042924z" style="fill:rgb(83,212,212)"/><path d="M57.46581589699904,128.1757033865019L176.08157657376432,102.98976250274741L175.98177871138134,101.79936240717298z" style="fill:rgb(85,234,182)"/><path d="M58.481258248590166,141.16103103086425L177.58103586706125,114.26295139272153L57.45235096647426,140.63363677936687z" style="fill:rgb(148,8,167)"/><path d="M176.08157657376432,102.98976250274741L57.138048097848014,130.24708851758172L176.07568679017584,103.8348110522732z" style="fill:rgb(89,244,159)"/><path d="M177.14469342310284,113.45989345379027L56.369971666263424,130.86341963102257L56.80473722840286,139.9025690176973zM57.46581589699904,128.1757033865019L177.96245295166565,114.66287140813274L175.98177871138134,101.79936240717298z" style="fill:rgb(83,212,212)"/><path d="M175.78061529222083,100.31043154903735L178.6181851631386,109.64032916680908L178.21051725567483,106.65854985248255z" style="fill:rgb(247,158,158)"/><path d="M176.7818631275378,112.78275232670853L55.853759312917035,130.58215374279305L56.268621073657044,139.28510063227097z" style="fill:rgb(83,212,212)"/><path d="M176.07568679017584,103.8348110522732L56.803470734416514,130.74953505244181L175.96374096509095,104.300263756478z" style="fill:rgb(93,250,135)"/><path d="M57.3614614474212,129.37745053040496L177.86187300688746,114.55741142065314L176.08157657376432,102.98976250274741z" style="fill:rgb(83,212,212)"/><path d="M57.45235096647426,140.63363677936687L176.79954026762746,112.82464219895972L56.29249440593115,139.3243336004075z" style="fill:rgb(140,16,189)"/><path d="M176.339058217453,111.7330173405214L55.27447284191572,129.91454183278304L55.67038912580399,138.30232579699353z" style="fill:rgb(83,212,212)"/><path d="M178.6181851631386,109.64032916680908L175.78061529222083,100.31043154903735L178.82626543416987,112.04009606649052z" style="fill:rgb(247,158,158)"/><path d="M57.138048097848014,130.24708851758172L177.6982744517949,114.38586569354158L176.07568679017584,103.8348110522732z" style="fill:rgb(83,212,212)"/><path d="M175.96374096509095,104.300263756478L56.369971666263424,130.86341963102257L175.74943427364607,104.36600798454245z" style="fill:rgb(99,250,111)"/><path d="M175.8772013219747,110.638122274079L54.65442611844427,128.8847810981516L55.046470530376304,137.2773641067575z" style="fill:rgb(83,212,212)"/><path d="M178.82626543416987,112.04009606649052L175.78061529222083,100.31043154903735L178.82484778058628,113.76152523013926z" style="fill:rgb(247,158,158)"/><path d="M56.29249440593115,139.3243336004075L175.8772013219747,110.638122274079L55.046470530376304,137.2773641067575z" style="fill:rgb(131,29,208)"/><path d="M178.82484778058628,113.76152523013926L175.78061529222083,100.31043154903735L175.98177871138134,101.79936240717298z" style="fill:rgb(247,158,158)"/><path d="M56.369971666263424,130.86341963102257L177.14469342310284,113.45989345379027L175.74943427364607,104.36600798454245z" style="fill:rgb(83,212,212)"/><path d="M177.58103586706125,114.26295139272153L58.481258248590166,141.16103103086425L178.19238502746188,114.90397303158684z" style="fill:rgb(148,8,167)"/><path d="M175.96374096509095,104.300263756478L57.272751447603746,140.4308973559333L177.46003937574721,114.04024974061507zM55.853759312917035,130.58215374279305L176.7818631275378,112.78275232670853L175.44047916477453,104.02719675323492zM55.27447284191572,129.91454183278304L176.339058217453,111.7330173405214L175.04835131533616,103.29477167655972z" style="fill:rgb(83,212,212)"/><path d="M176.08157657376432,102.98976250274741L177.96245295166565,114.66287140813274L175.98177871138134,101.79936240717298zM178.82484778058628,113.76152523013926L175.98177871138134,101.79936240717298L177.96245295166565,114.66287140813274z" style="fill:rgb(247,158,158)"/><path d="M176.79954026762746,112.82464219895972L57.45235096647426,140.63363677936687L177.58103586706125,114.26295139272153z" style="fill:rgb(140,16,189)"/><path d="M54.65442611844427,128.8847810981516L175.8772013219747,110.638122274079L174.58796403063616,102.19537664851707z" style="fill:rgb(83,212,212)"/><path d="M176.07568679017584,103.8348110522732L177.86187300688746,114.55741142065314L176.08157657376432,102.98976250274741zM178.82484778058628,113.76152523013926L177.96245295166565,114.66287140813274L178.61162882373648,114.73150968945406zM175.96374096509095,104.300263756478L177.6982744517949,114.38586569354158L176.07568679017584,103.8348110522732zM177.96245295166565,114.66287140813274L176.08157657376432,102.98976250274741L177.86187300688746,114.55741142065314z" style="fill:rgb(247,158,158)"/><path d="M175.8772013219747,110.638122274079L56.29249440593115,139.3243336004075L176.79954026762746,112.82464219895972z" style="fill:rgb(131,29,208)"/><path d="M178.61162882373648,114.73150968945406L177.96245295166565,114.66287140813274L178.19238502746188,114.90397303158684zM175.74943427364607,104.36600798454245L177.46003937574721,114.04024974061507L175.96374096509095,104.300263756478zM177.86187300688746,114.55741142065314L176.07568679017584,103.8348110522732L177.6982744517949,114.38586569354158zM175.44047916477453,104.02719675323492L177.14469342310284,113.45989345379027L175.74943427364607,104.36600798454245zM177.6982744517949,114.38586569354158L175.96374096509095,104.300263756478L177.46003937574721,114.04024974061507zM177.46003937574721,114.04024974061507L175.74943427364607,104.36600798454245L177.14469342310284,113.45989345379027zM175.04835131533616,103.29477167655972L176.7818631275378,112.78275232670853L175.44047916477453,104.02719675323492zM177.6982744517949,114.38586569354158L177.46003937574721,114.04024974061507L177.58103586706125,114.26295139272153zM177.14469342310284,113.45989345379027L175.44047916477453,104.02719675323492L176.7818631275378,112.78275232670853zM174.58796403063616,102.19537664851707L176.339058217453,111.7330173405214L175.04835131533616,103.29477167655972zM176.7818631275378,112.78275232670853L175.04835131533616,103.29477167655972L176.339058217453,111.7330173405214zM177.14469342310284,113.45989345379027L176.7818631275378,112.78275232670853L176.79954026762746,112.82464219895972zM176.339058217453,111.7330173405214L174.58796403063616,102.19537664851707L175.8772013219747,110.638122274079z" style="fill:rgb(247,158,158)"/><path d="M162.9340884167486,77.18619100386748L55.046470530376304,137.2773641067575L175.8772013219747,110.638122274079zM55.046470530376304,137.2773641067575L162.9340884167486,77.18619100386748L38.27316258416905,105.74503905513376z" style="fill:rgb(127,37,217)"/><path d="M174.58796403063616,102.19537664851707L162.9340884167486,77.18619100386748L175.8772013219747,110.638122274079z" style="fill:rgb(247,158,158)"/><path d="M162.9340884167486,77.18619100386748L37.991143485239675,97.29429634286686L38.27316258416905,105.74503905513376z" style="fill:rgb(83,212,212)"/><path d="M162.9340884167486,77.18619100386748L174.58796403063616,102.19537664851707L161.69713459730468,68.69632222481955z" style="fill:rgb(247,158,158)"/><path d="M37.991143485239675,97.29429634286686L162.9340884167486,77.18619100386748L161.69713459730468,68.69632222481955z" style="fill:rgb(83,212,212)"/></svg>
