<?xml version="1.0" encoding="UTF-8"?>
<!-- Generated by jsxcad -->
<!DOCTYPE svg PUBLIC "-//W3C//DTD SVG 1.1 Tiny//EN" "http://www.w3.org/Graphics/SVG/1.1/DTD/svg11-tiny.dtd">
<svg viewBox="-250 -250 500 500" width="500" height="500" xmlns="http://www.w3.org/2000/svg"><path d="M-100.38632615587582,-61.028199749451566L-30.653520028021234,-103.57529297386925L-97.99522269251123,-84.37293900001416z" style="fill:rgb(83,212,212)"/><path d="M-31.414544972370283,-80.29925007113336L-28.3864786802445,-98.99445074823362L-30.653520028021234,-103.57529297386925z" style="fill:rgb(247,158,158)"/><path d="M-30.653520028021234,-103.57529297386925L-100.38632615587582,-61.028199749451566L-31.414544972370283,-80.29925007113336z" style="fill:rgb(83,212,212)"/><path d="M-97.82201157686268,-56.58583572174407L-31.414544972370283,-80.29925007113336L-100.38632615587582,-61.028199749451566z" style="fill:rgb(127,37,217)"/><path d="M-28.3864786802445,-98.99445074823362L-31.414544972370283,-80.29925007113336L-29.088331604946216,-75.7005616313513z" style="fill:rgb(247,158,158)"/><path d="M-31.414544972370283,-80.29925007113336L-97.82201157686268,-56.58583572174407L-29.088331604946216,-75.7005616313513z" style="fill:rgb(127,37,217)"/><path d="M-31.720150618338444,-70.95226646212036L-100.38632615587582,-61.028199749451566L-101.34596402607303,-51.65909872819928z" style="fill:rgb(83,212,212)"/><path d="M-98.75333240552627,-47.21254961152911L-31.720150618338444,-70.95226646212036L-101.34596402607303,-51.65909872819928z" style="fill:rgb(127,37,217)"/><path d="M-100.38632615587582,-61.028199749451566L-31.720150618338444,-70.95226646212036L-31.414544972370283,-80.29925007113336z" style="fill:rgb(83,212,212)"/><path d="M-31.720150618338444,-70.95226646212036L-98.75333240552627,-47.21254961152911L-29.370136249603206,-66.34771338101497z" style="fill:rgb(127,37,217)"/><path d="M-31.720150618338444,-70.95226646212036L-29.088331604946216,-75.7005616313513L-31.414544972370283,-80.29925007113336zM-29.088331604946216,-75.7005616313513L-31.720150618338444,-70.95226646212036L-29.370136249603206,-66.34771338101497z" style="fill:rgb(247,158,158)"/><path d="M-51.28806017243554,-37.94719592467065L-49.85759406682579,-65.92642107023694L-101.34596402607303,-51.65909872819928zM28.923308534146898,-120.56349825966429L103.2871318066775,-117.93555256979687L100.70313106605046,-141.03136611269977zM103.2871318066775,-117.93555256979687L28.923308534146898,-120.56349825966429L29.65229970549661,-97.3616258325564zM-49.31997239055038,-66.07539523990798L-49.09553386652963,-41.12172300083372L-47.8504216304288,-66.48260375308563zM-49.31997239055038,-66.07539523990798L-49.85759406682579,-65.92642107023694L-50.65870150715416,-39.609115574547246zM-47.8504216304288,-66.48260375308563L-47.01568081676497,-42.083471569154916L-45.84122799043844,-67.03934536304223z" style="fill:rgb(83,212,212)"/><path d="M103.2871318066775,-117.93555256979687L102.50143385013307,-136.14659484057717L100.70313106605046,-141.03136611269977z" style="fill:rgb(247,158,158)"/><path d="M-45.84122799043844,-67.03934536304223L-44.97168849724419,-42.23862147614179L-43.83001422759012,-67.59665087208106zM-44.97168849724419,-42.23862147614179L-42.35642319794726,-68.00497893410888L-43.83001422759012,-67.59665087208106zM-43.50819286174156,-41.543807916956844L-41.81678142484657,-68.1545128688795L-42.35642319794726,-68.00497893410888z" style="fill:rgb(83,212,212)"/><path d="M31.75962542768272,-92.6222826910477L103.2871318066775,-117.93555256979687L29.65229970549661,-97.3616258325564z" style="fill:rgb(127,37,217)"/><path d="M102.50143385013307,-136.14659484057717L103.2871318066775,-117.93555256979687L105.12043645761727,-113.02380129098731z" style="fill:rgb(247,158,158)"/><path d="M-47.01568081676497,-42.083471569154916L-47.8504216304288,-66.48260375308563L-49.09553386652963,-41.12172300083372zM-49.09553386652963,-41.12172300083372L-49.31997239055038,-66.07539523990798L-50.65870150715416,-39.609115574547246zM-44.97168849724419,-42.23862147614179L-45.84122799043844,-67.03934536304223L-47.01568081676497,-42.083471569154916z" style="fill:rgb(83,212,212)"/><path d="M103.2871318066775,-117.93555256979687L31.75962542768272,-92.6222826910477L105.12043645761727,-113.02380129098731z" style="fill:rgb(127,37,217)"/><path d="M-42.35642319794726,-68.00497893410888L-44.97168849724419,-42.23862147614179L-43.50819286174156,-41.543807916956844zM-41.81678142484657,-68.1545128688795L-43.50819286174156,-41.543807916956844L-43.0190316456548,-40.18143692937278zM104.3259736969324,-108.65037181220589L29.65229970549661,-97.3616258325564L29.94519261964348,-88.03961114302527z" style="fill:rgb(83,212,212)"/><path d="M-47.01568081676497,-42.083471569154916L-46.6207862380184,-36.54292316909223L-44.54945973215925,-37.50009533332737z" style="fill:rgb(158,48,222)"/><path d="M-46.6207862380184,-36.54292316909223L-50.65870150715416,-39.609115574547246L-48.17555218209503,-35.03340542132472z" style="fill:rgb(212,85,213)"/><path d="M-44.97168849724419,-42.23862147614179L-44.54945973215925,-37.50009533332737L-42.51186148255659,-37.65038952463367z" style="fill:rgb(96,32,206)"/><path d="M32.072015325886646,-83.292825244138L104.3259736969324,-108.65037181220589L29.94519261964348,-88.03961114302527z" style="fill:rgb(127,37,217)"/><path d="M-46.6207862380184,-36.54292316909223L-47.01568081676497,-42.083471569154916L-49.09553386652963,-41.12172300083372z" style="fill:rgb(158,48,222)"/><path d="M-41.05093576536352,-36.951741505752395L-44.97168849724419,-42.23862147614179L-42.51186148255659,-37.65038952463367z" style="fill:rgb(42,41,169)"/><path d="M-48.17555218209503,-35.03340542132472L-51.28806017243554,-37.94719592467065L-48.798851887942035,-33.37228133472208z" style="fill:rgb(243,133,180)"/><path d="M-50.65870150715416,-39.609115574547246L-46.6207862380184,-36.54292316909223L-49.09553386652963,-41.12172300083372z" style="fill:rgb(212,85,213)"/><path d="M-44.54945973215925,-37.50009533332737L-44.97168849724419,-42.23862147614179L-47.01568081676497,-42.083471569154916z" style="fill:rgb(96,32,206)"/><path d="M29.65229970549661,-97.3616258325564L104.3259736969324,-108.65037181220589L103.2871318066775,-117.93555256979687z" style="fill:rgb(83,212,212)"/><path d="M-51.28806017243554,-37.94719592467065L-48.17555218209503,-35.03340542132472L-50.65870150715416,-39.609115574547246z" style="fill:rgb(243,133,180)"/><path d="M-51.28806017243554,-37.94719592467065L-48.32066935543445,-32.00282548775302L-48.798851887942035,-33.37228133472208z" style="fill:rgb(243,180,133)"/><path d="M-44.97168849724419,-42.23862147614179L-41.05093576536352,-36.951741505752395L-43.50819286174156,-41.543807916956844z" style="fill:rgb(42,41,169)"/><path d="M-48.32066935543445,-32.00282548775302L-51.28806017243554,-37.94719592467065L-50.811949108237634,-36.57945996199675z" style="fill:rgb(243,180,133)"/><path d="M103.2871318066775,-117.93555256979687L106.17319365265055,-103.72915834509456L105.12043645761727,-113.02380129098731z" style="fill:rgb(247,158,158)"/><path d="M104.3259736969324,-108.65037181220589L32.072015325886646,-83.292825244138L106.17319365265055,-103.72915834509456z" style="fill:rgb(127,37,217)"/><path d="M106.17319365265055,-103.72915834509456L103.2871318066775,-117.93555256979687L104.3259736969324,-108.65037181220589z" style="fill:rgb(247,158,158)"/><path d="M40.96957435242606,-91.0944428964367L45.68053087404505,-20.60697225957435L42.50627722822525,-91.5202629952401zM40.40739225409534,-90.93866697000493L44.07989673649515,-18.97078804349902L40.96957435242606,-91.0944428964367zM42.50627722822525,-91.5202629952401L47.91958156565526,-21.63465218362154L44.60732353180578,-92.10245707388641zM47.91958156565526,-21.63465218362154L46.710525700073894,-92.68524938289569L44.60732353180578,-92.10245707388641zM46.710525700073894,-92.68524938289569L51.92173045946337,-21.0038253323119L48.251553319717054,-93.11226669316935zM48.251553319717054,-93.11226669316935L52.61471203875994,-19.507820344170476L48.8158956813631,-93.26864121709484zM-41.81678142484657,-68.1545128688795L-47.631870066688876,67.14669789497613L40.40739225409534,-90.93866697000493zM-56.77499426880766,69.37456529692444L-50.811949108237634,-36.57945996199675L-49.85759406682579,-65.92642107023694zM-101.34596402607303,-51.65909872819928L-58.43557424417216,101.85469681739438L-51.28806017243554,-37.94719592467065zM-50.811949108237634,-36.57945996199675L-54.33572924334456,65.61240603325163L-49.35315859313133,-35.87432836646zM-49.35315859313133,-35.87432836646L-52.034503175093846,64.56116247624068L-47.30082156036141,-36.024538208518706zM-52.034503175093846,64.56116247624068L-45.207918417525526,-36.991656188477336L-47.30082156036141,-36.024538208518706zM-49.77720741341619,64.49803115592296L-43.640045526723654,-38.51457731049632L-45.207918417525526,-36.991656188477336zM-43.640045526723654,-38.51457731049632L-47.631870066688876,67.14669789497613L-43.0190316456548,-40.18143692937278zM47.91958156565526,-21.63465218362154L42.50627722822525,-91.5202629952401L45.68053087404505,-20.60697225957435zM45.68053087404505,-20.60697225957435L40.96957435242606,-91.0944428964367L44.07989673649515,-18.97078804349902zM46.710525700073894,-92.68524938289569L47.91958156565526,-21.63465218362154L50.20259579013599,-21.780694299980233zM44.07989673649515,-18.97078804349902L40.40739225409534,-90.93866697000493L43.54490759028089,-17.160130000462896z" style="fill:rgb(83,212,212)"/><path d="M-47.631870066688876,67.14669789497613L-41.81678142484657,-68.1545128688795L-45.208087002655155,10.751893462790955z" style="fill:rgb(255,127,127)"/><path d="M51.92173045946337,-21.0038253323119L46.710525700073894,-92.68524938289569L50.20259579013599,-21.780694299980233zM52.61471203875994,-19.507820344170476L48.251553319717054,-93.11226669316935L51.92173045946337,-21.0038253323119zM40.40739225409534,-90.93866697000493L-47.631870066688876,67.14669789497613L43.54490759028089,-17.160130000462896zM48.8158956813631,-93.26864121709484L123.09222886185209,59.08255601550664L104.3259736969324,-108.65037181220589z" style="fill:rgb(83,212,212)"/><path d="M47.91958156565526,-21.63465218362154L47.90121279285625,-15.797038659362217L50.130386739925946,-16.819492178430195z" style="fill:rgb(158,48,222)"/><path d="M47.90121279285625,-15.797038659362217L44.07989673649515,-18.97078804349902L46.30955292253386,-14.164542839935505z" style="fill:rgb(212,85,213)"/><path d="M50.20259579013599,-21.780694299980233L50.130386739925946,-16.819492178430195L52.40522424606915,-16.960146233727563z" style="fill:rgb(96,32,206)"/><path d="M104.3259736969324,-108.65037181220589L125.17538794021574,64.03842540445142L106.17319365265055,-103.72915834509456z" style="fill:rgb(247,158,158)"/><path d="M47.90121279285625,-15.797038659362217L47.91958156565526,-21.63465218362154L45.68053087404505,-20.60697225957435z" style="fill:rgb(158,48,222)"/><path d="M54.12003429924894,-16.179177906456136L50.20259579013599,-21.780694299980233L52.40522424606915,-16.960146233727563z" style="fill:rgb(42,41,169)"/><path d="M46.30955292253386,-14.164542839935505L43.54490759028089,-17.160130000462896L45.78025335450581,-12.355072383739849z" style="fill:rgb(243,133,180)"/><path d="M44.07989673649515,-18.97078804349902L47.90121279285625,-15.797038659362217L45.68053087404505,-20.60697225957435z" style="fill:rgb(212,85,213)"/><path d="M50.130386739925946,-16.819492178430195L50.20259579013599,-21.780694299980233L47.91958156565526,-21.63465218362154z" style="fill:rgb(96,32,206)"/><path d="M43.54490759028089,-17.160130000462896L46.30955292253386,-14.164542839935505L44.07989673649515,-18.97078804349902z" style="fill:rgb(243,133,180)"/><path d="M43.54490759028089,-17.160130000462896L46.45896058097184,-10.851305714703653L45.78025335450581,-12.355072383739849z" style="fill:rgb(243,180,133)"/><path d="M54.813736484554134,-14.681476892349737L51.92173045946337,-21.0038253323119L54.12003429924894,-16.179177906456136z" style="fill:rgb(11,74,121)"/><path d="M50.20259579013599,-21.780694299980233L54.12003429924894,-16.179177906456136L51.92173045946337,-21.0038253323119z" style="fill:rgb(42,41,169)"/><path d="M-54.33572924334456,65.61240603325163L-50.811949108237634,-36.57945996199675L-56.07008849120243,67.37240855981011zM-52.034503175093846,64.56116247624068L-49.35315859313133,-35.87432836646L-54.33572924334456,65.61240603325163z" style="fill:rgb(83,212,212)"/><path d="M46.45896058097184,-10.851305714703653L43.54490759028089,-17.160130000462896L44.22276046101985,-15.657995079662694z" style="fill:rgb(243,180,133)"/><path d="M-50.811949108237634,-36.57945996199675L-56.77499426880766,69.37456529692444L-56.07008849120243,67.37240855981011z" style="fill:rgb(83,212,212)"/><path d="M51.92173045946337,-21.0038253323119L54.813736484554134,-14.681476892349737L52.61471203875994,-19.507820344170476z" style="fill:rgb(11,74,121)"/><path d="M-45.207918417525526,-36.991656188477336L-52.034503175093846,64.56116247624068L-49.77720741341619,64.49803115592296zM-43.640045526723654,-38.51457731049632L-49.77720741341619,64.49803115592296L-48.16496578837618,65.44257023940425zM-47.631870066688876,67.14669789497613L-43.640045526723654,-38.51457731049632L-48.16496578837618,65.44257023940425zM-58.43557424417216,101.85469681739438L-101.34596402607303,-51.65909872819928L-118.51979928934468,116.01192773390609zM52.61471203875994,-19.507820344170476L123.09222886185209,59.08255601550664L48.8158956813631,-93.26864121709484z" style="fill:rgb(83,212,212)"/><path d="M-52.034503175093846,64.56116247624068L-51.573559538209636,70.17827743641038L-49.282766576665466,69.13251384360214z" style="fill:rgb(158,48,222)"/><path d="M-51.573559538209636,70.17827743641038L-56.07008849120243,67.37240855981011L-53.297592354079065,71.93369322879767z" style="fill:rgb(212,85,213)"/><path d="M-49.77720741341619,64.49803115592296L-49.282766576665466,69.13251384360214L-47.033254642731336,69.07431146473503z" style="fill:rgb(96,32,206)"/><path d="M-51.573559538209636,70.17827743641038L-52.034503175093846,64.56116247624068L-54.33572924334456,65.61240603325163z" style="fill:rgb(158,48,222)"/><path d="M-45.42408994985241,70.02190236141018L-49.77720741341619,64.49803115592296L-47.033254642731336,69.07431146473503z" style="fill:rgb(42,41,169)"/><path d="M-53.297592354079065,71.93369322879767L-56.77499426880766,69.37456529692444L-53.99500245733451,73.93335471482523z" style="fill:rgb(243,133,180)"/><path d="M-56.07008849120243,67.37240855981011L-51.573559538209636,70.17827743641038L-54.33572924334456,65.61240603325163z" style="fill:rgb(212,85,213)"/><path d="M-49.282766576665466,69.13251384360214L-49.77720741341619,64.49803115592296L-52.034503175093846,64.56116247624068z" style="fill:rgb(96,32,206)"/><path d="M-56.77499426880766,69.37456529692444L-53.297592354079065,71.93369322879767L-56.07008849120243,67.37240855981011z" style="fill:rgb(243,133,180)"/><path d="M-56.77499426880766,69.37456529692444L-53.475264404054265,75.64414122587084L-53.99500245733451,73.93335471482523z" style="fill:rgb(243,180,133)"/><path d="M43.54490759028089,-17.160130000462896L48.20686212496686,76.7272775332802L44.22276046101985,-15.657995079662694z" style="fill:rgb(83,212,212)"/><path d="M-49.77720741341619,64.49803115592296L-45.42408994985241,70.02190236141018L-48.16496578837618,65.44257023940425z" style="fill:rgb(42,41,169)"/><path d="M44.22276046101985,-15.657995079662694L50.01834610732602,76.30045184874758L45.937372280797916,-14.869097750651619z" style="fill:rgb(83,212,212)"/><path d="M-53.475264404054265,75.64414122587084L-56.77499426880766,69.37456529692444L-56.2578851384929,71.08509287044625z" style="fill:rgb(243,180,133)"/><path d="M50.01834610732602,76.30045184874758L48.231001518261756,-15.009239089438001L45.937372280797916,-14.869097750651619zM52.09033335286291,-17.691263881099392L57.45872269308238,74.54732685895726L52.61471203875994,-19.507820344170476zM54.97559427892723,75.13240735806328L52.09033335286291,-17.691263881099392L50.48517649707032,-16.043048983100455zM48.231001518261756,-15.009239089438001L54.97559427892723,75.13240735806328L50.48517649707032,-16.043048983100455zM43.54490759028089,-17.160130000462896L-47.631870066688876,67.14669789497613L47.54421546812579,76.88341343628477zM-56.77499426880766,69.37456529692444L-57.806793068748426,101.70654567191718L-56.2578851384929,71.08509287044625zM-56.2578851384929,71.08509287044625L-56.0879148755981,101.30153476155725L-54.651460718443786,72.04333495480755zM-48.326606303780935,69.1561623606168L-49.02831396689127,99.63813457453149L-47.631870066688876,67.14669789497613zM-54.651460718443786,72.04333495480755L-53.73748504037114,100.74772106054051L-52.38399546889463,71.98750679739285zM-53.73748504037114,100.74772106054051L-50.06678264431056,70.92986325771844L-52.38399546889463,71.98750679739285zM-50.06678264431056,70.92986325771844L-49.65986567290296,99.78693851150375L-48.326606303780935,69.1561623606168zM-57.806793068748426,101.70654567191718L-56.77499426880766,69.37456529692444L-58.43557424417216,101.85469681739438z" style="fill:rgb(83,212,212)"/><path d="M125.17538794021574,64.03842540445142L104.3259736969324,-108.65037181220589L123.09222886185209,59.08255601550664z" style="fill:rgb(247,158,158)"/><path d="M-56.0879148755981,101.30153476155725L-56.2578851384929,71.08509287044625L-57.806793068748426,101.70654567191718zM-53.73748504037114,100.74772106054051L-54.651460718443786,72.04333495480755L-56.0879148755981,101.30153476155725zM-50.06678264431056,70.92986325771844L-53.73748504037114,100.74772106054051L-51.384284919611815,100.19325502744744zM-49.02831396689127,99.63813457453149L-48.326606303780935,69.1561623606168L-49.65986567290296,99.78693851150375zM-49.65986567290296,99.78693851150375L-50.06678264431056,70.92986325771844L-51.384284919611815,100.19325502744744zM48.20686212496686,76.7272775332802L43.54490759028089,-17.160130000462896L47.54421546812579,76.88341343628477zM50.01834610732602,76.30045184874758L44.22276046101985,-15.657995079662694L48.20686212496686,76.7272775332802zM-37.63609887000465,109.98768693734634L-118.51979928934468,116.01192773390609L-119.8597550965335,129.09414523590044zM48.231001518261756,-15.009239089438001L50.01834610732602,76.30045184874758L52.49547387719827,75.71678027251284zM54.97559427892723,75.13240735806328L48.231001518261756,-15.009239089438001L52.49547387719827,75.71678027251284zM52.09033335286291,-17.691263881099392L54.97559427892723,75.13240735806328L56.793078472102344,74.70416905944809zM57.45872269308238,74.54732685895726L52.09033335286291,-17.691263881099392L56.793078472102344,74.70416905944809zM47.54421546812579,76.88341343628477L-47.631870066688876,67.14669789497613L-49.02831396689127,99.63813457453149z" style="fill:rgb(83,212,212)"/><path d="M-116.70678537077984,133.48020702586984L-37.63609887000465,109.98768693734634L-119.8597550965335,129.09414523590044z" style="fill:rgb(127,37,217)"/><path d="M-118.51979928934468,116.01192773390609L-37.63609887000465,109.98768693734634L-37.20664113889132,96.8526731493534z" style="fill:rgb(83,212,212)"/><path d="M-115.4082796615378,120.41137528992333L123.09222886185209,59.08255601550664L-118.51979928934468,116.01192773390609z" style="fill:rgb(127,37,217)"/><path d="M123.09222886185209,59.08255601550664L52.61471203875994,-19.507820344170476L57.45872269308238,74.54732685895726z" style="fill:rgb(83,212,212)"/><path d="M-37.20664113889132,96.8526731493534L-34.82091685900694,114.55889994922826L-34.42551021645899,101.43570132548878z" style="fill:rgb(247,158,158)"/><path d="M-37.63609887000465,109.98768693734634L-116.70678537077984,133.48020702586984L-34.82091685900694,114.55889994922826z" style="fill:rgb(127,37,217)"/><path d="M-34.82091685900694,114.55889994922826L-37.20664113889132,96.8526731493534L-37.63609887000465,109.98768693734634z" style="fill:rgb(247,158,158)"/><path d="M-123.45647052304048,164.20948469399968L-37.63609887000465,109.98768693734634L-119.8597550965335,129.09414523590044z" style="fill:rgb(83,212,212)"/><path d="M123.09222886185209,59.08255601550664L-115.4082796615378,120.41137528992333L125.17538794021574,64.03842540445142z" style="fill:rgb(127,37,217)"/><path d="M-38.78984579682874,145.2751584255791L-34.82091685900694,114.55889994922826L-37.63609887000465,109.98768693734634z" style="fill:rgb(247,158,158)"/><path d="M-37.63609887000465,109.98768693734634L-123.45647052304048,164.20948469399968L-38.78984579682874,145.2751584255791z" style="fill:rgb(83,212,212)"/><path d="M-120.1915502898455,168.5526623356312L-38.78984579682874,145.2751584255791L-123.45647052304048,164.20948469399968z" style="fill:rgb(127,37,217)"/><path d="M-34.82091685900694,114.55889994922826L-38.78984579682874,145.2751584255791L-35.88296559959529,149.8073532795076z" style="fill:rgb(247,158,158)"/><path d="M-38.78984579682874,145.2751584255791L-120.1915502898455,168.5526623356312L-35.88296559959529,149.8073532795076z" style="fill:rgb(127,37,217)"/><path d="M124.57050934354938,72.29543281102679L35.21824038346362,79.78769480634926L35.632176554506856,92.96219948234308z" style="fill:rgb(83,212,212)"/><path d="M38.1324783853455,97.70160686416028L124.57050934354938,72.29543281102679L35.632176554506856,92.96219948234308z" style="fill:rgb(127,37,217)"/><path d="M35.21824038346362,79.78769480634926L124.57050934354938,72.29543281102679L123.09222886185209,59.08255601550664z" style="fill:rgb(83,212,212)"/><path d="M123.09222886185209,59.08255601550664L126.67101235805437,77.24306873836579L125.17538794021574,64.03842540445142z" style="fill:rgb(247,158,158)"/><path d="M124.57050934354938,72.29543281102679L38.1324783853455,97.70160686416028L126.67101235805437,77.24306873836579z" style="fill:rgb(127,37,217)"/><path d="M126.67101235805437,77.24306873836579L123.09222886185209,59.08255601550664L124.57050934354938,72.29543281102679z" style="fill:rgb(247,158,158)"/><path d="M35.632176554506856,92.96219948234308L128.54870670772237,107.85259546513203L124.57050934354938,72.29543281102679zM128.54870670772237,107.85259546513203L35.632176554506856,92.96219948234308L36.74507958085568,128.38299964833178z" style="fill:rgb(83,212,212)"/><path d="M128.54870670772237,107.85259546513203L126.67101235805437,77.24306873836579L124.57050934354938,72.29543281102679z" style="fill:rgb(247,158,158)"/><path d="M39.31733802060313,133.0871965334136L128.54870670772237,107.85259546513203L36.74507958085568,128.38299964833178z" style="fill:rgb(127,37,217)"/><path d="M126.67101235805437,77.24306873836579L128.54870670772237,107.85259546513203L130.6949854685875,112.7701311829384z" style="fill:rgb(247,158,158)"/><path d="M128.54870670772237,107.85259546513203L39.31733802060313,133.0871965334136L130.6949854685875,112.7701311829384z" style="fill:rgb(127,37,217)"/></svg>
