<?xml version="1.0" encoding="UTF-8"?>
<!-- Generated by jsxcad -->
<!DOCTYPE svg PUBLIC "-//W3C//DTD SVG 1.1 Tiny//EN" "http://www.w3.org/Graphics/SVG/1.1/DTD/svg11-tiny.dtd">
<svg viewBox="-250 -250 500 500" width="500" height="500" xmlns="http://www.w3.org/2000/svg"><path d="M-98.4142124902856,-42.221839132935216L-20.991940777330637,-69.50778091561125L-97.81492087457949,-48.30459180613161zM-20.10998628063847,-58.900634584385244L-96.78672130309234,-44.728072616795565L-97.46363772690128,-37.75943253703859zM-22.37801818224277,-68.00180457270815L-99.12886287413869,-52.06463464530398L-99.66739418356701,-46.691462987585474zM-19.375577276326833,-54.551620071769705L-96.03086104905283,-41.99125263259763L-96.8503771691013,-33.46483762101853zM-23.82997558115004,-72.42701309679593L-100.67375278085791,-55.94566987483262L-101.17836998113543,-51.00761134618704z" style="fill:rgb(83,212,212)"/><path d="M-21.123071867328452,-63.438402132665104L-99.66739418356701,-46.691462987585474L-98.4142124902856,-42.221839132935216z" style="fill:rgb(99,111,250)"/><path d="M-20.10998628063847,-58.900634584385244L-98.4142124902856,-42.221839132935216L-97.46363772690128,-37.75943253703859z" style="fill:rgb(93,135,250)"/><path d="M-18.947514261823372,-50.5491050223108L-95.5982694425421,-39.96326039081021L-96.59796601246765,-29.49392766940383z" style="fill:rgb(83,212,212)"/><path d="M-99.66739418356701,-46.691462987585474L-23.82997558115004,-72.42701309679593L-101.17836998113543,-51.00761134618704z" style="fill:rgb(106,87,246)"/><path d="M-19.375577276326833,-54.551620071769705L-97.46363772690128,-37.75943253703859L-96.8503771691013,-33.46483762101853z" style="fill:rgb(89,159,244)"/><path d="M-25.42729878454462,-76.55410405850539L-102.39902379654475,-59.75307842974479L-102.89351091181595,-55.014047623106805zM-96.78672130309234,-44.728072616795565L-20.10998628063847,-58.900634584385244L-19.96759944017059,-65.8551217742769z" style="fill:rgb(83,212,212)"/><path d="M-96.59796601246765,-29.49392766940383L-19.375577276326833,-54.551620071769705L-96.8503771691013,-33.46483762101853z" style="fill:rgb(85,182,234)"/><path d="M-101.17836998113543,-51.00761134618704L-25.42729878454462,-76.55410405850539L-102.89351091181595,-55.014047623106805z" style="fill:rgb(114,65,238)"/><path d="M-96.03086104905283,-41.99125263259763L-19.375577276326833,-54.551620071769705L-19.208439427381435,-63.06194474952643zM-99.12886287413869,-52.06463464530398L-22.37801818224277,-68.00180457270815L-22.25474819596147,-73.3622280968134zM-95.5982694425421,-39.96326039081021L-18.947514261823372,-50.5491050223108L-18.747611234002342,-60.999937013933426zM-20.991940777330637,-69.50778091561125L-98.4142124902856,-42.221839132935216L-21.123071867328452,-63.438402132665104zM-27.11293026208896,-80.23174324986633L-104.24697173985663,-63.2980300844757L-104.75171659842682,-58.56361464107396zM-100.67375278085791,-55.94566987483262L-23.82997558115004,-72.42701309679593L-23.708807908109687,-77.35248041820596z" style="fill:rgb(83,212,212)"/><path d="M-96.71790602991665,-25.993230723386255L-18.947514261823372,-50.5491050223108L-96.59796601246765,-29.49392766940383z" style="fill:rgb(84,202,220)"/><path d="M-102.89351091181595,-55.014047623106805L-27.11293026208896,-80.23174324986633L-104.75171659842682,-58.56361464107396z" style="fill:rgb(123,46,225)"/><path d="M-93.84972683772504,-21.15444008980377L-18.843357285854054,-47.04079395702949L-96.71790602991665,-25.993230723386255z" style="fill:rgb(127,37,217)"/><path d="M-102.39902379654475,-59.75307842974479L-25.42729878454462,-76.55410405850539L-25.302711251138177,-81.28022441671683z" style="fill:rgb(83,212,212)"/><path d="M-98.4142124902856,-42.221839132935216L-20.10998628063847,-58.900634584385244L-21.123071867328452,-63.438402132665104z" style="fill:rgb(93,135,250)"/><path d="M-99.66739418356701,-46.691462987585474L-21.123071867328452,-63.438402132665104L-22.37801818224277,-68.00180457270815z" style="fill:rgb(99,111,250)"/><path d="M-23.82997558115004,-72.42701309679593L-99.66739418356701,-46.691462987585474L-22.37801818224277,-68.00180457270815z" style="fill:rgb(106,87,246)"/><path d="M-97.46363772690128,-37.75943253703859L-19.375577276326833,-54.551620071769705L-20.10998628063847,-58.900634584385244z" style="fill:rgb(89,159,244)"/><path d="M-25.42729878454462,-76.55410405850539L-101.17836998113543,-51.00761134618704L-23.82997558115004,-72.42701309679593z" style="fill:rgb(114,65,238)"/><path d="M-20.86595688747403,-69.12324715506169L-21.123071867328452,-63.438402132665104L-19.96759944017059,-65.8551217742769zM-19.246009342945815,-63.23005361936468L-20.10998628063847,-58.900634584385244L-19.208439427381435,-63.06194474952643zM-20.10998628063847,-58.900634584385244L-19.246009342945815,-63.23005361936468L-19.96759944017059,-65.8551217742769zM-21.123071867328452,-63.438402132665104L-20.86595688747403,-69.12324715506169L-20.991940777330637,-69.50778091561125zM-22.37801818224277,-68.00180457270815L-20.991940777330637,-69.50778091561125L-22.25474819596147,-73.3622280968134zM-19.375577276326833,-54.551620071769705L-18.747611234002342,-60.999937013933426L-19.208439427381435,-63.06194474952643z" style="fill:rgb(247,158,158)"/><path d="M-104.24697173985663,-63.2980300844757L-27.11293026208896,-80.23174324986633L-26.979726596728412,-84.95250364565068z" style="fill:rgb(83,212,212)"/><path d="M-19.375577276326833,-54.551620071769705L-96.59796601246765,-29.49392766940383L-18.947514261823372,-50.5491050223108z" style="fill:rgb(85,182,234)"/><path d="M-22.7394326276949,-74.84162248569176L-23.82997558115004,-72.42701309679593L-22.25474819596147,-73.3622280968134zM-18.947514261823372,-50.5491050223108L-17.936209807513897,-57.36927385900019L-18.747611234002342,-60.999937013933426z" style="fill:rgb(247,158,158)"/><path d="M-18.843357285854054,-47.04079395702949L-93.84972683772504,-21.15444008980377L-16.27879437758728,-42.00976687097002z" style="fill:rgb(127,37,217)"/><path d="M-23.82997558115004,-72.42701309679593L-22.7394326276949,-74.84162248569176L-23.708807908109687,-77.35248041820596z" style="fill:rgb(247,158,158)"/><path d="M-27.11293026208896,-80.23174324986633L-102.89351091181595,-55.014047623106805L-25.42729878454462,-76.55410405850539z" style="fill:rgb(123,46,225)"/><path d="M-19.96759944017059,-65.8551217742769L-21.123071867328452,-63.438402132665104L-20.10998628063847,-58.900634584385244zM-17.936209807513897,-57.36927385900019L-18.947514261823372,-50.5491050223108L-16.983350088560623,-51.747314741106884zM-20.991940777330637,-69.50778091561125L-22.37801818224277,-68.00180457270815L-21.123071867328452,-63.438402132665104zM-19.208439427381435,-63.06194474952643L-20.10998628063847,-58.900634584385244L-19.375577276326833,-54.551620071769705zM-22.25474819596147,-73.3622280968134L-23.82997558115004,-72.42701309679593L-22.37801818224277,-68.00180457270815zM-24.801355657507045,-80.18238299961199L-25.42729878454462,-76.55410405850539L-23.708807908109687,-77.35248041820596zM-16.983350088560623,-51.747314741106884L-18.947514261823372,-50.5491050223108L-16.423099003350263,-46.56452689683748z" style="fill:rgb(247,158,158)"/><path d="M-18.947514261823372,-50.5491050223108L-96.71790602991665,-25.993230723386255L-18.843357285854054,-47.04079395702949z" style="fill:rgb(84,202,220)"/><path d="M-25.42729878454462,-76.55410405850539L-24.801355657507045,-80.18238299961199L-25.302711251138177,-81.28022441671683zM-18.747611234002342,-60.999937013933426L-19.375577276326833,-54.551620071769705L-18.947514261823372,-50.5491050223108zM-23.708807908109687,-77.35248041820596L-25.42729878454462,-76.55410405850539L-23.82997558115004,-72.42701309679593zM-27.11293026208896,-80.23174324986633L-25.302711251138177,-81.28022441671683L-26.979726596728412,-84.95250364565068zM-25.302711251138177,-81.28022441671683L-27.11293026208896,-80.23174324986633L-25.42729878454462,-76.55410405850539zM-16.423099003350263,-46.56452689683748L-18.843357285854054,-47.04079395702949L-16.27879437758728,-42.00976687097002zM-16.423099003350263,-46.56452689683748L-18.947514261823372,-50.5491050223108L-18.843357285854054,-47.04079395702949z" style="fill:rgb(247,158,158)"/><path d="M-38.558142011808236,-41.71237484430372L-37.98856955063546,-13.04303557782149L-36.91277026413343,-42.15707684747145zM-36.91277026413343,-42.15707684747145L-35.65764393611098,-14.116737535221928L-34.662965407759216,-42.765141958270654zM-40.41877796844239,-9.420526816677162L-38.558142011808236,-41.71237484430372L-39.160053192727275,-41.549693349697854zM-34.662965407759216,-42.765141958270654L-33.35631333569557,-14.26171203204707L-32.4106343760007,-43.37389444127956zM-33.35631333569557,-14.26171203204707L-30.760207936909815,-43.8199619772814L-32.4106343760007,-43.37389444127956zM-31.69733528396519,-13.436742320096267L-30.155770872086,-43.98332661802117L-30.760207936909815,-43.8199619772814z" style="fill:rgb(83,212,212)"/><path d="M-54.506202015455514,-134.79580997158928L-104.75171659842682,-58.56361464107396L-27.11293026208896,-80.23174324986633z" style="fill:rgb(127,37,217)"/><path d="M-26.979726596728412,-84.95250364565068L-54.506202015455514,-134.79580997158928L-27.11293026208896,-80.23174324986633z" style="fill:rgb(247,158,158)"/><path d="M50.081635346559885,-69.26658473071664L132.20420347306361,-102.3206692667688L49.54429782905469,-79.69379070812221zM130.74933975820116,-105.12765711016262L47.2758693199978,-88.34974402157773L47.57622924495051,-82.29648651371441zM44.92380989216093,-91.46638394521861L127.49123592846104,-119.4068247632489L44.691503006520385,-96.3771496954631zM131.89017096587733,-100.44315696439354L48.296013739972956,-84.62920881390924L48.646288523848945,-77.69212128833166zM-35.65764393611098,-14.116737535221928L-36.91277026413343,-42.15707684747145L-37.98856955063546,-13.04303557782149zM-37.98856955063546,-13.04303557782149L-38.558142011808236,-41.71237484430372L-39.730487810180506,-11.325867209098929zM129.49347103009285,-109.87603515411922L46.0609561594396,-92.28876014092131L46.32044487997383,-86.94344887897194zM-33.35631333569557,-14.26171203204707L-34.662965407759216,-42.765141958270654L-35.65764393611098,-14.116737535221928zM-38.558142011808236,-41.71237484430372L-40.41877796844239,-9.420526816677162L-39.730487810180506,-11.325867209098929zM132.87486187134866,-95.99053323589031L49.05774126293734,-81.78585124842849L49.49190622404843,-73.2956959904472zM-30.760207936909815,-43.8199619772814L-33.35631333569557,-14.26171203204707L-31.69733528396519,-13.436742320096267z" style="fill:rgb(83,212,212)"/><path d="M130.74933975820116,-105.12765711016262L46.32044487997383,-86.94344887897194L47.57622924495051,-82.29648651371441z" style="fill:rgb(99,111,250)"/><path d="M131.89017096587733,-100.44315696439354L47.57622924495051,-82.29648651371441L48.646288523848945,-77.69212128833166z" style="fill:rgb(93,135,250)"/><path d="M46.32044487997383,-86.94344887897194L128.16741991291653,-114.51828909018239L44.92380989216093,-91.46638394521861z" style="fill:rgb(106,87,246)"/><path d="M-104.75171659842682,-58.56361464107396L-54.506202015455514,-134.79580997158928L-135.290659249432,-110.99085099334408z" style="fill:rgb(127,37,217)"/><path d="M-30.155770872086,-43.98332661802117L-31.69733528396519,-13.436742320096267L-31.127318409183196,-11.85804912200768z" style="fill:rgb(83,212,212)"/><path d="M132.87486187134866,-95.99053323589031L48.646288523848945,-77.69212128833166L49.49190622404843,-73.2956959904472z" style="fill:rgb(89,159,244)"/><path d="M126.81861046704157,-118.88721071116547L43.21965515108827,-100.41332560988721L43.43610806528291,-95.70208981422043zM48.296013739972956,-84.62920881390924L131.89017096587733,-100.44315696439354L130.9213408750442,-107.35309442128693zM47.2758693199978,-88.34974402157773L130.74933975820116,-105.12765711016262L129.90722696865257,-111.15604963566419z" style="fill:rgb(83,212,212)"/><path d="M50.081635346559885,-69.26658473071664L132.87486187134866,-95.99053323589031L49.49190622404843,-73.2956959904472z" style="fill:rgb(85,182,234)"/><path d="M44.92380989216093,-91.46638394521861L126.81861046704157,-118.88721071116547L43.43610806528291,-95.70208981422043z" style="fill:rgb(114,65,238)"/><path d="M49.05774126293734,-81.78585124842849L132.87486187134866,-95.99053323589031L131.6857090315137,-104.44887295104066zM46.0609561594396,-92.28876014092131L129.49347103009285,-109.87603515411922L128.75338531873817,-115.19828557565677z" style="fill:rgb(83,212,212)"/><path d="M-35.65764393611098,-14.116737535221928L-35.27076111863739,-8.05015729643545L-32.950532369568435,-9.11815446407656z" style="fill:rgb(158,48,222)"/><path d="M125.49568195678812,-122.82313125123984L41.70124100598191,-104.20063023590177L41.91066338390678,-99.49547532712948z" style="fill:rgb(83,212,212)"/><path d="M-35.27076111863739,-8.05015729643545L-39.730487810180506,-11.325867209098929L-37.00222459945043,-6.337081955905325z" style="fill:rgb(212,85,213)"/><path d="M50.39236348317397,-65.75349320028772L133.6672939302808,-91.93110921229292L50.081635346559885,-69.26658473071664z" style="fill:rgb(84,202,220)"/><path d="M-33.35631333569557,-14.26171203204707L-32.950532369568435,-9.11815446407656L-30.65733330127004,-9.257314272317336z" style="fill:rgb(96,32,206)"/><path d="M43.43610806528291,-95.70208981422043L125.49568195678812,-122.82313125123984L41.91066338390678,-99.49547532712948z" style="fill:rgb(123,46,225)"/><path d="M52.675343913428485,-60.548425207646105L134.23742502392287,-88.4147321269938L50.39236348317397,-65.75349320028772z" style="fill:rgb(127,37,217)"/><path d="M-35.27076111863739,-8.05015729643545L-35.65764393611098,-14.116737535221928L-37.98856955063546,-13.04303557782149z" style="fill:rgb(158,48,222)"/><path d="M-29.00176778221127,-8.427980613171977L-33.35631333569557,-14.26171203204707L-30.65733330127004,-9.257314272317336z" style="fill:rgb(42,41,169)"/><path d="M-37.00222459945043,-6.337081955905325L-40.41877796844239,-9.420526816677162L-37.68307571803686,-4.433153741718609z" style="fill:rgb(243,133,180)"/><path d="M-39.730487810180506,-11.325867209098929L-35.27076111863739,-8.05015729643545L-37.98856955063546,-13.04303557782149z" style="fill:rgb(212,85,213)"/><path d="M127.49123592846104,-119.4068247632489L44.92380989216093,-91.46638394521861L128.16741991291653,-114.51828909018239z" style="fill:rgb(83,212,212)"/><path d="M130.9213408750442,-107.35309442128693L131.6857090315137,-104.44887295104066L131.6434444356673,-104.62237686887758z" style="fill:rgb(247,158,158)"/><path d="M-32.950532369568435,-9.11815446407656L-33.35631333569557,-14.26171203204707L-35.65764393611098,-14.116737535221928z" style="fill:rgb(96,32,206)"/><path d="M43.21965515108827,-100.41332560988721L126.81861046704157,-118.88721071116547L126.17382322800738,-123.57612665896005z" style="fill:rgb(83,212,212)"/><path d="M47.57622924495051,-82.29648651371441L131.89017096587733,-100.44315696439354L130.74933975820116,-105.12765711016262z" style="fill:rgb(93,135,250)"/><path d="M46.32044487997383,-86.94344887897194L130.74933975820116,-105.12765711016262L129.49347103009285,-109.87603515411922z" style="fill:rgb(99,111,250)"/><path d="M132.20420347306361,-102.3206692667688L50.081635346559885,-69.26658473071664L133.6672939302808,-91.93110921229292z" style="fill:rgb(83,212,212)"/><path d="M-40.41877796844239,-9.420526816677162L-37.00222459945043,-6.337081955905325L-39.730487810180506,-11.325867209098929z" style="fill:rgb(243,133,180)"/><path d="M128.16741991291653,-114.51828909018239L46.32044487997383,-86.94344887897194L129.49347103009285,-109.87603515411922z" style="fill:rgb(106,87,246)"/><path d="M-40.41877796844239,-9.420526816677162L-37.1270560849564,-2.846121987052479L-37.68307571803686,-4.433153741718609z" style="fill:rgb(243,180,133)"/><path d="M48.646288523848945,-77.69212128833166L132.87486187134866,-95.99053323589031L131.89017096587733,-100.44315696439354z" style="fill:rgb(89,159,244)"/><path d="M-33.35631333569557,-14.26171203204707L-29.00176778221127,-8.427980613171977L-31.69733528396519,-13.436742320096267z" style="fill:rgb(42,41,169)"/><path d="M126.81861046704157,-118.88721071116547L44.92380989216093,-91.46638394521861L128.16741991291653,-114.51828909018239z" style="fill:rgb(114,65,238)"/><path d="M130.02234039013874,-110.75279793509321L131.89017096587733,-100.44315696439354L130.9213408750442,-107.35309442128693zM131.89017096587733,-100.44315696439354L130.02234039013874,-110.75279793509321L129.90722696865257,-111.15604963566419zM128.75338531873817,-115.19828557565677L130.74933975820116,-105.12765711016262L129.90722696865257,-111.15604963566419zM131.6857090315137,-104.44887295104066L130.9213408750442,-107.35309442128693L132.87486187134866,-95.99053323589031zM132.87486187134866,-95.99053323589031L132.20420347306361,-102.3206692667688L131.6857090315137,-104.44887295104066z" style="fill:rgb(247,158,158)"/><path d="M41.70124100598191,-104.20063023590177L125.49568195678812,-122.82313125123984L124.8558417266676,-127.50506417552096z" style="fill:rgb(83,212,212)"/><path d="M-37.1270560849564,-2.846121987052479L-40.41877796844239,-9.420526816677162L-39.86516371261634,-7.8351412318548395z" style="fill:rgb(243,180,133)"/><path d="M128.31049190949904,-116.74984127103627L129.49347103009285,-109.87603515411922L128.75338531873817,-115.19828557565677z" style="fill:rgb(247,158,158)"/><path d="M132.87486187134866,-95.99053323589031L50.081635346559885,-69.26658473071664L133.6672939302808,-91.93110921229292z" style="fill:rgb(85,182,234)"/><path d="M129.49347103009285,-109.87603515411922L128.31049190949904,-116.74984127103627L127.49123592846104,-119.4068247632489zM133.6672939302808,-91.93110921229292L133.11716547058217,-98.57333476285427L132.20420347306361,-102.3206692667688z" style="fill:rgb(247,158,158)"/><path d="M134.23742502392287,-88.4147321269938L52.675343913428485,-60.548425207646105L136.16473764442847,-82.99495622322853z" style="fill:rgb(127,37,217)"/><path d="M-54.506202015455514,-134.79580997158928L-26.979726596728412,-84.95250364565068L-54.22545909586612,-139.46396080364417z" style="fill:rgb(247,158,158)"/><path d="M125.49568195678812,-122.82313125123984L43.43610806528291,-95.70208981422043L126.81861046704157,-118.88721071116547z" style="fill:rgb(123,46,225)"/><path d="M133.11716547058217,-98.57333476285427L133.6672939302808,-91.93110921229292L134.39146784284924,-92.8180972208723zM131.89017096587733,-100.44315696439354L129.90722696865257,-111.15604963566419L130.74933975820116,-105.12765711016262zM130.74933975820116,-105.12765711016262L128.75338531873817,-115.19828557565677L129.49347103009285,-109.87603515411922zM126.56778515489664,-122.40171059542332L128.16741991291653,-114.51828909018239L127.49123592846104,-119.4068247632489zM132.87486187134866,-95.99053323589031L130.9213408750442,-107.35309442128693L131.89017096587733,-100.44315696439354zM128.16741991291653,-114.51828909018239L126.56778515489664,-122.40171059542332L126.17382322800738,-123.57612665896005zM129.49347103009285,-109.87603515411922L127.49123592846104,-119.4068247632489L128.16741991291653,-114.51828909018239zM134.39146784284924,-92.8180972208723L133.6672939302808,-91.93110921229292L135.4202687586589,-87.56143586429104z" style="fill:rgb(247,158,158)"/><path d="M133.6672939302808,-91.93110921229292L50.39236348317397,-65.75349320028772L134.23742502392287,-88.4147321269938z" style="fill:rgb(84,202,220)"/><path d="M132.20420347306361,-102.3206692667688L132.87486187134866,-95.99053323589031L133.6672939302808,-91.93110921229292zM124.8558417266676,-127.50506417552096L126.81861046704157,-118.88721071116547L126.17382322800738,-123.57612665896005zM128.16741991291653,-114.51828909018239L126.17382322800738,-123.57612665896005L126.81861046704157,-118.88721071116547z" style="fill:rgb(247,158,158)"/><path d="M-54.506202015455514,-134.79580997158928L-134.6078522881826,-115.6851523485858L-135.290659249432,-110.99085099334408z" style="fill:rgb(83,212,212)"/><path d="M135.4202687586589,-87.56143586429104L133.6672939302808,-91.93110921229292L136.16473764442847,-82.99495622322853zM126.81861046704157,-118.88721071116547L124.8558417266676,-127.50506417552096L125.49568195678812,-122.82313125123984zM136.16473764442847,-82.99495622322853L133.6672939302808,-91.93110921229292L134.23742502392287,-88.4147321269938z" style="fill:rgb(247,158,158)"/><path d="M-134.6078522881826,-115.6851523485858L-54.506202015455514,-134.79580997158928L-54.22545909586612,-139.46396080364417z" style="fill:rgb(83,212,212)"/><path d="M104.72889880077012,-181.71803297440292L41.91066338390678,-99.49547532712948L125.49568195678812,-122.82313125123984z" style="fill:rgb(127,37,217)"/><path d="M62.796471660565246,-69.10601415272909L69.96962777644333,12.38696178578331L64.52613184263075,-69.57350192250135zM64.52613184263075,-69.57350192250135L72.50234553233076,11.230451370155851L66.89124869770109,-70.21273233733564zM67.61808189703014,16.365749607053182L62.796471660565246,-69.10601415272909L62.16373792884162,-68.93500145338953zM72.50234553233076,11.230451370155851L69.25908846835179,-70.85269868640177L66.89124869770109,-70.21273233733564zM69.25908846835179,-70.85269868640177L77.09664382426939,12.03903464978368L70.99419451603015,-71.32165834390918zM70.99419451603015,-71.32165834390918L77.93030303239384,13.79611685435865L71.62965112881842,-71.49340697200485z" style="fill:rgb(83,212,212)"/><path d="M124.8558417266676,-127.50506417552096L104.72889880077012,-181.71803297440292L125.49568195678812,-122.82313125123984z" style="fill:rgb(247,158,158)"/><path d="M-96.71790602991665,-25.993230723386255L-46.83688507063335,154.40274344576503L-39.160053192727275,-41.549693349697854z" style="fill:rgb(83,212,212)"/><path d="M41.91066338390678,-99.49547532712948L104.72889880077012,-181.71803297440292L17.441587719030153,-155.9968526167366z" style="fill:rgb(127,37,217)"/><path d="M77.93030303239384,13.79611685435865L134.23742502392287,-88.4147321269938L71.62965112881842,-71.49340697200485z" style="fill:rgb(83,212,212)"/><path d="M104.72889880077012,-181.71803297440292L124.8558417266676,-127.50506417552096L104.16807369277365,-186.32011301034828z" style="fill:rgb(247,158,158)"/><path d="M-45.32632430475781,115.84542082117751L-39.86516371261634,-7.8351412318548395L-40.41877796844239,-9.420526816677162zM-39.86516371261634,-7.8351412318548395L-42.58891386501038,111.454755117467L-38.21198023957349,-6.996936168516742zM17.441587719030153,-155.9968526167366L104.16807369277365,-186.32011301034828L17.35014140503054,-160.6375394994268zM-38.21198023957349,-6.996936168516742L-39.976322260860066,110.26844941518308L-35.90003848066892,-7.1353662469741zM-39.976322260860066,110.26844941518308L-33.552709764421984,-8.21575935409651L-35.90003848066892,-7.1353662469741zM-37.40093417470088,110.24962745597747L-31.804997352446378,-9.946163839850621L-33.552709764421984,-8.21575935409651zM-31.804997352446378,-9.946163839850621L-34.91655178702993,113.43708048493659L-31.127318409183196,-11.85804912200768zM72.50234553233076,11.230451370155851L64.52613184263075,-69.57350192250135L69.96962777644333,12.38696178578331zM69.96962777644333,12.38696178578331L62.796471660565246,-69.10601415272909L68.18260078303106,14.26451215540009zM69.25908846835179,-70.85269868640177L72.50234553233076,11.230451370155851L75.1091569050664,11.102041806846493zM62.796471660565246,-69.10601415272909L67.61808189703014,16.365749607053182L68.18260078303106,14.26451215540009zM104.16807369277365,-186.32011301034828L17.441587719030153,-155.9968526167366L104.72889880077012,-181.71803297440292zM77.09664382426939,12.03903464978368L69.25908846835179,-70.85269868640177L75.1091569050664,11.102041806846493zM-30.155770872086,-43.98332661802117L74.72051911241985,127.44110534847621L62.16373792884162,-68.93500145338953zM77.93030303239384,13.79611685435865L70.99419451603015,-71.32165834390918L77.09664382426939,12.03903464978368zM-31.127318409183196,-11.85804912200768L74.72051911241985,127.44110534847621L-30.155770872086,-43.98332661802117z" style="fill:rgb(83,212,212)"/><path d="M72.50234553233076,11.230451370155851L72.35262612770222,17.648746899379635L74.87270778604538,16.49885795541013z" style="fill:rgb(158,48,222)"/><path d="M72.35262612770222,17.648746899379635L68.18260078303106,14.26451215540009L70.57682287443998,19.52129267622068z" style="fill:rgb(212,85,213)"/><path d="M75.1091569050664,11.102041806846493L74.87270778604538,16.49885795541013L77.46880030514598,16.376941714012396z" style="fill:rgb(96,32,206)"/><path d="M72.35262612770222,17.648746899379635L72.50234553233076,11.230451370155851L69.96962777644333,12.38696178578331z" style="fill:rgb(158,48,222)"/><path d="M79.45031255328551,17.31855791827806L75.1091569050664,11.102041806846493L77.46880030514598,16.376941714012396z" style="fill:rgb(42,41,169)"/><path d="M70.57682287443998,19.52129267622068L67.61808189703014,16.365749607053182L70.01915267590516,21.6204437709806z" style="fill:rgb(243,133,180)"/><path d="M68.18260078303106,14.26451215540009L72.35262612770222,17.648746899379635L69.96962777644333,12.38696178578331z" style="fill:rgb(212,85,213)"/><path d="M74.87270778604538,16.49885795541013L75.1091569050664,11.102041806846493L72.50234553233076,11.230451370155851z" style="fill:rgb(96,32,206)"/><path d="M67.61808189703014,16.365749607053182L70.57682287443998,19.52129267622068L68.18260078303106,14.26451215540009z" style="fill:rgb(243,133,180)"/><path d="M80.28437229441501,19.0771185056799L77.09664382426939,12.03903464978368L79.45031255328551,17.31855791827806z" style="fill:rgb(11,74,121)"/><path d="M75.1091569050664,11.102041806846493L79.45031255328551,17.31855791827806L77.09664382426939,12.03903464978368z" style="fill:rgb(42,41,169)"/><path d="M161.92651859492733,108.0986759897315L136.16473764442847,-82.99495622322853L134.23742502392287,-88.4147321269938z" style="fill:rgb(247,158,158)"/><path d="M-42.58891386501038,111.454755117467L-39.86516371261634,-7.8351412318548395L-44.546164633303455,113.49363820256336zM-39.976322260860066,110.26844941518308L-38.21198023957349,-6.996936168516742L-42.58891386501038,111.454755117467z" style="fill:rgb(83,212,212)"/><path d="M77.09664382426939,12.03903464978368L80.28437229441501,19.0771185056799L77.93030303239384,13.79611685435865z" style="fill:rgb(11,74,121)"/><path d="M-39.86516371261634,-7.8351412318548395L-45.32632430475781,115.84542082117751L-44.546164633303455,113.49363820256336zM-33.552709764421984,-8.21575935409651L-39.976322260860066,110.26844941518308L-37.40093417470088,110.24962745597747zM-31.804997352446378,-9.946163839850621L-37.40093417470088,110.24962745597747L-35.547963677250465,111.40698925798358zM-34.91655178702993,113.43708048493659L-31.804997352446378,-9.946163839850621L-35.547963677250465,111.40698925798358zM-46.83688507063335,154.40274344576503L-96.71790602991665,-25.993230723386255L-115.3534233520733,169.5998268784895zM134.23742502392287,-88.4147321269938L77.93030303239384,13.79611685435865L86.13858969694297,124.90856549676164zM-34.91655178702993,113.43708048493659L74.72051911241985,127.44110534847621L-31.127318409183196,-11.85804912200768z" style="fill:rgb(83,212,212)"/><path d="M-39.976322260860066,110.26844941518308L-39.51932600570368,116.38862021446653L-36.92016537592388,115.20929592023467z" style="fill:rgb(158,48,222)"/><path d="M-39.51932600570368,116.38862021446653L-44.546164633303455,113.49363820256336L-41.463398975588014,118.42115513974781z" style="fill:rgb(212,85,213)"/><path d="M-37.40093417470088,110.24962745597747L-36.92016537592388,115.20929592023467L-34.35494404485763,115.19624222077513z" style="fill:rgb(96,32,206)"/><path d="M-39.51932600570368,116.38862021446653L-39.976322260860066,110.26844941518308L-42.58891386501038,111.454755117467z" style="fill:rgb(158,48,222)"/><path d="M-32.5061871242183,116.3566305841849L-37.40093417470088,110.24962745597747L-34.35494404485763,115.19624222077513z" style="fill:rgb(42,41,169)"/><path d="M-41.463398975588014,118.42115513974781L-45.32632430475781,115.84542082117751L-42.23412490366245,120.76887593440088z" style="fill:rgb(243,133,180)"/><path d="M-44.546164633303455,113.49363820256336L-39.51932600570368,116.38862021446653L-42.58891386501038,111.454755117467z" style="fill:rgb(212,85,213)"/><path d="M-36.92016537592388,115.20929592023467L-37.40093417470088,110.24962745597747L-39.976322260860066,110.26844941518308z" style="fill:rgb(96,32,206)"/><path d="M-45.32632430475781,115.84542082117751L-41.463398975588014,118.42115513974781L-44.546164633303455,113.49363820256336z" style="fill:rgb(243,133,180)"/><path d="M-45.32632430475781,115.84542082117751L-41.62020967295351,122.80642284718985L-42.23412490366245,120.76887593440088z" style="fill:rgb(243,180,133)"/><path d="M67.61808189703014,16.365749607053182L75.48341050434216,127.2718997637407L68.43236780638838,18.130592657317564z" style="fill:rgb(83,212,212)"/><path d="M-37.40093417470088,110.24962745597747L-32.5061871242183,116.3566305841849L-35.547963677250465,111.40698925798358z" style="fill:rgb(42,41,169)"/><path d="M68.43236780638838,18.130592657317564L77.56911496196435,126.80928360883823L70.41437572985268,19.083347226841315z" style="fill:rgb(83,212,212)"/><path d="M-41.62020967295351,122.80642284718985L-45.32632430475781,115.84542082117751L-44.715536761025305,117.88366794746052z" style="fill:rgb(243,180,133)"/><path d="M77.56911496196435,126.80928360883823L73.03508168655607,18.962936103370698L70.41437572985268,19.083347226841315zM77.37967892186003,15.90535256247723L86.13858969694297,124.90856549676164L77.93030303239384,13.79611685435865zM83.27814730247457,125.543014812631L77.37967892186003,15.90535256247723L75.58717310966668,17.798663487993206zM73.03508168655607,18.962936103370698L83.27814730247457,125.543014812631L75.58717310966668,17.798663487993206zM-45.32632430475781,115.84542082117751L-46.11833500618301,154.24337330523608L-44.715536761025305,117.88366794746052zM-44.715536761025305,117.88366794746052L-44.1539049243715,153.80765535065865L-42.86991016451599,119.05927666899274zM-35.68342816578136,115.79896499853794L-36.083321415052225,152.01758094098136L-34.91655178702993,113.43708048493659zM-42.86991016451599,119.05927666899274L-41.46732286993947,153.2117683481602L-40.28123887317257,119.05055671854569zM-37.64802269170336,117.85610585684404L-36.805480666915386,152.17776263285884L-35.68342816578136,115.79896499853794zM-40.28123887317257,119.05055671854569L-38.77713185455037,152.61508163639405L-37.64802269170336,117.85610585684404zM134.23742502392287,-88.4147321269938L86.13858969694297,124.90856549676164L161.92651859492733,108.0986759897315z" style="fill:rgb(83,212,212)"/><path d="M136.16473764442847,-82.99495622322853L161.92651859492733,108.0986759897315L164.08903263141858,113.49405131042897z" style="fill:rgb(247,158,158)"/><path d="M-46.11833500618301,154.24337330523608L-45.32632430475781,115.84542082117751L-46.83688507063335,154.40274344576503zM-44.1539049243715,153.80765535065865L-44.715536761025305,117.88366794746052L-46.11833500618301,154.24337330523608zM-41.46732286993947,153.2117683481602L-42.86991016451599,119.05927666899274L-44.1539049243715,153.80765535065865zM-38.77713185455037,152.61508163639405L-40.28123887317257,119.05055671854569L-41.46732286993947,153.2117683481602zM-36.083321415052225,152.01758094098136L-35.68342816578136,115.79896499853794L-36.805480666915386,152.17776263285884zM-36.805480666915386,152.17776263285884L-37.64802269170336,117.85610585684404L-38.77713185455037,152.61508163639405z" style="fill:rgb(83,212,212)"/><path d="M-22.846680225375792,153.29755217835512L-115.3534233520733,169.5998268784895L-116.01634148038275,173.8651243275959z" style="fill:rgb(84,220,202)"/><path d="M75.48341050434216,127.2718997637407L67.61808189703014,16.365749607053182L74.72051911241985,127.44110534847621z" style="fill:rgb(83,212,212)"/><path d="M-23.526630675060375,156.81159573794582L-116.01634148038275,173.8651243275959L-117.11703604397734,177.39377876355795z" style="fill:rgb(85,234,182)"/><path d="M77.56911496196435,126.80928360883823L68.43236780638838,18.130592657317564L75.48341050434216,127.2718997637407z" style="fill:rgb(83,212,212)"/><path d="M-115.3534233520733,169.5998268784895L-22.846680225375792,153.29755217835512L-22.559780492094358,149.01804544392567z" style="fill:rgb(84,220,202)"/><path d="M73.03508168655607,18.962936103370698L77.56911496196435,126.80928360883823L80.42165671980867,126.17658713728284zM83.27814730247457,125.543014812631L73.03508168655607,18.962936103370698L80.42165671980867,126.17658713728284zM77.37967892186003,15.90535256247723L83.27814730247457,125.543014812631L85.37174946337169,125.07864692782533zM86.13858969694297,124.90856549676164L77.37967892186003,15.90535256247723L85.37174946337169,125.07864692782533z" style="fill:rgb(83,212,212)"/><path d="M-118.62049797225059,180.04373943795633L-23.526630675060375,156.81159573794582L-117.11703604397734,177.39377876355795z" style="fill:rgb(89,244,159)"/><path d="M74.72051911241985,127.44110534847621L-34.91655178702993,113.43708048493659L-36.083321415052225,152.01758094098136zM-23.144248770433364,168.85431424114367L-116.01634148038275,173.8651243275959L-117.49197234483609,189.31867178526664z" style="fill:rgb(83,212,212)"/><path d="M-116.01634148038275,173.8651243275959L-23.526630675060375,156.81159573794582L-22.846680225375792,153.29755217835512z" style="fill:rgb(85,234,182)"/><path d="M-111.8349339917048,174.30944800358125L161.92651859492733,108.0986759897315L-115.3534233520733,169.5998268784895z" style="fill:rgb(127,37,217)"/><path d="M-22.846680225375792,153.29755217835512L-19.4716671509636,153.9520006435982L-22.559780492094358,149.01804544392567z" style="fill:rgb(247,158,158)"/><path d="M-120.47580411701394,181.70120922198038L-24.579864265224487,159.41806033177122L-118.62049797225059,180.04373943795633z" style="fill:rgb(93,250,135)"/><path d="M-23.777854425476256,169.60339368125847L-117.11703604397734,177.39377876355795L-118.33824601501931,190.09951176986124zM-116.01634148038275,173.8651243275959L-23.144248770433364,168.85431424114367L-22.846680225375792,153.29755217835512z" style="fill:rgb(83,212,212)"/><path d="M-19.4716671509636,153.9520006435982L-23.144248770433364,168.85431424114367L-19.826158964956974,159.51842210930891z" style="fill:rgb(247,158,158)"/><path d="M-24.795983309654787,169.97379091082826L-118.62049797225059,180.04373943795633L-119.63887529720179,190.52761129179356z" style="fill:rgb(83,212,212)"/><path d="M-23.526630675060375,156.81159573794582L-118.62049797225059,180.04373943795633L-24.579864265224487,159.41806033177122z" style="fill:rgb(89,244,159)"/><path d="M-117.11703604397734,177.39377876355795L-23.777854425476256,169.60339368125847L-23.526630675060375,156.81159573794582z" style="fill:rgb(83,212,212)"/><path d="M-19.4716671509636,153.9520006435982L-22.846680225375792,153.29755217835512L-23.144248770433364,168.85431424114367z" style="fill:rgb(247,158,158)"/><path d="M-122.6169975213644,182.286778972126L-25.97222857339328,161.00410775864415L-120.47580411701394,181.70120922198038z" style="fill:rgb(99,250,111)"/><path d="M-19.826158964956974,159.51842210930891L-23.144248770433364,168.85431424114367L-20.688757841314555,164.11215734636437z" style="fill:rgb(247,158,158)"/><path d="M-26.173259429261037,170.30879725258754L-120.47580411701394,181.70120922198038L-121.3862298590854,190.94194356765803zM-118.62049797225059,180.04373943795633L-24.795983309654787,169.97379091082826L-24.579864265224487,159.41806033177122z" style="fill:rgb(83,212,212)"/><path d="M-24.579864265224487,159.41806033177122L-120.47580411701394,181.70120922198038L-25.97222857339328,161.00410775864415z" style="fill:rgb(93,250,135)"/><path d="M-23.526630675060375,156.81159573794582L-23.144248770433364,168.85431424114367L-22.846680225375792,153.29755217835512zM-20.688757841314555,164.11215734636437L-23.144248770433364,168.85431424114367L-22.036971413759343,167.5452265802481z" style="fill:rgb(247,158,158)"/><path d="M-27.84614166395135,169.78121149606073L-122.6169975213644,182.286778972126L-123.4420321201056,190.51849927669107z" style="fill:rgb(83,212,212)"/><path d="M-24.579864265224487,159.41806033177122L-23.777854425476256,169.60339368125847L-23.526630675060375,156.81159573794582z" style="fill:rgb(247,158,158)"/><path d="M-120.47580411701394,181.70120922198038L-26.173259429261037,170.30879725258754L-25.97222857339328,161.00410775864415z" style="fill:rgb(83,212,212)"/><path d="M-25.97222857339328,161.00410775864415L-122.6169975213644,182.286778972126L-27.655525688917308,161.49220669262658z" style="fill:rgb(99,250,111)"/><path d="M-23.144248770433364,168.85431424114367L-23.526630675060375,156.81159573794582L-23.777854425476256,169.60339368125847z" style="fill:rgb(247,158,158)"/><path d="M-121.1819114304135,190.98401690703545L-28.49137355959891,169.57771951769976L-124.23483417422294,190.3552160302075z" style="fill:rgb(148,8,167)"/><path d="M-29.757234994447366,168.51638077575518L-124.96475908082836,181.76071650104097L-125.74320612300133,189.37844341578926z" style="fill:rgb(83,212,212)"/><path d="M-25.97222857339328,161.00410775864415L-24.795983309654787,169.97379091082826L-24.579864265224487,159.41806033177122zM-23.777854425476256,169.60339368125847L-24.579864265224487,159.41806033177122L-24.795983309654787,169.97379091082826z" style="fill:rgb(247,158,158)"/><path d="M161.92651859492733,108.0986759897315L-111.8349339917048,174.30944800358125L164.08903263141858,113.49405131042897z" style="fill:rgb(127,37,217)"/><path d="M-122.6169975213644,182.286778972126L-27.84614166395135,169.78121149606073L-27.655525688917308,161.49220669262658z" style="fill:rgb(83,212,212)"/><path d="M-23.777854425476256,169.60339368125847L-24.795983309654787,169.97379091082826L-23.82966298628517,169.66465208618328z" style="fill:rgb(247,158,158)"/><path d="M-28.49137355959891,169.57771951769976L-121.1819114304135,190.98401690703545L-26.007012859579326,170.36122816064366z" style="fill:rgb(148,8,167)"/><path d="M-124.23483417422294,190.3552160302075L-31.189190709924162,167.315777483489L-127.44925268655302,188.27365473504017z" style="fill:rgb(140,16,189)"/><path d="M-31.833804721920448,166.47115944725812L-127.42899848836787,180.1272078546982L-128.19567686924967,187.47483354504382z" style="fill:rgb(83,212,212)"/><path d="M-24.795983309654787,169.97379091082826L-25.97222857339328,161.00410775864415L-26.173259429261037,170.30879725258754z" style="fill:rgb(247,158,158)"/><path d="M-124.96475908082836,181.76071650104097L-29.757234994447366,168.51638077575518L-29.568533457943733,160.84564824511128z" style="fill:rgb(83,212,212)"/><path d="M-27.84614166395135,169.78121149606073L-25.97222857339328,161.00410775864415L-27.655525688917308,161.49220669262658zM-24.795983309654787,169.97379091082826L-26.173259429261037,170.30879725258754L-26.007012859579326,170.36122816064366zM-25.97222857339328,161.00410775864415L-27.84614166395135,169.78121149606073L-26.173259429261037,170.30879725258754z" style="fill:rgb(247,158,158)"/><path d="M-33.99418122105337,163.6404660855913L-129.9121234893924,177.43667424273775L-130.69692888652636,184.79801953126457z" style="fill:rgb(83,212,212)"/><path d="M-127.44925268655302,188.27365473504017L-33.99418122105337,163.6404660855913L-130.69692888652636,184.79801953126457z" style="fill:rgb(131,29,208)"/><path d="M-31.189190709924162,167.315777483489L-124.23483417422294,190.3552160302075L-28.49137355959891,169.57771951769976z" style="fill:rgb(140,16,189)"/><path d="M-127.42899848836787,180.1272078546982L-31.833804721920448,166.47115944725812L-31.638768435248647,159.07262654571565z" style="fill:rgb(83,212,212)"/><path d="M-29.757234994447366,168.51638077575518L-27.655525688917308,161.49220669262658L-29.568533457943733,160.84564824511128zM-27.655525688917308,161.49220669262658L-29.757234994447366,168.51638077575518L-27.84614166395135,169.78121149606073z" style="fill:rgb(247,158,158)"/><path d="M162.44107557131417,112.39455696865333L60.536349388491544,130.58718069951843L60.6015663947361,134.8760338914384z" style="fill:rgb(84,220,202)"/><path d="M-129.9121234893924,177.43667424273775L-33.99418122105337,163.6404660855913L-33.78504366685167,156.22862187635474z" style="fill:rgb(83,212,212)"/><path d="M-33.99418122105337,163.6404660855913L-127.44925268655302,188.27365473504017L-31.189190709924162,167.315777483489z" style="fill:rgb(131,29,208)"/><path d="M-27.84614166395135,169.78121149606073L-29.757234994447366,168.51638077575518L-28.49137355959891,169.57771951769976zM-31.833804721920448,166.47115944725812L-29.568533457943733,160.84564824511128L-31.638768435248647,159.07262654571565zM-29.568533457943733,160.84564824511128L-31.833804721920448,166.47115944725812L-29.757234994447366,168.51638077575518z" style="fill:rgb(247,158,158)"/><path d="M162.65966657931648,115.86592972565577L60.6015663947361,134.8760338914384L60.31610983847662,138.37308767950952z" style="fill:rgb(85,234,182)"/><path d="M60.536349388491544,130.58718069951843L162.44107557131417,112.39455696865333L161.92651859492733,108.0986759897315z" style="fill:rgb(84,220,202)"/><path d="M-29.757234994447366,168.51638077575518L-31.833804721920448,166.47115944725812L-31.189190709924162,167.315777483489z" style="fill:rgb(247,158,158)"/><path d="M59.68551783349252,140.9363733317668L162.65966657931648,115.86592972565577L60.31610983847662,138.37308767950952z" style="fill:rgb(89,244,159)"/><path d="M-33.99418122105337,163.6404660855913L-31.638768435248647,159.07262654571565L-33.78504366685167,156.22862187635474zM-31.638768435248647,159.07262654571565L-33.99418122105337,163.6404660855913L-31.833804721920448,166.47115944725812z" style="fill:rgb(247,158,158)"/><path d="M164.655561983481,128.11985915727413L60.6015663947361,134.8760338914384L61.40746424794421,150.51473887367283z" style="fill:rgb(83,212,212)"/><path d="M60.6015663947361,134.8760338914384L162.65966657931648,115.86592972565577L162.44107557131417,112.39455696865333z" style="fill:rgb(85,234,182)"/><path d="M162.44107557131417,112.39455696865333L164.08903263141858,113.49405131042897L161.92651859492733,108.0986759897315z" style="fill:rgb(247,158,158)"/><path d="M58.7282458210907,142.45396272804192L162.56972446564657,118.37105813344598L59.68551783349252,140.9363733317668z" style="fill:rgb(93,250,135)"/><path d="M164.4778764623618,128.79867064155755L60.31610983847662,138.37308767950952L60.973751443998694,151.2333593161281zM60.6015663947361,134.8760338914384L164.655561983481,128.11985915727413L162.44107557131417,112.39455696865333zM60.22139832441241,151.54931358831575L162.56972446564657,118.37105813344598L59.68551783349252,140.9363733317668z" style="fill:rgb(83,212,212)"/><path d="M164.08903263141858,113.49405131042897L164.655561983481,128.11985915727413L164.76732538879733,119.08444177945073z" style="fill:rgb(247,158,158)"/><path d="M162.65966657931648,115.86592972565577L59.68551783349252,140.9363733317668L162.56972446564657,118.37105813344598z" style="fill:rgb(89,244,159)"/><path d="M60.31610983847662,138.37308767950952L164.4778764623618,128.79867064155755L162.65966657931648,115.86592972565577z" style="fill:rgb(83,212,212)"/><path d="M164.08903263141858,113.49405131042897L162.44107557131417,112.39455696865333L164.655561983481,128.11985915727413z" style="fill:rgb(247,158,158)"/><path d="M57.475804816064915,142.85024301917656L162.16964776830133,119.79939815825134L58.7282458210907,142.45396272804192z" style="fill:rgb(99,250,111)"/><path d="M59.192468039617296,151.80959374325047L162.16964776830133,119.79939815825134L58.7282458210907,142.45396272804192z" style="fill:rgb(83,212,212)"/><path d="M164.76732538879733,119.08444177945073L164.655561983481,128.11985915727413L165.06575918621266,123.62709858437402z" style="fill:rgb(247,158,158)"/><path d="M162.56972446564657,118.37105813344598L58.7282458210907,142.45396272804192L162.16964776830133,119.79939815825134z" style="fill:rgb(93,250,135)"/><path d="M162.65966657931648,115.86592972565577L164.655561983481,128.11985915727413L162.44107557131417,112.39455696865333zM165.06575918621266,123.62709858437402L164.655561983481,128.11985915727413L164.96598082451862,126.93394256022155z" style="fill:rgb(247,158,158)"/><path d="M162.56972446564657,118.37105813344598L60.22139832441241,151.54931358831575L164.0662483767388,129.04463931784164z" style="fill:rgb(83,212,212)"/><path d="M-69.19406364987263,109.43173318459313L-130.69692888652636,184.79801953126457L-33.99418122105337,163.6404660855913z" style="fill:rgb(127,37,217)"/><path d="M162.635331456668,128.46068861257785L57.475804816064915,142.85024301917656L57.88040815272563,151.1848279199084z" style="fill:rgb(83,212,212)"/><path d="M162.56972446564657,118.37105813344598L164.4778764623618,128.79867064155755L162.65966657931648,115.86592972565577z" style="fill:rgb(247,158,158)"/><path d="M162.16964776830133,119.79939815825134L57.475804816064915,142.85024301917656L161.4696480980166,120.07776948638288z" style="fill:rgb(99,250,111)"/><path d="M164.655561983481,128.11985915727413L162.65966657931648,115.86592972565577L164.4778764623618,128.79867064155755z" style="fill:rgb(247,158,158)"/><path d="M59.32283786784655,151.8716754709773L162.3078557027121,128.17195624617386L57.37427469899031,150.94382039016986z" style="fill:rgb(148,8,167)"/><path d="M162.16964776830133,119.79939815825134L59.192468039617296,151.80959374325047L163.48409308161612,129.20905491719304z" style="fill:rgb(83,212,212)"/><path d="M-33.78504366685167,156.22862187635474L-69.19406364987263,109.43173318459313L-33.99418122105337,163.6404660855913z" style="fill:rgb(247,158,158)"/><path d="M161.56511096258563,126.93345754624866L55.972403514948084,142.09128698454288L56.33726689056423,149.80418177693738z" style="fill:rgb(83,212,212)"/><path d="M162.16964776830133,119.79939815825134L164.0662483767388,129.04463931784164L162.56972446564657,118.37105813344598zM164.4778764623618,128.79867064155755L162.56972446564657,118.37105813344598L164.0662483767388,129.04463931784164z" style="fill:rgb(247,158,158)"/><path d="M57.475804816064915,142.85024301917656L162.635331456668,128.46068861257785L161.4696480980166,120.07776948638288z" style="fill:rgb(83,212,212)"/><path d="M164.4778764623618,128.79867064155755L164.0662483767388,129.04463931784164L164.4633546604924,128.85419075746205z" style="fill:rgb(247,158,158)"/><path d="M162.3078557027121,128.17195624617386L59.32283786784655,151.8716754709773L163.56842848237366,129.28340867210932z" style="fill:rgb(148,8,167)"/><path d="M57.37427469899031,150.94382039016986L160.72465155298534,125.53203539326954L55.164036394095326,148.51484235397243z" style="fill:rgb(140,16,189)"/><path d="M160.3002315751367,124.59233985642199L54.27388847484898,140.1891163684143L54.615662757988865,147.6280517265169z" style="fill:rgb(83,212,212)"/><path d="M-130.69692888652636,184.79801953126457L-69.19406364987263,109.43173318459313L-170.81612612708994,133.24741932154942z" style="fill:rgb(127,37,217)"/><path d="M164.0662483767388,129.04463931784164L162.16964776830133,119.79939815825134L163.48409308161612,129.20905491719304z" style="fill:rgb(247,158,158)"/><path d="M55.972403514948084,142.09128698454288L161.56511096258563,126.93345754624866L160.49209020478847,119.17595311991076z" style="fill:rgb(83,212,212)"/><path d="M162.635331456668,128.46068861257785L162.16964776830133,119.79939815825134L161.4696480980166,120.07776948638288zM164.0662483767388,129.04463931784164L163.48409308161612,129.20905491719304L163.56842848237366,129.28340867210932zM162.16964776830133,119.79939815825134L162.635331456668,128.46068861257785L163.48409308161612,129.20905491719304z" style="fill:rgb(247,158,158)"/><path d="M158.87742881296214,121.44218046725587L52.44592666187663,137.20389165470664L52.77759971560345,144.65571554636304z" style="fill:rgb(83,212,212)"/><path d="M55.164036394095326,148.51484235397243L158.87742881296214,121.44218046725587L52.77759971560345,144.65571554636304z" style="fill:rgb(131,29,208)"/><path d="M160.72465155298534,125.53203539326954L57.37427469899031,150.94382039016986L162.3078557027121,128.17195624617386z" style="fill:rgb(140,16,189)"/><path d="M54.27388847484898,140.1891163684143L160.3002315751367,124.59233985642199L159.27141919870087,117.11077932432424z" style="fill:rgb(83,212,212)"/><path d="M161.56511096258563,126.93345754624866L161.4696480980166,120.07776948638288L160.49209020478847,119.17595311991076zM161.4696480980166,120.07776948638288L161.56511096258563,126.93345754624866L162.635331456668,128.46068861257785z" style="fill:rgb(247,158,158)"/><path d="M52.44592666187663,137.20389165470664L158.87742881296214,121.44218046725587L157.85330947122156,113.94837140164758z" style="fill:rgb(83,212,212)"/><path d="M158.87742881296214,121.44218046725587L55.164036394095326,148.51484235397243L160.72465155298534,125.53203539326954z" style="fill:rgb(131,29,208)"/><path d="M162.635331456668,128.46068861257785L161.56511096258563,126.93345754624866L162.3078557027121,128.17195624617386zM-69.19406364987263,109.43173318459313L-33.78504366685167,156.22862187635474L-68.74225735343191,101.91916637884053zM160.3002315751367,124.59233985642199L160.49209020478847,119.17595311991076L159.27141919870087,117.11077932432424zM160.49209020478847,119.17595311991076L160.3002315751367,124.59233985642199L161.56511096258563,126.93345754624866zM161.56511096258563,126.93345754624866L160.3002315751367,124.59233985642199L160.72465155298534,125.53203539326954z" style="fill:rgb(247,158,158)"/><path d="M-69.19406364987263,109.43173318459313L-169.7290896901233,125.7740112172677L-170.81612612708994,133.24741932154942z" style="fill:rgb(83,212,212)"/><path d="M158.87742881296214,121.44218046725587L159.27141919870087,117.11077932432424L157.85330947122156,113.94837140164758zM159.27141919870087,117.11077932432424L158.87742881296214,121.44218046725587L160.3002315751367,124.59233985642199z" style="fill:rgb(247,158,158)"/><path d="M-169.7290896901233,125.7740112172677L-69.19406364987263,109.43173318459313L-68.74225735343191,101.91916637884053z" style="fill:rgb(83,212,212)"/><path d="M134.39493201028864,61.719563251871456L52.77759971560345,144.65571554636304L158.87742881296214,121.44218046725587z" style="fill:rgb(127,37,217)"/><path d="M157.85330947122156,113.94837140164758L134.39493201028864,61.719563251871456L158.87742881296214,121.44218046725587z" style="fill:rgb(247,158,158)"/><path d="M52.77759971560345,144.65571554636304L134.39493201028864,61.719563251871456L22.24965644102859,88.00140683573967z" style="fill:rgb(127,37,217)"/><path d="M134.39493201028864,61.719563251871456L157.85330947122156,113.94837140164758L133.47278382120717,54.152454611935454z" style="fill:rgb(247,158,158)"/><path d="M134.39493201028864,61.719563251871456L22.101058241303676,80.46039521817256L22.24965644102859,88.00140683573967zM22.101058241303676,80.46039521817256L134.39493201028864,61.719563251871456L133.47278382120717,54.152454611935454z" style="fill:rgb(83,212,212)"/></svg>
