<?xml version="1.0" encoding="UTF-8"?>
<!-- Generated by jsxcad -->
<!DOCTYPE svg PUBLIC "-//W3C//DTD SVG 1.1 Tiny//EN" "http://www.w3.org/Graphics/SVG/1.1/DTD/svg11-tiny.dtd">
<svg viewBox="-250 -250 500 500" width="500" height="500" xmlns="http://www.w3.org/2000/svg"><path d="M-116.81963696508694,-49.70324130445407L-42.26142112743866,-76.50924392864262L-116.09003294286295,-55.89517328391934zM-116.2325394759887,-45.420718681643706L-41.475966479780055,-74.22790193646001L-115.26959917883187,-53.669668357392595zM-42.19388735874217,-68.80051355177574L-115.71249502293917,-54.92256717551255L-116.50173528404405,-48.196032470330934zM-42.95823418913346,-71.87496436712458L-116.56212198198997,-56.982357675056974L-117.24517938697244,-51.215301984313534zM-41.95651490393871,-67.33729475671267L-115.43835499627549,-54.14706484466748L-116.30349364029398,-46.750351706788386zM-43.45646255150709,-73.37064798344396L-117.10228747601415,-58.21595423553638L-117.76239038621883,-52.67536527162903zM-44.008067112071686,-74.76298769737312L-117.71251556811579,-59.361210069519004L-118.35191696420695,-54.02842766946477z" style="fill:rgb(83,212,212)"/><path d="M-42.5320472801053,-70.33226789340871L-117.24517938697244,-51.215301984313534L-116.81963696508694,-49.70324130445407z" style="fill:rgb(99,111,250)"/><path d="M-42.19388735874217,-68.80051355177574L-116.81963696508694,-49.70324130445407L-116.50173528404405,-48.196032470330934z" style="fill:rgb(93,135,250)"/><path d="M-44.592360151463865,-75.99929879035794L-118.34823133461731,-60.55431148991804L-118.99165815119024,-55.22326321045404z" style="fill:rgb(83,212,212)"/><path d="M-117.24517938697244,-51.215301984313534L-43.45646255150709,-73.37064798344396L-117.76239038621883,-52.67536527162903z" style="fill:rgb(106,87,246)"/><path d="M-41.95651490393871,-67.33729475671267L-116.50173528404405,-48.196032470330934L-116.30349364029398,-46.750351706788386z" style="fill:rgb(89,159,244)"/><path d="M-112.97558254532133,-38.737911470571234L-41.816417148413834,-64.83277701400577L-116.29182472594825,-44.257571144202316z" style="fill:rgb(127,37,217)"/><path d="M-116.2325394759887,-45.420718681643706L-41.95651490393871,-67.33729475671267L-116.30349364029398,-46.750351706788386z" style="fill:rgb(85,182,234)"/><path d="M-117.76239038621883,-52.67536527162903L-44.008067112071686,-74.76298769737312L-118.35191696420695,-54.02842766946477z" style="fill:rgb(114,65,238)"/><path d="M-116.29182472594825,-44.257571144202316L-41.8290084619939,-65.99778335704745L-116.2325394759887,-45.420718681643706z" style="fill:rgb(84,202,220)"/><path d="M-118.35191696420695,-54.02842766946477L-44.592360151463865,-75.99929879035794L-118.99165815119024,-55.22326321045404z" style="fill:rgb(123,46,225)"/><path d="M-115.71249502293917,-54.92256717551255L-42.19388735874217,-68.80051355177574L-41.90267776530601,-75.51114911046675zM-115.43835499627549,-54.14706484466748L-41.95651490393871,-67.33729475671267L-41.638557129532664,-74.71685744538166zM-116.56212198198997,-56.982357675056974L-42.95823418913346,-71.87496436712458L-42.70326072734005,-77.62778277074845zM-117.10228747601415,-58.21595423553638L-43.45646255150709,-73.37064798344396L-43.20829218735834,-78.8972394117327zM-117.71251556811579,-59.361210069519004L-44.008067112071686,-74.76298769737312L-43.76583706013674,-80.0820104330199zM-42.26142112743866,-76.50924392864262L-116.81963696508694,-49.70324130445407L-42.5320472801053,-70.33226789340871zM-118.34823133461731,-60.55431148991804L-44.592360151463865,-75.99929879035794L-44.346691719294355,-81.31632277463642zM-41.475966479780055,-74.22790193646001L-116.2325394759887,-45.420718681643706L-41.8290084619939,-65.99778335704745z" style="fill:rgb(83,212,212)"/><path d="M-41.816417148413834,-64.83277701400577L-112.97558254532133,-38.737911470571234L-38.82340014762224,-59.10249757795012z" style="fill:rgb(127,37,217)"/><path d="M-116.81963696508694,-49.70324130445407L-42.19388735874217,-68.80051355177574L-42.5320472801053,-70.33226789340871z" style="fill:rgb(93,135,250)"/><path d="M-117.24517938697244,-51.215301984313534L-42.5320472801053,-70.33226789340871L-42.95823418913346,-71.87496436712458z" style="fill:rgb(99,111,250)"/><path d="M-43.45646255150709,-73.37064798344396L-117.24517938697244,-51.215301984313534L-42.95823418913346,-71.87496436712458z" style="fill:rgb(106,87,246)"/><path d="M-116.50173528404405,-48.196032470330934L-41.95651490393871,-67.33729475671267L-42.19388735874217,-68.80051355177574z" style="fill:rgb(89,159,244)"/><path d="M-44.008067112071686,-74.76298769737312L-117.76239038621883,-52.67536527162903L-43.45646255150709,-73.37064798344396z" style="fill:rgb(114,65,238)"/><path d="M-41.95651490393871,-67.33729475671267L-116.2325394759887,-45.420718681643706L-41.8290084619939,-65.99778335704745z" style="fill:rgb(85,182,234)"/><path d="M-44.592360151463865,-75.99929879035794L-118.35191696420695,-54.02842766946477L-44.008067112071686,-74.76298769737312z" style="fill:rgb(123,46,225)"/><path d="M-39.111898745494884,-64.09670741942162L-38.82340014762224,-59.10249757795012L-38.8542534313547,-61.429353931847885zM-41.10367037143773,-73.10829536628115L-41.8290084619939,-65.99778335704745L-40.25807430735056,-70.04587030585859zM-42.19388735874217,-68.80051355177574L-41.638557129532664,-74.71685744538166L-41.90267776530601,-75.51114911046675zM-41.95651490393871,-67.33729475671267L-41.475966479780055,-74.22790193646001L-41.638557129532664,-74.71685744538166zM-42.09167505033188,-76.07952188180126L-42.5320472801053,-70.33226789340871L-41.90267776530601,-75.51114911046675zM-40.25807430735056,-70.04587030585859L-41.8290084619939,-65.99778335704745L-39.58585017440367,-67.00473953497855zM-41.8290084619939,-65.99778335704745L-41.10367037143773,-73.10829536628115L-41.475966479780055,-74.22790193646001zM-42.5320472801053,-70.33226789340871L-42.09167505033188,-76.07952188180126L-42.26142112743866,-76.50924392864262z" style="fill:rgb(247,158,158)"/><path d="M-41.8290084619939,-65.99778335704745L-116.29182472594825,-44.257571144202316L-41.816417148413834,-64.83277701400577z" style="fill:rgb(84,202,220)"/><path d="M-42.95823418913346,-71.87496436712458L-42.26142112743866,-76.50924392864262L-42.70326072734005,-77.62778277074845zM-39.58585017440367,-67.00473953497855L-41.8290084619939,-65.99778335704745L-39.111898745494884,-64.09670741942162zM-43.186030587879806,-78.84993063008102L-43.45646255150709,-73.37064798344396L-42.70326072734005,-77.62778277074845zM-43.45646255150709,-73.37064798344396L-43.186030587879806,-78.84993063008102L-43.20829218735834,-78.8972394117327zM-44.008067112071686,-74.76298769737312L-43.20829218735834,-78.8972394117327L-43.76583706013674,-80.0820104330199zM-39.111898745494884,-64.09670741942162L-41.816417148413834,-64.83277701400577L-38.82340014762224,-59.10249757795012zM-41.90267776530601,-75.51114911046675L-42.5320472801053,-70.33226789340871L-42.19388735874217,-68.80051355177574zM-42.26142112743866,-76.50924392864262L-42.95823418913346,-71.87496436712458L-42.5320472801053,-70.33226789340871zM-41.638557129532664,-74.71685744538166L-42.19388735874217,-68.80051355177574L-41.95651490393871,-67.33729475671267zM-44.592360151463865,-75.99929879035794L-43.76583706013674,-80.0820104330199L-44.346691719294355,-81.31632277463642zM-42.70326072734005,-77.62778277074845L-43.45646255150709,-73.37064798344396L-42.95823418913346,-71.87496436712458zM-41.475966479780055,-74.22790193646001L-41.95651490393871,-67.33729475671267L-41.8290084619939,-65.99778335704745zM-43.20829218735834,-78.8972394117327L-44.008067112071686,-74.76298769737312L-43.45646255150709,-73.37064798344396zM-39.111898745494884,-64.09670741942162L-41.8290084619939,-65.99778335704745L-41.816417148413834,-64.83277701400577zM-43.76583706013674,-80.0820104330199L-44.592360151463865,-75.99929879035794L-44.008067112071686,-74.76298769737312z" style="fill:rgb(247,158,158)"/><path d="M-65.46346206093511,-116.16838379330026L-118.99165815119024,-55.22326321045404L-44.592360151463865,-75.99929879035794z" style="fill:rgb(127,37,217)"/><path d="M-51.234649761822,-62.2308186115058L-51.01488582006088,-30.567494394994398L-49.39073119520344,-62.740232471088234zM-51.90914161618916,-62.04447662716618L-52.992476474195975,-28.645890637271144L-51.234649761822,-62.2308186115058zM-49.39073119520344,-62.740232471088234L-48.38668167680598,-31.781449657407368L-46.869147950852046,-63.436865534386975z" style="fill:rgb(83,212,212)"/><path d="M-44.346691719294355,-81.31632277463642L-65.46346206093511,-116.16838379330026L-44.592360151463865,-75.99929879035794z" style="fill:rgb(247,158,158)"/><path d="M-46.869147950852046,-63.436865534386975L-45.80448942465919,-31.96559477686698L-44.34437602203648,-64.13438328186126zM-45.80448942465919,-31.96559477686698L-42.49409515740742,-64.64555550979802L-44.34437602203648,-64.13438328186126z" style="fill:rgb(83,212,212)"/><path d="M-118.99165815119024,-55.22326321045404L-65.46346206093511,-116.16838379330026L-142.08384527114907,-93.88683505428506z" style="fill:rgb(127,37,217)"/><path d="M-43.955338975383974,-31.067662212955007L-41.816417148413834,-64.83277701400577L-42.49409515740742,-64.64555550979802z" style="fill:rgb(83,212,212)"/><path d="M-65.46346206093511,-116.16838379330026L-44.346691719294355,-81.31632277463642L-65.08992167867625,-121.44623246581938z" style="fill:rgb(247,158,158)"/><path d="M-48.38668167680598,-31.781449657407368L-49.39073119520344,-62.740232471088234L-51.01488582006088,-30.567494394994398zM-51.01488582006088,-30.567494394994398L-51.234649761822,-62.2308186115058L-52.992476474195975,-28.645890637271144zM-65.46346206093511,-116.16838379330026L-141.2886172191821,-99.18836858679235L-142.08384527114907,-93.88683505428506zM-45.80448942465919,-31.96559477686698L-46.869147950852046,-63.436865534386975L-48.38668167680598,-31.781449657407368zM-52.992476474195975,-28.645890637271144L-51.90914161618916,-62.04447662716618L-53.792313610019626,-26.52547336528479zM-42.49409515740742,-64.64555550979802L-45.80448942465919,-31.96559477686698L-43.955338975383974,-31.067662212955007zM-41.816417148413834,-64.83277701400577L-43.955338975383974,-31.067662212955007L-43.33741481495978,-29.32218620018586zM128.47132479021244,-117.8184293912894L47.45601352640125,-101.55971706683489L47.7667573291552,-95.40746179768634zM128.8581442458066,-116.23074206448571L47.79063953775535,-100.53028461924598L48.13026025804841,-93.8460859450892zM128.04469097254037,-119.4319484445644L47.05286959119371,-102.7169063987557L47.34015038274115,-96.98750593064025zM129.19058442341085,-114.7285360622886L48.04183230197629,-99.71296106930323L48.41696594065353,-92.3620297556548zM-141.2886172191821,-99.18836858679235L-65.46346206093511,-116.16838379330026L-65.08992167867625,-121.44623246581938zM127.59422204810836,-121.01074242990477L46.59279110251918,-104.03056094953263L46.866439321262746,-98.52688853845784zM129.45606505018145,-113.36842765270036L48.19646147153756,-99.20982045418958L48.61597296333114,-91.0112669039016zM127.13684171356313,-122.4954355018839L46.102461567853425,-105.26425825006682L46.363385839922834,-99.96765133591566z" style="fill:rgb(83,212,212)"/><path d="M128.47132479021244,-117.8184293912894L47.34015038274115,-96.98750593064025L47.7667573291552,-95.40746179768634z" style="fill:rgb(99,111,250)"/><path d="M128.8581442458066,-116.23074206448571L47.7667573291552,-95.40746179768634L48.13026025804841,-93.8460859450892z" style="fill:rgb(93,135,250)"/><path d="M126.68976131171597,-123.82989653505065L45.591612561519334,-106.5495732652684L45.84988496864457,-101.2553340958983z" style="fill:rgb(83,212,212)"/><path d="M47.34015038274115,-96.98750593064025L127.59422204810836,-121.01074242990477L46.866439321262746,-98.52688853845784z" style="fill:rgb(106,87,246)"/><path d="M129.19058442341085,-114.7285360622886L48.13026025804841,-93.8460859450892L48.41696594065353,-92.3620297556548z" style="fill:rgb(89,159,244)"/><path d="M-48.38668167680598,-31.781449657407368L-47.88068032997882,-24.84385484833938L-45.26606999601259,-26.050525836038553z" style="fill:rgb(158,48,222)"/><path d="M51.300446477689896,-83.85342062045483L129.6444274962022,-112.20200550251903L48.71958749223291,-89.84501728011043z" style="fill:rgb(127,37,217)"/><path d="M48.61597296333114,-91.0112669039016L129.19058442341085,-114.7285360622886L48.41696594065353,-92.3620297556548z" style="fill:rgb(85,182,234)"/><path d="M46.866439321262746,-98.52688853845784L127.13684171356313,-122.4954355018839L46.363385839922834,-99.96765133591566z" style="fill:rgb(114,65,238)"/><path d="M-47.88068032997882,-24.84385484833938L-52.992476474195975,-28.645890637271144L-49.84483576737833,-22.92729197549295z" style="fill:rgb(212,85,213)"/><path d="M-45.80448942465919,-31.96559477686698L-45.26606999601259,-26.050525836038553L-42.69407142667247,-26.22705730300441z" style="fill:rgb(96,32,206)"/><path d="M48.71958749223291,-89.84501728011043L129.45606505018145,-113.36842765270036L48.61597296333114,-91.0112669039016z" style="fill:rgb(84,202,220)"/><path d="M46.363385839922834,-99.96765133591566L126.68976131171597,-123.82989653505065L45.84988496864457,-101.2553340958983z" style="fill:rgb(123,46,225)"/><path d="M47.79063953775535,-100.53028461924598L128.8581442458066,-116.23074206448571L127.93108780973466,-122.88474266260224zM48.04183230197629,-99.71296106930323L129.19058442341085,-114.7285360622886L128.17003135498538,-122.04662573425645zM47.45601352640125,-101.55971706683489L128.47132479021244,-117.8184293912894L127.61919723568468,-123.94249264060949zM48.19646147153756,-99.20982045418958L129.45606505018145,-113.36842765270036L128.31711864166206,-121.530693878606z" style="fill:rgb(83,212,212)"/><path d="M-47.88068032997882,-24.84385484833938L-48.38668167680598,-31.781449657407368L-51.01488582006088,-30.567494394994398z" style="fill:rgb(158,48,222)"/><path d="M-40.849018209859324,-25.32322179162782L-45.80448942465919,-31.96559477686698L-42.69407142667247,-26.22705730300441z" style="fill:rgb(42,41,169)"/><path d="M-49.84483576737833,-22.92729197549295L-53.792313610019626,-26.52547336528479L-50.634966694050206,-20.808358089379745z" style="fill:rgb(243,133,180)"/><path d="M-52.992476474195975,-28.645890637271144L-47.88068032997882,-24.84385484833938L-51.01488582006088,-30.567494394994398z" style="fill:rgb(212,85,213)"/><path d="M47.05286959119371,-102.7169063987557L128.04469097254037,-119.4319484445644L127.25243626446078,-125.13471579038962z" style="fill:rgb(83,212,212)"/><path d="M-45.26606999601259,-26.050525836038553L-45.80448942465919,-31.96559477686698L-48.38668167680598,-31.781449657407368z" style="fill:rgb(96,32,206)"/><path d="M46.59279110251918,-104.03056094953263L127.59422204810836,-121.01074242990477L126.83460809952379,-126.48846698389806z" style="fill:rgb(83,212,212)"/><path d="M-53.792313610019626,-26.52547336528479L-49.84483576737833,-22.92729197549295L-52.992476474195975,-28.645890637271144z" style="fill:rgb(243,133,180)"/><path d="M-53.792313610019626,-26.52547336528479L-50.03455590647331,-19.05184865156187L-50.634966694050206,-20.808358089379745z" style="fill:rgb(243,180,133)"/><path d="M46.102461567853425,-105.26425825006682L127.13684171356313,-122.4954355018839L126.40730096202572,-127.76669247606608z" style="fill:rgb(83,212,212)"/><path d="M-45.80448942465919,-31.96559477686698L-40.849018209859324,-25.32322179162782L-43.955338975383974,-31.067662212955007z" style="fill:rgb(42,41,169)"/><path d="M45.591612561519334,-106.5495732652684L126.68976131171597,-123.82989653505065L125.96210092697024,-129.09846710768815z" style="fill:rgb(83,212,212)"/><path d="M129.6444274962022,-112.20200550251903L51.300446477689896,-83.85342062045483L131.83902806200325,-105.97191766631055z" style="fill:rgb(127,37,217)"/><path d="M-50.03455590647331,-19.05184865156187L-53.792313610019626,-26.52547336528479L-53.19526495216128,-24.77142985774547z" style="fill:rgb(243,180,133)"/><path d="M47.7667573291552,-95.40746179768634L128.8581442458066,-116.23074206448571L128.47132479021244,-117.8184293912894z" style="fill:rgb(93,135,250)"/><path d="M47.34015038274115,-96.98750593064025L128.47132479021244,-117.8184293912894L128.04469097254037,-119.4319484445644z" style="fill:rgb(99,111,250)"/><path d="M127.59422204810836,-121.01074242990477L47.34015038274115,-96.98750593064025L128.04469097254037,-119.4319484445644z" style="fill:rgb(106,87,246)"/><path d="M48.13026025804841,-93.8460859450892L129.19058442341085,-114.7285360622886L128.8581442458066,-116.23074206448571z" style="fill:rgb(89,159,244)"/><path d="M127.13684171356313,-122.4954355018839L46.866439321262746,-98.52688853845784L127.59422204810836,-121.01074242990477z" style="fill:rgb(114,65,238)"/><path d="M129.19058442341085,-114.7285360622886L48.61597296333114,-91.0112669039016L129.45606505018145,-113.36842765270036z" style="fill:rgb(85,182,234)"/><path d="M126.68976131171597,-123.82989653505065L46.363385839922834,-99.96765133591566L127.13684171356313,-122.4954355018839z" style="fill:rgb(123,46,225)"/><path d="M130.9300107344492,-111.01099013449273L131.83902806200325,-105.97191766631055L131.4602479768047,-108.30247451094135zM128.65392234343628,-120.34935600520348L129.45606505018145,-113.36842765270036L129.5003825427904,-117.14744044396069zM128.8581442458066,-116.23074206448571L128.17003135498538,-122.04662573425645L127.93108780973466,-122.88474266260224zM129.19058442341085,-114.7285360622886L128.31711864166206,-121.530693878606L128.17003135498538,-122.04662573425645zM127.76010331177298,-123.48448969660332L128.47132479021244,-117.8184293912894L127.93108780973466,-122.88474266260224zM129.5003825427904,-117.14744044396069L129.45606505018145,-113.36842765270036L130.26850239231212,-113.99608518089276zM129.45606505018145,-113.36842765270036L128.65392234343628,-120.34935600520348L128.31711864166206,-121.530693878606zM128.47132479021244,-117.8184293912894L127.76010331177298,-123.48448969660332L127.61919723568468,-123.94249264060949z" style="fill:rgb(247,158,158)"/><path d="M129.45606505018145,-113.36842765270036L48.71958749223291,-89.84501728011043L129.6444274962022,-112.20200550251903z" style="fill:rgb(84,202,220)"/><path d="M128.04469097254037,-119.4319484445644L127.61919723568468,-123.94249264060949L127.25243626446078,-125.13471579038962zM130.26850239231212,-113.99608518089276L129.45606505018145,-113.36842765270036L130.9300107344492,-111.01099013449273zM126.85167421757349,-126.43743392237569L127.59422204810836,-121.01074242990477L127.25243626446078,-125.13471579038962zM127.59422204810836,-121.01074242990477L126.85167421757349,-126.43743392237569L126.83460809952379,-126.48846698389806zM127.13684171356313,-122.4954355018839L126.83460809952379,-126.48846698389806L126.40730096202572,-127.76669247606608zM130.9300107344492,-111.01099013449273L129.6444274962022,-112.20200550251903L131.83902806200325,-105.97191766631055zM127.93108780973466,-122.88474266260224L128.47132479021244,-117.8184293912894L128.8581442458066,-116.23074206448571zM127.61919723568468,-123.94249264060949L128.04469097254037,-119.4319484445644L128.47132479021244,-117.8184293912894zM128.17003135498538,-122.04662573425645L128.8581442458066,-116.23074206448571L129.19058442341085,-114.7285360622886zM126.68976131171597,-123.82989653505065L126.40730096202572,-127.76669247606608L125.96210092697024,-129.09846710768815zM127.25243626446078,-125.13471579038962L127.59422204810836,-121.01074242990477L128.04469097254037,-119.4319484445644zM128.31711864166206,-121.530693878606L129.19058442341085,-114.7285360622886L129.45606505018145,-113.36842765270036zM126.83460809952379,-126.48846698389806L127.13684171356313,-122.4954355018839L127.59422204810836,-121.01074242990477zM130.9300107344492,-111.01099013449273L129.45606505018145,-113.36842765270036L129.6444274962022,-112.20200550251903zM126.40730096202572,-127.76669247606608L126.68976131171597,-123.82989653505065L127.13684171356313,-122.4954355018839z" style="fill:rgb(247,158,158)"/><path d="M111.32187065556218,-167.5783650247162L45.84988496864457,-101.2553340958983L126.68976131171597,-123.82989653505065z" style="fill:rgb(127,37,217)"/><path d="M125.96210092697024,-129.09846710768815L111.32187065556218,-167.5783650247162L126.68976131171597,-123.82989653505065z" style="fill:rgb(247,158,158)"/><path d="M45.84988496864457,-101.2553340958983L111.32187065556218,-167.5783650247162L27.81681398956124,-143.29472068183188z" style="fill:rgb(127,37,217)"/><path d="M62.70206563489363,-93.70794410935959L70.87072821724055,-3.1803956602850296L64.65267343927998,-94.24682812906143zM61.98855770273161,-93.51081785702515L68.83407173922802,-1.05522524081046L62.70206563489363,-93.70794410935959zM64.65267343927998,-94.24682812906143L73.75835881336398,-4.5013006324776486L67.3202517963289,-94.98379354044857zM73.75835881336398,-4.5013006324776486L69.9912949025158,-95.72172759873628L67.3202517963289,-94.98379354044857zM69.9912949025158,-95.72172759873628L79.00251908874974,-3.6313271277938415L71.94883074147754,-96.26252560244647zM27.81681398956124,-143.29472068183188L110.65861770513634,-172.78289037408592L27.65439120391096,-148.53711093697478zM71.94883074147754,-96.26252560244647L79.95795930842391,-1.6625018588165585L72.66580276759551,-96.46060889021037z" style="fill:rgb(83,212,212)"/><path d="M111.32187065556218,-167.5783650247162L125.96210092697024,-129.09846710768815L110.65861770513634,-172.78289037408592z" style="fill:rgb(247,158,158)"/><path d="M-116.29182472594825,-44.257571144202316L-63.63392364728798,159.09977725746512L-51.90914161618916,-62.04447662716618zM-41.816417148413834,-64.83277701400577L-49.38851121555901,111.95217819205075L61.98855770273161,-93.51081785702515zM110.65861770513634,-172.78289037408592L27.81681398956124,-143.29472068183188L111.32187065556218,-167.5783650247162zM-61.28085458517495,114.71790845079894L-53.19526495216128,-24.77142985774547L-53.792313610019626,-26.52547336528479zM-53.19526495216128,-24.77142985774547L-58.09536624701664,109.68908519124967L-51.353654458689775,-23.856857438915696zM-51.353654458689775,-23.856857438915696L-55.103465173124064,108.32913059026536L-48.7581394525883,-24.032921676062355zM-55.103465173124064,108.32913059026536L-46.109057285777304,-25.25544211545119L-48.7581394525883,-24.032921676062355zM-52.17124858427821,108.30498551435812L-44.123926316443345,-27.193690994997365L-46.109057285777304,-25.25544211545119zM-44.123926316443345,-27.193690994997365L-49.38851121555901,111.95217819205075L-43.33741481495978,-29.32218620018586zM73.75835881336398,-4.5013006324776486L64.65267343927998,-94.24682812906143L70.87072821724055,-3.1803956602850296zM70.87072821724055,-3.1803956602850296L62.70206563489363,-93.70794410935959L68.83407173922802,-1.05522524081046zM69.9912949025158,-95.72172759873628L73.75835881336398,-4.5013006324776486L76.73238123246416,-4.667692397664419zM68.83407173922802,-1.05522524081046L61.98855770273161,-93.51081785702515L68.19149382832053,1.3121431545425937zM79.00251908874974,-3.6313271277938415L69.9912949025158,-95.72172759873628L76.73238123246416,-4.667692397664419zM79.95795930842391,-1.6625018588165585L71.94883074147754,-96.26252560244647L79.00251908874974,-3.6313271277938415zM61.98855770273161,-93.51081785702515L-49.38851121555901,111.95217819205075L68.19149382832053,1.3121431545425937z" style="fill:rgb(83,212,212)"/><path d="M73.75835881336398,-4.5013006324776486L73.58028456634158,2.904711914836433L76.45150174398681,1.5924325195405737z" style="fill:rgb(158,48,222)"/><path d="M73.58028456634158,2.904711914836433L68.83407173922802,-1.05522524081046L71.5581970972019,5.023555112623427z" style="fill:rgb(212,85,213)"/><path d="M76.73238123246416,-4.667692397664419L76.45150174398681,1.5924325195405737L79.41157626819364,1.4347026510671428z" style="fill:rgb(96,32,206)"/><path d="M73.58028456634158,2.904711914836433L73.75835881336398,-4.5013006324776486L70.87072821724055,-3.1803956602850296z" style="fill:rgb(158,48,222)"/><path d="M81.67390355845751,2.4774424642405926L76.73238123246416,-4.667692397664419L79.41157626819364,1.4347026510671428z" style="fill:rgb(42,41,169)"/><path d="M71.5581970972019,5.023555112623427L68.19149382832053,1.3121431545425937L70.92450124153108,7.388538743867802z" style="fill:rgb(243,133,180)"/><path d="M68.83407173922802,-1.05522524081046L73.58028456634158,2.904711914836433L70.87072821724055,-3.1803956602850296z" style="fill:rgb(212,85,213)"/><path d="M76.45150174398681,1.5924325195405737L76.73238123246416,-4.667692397664419L73.75835881336398,-4.5013006324776486z" style="fill:rgb(96,32,206)"/><path d="M72.66580276759551,-96.46060889021037L177.80780452603454,105.6064840591116L143.44387410074276,-116.01435965305896z" style="fill:rgb(83,212,212)"/><path d="M68.19149382832053,1.3121431545425937L71.5581970972019,5.023555112623427L68.83407173922802,-1.05522524081046z" style="fill:rgb(243,133,180)"/><path d="M82.62980774280162,4.448593980729119L79.00251908874974,-3.6313271277938415L81.67390355845751,2.4774424642405926z" style="fill:rgb(11,74,121)"/><path d="M76.73238123246416,-4.667692397664419L81.67390355845751,2.4774424642405926L79.00251908874974,-3.6313271277938415z" style="fill:rgb(42,41,169)"/><path d="M177.80780452603454,105.6064840591116L145.57092619534103,-109.74314284022543L143.44387410074276,-116.01435965305896z" style="fill:rgb(247,158,158)"/><path d="M-58.09536624701664,109.68908519124967L-53.19526495216128,-24.77142985774547L-60.355123163512154,112.02435798053047zM-55.103465173124064,108.32913059026536L-51.353654458689775,-23.856857438915696L-58.09536624701664,109.68908519124967z" style="fill:rgb(83,212,212)"/><path d="M79.00251908874974,-3.6313271277938415L82.62980774280162,4.448593980729119L79.95795930842391,-1.6625018588165585z" style="fill:rgb(11,74,121)"/><path d="M-53.19526495216128,-24.77142985774547L-61.28085458517495,114.71790845079894L-60.355123163512154,112.02435798053047zM-46.109057285777304,-25.25544211545119L-55.103465173124064,108.32913059026536L-52.17124858427821,108.30498551435812zM-44.123926316443345,-27.193690994997365L-52.17124858427821,108.30498551435812L-50.07813241806813,109.62791105437678zM-49.38851121555901,111.95217819205075L-44.123926316443345,-27.193690994997365L-50.07813241806813,109.62791105437678zM-63.63392364728798,159.09977725746512L-116.29182472594825,-44.257571144202316L-142.0417033410859,176.47162957693132z" style="fill:rgb(83,212,212)"/><path d="M-55.103465173124064,108.32913059026536L-54.48578414818418,115.3502115362289L-51.51148655804143,113.99942353968711z" style="fill:rgb(158,48,222)"/><path d="M-54.48578414818418,115.3502115362289L-60.355123163512154,112.02435798053047L-56.72804051451849,117.67716679353893z" style="fill:rgb(212,85,213)"/><path d="M-52.17124858427821,108.30498551435812L-51.51148655804143,113.99942353968711L-48.59238098724876,113.98289062537333z" style="fill:rgb(96,32,206)"/><path d="M-54.48578414818418,115.3502115362289L-55.103465173124064,108.32913059026536L-58.09536624701664,109.68908519124967z" style="fill:rgb(158,48,222)"/><path d="M-46.50442126825606,115.30981630399366L-52.17124858427821,108.30498551435812L-48.59238098724876,113.98289062537333z" style="fill:rgb(42,41,169)"/><path d="M-56.72804051451849,117.67716679353893L-61.28085458517495,114.71790845079894L-57.641014086862626,120.36540550697862z" style="fill:rgb(243,133,180)"/><path d="M-60.355123163512154,112.02435798053047L-54.48578414818418,115.3502115362289L-58.09536624701664,109.68908519124967z" style="fill:rgb(212,85,213)"/><path d="M-51.51148655804143,113.99942353968711L-52.17124858427821,108.30498551435812L-55.103465173124064,108.32913059026536z" style="fill:rgb(96,32,206)"/><path d="M-61.28085458517495,114.71790845079894L-56.72804051451849,117.67716679353893L-60.355123163512154,112.02435798053047z" style="fill:rgb(243,133,180)"/><path d="M-61.28085458517495,114.71790845079894L-56.973905340529065,122.69948563659554L-57.641014086862626,120.36540550697862z" style="fill:rgb(243,180,133)"/><path d="M-52.17124858427821,108.30498551435812L-46.50442126825606,115.30981630399366L-50.07813241806813,109.62791105437678z" style="fill:rgb(42,41,169)"/><path d="M68.19149382832053,1.3121431545425937L77.36603817673515,127.86013052323314L69.12172379226905,3.291107690362993z" style="fill:rgb(83,212,212)"/><path d="M-56.973905340529065,122.69948563659554L-61.28085458517495,114.71790845079894L-60.61831565980181,117.05289056768243z" style="fill:rgb(243,180,133)"/><path d="M69.12172379226905,3.291107690362993L79.78168653297725,127.32493221249075L71.38475280344171,4.34774454538914zM79.78168653297725,127.32493221249075L74.37687707767289,4.191484387045L71.38475280344171,4.34774454538914zM79.3334833736757,0.7149981734629889L89.71084128841304,125.12504516785505L79.95795930842391,-1.6625018588165585zM86.3958225278871,125.85951241570376L79.3334833736757,0.7149981734629889L77.28971838806511,2.860439837909811zM74.37687707767289,4.191484387045L86.3958225278871,125.85951241570376L77.28971838806511,2.860439837909811zM-49.38851121555901,111.95217819205075L76.48255805246053,128.05587884300905L68.19149382832053,1.3121431545425937zM-61.28085458517495,114.71790845079894L-62.80947865474036,158.9171079662722L-60.61831565980181,117.05289056768243zM-60.61831565980181,117.05289056768243L-60.555299310765655,158.41767371362715L-58.535103041769716,118.39979104152006zM-50.29707534121441,114.65900007724585L-51.290813733043294,156.36506060049737L-49.38851121555901,111.95217819205075zM-58.535103041769716,118.39979104152006L-57.471918303850146,157.73452757610917L-55.585722462283954,118.38890556943689zM-57.471918303850146,157.73452757610917L-52.56673540994344,117.01823554078494L-55.585722462283954,118.38890556943689zM-52.56673540994344,117.01823554078494L-52.12003601128981,156.5487876516964L-50.29707534121441,114.65900007724585zM177.80780452603454,105.6064840591116L72.66580276759551,-96.46060889021037L89.71084128841304,125.12504516785505zM-62.80947865474036,158.9171079662722L-61.28085458517495,114.71790845079894L-63.63392364728798,159.09977725746512z" style="fill:rgb(83,212,212)"/><path d="M145.57092619534103,-109.74314284022543L177.80780452603454,105.6064840591116L180.21052963479278,111.8836026944764z" style="fill:rgb(247,158,158)"/><path d="M-60.555299310765655,158.41767371362715L-60.61831565980181,117.05289056768243L-62.80947865474036,158.9171079662722zM-57.471918303850146,157.73452757610917L-58.535103041769716,118.39979104152006L-60.555299310765655,158.41767371362715zM-52.56673540994344,117.01823554078494L-57.471918303850146,157.73452757610917L-54.38375719418449,157.0503246646006zM-51.290813733043294,156.36506060049737L-50.29707534121441,114.65900007724585L-52.12003601128981,156.5487876516964zM-52.12003601128981,156.5487876516964L-52.56673540994344,117.01823554078494L-54.38375719418449,157.0503246646006z" style="fill:rgb(83,212,212)"/><path d="M-35.87213208582524,154.4049640100783L-127.20394818996807,173.18420653914134L-127.44960678711249,174.66141158539787z" style="fill:rgb(84,220,202)"/><path d="M-36.127487075991745,155.61540891497074L-127.44960678711249,174.66141158539787L-127.84676308705394,175.87684276939387z" style="fill:rgb(85,234,182)"/><path d="M-128.38103049595912,176.78296909749557L-36.127487075991745,155.61540891497074L-127.84676308705394,175.87684276939387z" style="fill:rgb(89,244,159)"/><path d="M-129.0326781302008,177.34354938356833L-36.51094746333767,156.5067119115574L-128.38103049595912,176.78296909749557z" style="fill:rgb(93,250,135)"/><path d="M-129.03805640495634,187.21694580037652L-36.127487075991745,155.61540891497074L-127.84676308705394,175.87684276939387zM77.36603817673515,127.86013052323314L68.19149382832053,1.3121431545425937L76.48255805246053,128.05587884300905zM79.78168653297725,127.32493221249075L69.12172379226905,3.291107690362993L77.36603817673515,127.86013052323314z" style="fill:rgb(83,212,212)"/><path d="M-129.777263674321,177.53516371140012L-37.00852113031269,157.0430657031184L-129.0326781302008,177.34354938356833z" style="fill:rgb(99,250,111)"/><path d="M-129.47128005955014,187.1257321662449L-36.51094746333767,156.5067119115574L-128.38103049595912,176.78296909749557z" style="fill:rgb(83,212,212)"/><path d="M-127.20394818996807,173.18420653914134L-35.87213208582524,154.4049640100783L-35.75392819413122,152.92273899663616z" style="fill:rgb(84,220,202)"/><path d="M-36.25303148327919,167.0993098004039L-127.44960678711249,174.66141158539787L-128.77167777786158,187.27302974405717zM74.37687707767289,4.191484387045L79.78168653297725,127.32493221249075L83.08610561475093,126.59281486691951zM86.3958225278871,125.85951241570376L74.37687707767289,4.191484387045L83.08610561475093,126.59281486691951zM79.3334833736757,0.7149981734629889L86.3958225278871,125.85951241570376L88.82206432333416,125.32196706275862z" style="fill:rgb(83,212,212)"/><path d="M-127.44960678711249,174.66141158539787L-36.127487075991745,155.61540891497074L-35.87213208582524,154.4049640100783z" style="fill:rgb(85,234,182)"/><path d="M89.71084128841304,125.12504516785505L79.3334833736757,0.7149981734629889L88.82206432333416,125.32196706275862zM76.48255805246053,128.05587884300905L-49.38851121555901,111.95217819205075L-51.290813733043294,156.36506060049737zM-37.3053693398135,166.65359781287896L-129.0326781302008,177.34354938356833L-130.04371781114915,186.8908400005677z" style="fill:rgb(83,212,212)"/><path d="M-36.127487075991745,155.61540891497074L-128.38103049595912,176.78296909749557L-36.51094746333767,156.5067119115574z" style="fill:rgb(89,244,159)"/><path d="M-35.75392819413122,152.92273899663616L-32.33621345026659,161.54933744865738L-32.11152832891297,158.58313532942802z" style="fill:rgb(247,158,158)"/><path d="M-127.44960678711249,174.66141158539787L-36.25303148327919,167.0993098004039L-35.87213208582524,154.4049640100783z" style="fill:rgb(83,212,212)"/><path d="M-128.16261138169293,187.40125655378978L-37.08359498268726,166.83729859175142L-129.7816759034222,187.06038713692624z" style="fill:rgb(148,8,167)"/><path d="M-37.883257929540115,166.1749072114444L-129.777263674321,177.53516371140012L-130.72652654765352,186.44905288267242z" style="fill:rgb(83,212,212)"/><path d="M-137.83601224351867,181.836895943194L177.80780452603454,105.6064840591116L-142.0417033410859,176.47162957693132z" style="fill:rgb(127,37,217)"/><path d="M-36.51094746333767,156.5067119115574L-129.0326781302008,177.34354938356833L-37.00852113031269,157.0430657031184z" style="fill:rgb(93,250,135)"/><path d="M-32.33621345026659,161.54933744865738L-35.75392819413122,152.92273899663616L-32.83360260099456,163.98572202401803z" style="fill:rgb(247,158,158)"/><path d="M-38.543998370634846,165.61439002445445L-130.58648434786352,177.34843626016672L-131.50628738390364,185.9308616535276z" style="fill:rgb(83,212,212)"/><path d="M-37.00852113031269,157.0430657031184L-129.777263674321,177.53516371140012L-37.6016972778587,157.20192469061624z" style="fill:rgb(99,250,111)"/><path d="M-129.7816759034222,187.06038713692624L-38.515698758532025,165.65104253904343L-131.4737313464743,185.96559179870508z" style="fill:rgb(140,16,189)"/><path d="M-39.25312666490521,164.6959704564775L-131.42923259705495,176.78872068988534L-132.32189201947318,185.06065449657999z" style="fill:rgb(83,212,212)"/><path d="M-32.83360260099456,163.98572202401803L-35.75392819413122,152.92273899663616L-33.587625469056654,165.79532751288826zM-33.587625469056654,165.79532751288826L-35.75392819413122,152.92273899663616L-35.87213208582524,154.4049640100783z" style="fill:rgb(247,158,158)"/><path d="M-36.127487075991745,155.61540891497074L-129.03805640495634,187.21694580037652L-36.47208215211329,167.03020758988484zM-129.0326781302008,177.34354938356833L-37.3053693398135,166.65359781287896L-37.00852113031269,157.0430657031184zM-39.992634229759105,163.7382179640393L-132.27276303990502,175.87609221995783L-133.17238900436746,184.15322448776521zM-36.51094746333767,156.5067119115574L-129.47128005955014,187.1257321662449L-36.82834257896824,166.91783096471963zM-129.777263674321,177.53516371140012L-37.883257929540115,166.1749072114444L-37.6016972778587,157.20192469061624z" style="fill:rgb(83,212,212)"/><path d="M-131.4737313464743,185.96559179870508L-39.992634229759105,163.7382179640393L-133.17238900436746,184.15322448776521z" style="fill:rgb(131,29,208)"/><path d="M-37.08359498268726,166.83729859175142L-128.16261138169293,187.40125655378978L-35.75220423555924,167.2572951512221z" style="fill:rgb(148,8,167)"/><path d="M-130.58648434786352,177.34843626016672L-38.543998370634846,165.61439002445445L-38.26805189237802,156.9750828203872z" style="fill:rgb(83,212,212)"/><path d="M-36.127487075991745,155.61540891497074L-36.25303148327919,167.0993098004039L-35.87213208582524,154.4049640100783zM-33.587625469056654,165.79532751288826L-35.87213208582524,154.4049640100783L-36.25303148327919,167.0993098004039z" style="fill:rgb(247,158,158)"/><path d="M-131.42923259705495,176.78872068988534L-39.25312666490521,164.6959704564775L-38.982067421814065,156.36933654601688z" style="fill:rgb(83,212,212)"/><path d="M-36.51094746333767,156.5067119115574L-36.47208215211329,167.03020758988484L-36.127487075991745,155.61540891497074zM-33.587625469056654,165.79532751288826L-36.25303148327919,167.0993098004039L-34.572283264252796,166.90263694200178z" style="fill:rgb(247,158,158)"/><path d="M-38.515698758532025,165.65104253904343L-129.7816759034222,187.06038713692624L-37.08359498268726,166.83729859175142z" style="fill:rgb(140,16,189)"/><path d="M-132.27276303990502,175.87609221995783L-39.992634229759105,163.7382179640393L-39.7160816559638,155.40654700275067z" style="fill:rgb(83,212,212)"/><path d="M-37.00852113031269,157.0430657031184L-36.82834257896824,166.91783096471963L-36.51094746333767,156.5067119115574zM-36.25303148327919,167.0993098004039L-36.127487075991745,155.61540891497074L-36.47208215211329,167.03020758988484zM-34.572283264252796,166.90263694200178L-36.25303148327919,167.0993098004039L-35.75220423555924,167.2572951512221zM-37.6016972778587,157.20192469061624L-37.3053693398135,166.65359781287896L-37.00852113031269,157.0430657031184zM-36.47208215211329,167.03020758988484L-36.51094746333767,156.5067119115574L-36.82834257896824,166.91783096471963z" style="fill:rgb(247,158,158)"/><path d="M-39.992634229759105,163.7382179640393L-131.4737313464743,185.96559179870508L-38.515698758532025,165.65104253904343z" style="fill:rgb(131,29,208)"/><path d="M-38.26805189237802,156.9750828203872L-37.883257929540115,166.1749072114444L-37.6016972778587,157.20192469061624zM-36.82834257896824,166.91783096471963L-37.00852113031269,157.0430657031184L-37.3053693398135,166.65359781287896zM-37.3053693398135,166.65359781287896L-37.6016972778587,157.20192469061624L-37.883257929540115,166.1749072114444zM-38.982067421814065,156.36933654601688L-38.543998370634846,165.61439002445445L-38.26805189237802,156.9750828203872zM-36.82834257896824,166.91783096471963L-37.3053693398135,166.65359781287896L-37.08359498268726,166.83729859175142zM-37.883257929540115,166.1749072114444L-38.26805189237802,156.9750828203872L-38.543998370634846,165.61439002445445zM-39.7160816559638,155.40654700275067L-39.25312666490521,164.6959704564775L-38.982067421814065,156.36933654601688zM-38.543998370634846,165.61439002445445L-38.982067421814065,156.36933654601688L-39.25312666490521,164.6959704564775zM-37.883257929540115,166.1749072114444L-38.543998370634846,165.61439002445445L-38.515698758532025,165.65104253904343zM-39.25312666490521,164.6959704564775L-39.7160816559638,155.40654700275067L-39.992634229759105,163.7382179640393z" style="fill:rgb(247,158,158)"/><path d="M177.80780452603454,105.6064840591116L-137.83601224351867,181.836895943194L180.21052963479278,111.8836026944764zM-66.2617172166793,123.70886861477972L-133.17238900436746,184.15322448776521L-39.992634229759105,163.7382179640393z" style="fill:rgb(127,37,217)"/><path d="M-39.7160816559638,155.40654700275067L-66.2617172166793,123.70886861477972L-39.992634229759105,163.7382179640393z" style="fill:rgb(247,158,158)"/><path d="M-133.17238900436746,184.15322448776521L-66.2617172166793,123.70886861477972L-162.94931526975333,146.00462027010397z" style="fill:rgb(127,37,217)"/><path d="M178.0109443999179,107.09514933676967L76.48255805246053,128.05587884300905L76.52909368201239,129.54239736821657z" style="fill:rgb(84,220,202)"/><path d="M178.11370581584399,108.28803409693623L76.52909368201239,129.54239736821657L76.45723918133189,130.74466155513105z" style="fill:rgb(85,234,182)"/><path d="M76.26912343889082,131.61548367626995L178.11370581584399,108.28803409693623L76.45723918133189,130.74466155513105z" style="fill:rgb(89,244,159)"/><path d="M75.9713142142087,132.11978144428474L178.1116618413125,109.1382433686236L76.26912343889082,131.61548367626995z" style="fill:rgb(93,250,135)"/><path d="M77.20718582538933,142.23910607834395L178.11370581584399,108.28803409693623L76.45723918133189,130.74466155513105z" style="fill:rgb(83,212,212)"/><path d="M75.5746418480687,132.23608074690785L178.00430529469307,109.61136043853402L75.9713142142087,132.11978144428474z" style="fill:rgb(99,250,111)"/><path d="M76.48255805246053,128.05587884300905L178.0109443999179,107.09514933676967L177.80780452603454,105.6064840591116z" style="fill:rgb(84,220,202)"/><path d="M180.00303758213542,119.94461886858213L76.52909368201239,129.54239736821657L77.36472117606453,142.32493400896945z" style="fill:rgb(83,212,212)"/><path d="M-66.2617172166793,123.70886861477972L-39.7160816559638,155.40654700275067L-65.78276792924613,115.28934073774835z" style="fill:rgb(247,158,158)"/><path d="M76.52909368201239,129.54239736821657L178.11370581584399,108.28803409693623L178.0109443999179,107.09514933676967z" style="fill:rgb(85,234,182)"/><path d="M-66.2617172166793,123.70886861477972L-161.79990171793892,137.6308917335914L-162.94931526975333,146.00462027010397zM179.74364340537804,119.67767719884954L76.26912343889082,131.61548367626995L76.95095630496701,142.09950799388557zM179.5093031412082,119.3405884131854L75.9713142142087,132.11978144428474L76.59799860799346,141.79776318931908z" style="fill:rgb(83,212,212)"/><path d="M178.11370581584399,108.28803409693623L76.26912343889082,131.61548367626995L178.1116618413125,109.1382433686236z" style="fill:rgb(89,244,159)"/><path d="M76.52909368201239,129.54239736821657L180.00303758213542,119.94461886858213L178.0109443999179,107.09514933676967z" style="fill:rgb(83,212,212)"/><path d="M77.72489431694464,142.5211494513324L179.62853968071627,119.55921134505934L76.76736579943795,141.99949077349598z" style="fill:rgb(148,8,167)"/><path d="M179.19859882747824,118.77084439921967L75.5746418480687,132.23608074690785L76.15664221518162,141.2720712788268z" style="fill:rgb(83,212,212)"/><path d="M178.0109443999179,107.09514933676967L180.21052963479278,111.8836026944764L177.80780452603454,105.6064840591116z" style="fill:rgb(247,158,158)"/><path d="M178.1116618413125,109.1382433686236L75.9713142142087,132.11978144428474L178.00430529469307,109.61136043853402z" style="fill:rgb(93,250,135)"/><path d="M75.08050124306861,139.67826248539998L177.10533960095574,108.64076967825154L74.54735188692835,131.29339474098396zM178.84104211083292,118.10589248966073L75.09391117846933,131.95770618279641L75.65083341213064,140.6576288180069zM-161.79990171793892,137.6308917335914L-66.2617172166793,123.70886861477972L-65.78276792924613,115.28934073774835zM76.26912343889082,131.61548367626995L179.74364340537804,119.67767719884954L178.1116618413125,109.1382433686236z" style="fill:rgb(83,212,212)"/><path d="M178.00430529469307,109.61136043853402L75.5746418480687,132.23608074690785L177.79517610284265,109.68700485098604z" style="fill:rgb(99,250,111)"/><path d="M180.21052963479278,111.8836026944764L180.00303758213542,119.94461886858213L180.622014668946,114.86461344972174z" style="fill:rgb(247,158,158)"/><path d="M76.76736579943795,141.99949077349598L178.85849829032193,118.14723751156197L75.67359333385411,140.6967124619649z" style="fill:rgb(140,16,189)"/><path d="M178.11370581584399,108.28803409693623L77.20718582538933,142.23910607834395L179.90428004978256,119.84298147661555zM75.9713142142087,132.11978144428474L179.5093031412082,119.3405884131854L178.00430529469307,109.61136043853402z" style="fill:rgb(83,212,212)"/><path d="M180.21052963479278,111.8836026944764L178.0109443999179,107.09514933676967L180.00303758213542,119.94461886858213z" style="fill:rgb(247,158,158)"/><path d="M177.9475996808541,115.98910789053937L73.95600245605267,130.26716775622089L74.4856897179095,138.65686005574383z" style="fill:rgb(83,212,212)"/><path d="M180.622014668946,114.86461344972174L180.00303758213542,119.94461886858213L180.83586821499244,117.26897944185289z" style="fill:rgb(247,158,158)"/><path d="M75.5746418480687,132.23608074690785L179.19859882747824,118.77084439921967L177.79517610284265,109.68700485098604z" style="fill:rgb(83,212,212)"/><path d="M75.67359333385411,140.6967124619649L177.9475996808541,115.98910789053937L74.4856897179095,138.65686005574383z" style="fill:rgb(131,29,208)"/><path d="M179.62853968071627,119.55921134505934L77.72489431694464,142.5211494513324L180.22881372547408,120.17696684267067z" style="fill:rgb(148,8,167)"/><path d="M75.09391117846933,131.95770618279641L178.84104211083292,118.10589248966073L177.49175021278413,109.35997135542135z" style="fill:rgb(83,212,212)"/><path d="M180.83586821499244,117.26897944185289L180.00303758213542,119.94461886858213L180.84198444948933,119.00027492665927zM178.11370581584399,108.28803409693623L180.00303758213542,119.94461886858213L178.0109443999179,107.09514933676967zM178.1116618413125,109.1382433686236L179.90428004978256,119.84298147661555L178.11370581584399,108.28803409693623zM180.84198444948933,119.00027492665927L180.22881372547408,120.17696684267067L180.6378267166587,119.98512667004019z" style="fill:rgb(247,158,158)"/><path d="M178.85849829032193,118.14723751156197L76.76736579943795,141.99949077349598L179.62853968071627,119.55921134505934z" style="fill:rgb(140,16,189)"/><path d="M73.95600245605267,130.26716775622089L177.9475996808541,115.98910789053937L176.6506267722212,107.55553715555551z" style="fill:rgb(83,212,212)"/><path d="M178.00430529469307,109.61136043853402L179.74364340537804,119.67767719884954L178.1116618413125,109.1382433686236zM180.84198444948933,119.00027492665927L180.00303758213542,119.94461886858213L180.22881372547408,120.17696684267067z" style="fill:rgb(247,158,158)"/><path d="M177.10533960095574,108.64076967825154L75.08050124306861,139.67826248539998L178.40371827236783,117.06976779405736z" style="fill:rgb(83,212,212)"/><path d="M180.00303758213542,119.94461886858213L178.11370581584399,108.28803409693623L179.90428004978256,119.84298147661555zM179.90428004978256,119.84298147661555L178.1116618413125,109.1382433686236L179.74364340537804,119.67767719884954zM179.19859882747824,118.77084439921967L178.00430529469307,109.61136043853402L177.79517610284265,109.68700485098604z" style="fill:rgb(247,158,158)"/><path d="M177.9475996808541,115.98910789053937L75.67359333385411,140.6967124619649L178.85849829032193,118.14723751156197z" style="fill:rgb(131,29,208)"/><path d="M179.74364340537804,119.67767719884954L178.00430529469307,109.61136043853402L179.5093031412082,119.3405884131854zM178.84104211083292,118.10589248966073L177.79517610284265,109.68700485098604L177.49175021278413,109.35997135542135zM178.00430529469307,109.61136043853402L179.19859882747824,118.77084439921967L179.5093031412082,119.3405884131854zM178.40371827236783,117.06976779405736L177.49175021278413,109.35997135542135L177.10533960095574,108.64076967825154zM177.79517610284265,109.68700485098604L178.84104211083292,118.10589248966073L179.19859882747824,118.77084439921967zM179.74364340537804,119.67767719884954L179.5093031412082,119.3405884131854L179.62853968071627,119.55921134505934zM177.9475996808541,115.98910789053937L177.10533960095574,108.64076967825154L176.6506267722212,107.55553715555551zM177.49175021278413,109.35997135542135L178.40371827236783,117.06976779405736L178.84104211083292,118.10589248966073zM179.19859882747824,118.77084439921967L178.84104211083292,118.10589248966073L178.85849829032193,118.14723751156197zM177.10533960095574,108.64076967825154L177.9475996808541,115.98910789053937L178.40371827236783,117.06976779405736z" style="fill:rgb(247,158,158)"/><path d="M160.68590610578065,71.37571803681713L74.4856897179095,138.65686005574383L177.9475996808541,115.98910789053937z" style="fill:rgb(127,37,217)"/><path d="M176.6506267722212,107.55553715555551L160.68590610578065,71.37571803681713L177.9475996808541,115.98910789053937z" style="fill:rgb(247,158,158)"/><path d="M74.4856897179095,138.65686005574383L160.68590610578065,71.37571803681713L52.80738946326025,96.25204872870242z" style="fill:rgb(127,37,217)"/><path d="M160.68590610578065,71.37571803681713L176.6506267722212,107.55553715555551L159.458725882125,62.879461423816494z" style="fill:rgb(247,158,158)"/><path d="M160.68590610578065,71.37571803681713L52.41435570111106,87.78687076321629L52.80738946326025,96.25204872870242zM52.41435570111106,87.78687076321629L160.68590610578065,71.37571803681713L159.458725882125,62.879461423816494z" style="fill:rgb(83,212,212)"/></svg>
