<?xml version="1.0" encoding="UTF-8"?>
<!-- Generated by jsxcad -->
<!DOCTYPE svg PUBLIC "-//W3C//DTD SVG 1.1 Tiny//EN" "http://www.w3.org/Graphics/SVG/1.1/DTD/svg11-tiny.dtd">
<svg viewBox="-250 -250 500 500" width="500" height="500" xmlns="http://www.w3.org/2000/svg"><path d="M-118.16952201776675,-50.9811236679144L-30.79750535946819,-81.92507486946107L-117.36695239770556,-57.705818106238105zM-31.35504719803134,-76.7598362113388L-117.74601987270256,-58.68185431404336L-118.48792240338297,-52.491658689484716zM-31.78258153481272,-78.31210053388521L-118.2201615760513,-59.77325373392124L-118.91470554975811,-54.00785664332225zM-30.76867529553536,-73.75186194999993L-117.09178210178098,-56.92778485860133L-117.9715548137807,-49.53305113768781zM-32.27933623231816,-79.81893766294453L-118.76271101602956,-61.01167059365963L-119.43388401578977,-55.47271618609054zM-30.632074892275245,-72.4093816044572L-116.92239108642725,-56.44883022520039L-117.90163897333439,-48.20204939893265zM-32.826707977940394,-81.22361941176378L-119.37591058011861,-62.162229305534126L-120.02600499232848,-56.831057919266016z" style="fill:rgb(83,212,212)"/><path d="M-31.35504719803134,-76.7598362113388L-118.91470554975811,-54.00785664332225L-118.48792240338297,-52.491658689484716z" style="fill:rgb(99,111,250)"/><path d="M-31.012775255071904,-75.22047077109801L-118.48792240338297,-52.491658689484716L-118.16952201776675,-50.9811236679144z" style="fill:rgb(93,135,250)"/><path d="M-33.40416348278055,-82.47299772410686L-120.01472361170957,-63.360859847867154L-120.66888134986951,-58.03145918314412z" style="fill:rgb(83,212,212)"/><path d="M-118.91470554975811,-54.00785664332225L-32.27933623231816,-79.81893766294453L-119.43388401578977,-55.47271618609054z" style="fill:rgb(106,87,246)"/><path d="M-30.76867529553536,-73.75186194999993L-118.16952201776675,-50.9811236679144L-117.9715548137807,-49.53305113768781z" style="fill:rgb(89,159,244)"/><path d="M-114.62947889348064,-41.49070878362703L-30.608364632965987,-71.24395093219022L-117.96268723170618,-47.038607469505074z" style="fill:rgb(127,37,217)"/><path d="M-117.90163897333439,-48.20204939893265L-30.76867529553536,-73.75186194999993L-117.9715548137807,-49.53305113768781z" style="fill:rgb(85,182,234)"/><path d="M-119.43388401578977,-55.47271618609054L-32.826707977940394,-81.22361941176378L-120.02600499232848,-56.831057919266016z" style="fill:rgb(114,65,238)"/><path d="M-117.96268723170618,-47.038607469505074L-30.632074892275245,-72.4093816044572L-117.90163897333439,-48.20204939893265z" style="fill:rgb(84,202,220)"/><path d="M-120.02600499232848,-56.831057919266016L-33.40416348278055,-82.47299772410686L-120.66888134986951,-58.03145918314412z" style="fill:rgb(123,46,225)"/><path d="M-117.09178210178098,-56.92778485860133L-30.76867529553536,-73.75186194999993L-30.53416341051772,-81.12489797143904zM-117.74601987270256,-58.68185431404336L-31.35504719803134,-76.7598362113388L-31.154392959412984,-82.93116456904833zM-116.92239108642725,-56.44883022520039L-30.632074892275245,-72.4093816044572L-30.37205241012521,-80.63231536111263zM-118.2201615760513,-59.77325373392124L-31.78258153481272,-78.31210053388521L-31.59285570783442,-84.05955368965549zM-118.76271101602956,-61.01167059365963L-32.27933623231816,-79.81893766294453L-32.09393562565791,-85.34027241407846zM-119.37591058011861,-62.162229305534126L-32.826707977940394,-81.22361941176378L-32.64498231339263,-86.53749485946345zM-30.79750535946819,-81.92507486946107L-118.16952201776675,-50.9811236679144L-31.012775255071904,-75.22047077109801zM-120.01472361170957,-63.360859847867154L-33.40416348278055,-82.47299772410686L-33.21907296083937,-87.78478138047836z" style="fill:rgb(83,212,212)"/><path d="M-30.608364632965987,-71.24395093219022L-114.62947889348064,-41.49070878362703L-27.656479330708137,-65.4472465548372z" style="fill:rgb(127,37,217)"/><path d="M-118.48792240338297,-52.491658689484716L-31.012775255071904,-75.22047077109801L-31.35504719803134,-76.7598362113388z" style="fill:rgb(93,135,250)"/><path d="M-118.91470554975811,-54.00785664332225L-31.35504719803134,-76.7598362113388L-31.78258153481272,-78.31210053388521z" style="fill:rgb(99,111,250)"/><path d="M-32.27933623231816,-79.81893766294453L-118.91470554975811,-54.00785664332225L-31.78258153481272,-78.31210053388521z" style="fill:rgb(106,87,246)"/><path d="M-118.16952201776675,-50.9811236679144L-30.76867529553536,-73.75186194999993L-31.012775255071904,-75.22047077109801z" style="fill:rgb(89,159,244)"/><path d="M-32.826707977940394,-81.22361941176378L-119.43388401578977,-55.47271618609054L-32.27933623231816,-79.81893766294453z" style="fill:rgb(114,65,238)"/><path d="M-30.76867529553536,-73.75186194999993L-117.90163897333439,-48.20204939893265L-30.632074892275245,-72.4093816044572z" style="fill:rgb(85,182,234)"/><path d="M-33.40416348278055,-82.47299772410686L-120.02600499232848,-56.831057919266016L-32.826707977940394,-81.22361941176378z" style="fill:rgb(123,46,225)"/><path d="M-30.632074892275245,-72.4093816044572L-117.96268723170618,-47.038607469505074L-30.608364632965987,-71.24395093219022z" style="fill:rgb(84,202,220)"/><path d="M-27.98503608000853,-70.44832965171635L-27.656479330708137,-65.4472465548372L-27.709390704419256,-67.77505892787306zM-30.000857981431242,-79.50442324033922L-30.632074892275245,-72.4093816044572L-29.15261703197453,-76.42315755066063zM-31.012775255071904,-75.22047077109801L-30.53416341051772,-81.12489797143904L-30.79750535946819,-81.92507486946107zM-30.76867529553536,-73.75186194999993L-30.37205241012521,-80.63231536111263L-30.53416341051772,-81.12489797143904zM-30.985945862030285,-82.49766008225163L-31.35504719803134,-76.7598362113388L-30.79750535946819,-81.92507486946107zM-29.15261703197453,-76.42315755066063L-30.632074892275245,-72.4093816044572L-28.472277982957905,-73.36701051601527zM-30.632074892275245,-72.4093816044572L-30.000857981431242,-79.50442324033922L-30.37205241012521,-80.63231536111263zM-31.35504719803134,-76.7598362113388L-30.985945862030285,-82.49766008225163L-31.154392959412984,-82.93116456904833zM-31.78258153481272,-78.31210053388521L-31.154392959412984,-82.93116456904833L-31.59285570783442,-84.05955368965549zM-28.472277982957905,-73.36701051601527L-30.632074892275245,-72.4093816044572L-27.98503608000853,-70.44832965171635zM-32.07193360400339,-85.29247208425352L-32.27933623231816,-79.81893766294453L-31.59285570783442,-84.05955368965549zM-32.27933623231816,-79.81893766294453L-32.07193360400339,-85.29247208425352L-32.09393562565791,-85.34027241407846zM-32.826707977940394,-81.22361941176378L-32.09393562565791,-85.34027241407846L-32.64498231339263,-86.53749485946345zM-27.98503608000853,-70.44832965171635L-30.608364632965987,-71.24395093219022L-27.656479330708137,-65.4472465548372zM-30.79750535946819,-81.92507486946107L-31.35504719803134,-76.7598362113388L-31.012775255071904,-75.22047077109801zM-31.154392959412984,-82.93116456904833L-31.78258153481272,-78.31210053388521L-31.35504719803134,-76.7598362113388zM-30.53416341051772,-81.12489797143904L-31.012775255071904,-75.22047077109801L-30.76867529553536,-73.75186194999993zM-33.40416348278055,-82.47299772410686L-32.64498231339263,-86.53749485946345L-33.21907296083937,-87.78478138047836zM-31.59285570783442,-84.05955368965549L-32.27933623231816,-79.81893766294453L-31.78258153481272,-78.31210053388521zM-30.37205241012521,-80.63231536111263L-30.76867529553536,-73.75186194999993L-30.632074892275245,-72.4093816044572zM-32.09393562565791,-85.34027241407846L-32.826707977940394,-81.22361941176378L-32.27933623231816,-79.81893766294453zM-27.98503608000853,-70.44832965171635L-30.632074892275245,-72.4093816044572L-30.608364632965987,-71.24395093219022zM-32.64498231339263,-86.53749485946345L-33.40416348278055,-82.47299772410686L-32.826707977940394,-81.22361941176378z" style="fill:rgb(247,158,158)"/><path d="M-53.43983455406859,-64.91749510022294L-117.96268723170618,-47.038607469505074L-55.383767574304116,-29.407167925023007z" style="fill:rgb(83,212,212)"/><path d="M-50.81278082145144,-116.83427271398722L-120.66888134986951,-58.03145918314412L-33.40416348278055,-82.47299772410686zM-120.66888134986951,-58.03145918314412L-50.81278082145144,-116.83427271398722L-140.29560214825156,-90.89275313517795z" style="fill:rgb(127,37,217)"/><path d="M-52.76383987553119,-65.10480802769517L-52.594642296683574,-33.45241700650779L-50.91583068207768,-65.61687879904319zM-52.76383987553119,-65.10480802769517L-53.43983455406859,-64.91749510022294L-54.57900844699585,-31.528293701095578zM-50.91583068207768,-65.61687879904319L-49.95958278261285,-34.67004708362587L-48.3886339635572,-66.31714721315268zM-48.3886339635572,-66.31714721315268L-47.37227204526384,-34.85805641980546L-45.85824353450607,-67.01830722056557zM-47.37227204526384,-34.85805641980546L-44.00383648539582,-67.5321507966992L-45.85824353450607,-67.01830722056557z" style="fill:rgb(83,212,212)"/><path d="M-33.21907296083937,-87.78478138047836L-50.81278082145144,-116.83427271398722L-33.40416348278055,-82.47299772410686z" style="fill:rgb(247,158,158)"/><path d="M-43.324645524955464,-67.72035011220065L-44.00383648539582,-67.5321507966992L-45.52108005945907,-33.96314288072912zM-50.81278082145144,-116.83427271398722L-139.51244315226435,-96.19710969193187L-140.29560214825156,-90.89275313517795z" style="fill:rgb(83,212,212)"/><path d="M-50.81278082145144,-116.83427271398722L-33.21907296083937,-87.78478138047836L-50.522672203548446,-122.11132603755851z" style="fill:rgb(247,158,158)"/><path d="M-49.95958278261285,-34.67004708362587L-50.91583068207768,-65.61687879904319L-52.594642296683574,-33.45241700650779zM-52.594642296683574,-33.45241700650779L-52.76383987553119,-65.10480802769517L-54.57900844699585,-31.528293701095578zM-47.37227204526384,-34.85805641980546L-48.3886339635572,-66.31714721315268L-49.95958278261285,-34.67004708362587zM-44.90476569986343,-32.219012730595274L60.71909858550867,-96.55024010065375L-43.324645524955464,-67.72035011220065zM-139.51244315226435,-96.19710969193187L-50.81278082145144,-116.83427271398722L-50.522672203548446,-122.11132603755851zM-44.00383648539582,-67.5321507966992L-47.37227204526384,-34.85805641980546L-45.52108005945907,-33.96314288072912zM46.830854787639126,-96.86972435779683L140.52681189392626,-129.8559225915407L46.49952923683404,-103.55021631497935zM46.03876437750311,-100.01923504246355L139.8557263607796,-132.12581659148933L45.75864153275887,-105.74534220824354zM141.15957893335332,-124.80847174437528L46.163554444344,-104.58344786724544L46.46664002642859,-98.43467447001758zM141.89207119229278,-121.70483498991543L46.75165850184468,-102.73008641282395L47.11769003591949,-95.383200716519zM140.2836763655665,-128.02362282859463L45.29653090750831,-107.06439031962351L45.56327417913238,-101.56391060429681zM142.1690492763432,-120.34194849746326L46.906868514340026,-102.22522351930775L47.31624428859877,-94.0311372768252zM139.83232762443612,-129.52212667763382L44.80374767996152,-108.30404803677578L45.05799717213321,-103.01058142032765z" style="fill:rgb(83,212,212)"/><path d="M-49.95958278261285,-34.67004708362587L-49.443591642160044,-27.69801509850876L-46.82219666052771,-28.90831740353361z" style="fill:rgb(158,48,222)"/><path d="M-49.443591642160044,-27.69801509850876L-54.57900844699585,-31.528293701095578L-51.414440194084925,-25.778931511376953z" style="fill:rgb(212,85,213)"/><path d="M141.15957893335332,-124.80847174437528L46.03876437750311,-100.01923504246355L46.46664002642859,-98.43467447001758z" style="fill:rgb(99,111,250)"/><path d="M141.551285388666,-123.21261731059593L46.46664002642859,-98.43467447001758L46.830854787639126,-96.86972435779683z" style="fill:rgb(93,135,250)"/><path d="M-47.37227204526384,-34.85805641980546L-46.82219666052771,-28.90831740353361L-44.24511226543773,-29.08863629948339z" style="fill:rgb(96,32,206)"/><path d="M139.3946414288401,-130.87136275153816L44.29034201176494,-109.5955995690059L44.541912291827444,-104.30452517098757zM-56.348348089677785,-11.78692750052048L-54.78843230372095,-27.65441719582485L-53.43983455406859,-64.91749510022294z" style="fill:rgb(83,212,212)"/><path d="M46.03876437750311,-100.01923504246355L140.2836763655665,-128.02362282859463L45.56327417913238,-101.56391060429681z" style="fill:rgb(106,87,246)"/><path d="M141.89207119229278,-121.70483498991543L46.830854787639126,-96.86972435779683L47.11769003591949,-95.383200716519z" style="fill:rgb(89,159,244)"/><path d="M50.0134459127448,-86.84126833757185L142.3716453702685,-119.17565295120112L47.41882263080455,-92.86481254068869z" style="fill:rgb(127,37,217)"/><path d="M47.31624428859877,-94.0311372768252L141.89207119229278,-121.70483498991543L47.11769003591949,-95.383200716519z" style="fill:rgb(85,182,234)"/><path d="M45.56327417913238,-101.56391060429681L139.83232762443612,-129.52212667763382L45.05799717213321,-103.01058142032765z" style="fill:rgb(114,65,238)"/><path d="M-49.443591642160044,-27.69801509850876L-49.95958278261285,-34.67004708362587L-52.594642296683574,-33.45241700650779z" style="fill:rgb(158,48,222)"/><path d="M-42.39800814096493,-28.18772994904944L-47.37227204526384,-34.85805641980546L-44.24511226543773,-29.08863629948339z" style="fill:rgb(42,41,169)"/><path d="M-51.414440194084925,-25.778931511376953L-55.383767574304116,-29.407167925023007L-52.209400702607965,-23.6592450864766z" style="fill:rgb(243,133,180)"/><path d="M-54.57900844699585,-31.528293701095578L-49.443591642160044,-27.69801509850876L-52.594642296683574,-33.45241700650779z" style="fill:rgb(212,85,213)"/><path d="M-46.82219666052771,-28.90831740353361L-47.37227204526384,-34.85805641980546L-49.95958278261285,-34.67004708362587z" style="fill:rgb(96,32,206)"/><path d="M47.41882263080455,-92.86481254068869L142.1690492763432,-120.34194849746326L47.31624428859877,-94.0311372768252z" style="fill:rgb(84,202,220)"/><path d="M45.05799717213321,-103.01058142032765L139.3946414288401,-130.87136275153816L44.541912291827444,-104.30452517098757z" style="fill:rgb(123,46,225)"/><path d="M-55.383767574304116,-29.407167925023007L-51.414440194084925,-25.778931511376953L-54.57900844699585,-31.528293701095578z" style="fill:rgb(243,133,180)"/><path d="M-55.383767574304116,-29.407167925023007L-51.61066031095909,-21.903949328747405L-52.209400702607965,-23.6592450864766z" style="fill:rgb(243,180,133)"/><path d="M46.75165850184468,-102.73008641282395L141.89207119229278,-121.70483498991543L140.76447167326305,-129.01128701022068zM46.163554444344,-104.58344786724544L141.15957893335332,-124.80847174437528L140.21768497982345,-130.92258163857528zM46.906868514340026,-102.22522351930775L142.1690492763432,-120.34194849746326L140.9107683923238,-128.49135423756817z" style="fill:rgb(83,212,212)"/><path d="M-47.37227204526384,-34.85805641980546L-42.39800814096493,-28.18772994904944L-45.52108005945907,-33.96314288072912z" style="fill:rgb(42,41,169)"/><path d="M45.29653090750831,-107.06439031962351L140.2836763655665,-128.02362282859463L139.4435097704183,-133.49218170030383zM44.80374767996152,-108.30404803677578L139.83232762443612,-129.52212667763382L139.0251215325908,-134.7844572733391z" style="fill:rgb(83,212,212)"/><path d="M-51.61066031095909,-21.903949328747405L-55.383767574304116,-29.407167925023007L-54.78843230372095,-27.65441719582485z" style="fill:rgb(243,180,133)"/><path d="M140.52681189392626,-129.8559225915407L46.830854787639126,-96.86972435779683L141.551285388666,-123.21261731059593zM139.8557263607796,-132.12581659148933L46.03876437750311,-100.01923504246355L140.73169763353752,-126.43245014632338zM44.29034201176494,-109.5955995690059L139.3946414288401,-130.87136275153816L138.58919908505416,-136.13088618113548z" style="fill:rgb(83,212,212)"/><path d="M142.3716453702685,-119.17565295120112L50.0134459127448,-86.84126833757185L144.51028889258023,-112.87022890859129z" style="fill:rgb(127,37,217)"/><path d="M46.46664002642859,-98.43467447001758L141.551285388666,-123.21261731059593L141.15957893335332,-124.80847174437528z" style="fill:rgb(93,135,250)"/><path d="M46.03876437750311,-100.01923504246355L141.15957893335332,-124.80847174437528L140.73169763353752,-126.43245014632338z" style="fill:rgb(99,111,250)"/><path d="M140.2836763655665,-128.02362282859463L46.03876437750311,-100.01923504246355L140.73169763353752,-126.43245014632338z" style="fill:rgb(106,87,246)"/><path d="M46.830854787639126,-96.86972435779683L141.89207119229278,-121.70483498991543L141.551285388666,-123.21261731059593z" style="fill:rgb(89,159,244)"/><path d="M139.83232762443612,-129.52212667763382L45.56327417913238,-101.56391060429681L140.2836763655665,-128.02362282859463z" style="fill:rgb(114,65,238)"/><path d="M141.89207119229278,-121.70483498991543L47.31624428859877,-94.0311372768252L142.1690492763432,-120.34194849746326z" style="fill:rgb(85,182,234)"/><path d="M139.3946414288401,-130.87136275153816L45.05799717213321,-103.01058142032765L139.83232762443612,-129.52212667763382z" style="fill:rgb(123,46,225)"/><path d="M142.1690492763432,-120.34194849746326L47.41882263080455,-92.86481254068869L142.3716453702685,-119.17565295120112z" style="fill:rgb(84,202,220)"/><path d="M143.5503944317761,-117.91475241426218L144.51028889258023,-112.87022890859129L144.1033586074586,-115.20067372562141zM141.24576120533627,-127.30082306705707L142.1690492763432,-120.34194849746326L142.09467568096366,-124.07831430241215zM141.551285388666,-123.21261731059593L140.76447167326305,-129.01128701022068L140.52681189392626,-129.8559225915407zM141.89207119229278,-121.70483498991543L140.9107683923238,-128.49135423756817L140.76447167326305,-129.01128701022068zM140.35674560801687,-130.4603355926668L141.15957893335332,-124.80847174437528L140.52681189392626,-129.8559225915407zM142.09467568096366,-124.07831430241215L142.1690492763432,-120.34194849746326L142.87242230882444,-120.91088010196393zM142.1690492763432,-120.34194849746326L141.24576120533627,-127.30082306705707L140.9107683923238,-128.49135423756817zM141.15957893335332,-124.80847174437528L140.35674560801687,-130.4603355926668L140.21768497982345,-130.92258163857528zM140.73169763353752,-126.43245014632338L140.21768497982345,-130.92258163857528L139.8557263607796,-132.12581659148933zM142.87242230882444,-120.91088010196393L142.1690492763432,-120.34194849746326L143.5503944317761,-117.91475241426218zM139.46020892258505,-133.44058796927385L140.2836763655665,-128.02362282859463L139.8557263607796,-132.12581659148933zM140.2836763655665,-128.02362282859463L139.46020892258505,-133.44058796927385L139.4435097704183,-133.49218170030383zM139.83232762443612,-129.52212667763382L139.4435097704183,-133.49218170030383L139.0251215325908,-134.7844572733391zM143.5503944317761,-117.91475241426218L142.3716453702685,-119.17565295120112L144.51028889258023,-112.87022890859129zM140.52681189392626,-129.8559225915407L141.15957893335332,-124.80847174437528L141.551285388666,-123.21261731059593zM140.21768497982345,-130.92258163857528L140.73169763353752,-126.43245014632338L141.15957893335332,-124.80847174437528zM140.76447167326305,-129.01128701022068L141.551285388666,-123.21261731059593L141.89207119229278,-121.70483498991543zM139.3946414288401,-130.87136275153816L139.0251215325908,-134.7844572733391L138.58919908505416,-136.13088618113548zM139.8557263607796,-132.12581659148933L140.2836763655665,-128.02362282859463L140.73169763353752,-126.43245014632338zM140.9107683923238,-128.49135423756817L141.89207119229278,-121.70483498991543L142.1690492763432,-120.34194849746326zM139.4435097704183,-133.49218170030383L139.83232762443612,-129.52212667763382L140.2836763655665,-128.02362282859463zM143.5503944317761,-117.91475241426218L142.1690492763432,-120.34194849746326L142.3716453702685,-119.17565295120112zM139.0251215325908,-134.7844572733391L139.3946414288401,-130.87136275153816L139.83232762443612,-129.52212667763382z" style="fill:rgb(247,158,158)"/><path d="M126.72974079680316,-168.30472397558495L44.541912291827444,-104.30452517098757L139.3946414288401,-130.87136275153816zM44.541912291827444,-104.30452517098757L126.72974079680316,-168.30472397558495L29.215191567892305,-140.03476871739088z" style="fill:rgb(127,37,217)"/><path d="M125.97423793513407,-173.50801674805766L139.3946414288401,-130.87136275153816L138.58919908505416,-136.13088618113548z" style="fill:rgb(247,158,158)"/><path d="M61.43430112968781,-96.7484119203618L69.50401487442143,-6.24976617062209L63.38953289640734,-97.29019871349716zM61.43430112968781,-96.7484119203618L60.71909858550867,-96.55024010065375L67.45999471786016,-4.1214317348925436zM63.38953289640734,-97.29019871349716L72.39991384807215,-7.5750265401201515L66.0634366464949,-98.03112016429405zM72.39991384807215,-7.5750265401201515L68.7408273061631,-98.77300633354244L66.0634366464949,-98.03112016429405zM126.72974079680316,-168.30472397558495L29.045070259098008,-145.2818127457039L29.215191567892305,-140.03476871739088zM68.7408273061631,-98.77300633354244L77.65501002187443,-6.712726765666451L70.70302225507464,-99.3167225893776zM77.65501002187443,-6.712726765666451L71.4217063394203,-99.5158591066406L70.70302225507464,-99.3167225893776z" style="fill:rgb(83,212,212)"/><path d="M139.3946414288401,-130.87136275153816L125.97423793513407,-173.50801674805766L126.72974079680316,-168.30472397558495z" style="fill:rgb(247,158,158)"/><path d="M29.045070259098008,-145.2818127457039L126.72974079680316,-168.30472397558495L125.97423793513407,-173.50801674805766zM-117.96268723170618,-47.038607469505074L-65.54890021066612,156.28192186677774L-55.383767574304116,-29.407167925023007zM60.71909858550867,-96.55024010065375L-44.90476569986343,-32.219012730595274L-51.19404371485841,109.08532792629289zM-62.185354255293404,109.17192692181155L-52.94484724982008,-26.742811409328027L-54.78843230372095,-27.65441719582485zM-52.94484724982008,-26.742811409328027L-56.91597105392309,105.46791236125598L-50.34415564372284,-26.92274052745696zM-56.91597105392309,105.46791236125598L-47.68811894648057,-28.148988262763787L-50.34415564372284,-26.92274052745696zM-53.97716664176634,105.43989150838213L-45.696146278290726,-30.089809500007018L-47.68811894648057,-28.148988262763787zM-45.696146278290726,-30.089809500007018L-53.17220649158254,153.5296974739111L-43.324645524955464,-67.72035011220065zM-54.78843230372095,-27.65441719582485L-56.348348089677785,-11.78692750052048L-63.11756571439792,111.86811844190471zM72.39991384807215,-7.5750265401201515L63.38953289640734,-97.29019871349716L69.50401487442143,-6.24976617062209zM69.50401487442143,-6.24976617062209L61.43430112968781,-96.7484119203618L67.45999471786016,-4.1214317348925436zM68.7408273061631,-98.77300633354244L72.39991384807215,-7.5750265401201515L75.38095673083794,-7.745821732689952zM77.65501002187443,-6.712726765666451L68.7408273061631,-98.77300633354244L75.38095673083794,-7.745821732689952zM71.4217063394203,-99.5158591066406L77.65501002187443,-6.712726765666451L78.61019509840428,-4.745137048504204z" style="fill:rgb(83,212,212)"/><path d="M-55.383767574304116,-29.407167925023007L-65.54890021066612,156.28192186677774L-56.348348089677785,-11.78692750052048z" style="fill:rgb(255,127,127)"/><path d="M60.71909858550867,-96.55024010065375L-51.19404371485841,109.08532792629289L66.8129078062673,-1.7529113504889307z" style="fill:rgb(83,212,212)"/><path d="M72.39991384807215,-7.5750265401201515L72.2294634811111,-0.12895497112949597L75.10886691186408,-1.4455333746439316z" style="fill:rgb(158,48,222)"/><path d="M72.2294634811111,-0.12895497112949597L67.45999471786016,-4.1214317348925436L70.20011969801752,1.9930513782157209z" style="fill:rgb(212,85,213)"/><path d="M75.38095673083794,-7.745821732689952L75.10886691186408,-1.4455333746439316L78.0758941656123,-1.6075702124384545z" style="fill:rgb(96,32,206)"/><path d="M72.2294634811111,-0.12895497112949597L72.39991384807215,-7.5750265401201515L69.50401487442143,-6.24976617062209z" style="fill:rgb(158,48,222)"/><path d="M80.34212326549026,-0.5679900475127355L75.38095673083794,-7.745821732689952L78.0758941656123,-1.6075702124384545z" style="fill:rgb(42,41,169)"/><path d="M70.20011969801752,1.9930513782157209L66.8129078062673,-1.7529113504889307L69.56199748647866,4.359240860421154z" style="fill:rgb(243,133,180)"/><path d="M67.45999471786016,-4.1214317348925436L72.2294634811111,-0.12895497112949597L69.50401487442143,-6.24976617062209z" style="fill:rgb(212,85,213)"/><path d="M75.10886691186408,-1.4455333746439316L75.38095673083794,-7.745821732689952L72.39991384807215,-7.5750265401201515z" style="fill:rgb(96,32,206)"/><path d="M71.4217063394203,-99.5158591066406L176.59424547010292,102.43602843761686L142.3716453702685,-119.17565295120112z" style="fill:rgb(83,212,212)"/><path d="M66.8129078062673,-1.7529113504889307L70.20011969801752,1.9930513782157209L67.45999471786016,-4.1214317348925436z" style="fill:rgb(243,133,180)"/><path d="M81.29781090524884,1.4020220416741218L77.65501002187443,-6.712726765666451L80.34212326549026,-0.5679900475127355z" style="fill:rgb(11,74,121)"/><path d="M75.38095673083794,-7.745821732689952L80.34212326549026,-0.5679900475127355L77.65501002187443,-6.712726765666451z" style="fill:rgb(42,41,169)"/><path d="M176.59424547010292,102.43602843761686L144.51028889258023,-112.87022890859129L142.3716453702685,-119.17565295120112z" style="fill:rgb(247,158,158)"/><path d="M-56.91597105392309,105.46791236125598L-52.94484724982008,-26.742811409328027L-59.91675822640648,106.8324965275855z" style="fill:rgb(83,212,212)"/><path d="M77.65501002187443,-6.712726765666451L81.29781090524884,1.4020220416741218L78.61019509840428,-4.745137048504204z" style="fill:rgb(11,74,121)"/><path d="M-52.94484724982008,-26.742811409328027L-62.185354255293404,109.17192692181155L-59.91675822640648,106.8324965275855zM-54.78843230372095,-27.65441719582485L-63.11756571439792,111.86811844190471L-62.185354255293404,109.17192692181155zM-47.68811894648057,-28.148988262763787L-56.91597105392309,105.46791236125598L-53.97716664176634,105.43989150838213zM-45.696146278290726,-30.089809500007018L-53.97716664176634,105.43989150838213L-51.88148380890256,106.76074245237375zM-65.54890021066612,156.28192186677774L-117.96268723170618,-47.038607469505074L-144.16429593672066,173.76379853656096zM74.96321306214394,125.03593419452794L67.74273714897924,0.22488599756526986L60.71909858550867,-96.55024010065375zM-53.17220649158254,153.5296974739111L-45.696146278290726,-30.089809500007018L-51.88148380890256,106.76074245237375zM78.61019509840428,-4.745137048504204L176.59424547010292,102.43602843761686L71.4217063394203,-99.5158591066406z" style="fill:rgb(83,212,212)"/><path d="M-56.91597105392309,105.46791236125598L-56.2850793492943,112.52827881605278L-53.30199984676355,111.17292278117768z" style="fill:rgb(158,48,222)"/><path d="M-56.2850793492943,112.52827881605278L-62.185354255293404,109.17192692181155L-58.53605049315421,114.85937691164355z" style="fill:rgb(212,85,213)"/><path d="M-53.97716664176634,105.43989150838213L-53.30199984676355,111.17292278117768L-50.37635457928757,111.15260681709277z" style="fill:rgb(96,32,206)"/><path d="M-56.2850793492943,112.52827881605278L-56.91597105392309,105.46791236125598L-59.91675822640648,106.8324965275855z" style="fill:rgb(158,48,222)"/><path d="M-48.28581288156532,112.47755702065666L-53.97716664176634,105.43989150838213L-50.37635457928757,111.15260681709277z" style="fill:rgb(42,41,169)"/><path d="M-58.53605049315421,114.85937691164355L-63.11756571439792,111.86811844190471L-59.455369554850606,117.55029253755305z" style="fill:rgb(243,133,180)"/><path d="M-62.185354255293404,109.17192692181155L-56.2850793492943,112.52827881605278L-59.91675822640648,106.8324965275855z" style="fill:rgb(212,85,213)"/><path d="M-53.30199984676355,111.17292278117768L-53.97716664176634,105.43989150838213L-56.91597105392309,105.46791236125598z" style="fill:rgb(96,32,206)"/><path d="M-63.11756571439792,111.86811844190471L-58.53605049315421,114.85937691164355L-62.185354255293404,109.17192692181155z" style="fill:rgb(243,133,180)"/><path d="M-63.11756571439792,111.86811844190471L-58.79052856775663,119.88484277019029L-59.455369554850606,117.55029253755305z" style="fill:rgb(243,180,133)"/><path d="M-53.97716664176634,105.43989150838213L-48.28581288156532,112.47755702065666L-51.88148380890256,106.76074245237375z" style="fill:rgb(42,41,169)"/><path d="M75.8492935629332,124.83890091429802L70.00961855997956,1.2783242613318753L67.74273714897924,0.22488599756526986z" style="fill:rgb(83,212,212)"/><path d="M-58.79052856775663,119.88484277019029L-63.11756571439792,111.86811844190471L-62.457363700882354,114.20349354903217z" style="fill:rgb(243,180,133)"/><path d="M78.27204399780916,124.30014462787561L73.00883960675087,1.1176650180385201L70.00961855997956,1.2783242613318753zM87.33907381404154,122.28388874806159L78.61019509840428,-4.745137048504204L77.98129240879615,-2.366481058584005zM81.58618544629441,123.56317268724558L75.93010060824396,-0.21780275801721027L73.00883960675087,1.1176650180385201zM84.90566342759038,122.82501552032969L77.98129240879615,-2.366481058584005L75.93010060824396,-0.21780275801721027zM-51.19404371485841,109.08532792629289L74.96321306214394,125.03593419452794L66.8129078062673,-1.7529113504889307zM-63.11756571439792,111.86811844190471L-64.7222132944834,156.0980967162796L-62.457363700882354,114.20349354903217zM-62.457363700882354,114.20349354903217L-62.46192231131579,155.59546616430123L-60.37168238817148,115.54841909567628zM-60.37168238817148,115.54841909567628L-59.37015318929688,154.9079450307689L-57.41563177827601,115.53368320053997zM-59.37015318929688,154.9079450307689L-54.387609085737765,114.1583092797288L-57.41563177827601,115.53368320053997zM-54.387609085737765,114.1583092797288L-54.003692638204186,153.71459052882992L-52.10901196750388,111.7947920208724zM-64.7222132944834,156.0980967162796L-63.11756571439792,111.86811844190471L-65.54890021066612,156.28192186677774z" style="fill:rgb(83,212,212)"/><path d="M144.51028889258023,-112.87022890859129L176.59424547010292,102.43602843761686L179.0132081611291,108.75560301091443z" style="fill:rgb(247,158,158)"/><path d="M-62.46192231131579,155.59546616430123L-62.457363700882354,114.20349354903217L-64.7222132944834,156.0980967162796zM-59.37015318929688,154.9079450307689L-60.37168238817148,115.54841909567628L-62.46192231131579,155.59546616430123z" style="fill:rgb(83,212,212)"/><path d="M-37.71396726875793,151.54805470011576L-144.16429593672066,173.76379853656096L-144.4339122621937,175.24083950497655z" style="fill:rgb(84,220,202)"/><path d="M-54.387609085737765,114.1583092797288L-59.37015318929688,154.9079450307689L-56.273588405030274,154.2193569278785zM-53.17220649158254,153.5296974739111L-52.10901196750388,111.7947920208724L-54.003692638204186,153.71459052882992zM-54.003692638204186,153.71459052882992L-54.387609085737765,114.1583092797288L-56.273588405030274,154.2193569278785z" style="fill:rgb(83,212,212)"/><path d="M-37.973194759794225,152.75768797385118L-144.4339122621937,175.24083950497655L-144.85816796309567,176.4563915724374z" style="fill:rgb(85,234,182)"/><path d="M-145.4216562688792,177.36292941384227L-37.973194759794225,152.75768797385118L-144.85816796309567,176.4563915724374z" style="fill:rgb(89,244,159)"/><path d="M-146.10354114965813,177.9241644994426L-38.36119174836437,153.6467528564178L-145.4216562688792,177.36292941384227z" style="fill:rgb(93,250,135)"/><path d="M-146.87820981034628,178.11669156419168L-38.863798518232485,154.17956617767686L-146.10354114965813,177.9241644994426z" style="fill:rgb(99,250,111)"/><path d="M-38.115727105350516,164.2532956388424L-144.4339122621937,175.24083950497655L-145.93115443647363,187.8499469351132zM-38.33657430121122,164.1823134171202L-144.85816796309567,176.4563915724374L-146.20706285218535,187.7942273410039zM67.74273714897924,0.22488599756526986L74.96321306214394,125.03593419452794L75.8492935629332,124.83890091429802z" style="fill:rgb(83,212,212)"/><path d="M-144.16429593672066,173.76379853656096L-37.71396726875793,151.54805470011576L-37.59269589725587,150.06524455931995z" style="fill:rgb(84,220,202)"/><path d="M70.00961855997956,1.2783242613318753L75.8492935629332,124.83890091429802L78.27204399780916,124.30014462787561zM-38.695758347529285,164.06686564388278L-145.4216562688792,177.36292941384227L-146.65578458021176,187.70360635047854zM-147.95182919321724,187.02878683928196L-39.46231539327251,154.33366679925706L-146.87820981034628,178.11669156419168z" style="fill:rgb(83,212,212)"/><path d="M-144.4339122621937,175.24083950497655L-37.973194759794225,152.75768797385118L-37.71396726875793,151.54805470011576z" style="fill:rgb(85,234,182)"/><path d="M73.00883960675087,1.1176650180385201L78.27204399780916,124.30014462787561L81.58618544629441,123.56317268724558zM78.61019509840428,-4.745137048504204L87.33907381404154,122.28388874806159L88.23048421579563,122.08567026563803zM75.93010060824396,-0.21780275801721027L81.58618544629441,123.56317268724558L84.90566342759038,122.82501552032969zM-39.17654538597407,163.7984191207709L-146.10354114965813,177.9241644994426L-147.24756584282585,187.46953785669385zM77.98129240879615,-2.366481058584005L84.90566342759038,122.82501552032969L87.33907381404154,122.28388874806159zM74.96321306214394,125.03593419452794L-51.19404371485841,109.08532792629289L-53.17220649158254,153.5296974739111z" style="fill:rgb(83,212,212)"/><path d="M-145.3002978513266,187.97734084166407L-38.9531068124149,163.98415467522017L-146.9772710170317,187.6386859866479z" style="fill:rgb(148,8,167)"/><path d="M-37.973194759794225,152.75768797385118L-145.4216562688792,177.36292941384227L-38.36119174836437,153.6467528564178z" style="fill:rgb(89,244,159)"/><path d="M-144.4339122621937,175.24083950497655L-38.115727105350516,164.2532956388424L-37.71396726875793,151.54805470011576z" style="fill:rgb(83,212,212)"/><path d="M-37.59269589725587,150.06524455931995L-34.157591874295775,158.72947756723272L-33.92691096241937,155.76198689561494z" style="fill:rgb(247,158,158)"/><path d="M-40.42446424123079,162.74780750513145L-147.71623007634992,177.93109903793612L-148.75598318746563,186.51178691967263z" style="fill:rgb(83,212,212)"/><path d="M-38.36119174836437,153.6467528564178L-146.10354114965813,177.9241644994426L-38.863798518232485,154.17956617767686z" style="fill:rgb(93,250,135)"/><path d="M-144.85816796309567,176.4563915724374L-38.33657430121122,164.1823134171202L-37.973194759794225,152.75768797385118z" style="fill:rgb(83,212,212)"/><path d="M-139.93231639513792,179.16260152366957L176.59424547010292,102.43602843761686L-144.16429593672066,173.76379853656096z" style="fill:rgb(127,37,217)"/><path d="M-146.9772710170317,187.6386859866479L-40.395970081679906,162.78473535798273L-148.72253854757685,186.5464744009652z" style="fill:rgb(140,16,189)"/><path d="M-41.13847087817355,161.8224972294515L-148.58533372610916,177.37266464103436L-149.5938302400126,185.6429380249674z" style="fill:rgb(83,212,212)"/><path d="M-34.157591874295775,158.72947756723272L-37.59269589725587,150.06524455931995L-34.662589964797455,161.16439072387686z" style="fill:rgb(247,158,158)"/><path d="M-145.4216562688792,177.36292941384227L-38.695758347529285,164.06686564388278L-38.36119174836437,153.6467528564178z" style="fill:rgb(83,212,212)"/><path d="M-38.863798518232485,154.17956617767686L-146.87820981034628,178.11669156419168L-39.46231539327251,154.33366679925706z" style="fill:rgb(99,250,111)"/><path d="M-41.8830725112496,160.85753653810156L-149.4517353215123,176.46146529189448L-150.46750760040706,184.73692722188167zM-146.10354114965813,177.9241644994426L-39.17654538597407,163.7984191207709L-38.863798518232485,154.17956617767686z" style="fill:rgb(83,212,212)"/><path d="M-34.662589964797455,161.16439072387686L-37.59269589725587,150.06524455931995L-35.42557071054995,162.96978243860806z" style="fill:rgb(247,158,158)"/><path d="M-148.72253854757685,186.5464744009652L-41.8830725112496,160.85753653810156L-150.46750760040706,184.73692722188167z" style="fill:rgb(131,29,208)"/><path d="M176.59424547010292,102.43602843761686L78.61019509840428,-4.745137048504204L88.23048421579563,122.08567026563803z" style="fill:rgb(83,212,212)"/><path d="M-35.42557071054995,162.96978243860806L-37.59269589725587,150.06524455931995L-37.71396726875793,151.54805470011576z" style="fill:rgb(247,158,158)"/><path d="M-38.9531068124149,163.98415467522017L-145.3002978513266,187.97734084166407L-37.61079549494082,164.41557832769885z" style="fill:rgb(148,8,167)"/><path d="M-147.71623007634992,177.93109903793612L-40.42446424123079,162.74780750513145L-40.13411468788913,154.10101923320823zM-39.46231539327251,154.33366679925706L-147.95182919321724,187.02878683928196L-39.758773920789125,163.31442354001058zM-148.58533372610916,177.37266464103436L-41.13847087817355,161.8224972294515L-40.85346804297492,153.48865932086375z" style="fill:rgb(83,212,212)"/><path d="M-37.973194759794225,152.75768797385118L-38.115727105350516,164.2532956388424L-37.71396726875793,151.54805470011576zM-35.42557071054995,162.96978243860806L-37.71396726875793,151.54805470011576L-38.115727105350516,164.2532956388424z" style="fill:rgb(247,158,158)"/><path d="M-40.395970081679906,162.78473535798273L-146.9772710170317,187.6386859866479L-38.9531068124149,163.98415467522017z" style="fill:rgb(140,16,189)"/><path d="M-149.4517353215123,176.46146529189448L-41.8830725112496,160.85753653810156L-41.592503512853874,152.5186850500741z" style="fill:rgb(83,212,212)"/><path d="M-38.36119174836437,153.6467528564178L-38.33657430121122,164.1823134171202L-37.973194759794225,152.75768797385118zM-35.42557071054995,162.96978243860806L-38.115727105350516,164.2532956388424L-36.4202214385704,164.07020949423156zM-38.863798518232485,154.17956617767686L-38.695758347529285,164.06686564388278L-38.36119174836437,153.6467528564178zM-38.115727105350516,164.2532956388424L-37.973194759794225,152.75768797385118L-38.33657430121122,164.1823134171202z" style="fill:rgb(247,158,158)"/><path d="M-41.8830725112496,160.85753653810156L-148.72253854757685,186.5464744009652L-40.395970081679906,162.78473535798273z" style="fill:rgb(131,29,208)"/><path d="M-36.4202214385704,164.07020949423156L-38.115727105350516,164.2532956388424L-37.61079549494082,164.41557832769885zM-39.46231539327251,154.33366679925706L-39.17654538597407,163.7984191207709L-38.863798518232485,154.17956617767686zM-38.33657430121122,164.1823134171202L-38.36119174836437,153.6467528564178L-38.695758347529285,164.06686564388278zM-40.13411468788913,154.10101923320823L-39.758773920789125,163.31442354001058L-39.46231539327251,154.33366679925706zM-38.695758347529285,164.06686564388278L-38.863798518232485,154.17956617767686L-39.17654538597407,163.7984191207709zM-39.17654538597407,163.7984191207709L-39.46231539327251,154.33366679925706L-39.758773920789125,163.31442354001058zM-40.85346804297492,153.48865932086375L-40.42446424123079,162.74780750513145L-40.13411468788913,154.10101923320823zM-38.695758347529285,164.06686564388278L-39.17654538597407,163.7984191207709L-38.9531068124149,163.98415467522017zM-39.758773920789125,163.31442354001058L-40.13411468788913,154.10101923320823L-40.42446424123079,162.74780750513145zM-41.592503512853874,152.5186850500741L-41.13847087817355,161.8224972294515L-40.85346804297492,153.48865932086375zM-40.42446424123079,162.74780750513145L-40.85346804297492,153.48865932086375L-41.13847087817355,161.8224972294515zM-39.758773920789125,163.31442354001058L-40.42446424123079,162.74780750513145L-40.395970081679906,162.78473535798273zM-41.13847087817355,161.8224972294515L-41.592503512853874,152.5186850500741L-41.8830725112496,160.85753653810156z" style="fill:rgb(247,158,158)"/><path d="M176.59424547010292,102.43602843761686L-139.93231639513792,179.16260152366957L179.0132081611291,108.75560301091443zM-64.20871738577652,126.83728455100918L-150.46750760040706,184.73692722188167L-41.8830725112496,160.85753653810156zM-150.46750760040706,184.73692722188167L-64.20871738577652,126.83728455100918L-176.24164703399555,152.57026502960645z" style="fill:rgb(127,37,217)"/><path d="M-41.592503512853874,152.5186850500741L-64.20871738577652,126.83728455100918L-41.8830725112496,160.85753653810156z" style="fill:rgb(247,158,158)"/><path d="M176.79619287000884,103.92486374579488L58.49838138501849,128.69725711490838L58.517981468567726,130.18369003432687z" style="fill:rgb(84,220,202)"/><path d="M176.89718497473805,105.11627361545389L58.517981468567726,130.18369003432687L58.415640353964726,131.38619443687065z" style="fill:rgb(85,234,182)"/><path d="M-64.20871738577652,126.83728455100918L-175.00752251781915,144.21153676975004L-176.24164703399555,152.57026502960645z" style="fill:rgb(83,212,212)"/><path d="M58.19464861976416,132.25758898742615L176.89718497473805,105.11627361545389L58.415640353964726,131.38619443687065z" style="fill:rgb(89,244,159)"/><path d="M57.862812277853465,132.76273331425213L176.8928439423104,105.96340703924476L58.19464861976416,132.25758898742615z" style="fill:rgb(93,250,135)"/><path d="M57.432271348630834,132.8801629709524L176.7827454852587,106.43195002656216L57.862812277853465,132.76273331425213z" style="fill:rgb(99,250,111)"/><path d="M-64.20871738577652,126.83728455100918L-41.592503512853874,152.5186850500741L-63.746178000315346,118.42369827385302z" style="fill:rgb(247,158,158)"/><path d="M178.78148215468045,116.78282582544647L58.517981468567726,130.18369003432687L59.15648993336737,142.96413754018033zM178.68163444491006,116.67889983798734L58.415640353964726,131.38619443687065L58.9882146967883,142.8787513828033z" style="fill:rgb(83,212,212)"/><path d="M58.49838138501849,128.69725711490838L176.79619287000884,103.92486374579488L176.59424547010292,102.43602843761686z" style="fill:rgb(84,220,202)"/><path d="M-175.00752251781915,144.21153676975004L-64.20871738577652,126.83728455100918L-63.746178000315346,118.42369827385302zM178.51922751431226,116.50986102580322L58.19464861976416,132.25758898742615L58.71452838570229,142.73988528667823z" style="fill:rgb(83,212,212)"/><path d="M58.517981468567726,130.18369003432687L176.89718497473805,105.11627361545389L176.79619287000884,103.92486374579488z" style="fill:rgb(85,234,182)"/><path d="M178.2825601596905,116.16768694900857L57.862812277853465,132.76273331425213L58.33977936562395,142.43911444405418zM57.34095204642686,141.3016354753982L176.2638061874215,106.16761201893583L56.91912205870163,132.60316199490092z" style="fill:rgb(83,212,212)"/><path d="M59.54120222699518,143.15934326494107L178.4028569814366,116.3887435208049L58.518429287365485,142.64036799291605z" style="fill:rgb(148,8,167)"/><path d="M176.89718497473805,105.11627361545389L58.19464861976416,132.25758898742615L176.8928439423104,105.96340703924476z" style="fill:rgb(89,244,159)"/><path d="M177.969088441889,115.59159553536271L57.432271348630834,132.8801629709524L57.87424161328149,141.91466032438493zM56.74554793598831,140.32386644054907L175.87397694595106,105.44050631351801L56.34288215811569,131.9403773151689zM58.517981468567726,130.18369003432687L178.78148215468045,116.78282582544647L176.79619287000884,103.92486374579488z" style="fill:rgb(83,212,212)"/><path d="M176.8928439423104,105.96340703924476L57.862812277853465,132.76273331425213L176.7827454852587,106.43195002656216z" style="fill:rgb(93,250,135)"/><path d="M58.415640353964726,131.38619443687065L178.68163444491006,116.67889983798734L176.89718497473805,105.11627361545389z" style="fill:rgb(83,212,212)"/><path d="M58.518429287365485,142.64036799291605L177.62596027840422,114.96102427815062L57.36471247621717,141.3406687808246z" style="fill:rgb(140,16,189)"/><path d="M176.79619287000884,103.92486374579488L179.0132081611291,108.75560301091443L176.59424547010292,102.43602843761686z" style="fill:rgb(247,158,158)"/><path d="M58.19464861976416,132.25758898742615L178.51922751431226,116.50986102580322L176.8928439423104,105.96340703924476z" style="fill:rgb(83,212,212)"/><path d="M176.7827454852587,106.43195002656216L57.432271348630834,132.8801629709524L176.57053044197917,106.50168193210493z" style="fill:rgb(99,250,111)"/><path d="M176.70822910072692,112.78592382926114L55.725759425976264,130.915823468182L56.124592733402885,139.30413194903838zM57.862812277853465,132.76273331425213L178.2825601596905,116.16768694900857L176.7827454852587,106.43195002656216z" style="fill:rgb(83,212,212)"/><path d="M179.0132081611291,108.75560301091443L178.78148215468045,116.78282582544647L179.42243068353295,111.73709598649087z" style="fill:rgb(247,158,158)"/><path d="M57.36471247621717,141.3406687808246L176.70822910072692,112.78592382926114L56.124592733402885,139.30413194903838z" style="fill:rgb(131,29,208)"/><path d="M57.432271348630834,132.8801629709524L177.969088441889,115.59159553536271L176.57053044197917,106.50168193210493z" style="fill:rgb(83,212,212)"/><path d="M179.0132081611291,108.75560301091443L176.79619287000884,103.92486374579488L178.78148215468045,116.78282582544647zM179.42243068353295,111.73709598649087L178.78148215468045,116.78282582544647L179.6328230815527,114.13872591804518z" style="fill:rgb(247,158,158)"/><path d="M178.4028569814366,116.3887435208049L59.54120222699518,143.15934326494107L179.00975495575648,117.02039909955597z" style="fill:rgb(148,8,167)"/><path d="M179.6328230815527,114.13872591804518L178.78148215468045,116.78282582544647L179.6344403802689,115.86415579036336zM176.89718497473805,105.11627361545389L178.78148215468045,116.78282582544647L176.79619287000884,103.92486374579488z" style="fill:rgb(247,158,158)"/><path d="M176.2638061874215,106.16761201893583L57.34095204642686,141.3016354753982L177.60838479921404,114.91935289433188z" style="fill:rgb(83,212,212)"/><path d="M177.62596027840422,114.96102427815062L58.518429287365485,142.64036799291605L178.4028569814366,116.3887435208049z" style="fill:rgb(140,16,189)"/><path d="M55.725759425976264,130.915823468182L176.70822910072692,112.78592382926114L175.41586688623093,104.34680718202698z" style="fill:rgb(83,212,212)"/><path d="M176.8928439423104,105.96340703924476L178.68163444491006,116.67889983798734L176.89718497473805,105.11627361545389zM179.6344403802689,115.86415579036336L179.00975495575648,117.02039909955597L179.42487711994247,116.84012574492381z" style="fill:rgb(247,158,158)"/><path d="M175.87397694595106,105.44050631351801L56.74554793598831,140.32386644054907L177.1677839780236,113.87509687076938z" style="fill:rgb(83,212,212)"/><path d="M176.7827454852587,106.43195002656216L178.51922751431226,116.50986102580322L176.8928439423104,105.96340703924476zM179.6344403802689,115.86415579036336L178.78148215468045,116.78282582544647L179.00975495575648,117.02039909955597zM178.78148215468045,116.78282582544647L176.89718497473805,105.11627361545389L178.68163444491006,116.67889983798734z" style="fill:rgb(247,158,158)"/><path d="M176.70822910072692,112.78592382926114L57.36471247621717,141.3406687808246L177.62596027840422,114.96102427815062z" style="fill:rgb(131,29,208)"/><path d="M178.68163444491006,116.67889983798734L176.8928439423104,105.96340703924476L178.51922751431226,116.50986102580322zM177.969088441889,115.59159553536271L176.7827454852587,106.43195002656216L176.57053044197917,106.50168193210493zM178.51922751431226,116.50986102580322L176.7827454852587,106.43195002656216L178.2825601596905,116.16768694900857zM177.60838479921404,114.91935289433188L176.57053044197917,106.50168193210493L176.2638061874215,106.16761201893583zM176.7827454852587,106.43195002656216L177.969088441889,115.59159553536271L178.2825601596905,116.16768694900857zM177.1677839780236,113.87509687076938L176.2638061874215,106.16761201893583L175.87397694595106,105.44050631351801zM176.57053044197917,106.50168193210493L177.60838479921404,114.91935289433188L177.969088441889,115.59159553536271zM178.51922751431226,116.50986102580322L178.2825601596905,116.16768694900857L178.4028569814366,116.3887435208049zM176.70822910072692,112.78592382926114L175.87397694595106,105.44050631351801L175.41586688623093,104.34680718202698zM176.2638061874215,106.16761201893583L177.1677839780236,113.87509687076938L177.60838479921404,114.91935289433188zM177.969088441889,115.59159553536271L177.60838479921404,114.91935289433188L177.62596027840422,114.96102427815062zM175.87397694595106,105.44050631351801L176.70822910072692,112.78592382926114L177.1677839780236,113.87509687076938z" style="fill:rgb(247,158,158)"/><path d="M162.03805238236043,74.87037409812069L56.124592733402885,139.30413194903838L176.70822910072692,112.78592382926114zM56.124592733402885,139.30413194903838L162.03805238236043,74.87037409812069L37.11325231103887,103.56451061065597z" style="fill:rgb(127,37,217)"/><path d="M160.8049693904423,66.37789558449604L176.70822910072692,112.78592382926114L175.41586688623093,104.34680718202698z" style="fill:rgb(247,158,158)"/><path d="M37.11325231103887,103.56451061065597L160.8049693904423,66.37789558449604L36.83914758562423,95.11032639493568z" style="fill:rgb(83,212,212)"/><path d="M176.70822910072692,112.78592382926114L160.8049693904423,66.37789558449604L162.03805238236043,74.87037409812069z" style="fill:rgb(247,158,158)"/><path d="M160.8049693904423,66.37789558449604L37.11325231103887,103.56451061065597L162.03805238236043,74.87037409812069z" style="fill:rgb(83,212,212)"/></svg>
