<?xml version="1.0" encoding="UTF-8"?>
<!-- Generated by jsxcad -->
<!DOCTYPE svg PUBLIC "-//W3C//DTD SVG 1.1 Tiny//EN" "http://www.w3.org/Graphics/SVG/1.1/DTD/svg11-tiny.dtd">
<svg viewBox="-250 -250 500 500" width="500" height="500" xmlns="http://www.w3.org/2000/svg"><path d="M-114.71433906966291,-51.612681108132016L-30.031969448961398,-82.18386713214868L-113.89012404526038,-58.72220766193417zM-30.80168404354154,-77.64720564537045L-114.47943354581025,-60.44839633007631L-115.21816435480818,-54.12018640033188zM-31.4988148290909,-80.23475539190981L-115.22909868711344,-62.43274468154921L-115.90986277652935,-56.65075993861581zM-29.877496036637663,-72.67913176396058L-113.47179942478864,-57.43451661143935L-114.41852547339128,-49.22738400106174zM-32.31790446225769,-82.755596156198L-116.11778122125664,-64.52404565467327L-116.76217340796092,-59.10447366168067zM-29.68759824440377,-70.4954779480387L-113.2429242627527,-56.62249278128842L-114.34296220685448,-47.05914435184263zM-33.226791323126854,-85.10993615036386L-117.11552243711601,-66.59435497723699L-117.74167689834614,-61.38410188542949z" style="fill:rgb(83,212,212)"/><path d="M-30.80168404354154,-77.64720564537045L-115.90986277652935,-56.65075993861581L-115.21816435480818,-54.12018640033188z" style="fill:rgb(99,114,251)"/><path d="M-30.253977812526255,-75.09505102932911L-115.21816435480818,-54.12018640033188L-114.71433906966291,-51.612681108132016z" style="fill:rgb(93,139,249)"/><path d="M-115.90986277652935,-56.65075993861581L-32.31790446225769,-82.755596156198L-116.76217340796092,-59.10447366168067z" style="fill:rgb(106,89,247)"/><path d="M-29.877496036637663,-72.67913176396058L-114.71433906966291,-51.612681108132016L-114.41852547339128,-49.22738400106174z" style="fill:rgb(88,163,243)"/><path d="M-116.76217340796092,-59.10447366168067L-33.226791323126854,-85.10993615036386L-117.74167689834614,-61.38410188542949z" style="fill:rgb(114,66,238)"/><path d="M-34.18971228170069,-87.20386256028506L-118.18508132629498,-68.54013539179859L-118.80986770677488,-63.398611487343864z" style="fill:rgb(83,212,212)"/><path d="M-114.34296220685448,-47.05914435184263L-29.877496036637663,-72.67913176396058L-114.41852547339128,-49.22738400106174z" style="fill:rgb(85,186,232)"/><path d="M-111.23379917050127,-40.280577108879L-29.69132335343531,-69.0995488814686L-114.45424318632233,-45.66288134325195z" style="fill:rgb(127,37,217)"/><path d="M-114.47943354581025,-60.44839633007631L-30.80168404354154,-77.64720564537045L-30.59998360327898,-83.95635337783123zM-113.47179942478864,-57.43451661143935L-29.877496036637663,-72.67913176396058L-29.625012278134072,-80.86304737211294z" style="fill:rgb(83,212,212)"/><path d="M-117.74167689834614,-61.38410188542949L-34.18971228170069,-87.20386256028506L-118.80986770677488,-63.398611487343864z" style="fill:rgb(123,46,225)"/><path d="M-114.45424318632233,-45.66288134325195L-29.68759824440377,-70.4954779480387L-114.34296220685448,-47.05914435184263z" style="fill:rgb(83,207,216)"/><path d="M-113.2429242627527,-56.62249278128842L-29.68759824440377,-70.4954779480387L-29.395899836720123,-80.03241692927813zM-115.22909868711344,-62.43274468154921L-31.4988148290909,-80.23475539190981L-31.30986655684679,-85.99869101022051zM-116.11778122125664,-64.52404565467327L-32.31790446225769,-82.755596156198L-32.135736266839885,-88.1576504504394zM-30.031969448961398,-82.18386713214868L-114.71433906966291,-51.612681108132016L-30.253977812526255,-75.09505102932911zM-117.11552243711601,-66.59435497723699L-33.226791323126854,-85.10993615036386L-33.04630952437796,-90.3027884598597z" style="fill:rgb(83,212,212)"/><path d="M-29.612665660792707,-80.82297131729182L-28.301252613562983,-75.72919679230934L-28.913761674243542,-78.27402352946665z" style="fill:rgb(247,158,158)"/><path d="M-118.18508132629498,-68.54013539179859L-34.18971228170069,-87.20386256028506L-34.00606613605463,-92.32770677273761z" style="fill:rgb(83,212,212)"/><path d="M-28.301252613562983,-75.72919679230934L-29.612665660792707,-80.82297131729182L-28.172975315349916,-75.1081602260136zM-28.172975315349916,-75.1081602260136L-29.612665660792707,-80.82297131729182L-30.387617928284293,-83.33816455031038z" style="fill:rgb(247,158,158)"/><path d="M-115.90986277652935,-56.65075993861581L-30.80168404354154,-77.64720564537045L-31.4988148290909,-80.23475539190981z" style="fill:rgb(99,114,251)"/><path d="M-115.21816435480818,-54.12018640033188L-30.253977812526255,-75.09505102932911L-30.80168404354154,-77.64720564537045z" style="fill:rgb(93,139,249)"/><path d="M-32.31790446225769,-82.755596156198L-115.90986277652935,-56.65075993861581L-31.4988148290909,-80.23475539190981z" style="fill:rgb(106,89,247)"/><path d="M-29.69132335343531,-69.0995488814686L-111.23379917050127,-40.280577108879L-26.83044696373813,-63.483295506515226z" style="fill:rgb(127,37,217)"/><path d="M-114.71433906966291,-51.612681108132016L-29.877496036637663,-72.67913176396058L-30.253977812526255,-75.09505102932911z" style="fill:rgb(88,163,243)"/><path d="M-33.226791323126854,-85.10993615036386L-116.76217340796092,-59.10447366168067L-32.31790446225769,-82.755596156198z" style="fill:rgb(114,66,238)"/><path d="M-29.877496036637663,-72.67913176396058L-114.34296220685448,-47.05914435184263L-29.68759824440377,-70.4954779480387z" style="fill:rgb(85,186,232)"/><path d="M-34.18971228170069,-87.20386256028506L-117.74167689834614,-61.38410188542949L-33.226791323126854,-85.10993615036386z" style="fill:rgb(123,46,225)"/><path d="M-32.31790446225769,-82.755596156198L-27.784275869524002,-73.2262994086509L-27.98034990840483,-74.17557295218904zM-27.784275869524002,-73.2262994086509L-32.31790446225769,-82.755596156198L-27.698447067693067,-72.72336321375231zM-31.4988148290909,-80.23475539190981L-27.388804639880597,-70.90896633139161L-27.698447067693067,-72.72336321375231zM-33.226791323126854,-85.10993615036386L-27.98034990840483,-74.17557295218904L-28.172975315349916,-75.1081602260136zM-28.172975315349916,-75.1081602260136L-30.387617928284293,-83.33816455031038L-33.226791323126854,-85.10993615036386zM-30.80168404354154,-77.64720564537045L-27.370657271305678,-70.80262171633075L-27.388804639880597,-70.90896633139161zM-27.370657271305678,-70.80262171633075L-30.80168404354154,-77.64720564537045L-27.12301789910081,-68.92155295552438zM-33.226791323126854,-85.10993615036386L-30.387617928284293,-83.33816455031038L-31.227195132817805,-85.7821343164828z" style="fill:rgb(247,158,158)"/><path d="M-29.68759824440377,-70.4954779480387L-114.45424318632233,-45.66288134325195L-29.69132335343531,-69.0995488814686z" style="fill:rgb(83,207,216)"/><path d="M-30.253977812526255,-75.09505102932911L-27.066796288461436,-68.49449195912501L-27.12301789910081,-68.92155295552438zM-33.226791323126854,-85.10993615036386L-31.227195132817805,-85.7821343164828L-32.11902413309634,-88.11828206384773zM-27.066796288461436,-68.49449195912501L-30.253977812526255,-75.09505102932911L-26.923806724715632,-66.86390204262548zM-33.226791323126854,-85.10993615036386L-32.11902413309634,-88.11828206384773L-33.049923278880485,-90.31130550386426zM-29.877496036637663,-72.67913176396058L-26.877585087337298,-66.33680678886334L-26.923806724715632,-66.86390204262548zM-27.388804639880597,-70.90896633139161L-31.4988148290909,-80.23475539190981L-30.80168404354154,-77.64720564537045zM-27.698447067693067,-72.72336321375231L-32.31790446225769,-82.755596156198L-31.4988148290909,-80.23475539190981zM-26.877585087337298,-66.33680678886334L-29.877496036637663,-72.67913176396058L-26.82455809568363,-64.8678719703534zM-27.12301789910081,-68.92155295552438L-30.80168404354154,-77.64720564537045L-30.253977812526255,-75.09505102932911zM-27.98034990840483,-74.17557295218904L-33.226791323126854,-85.10993615036386L-32.31790446225769,-82.755596156198zM-33.226791323126854,-85.10993615036386L-33.049923278880485,-90.31130550386426L-34.00606613605463,-92.32770677273761zM-26.923806724715632,-66.86390204262548L-30.253977812526255,-75.09505102932911L-29.877496036637663,-72.67913176396058zM-29.68759824440377,-70.4954779480387L-26.806315926775756,-64.36256423075866L-26.82455809568363,-64.8678719703534zM-26.806315926775756,-64.36256423075866L-29.68759824440377,-70.4954779480387L-26.83044696373813,-63.483295506515226zM-26.82455809568363,-64.8678719703534L-29.877496036637663,-72.67913176396058L-29.68759824440377,-70.4954779480387zM-33.226791323126854,-85.10993615036386L-34.00606613605463,-92.32770677273761L-34.18971228170069,-87.20386256028506zM-26.83044696373813,-63.483295506515226L-29.68759824440377,-70.4954779480387L-29.69132335343531,-69.0995488814686z" style="fill:rgb(247,158,158)"/><path d="M-49.03254140463023,-116.58354248309189L-118.80986770677488,-63.398611487343864L-34.18971228170069,-87.20386256028506zM-118.80986770677488,-63.398611487343864L-49.03254140463023,-116.58354248309189L-135.48661369708785,-91.53666833571641z" style="fill:rgb(127,37,217)"/><path d="M-51.15985288179557,-63.12249793200805L-50.94399552684616,-32.399267719402324L-49.36732754914229,-63.618105715622335zM-49.36732754914229,-63.618105715622335L-48.39142091572239,-33.5785339177992L-46.9160879800513,-64.29583806179032zM-53.64110560726728,-28.478588612149935L-51.15985288179557,-63.12249793200805L-51.81556436335449,-62.941203587820056z" style="fill:rgb(83,212,212)"/><path d="M-34.00606613605463,-92.32770677273761L-49.03254140463023,-116.58354248309189L-34.18971228170069,-87.20386256028506z" style="fill:rgb(247,158,158)"/><path d="M-46.9160879800513,-64.29583806179032L-45.883642827517484,-33.75940242482492L-44.46184516832504,-64.97440719457941zM-45.883642827517484,-33.75940242482492L-42.6633032350693,-65.47167848515161L-44.46184516832504,-64.97440719457941zM-44.08801574544404,-32.89065961469414L-42.004586017440424,-65.65380456930946L-42.6633032350693,-65.47167848515161zM-49.03254140463023,-116.58354248309189L-134.7560829708955,-96.6567019853868L-135.48661369708785,-91.53666833571641z" style="fill:rgb(83,212,212)"/><path d="M-49.03254140463023,-116.58354248309189L-34.00606613605463,-92.32770677273761L-48.76235119081428,-121.67812476990721z" style="fill:rgb(247,158,158)"/><path d="M-134.7560829708955,-96.6567019853868L-49.03254140463023,-116.58354248309189L-48.76235119081428,-121.67812476990721zM-48.39142091572239,-33.5785339177992L-49.36732754914229,-63.618105715622335L-50.94399552684616,-32.399267719402324zM-50.94399552684616,-32.399267719402324L-51.15985288179557,-63.12249793200805L-52.86455619718946,-30.534646403341597zM-45.883642827517484,-33.75940242482492L-46.9160879800513,-64.29583806179032L-48.39142091572239,-33.5785339177992zM-51.15985288179557,-63.12249793200805L-53.64110560726728,-28.478588612149935L-52.86455619718946,-30.534646403341597zM-42.6633032350693,-65.47167848515161L-45.883642827517484,-33.75940242482492L-44.08801574544404,-32.89065961469414zM-42.004586017440424,-65.65380456930946L-44.08801574544404,-32.89065961469414L-43.488234975182536,-31.199371995013877zM135.9895675934738,-124.13223177993059L44.19809725619261,-104.91918025854142L44.4948926108999,-98.63249496098794zM136.62807980126814,-121.49299363794897L44.74593340756422,-103.1050701533086L45.08291764281573,-96.040839581654zM135.2828679694207,-126.83267155602148L43.5256564846423,-107.01378390876502L43.79325057478429,-101.27095451389165zM137.17313106359165,-119.01911218793478L45.142035114118386,-101.75450413868842L45.53398836578119,-93.59833515820723zM134.53580620465223,-129.48791852020142L42.75869152649761,-109.23389054185779L43.00562684241043,-103.85218293279009zM137.60292791481848,-116.80886786527506L45.37119542469124,-100.90724656461158L45.82988262617694,-91.40204166011682zM133.77778946660314,-131.99308321326143L41.929680455799264,-111.44684288849471L42.162980381280654,-106.27408922937524z" style="fill:rgb(83,212,212)"/><path d="M135.9895675934738,-124.13223177993059L43.79325057478429,-101.27095451389165L44.4948926108999,-98.63249496098794z" style="fill:rgb(99,114,251)"/><path d="M136.62807980126814,-121.49299363794897L44.4948926108999,-98.63249496098794L45.08291764281573,-96.040839581654z" style="fill:rgb(93,139,249)"/><path d="M43.79325057478429,-101.27095451389165L134.53580620465223,-129.48791852020142L43.00562684241043,-103.85218293279009z" style="fill:rgb(106,89,247)"/><path d="M137.17313106359165,-119.01911218793478L45.08291764281573,-96.040839581654L45.53398836578119,-93.59833515820723z" style="fill:rgb(88,163,243)"/><path d="M-48.39142091572239,-33.5785339177992L-47.899885632758476,-26.829988709490966L-45.360135616299836,-28.002380138336374z" style="fill:rgb(158,48,222)"/><path d="M43.00562684241043,-103.85218293279009L133.77778946660314,-131.99308321326143L42.162980381280654,-106.27408922937524z" style="fill:rgb(114,66,238)"/><path d="M-47.899885632758476,-26.829988709490966L-52.86455619718946,-30.534646403341597L-49.8077771703456,-24.970105008123358z" style="fill:rgb(212,85,213)"/><path d="M133.03880568080766,-134.24841497972508L41.07255388122054,-113.54364591767688L41.29853538734674,-108.44014217754531z" style="fill:rgb(83,212,212)"/><path d="M45.82988262617694,-91.40204166011682L137.17313106359165,-119.01911218793478L45.53398836578119,-93.59833515820723z" style="fill:rgb(85,186,232)"/><path d="M-45.883642827517484,-33.75940242482492L-45.360135616299836,-28.002380138336374L-42.86197043334744,-28.176044204091717z" style="fill:rgb(96,32,206)"/><path d="M48.4509277625786,-84.17835398906152L137.82538101152798,-115.41737568110722L45.92601556498682,-90.00750282085693z" style="fill:rgb(127,37,217)"/><path d="M-47.899885632758476,-26.829988709490966L-48.39142091572239,-33.5785339177992L-50.94399552684616,-32.399267719402324z" style="fill:rgb(158,48,222)"/><path d="M44.74593340756422,-103.1050701533086L136.62807980126814,-121.49299363794897L135.58414038355815,-128.51958738493627z" style="fill:rgb(83,212,212)"/><path d="M-41.070205407047844,-27.301697469058336L-45.883642827517484,-33.75940242482492L-42.86197043334744,-28.176044204091717z" style="fill:rgb(42,41,169)"/><path d="M44.19809725619261,-104.91918025854142L135.9895675934738,-124.13223177993059L135.06232364551892,-130.3846789585417zM45.142035114118386,-101.75450413868842L137.17313106359165,-119.01911218793478L135.96614377938155,-127.1326497168061z" style="fill:rgb(83,212,212)"/><path d="M42.162980381280654,-106.27408922937524L133.03880568080766,-134.24841497972508L41.29853538734674,-108.44014217754531z" style="fill:rgb(123,46,225)"/><path d="M-49.8077771703456,-24.970105008123358L-53.64110560726728,-28.478588612149935L-50.575161956253716,-22.915412905603986z" style="fill:rgb(243,133,180)"/><path d="M-52.86455619718946,-30.534646403341597L-47.899885632758476,-26.829988709490966L-50.94399552684616,-32.399267719402324z" style="fill:rgb(212,85,213)"/><path d="M45.92601556498682,-90.00750282085693L137.60292791481848,-116.80886786527506L45.82988262617694,-91.40204166011682z" style="fill:rgb(83,207,216)"/><path d="M-45.360135616299836,-28.002380138336374L-45.883642827517484,-33.75940242482492L-48.39142091572239,-33.5785339177992z" style="fill:rgb(96,32,206)"/><path d="M45.37119542469124,-100.90724656461158L137.60292791481848,-116.80886786527506L136.1951633220613,-126.26511374336621zM43.5256564846423,-107.01378390876502L135.2828679694207,-126.83267155602148L134.43786256219113,-132.5434777534341z" style="fill:rgb(83,212,212)"/><path d="M-53.64110560726728,-28.478588612149935L-49.8077771703456,-24.970105008123358L-52.86455619718946,-30.534646403341597z" style="fill:rgb(243,133,180)"/><path d="M-53.64110560726728,-28.478588612149935L-49.99190347475645,-21.213670756684206L-50.575161956253716,-22.915412905603986z" style="fill:rgb(243,180,133)"/><path d="M42.75869152649761,-109.23389054185779L134.53580620465223,-129.48791852020142L133.74612332366667,-134.8388980398176z" style="fill:rgb(83,212,212)"/><path d="M-45.883642827517484,-33.75940242482492L-41.070205407047844,-27.301697469058336L-44.08801574544404,-32.89065961469414z" style="fill:rgb(42,41,169)"/><path d="M41.929680455799264,-111.44684288849471L133.77778946660314,-131.99308321326143L133.0210658035883,-137.135606160673z" style="fill:rgb(83,212,212)"/><path d="M-49.99190347475645,-21.213670756684206L-53.64110560726728,-28.478588612149935L-53.061006050384336,-26.77921698525172z" style="fill:rgb(243,180,133)"/><path d="M135.97774213807358,-127.09056810184572L137.34301737545647,-121.78675436352057L136.67877120967702,-124.42911118666112z" style="fill:rgb(247,158,158)"/><path d="M41.07255388122054,-113.54364591767688L133.03880568080766,-134.24841497972508L132.29458562049828,-139.3214533193887z" style="fill:rgb(83,212,212)"/><path d="M137.34301737545647,-121.78675436352057L135.97774213807358,-127.09056810184572L137.49624935248133,-121.14557852044489zM137.49624935248133,-121.14557852044489L135.97774213807358,-127.09056810184572L135.2502922396471,-129.73169431538108z" style="fill:rgb(247,158,158)"/><path d="M43.79325057478429,-101.27095451389165L135.9895675934738,-124.13223177993059L135.2828679694207,-126.83267155602148z" style="fill:rgb(99,114,251)"/><path d="M44.4948926108999,-98.63249496098794L136.62807980126814,-121.49299363794897L135.9895675934738,-124.13223177993059z" style="fill:rgb(93,139,249)"/><path d="M134.53580620465223,-129.48791852020142L43.79325057478429,-101.27095451389165L135.2828679694207,-126.83267155602148z" style="fill:rgb(106,89,247)"/><path d="M137.82538101152798,-115.41737568110722L48.4509277625786,-84.17835398906152L139.92269834763715,-109.3241989347821z" style="fill:rgb(127,37,217)"/><path d="M45.08291764281573,-96.040839581654L137.17313106359165,-119.01911218793478L136.62807980126814,-121.49299363794897z" style="fill:rgb(88,163,243)"/><path d="M133.77778946660314,-131.99308321326143L43.00562684241043,-103.85218293279009L134.53580620465223,-129.48791852020142z" style="fill:rgb(114,66,238)"/><path d="M137.17313106359165,-119.01911218793478L45.82988262617694,-91.40204166011682L137.60292791481848,-116.80886786527506z" style="fill:rgb(85,186,232)"/><path d="M133.03880568080766,-134.24841497972508L42.162980381280654,-106.27408922937524L133.77778946660314,-131.99308321326143z" style="fill:rgb(123,46,225)"/><path d="M134.53580620465223,-129.48791852020142L137.96061018882003,-119.20267182740582L137.72637001166203,-120.18275118362952zM137.96061018882003,-119.20267182740582L134.53580620465223,-129.48791852020142L138.0771668881202,-118.6865362795981zM135.2828679694207,-126.83267155602148L138.49766821493472,-116.82444594224857L138.0771668881202,-118.6865362795981zM133.77778946660314,-131.99308321326143L137.72637001166203,-120.18275118362952L137.49624935248133,-121.14557852044489zM137.49624935248133,-121.14557852044489L135.2502922396471,-129.73169431538108L133.77778946660314,-131.99308321326143zM135.9895675934738,-124.13223177993059L138.52231792325074,-116.71529764161873L138.49766821493472,-116.82444594224857zM138.52231792325074,-116.71529764161873L135.9895675934738,-124.13223177993059L138.92763285029713,-114.79732923548121zM133.77778946660314,-131.99308321326143L135.2502922396471,-129.73169431538108L134.5071778925568,-132.3132728549615z" style="fill:rgb(247,158,158)"/><path d="M137.60292791481848,-116.80886786527506L45.92601556498682,-90.00750282085693L137.82538101152798,-115.41737568110722z" style="fill:rgb(83,207,216)"/><path d="M136.62807980126814,-121.49299363794897L139.01965552075004,-114.36187528151841L138.92763285029713,-114.79732923548121zM133.77778946660314,-131.99308321326143L134.5071778925568,-132.3132728549615L133.75942420235214,-134.79675007301302zM139.01965552075004,-114.36187528151841L136.62807980126814,-121.49299363794897L139.34107946260085,-112.71147224215589zM133.77778946660314,-131.99308321326143L133.75942420235214,-134.79675007301302L133.01818824357707,-137.1447244050339zM137.17313106359165,-119.01911218793478L139.444978950549,-112.17794643901208L139.34107946260085,-112.71147224215589zM138.49766821493472,-116.82444594224857L135.2828679694207,-126.83267155602148L135.9895675934738,-124.13223177993059zM138.0771668881202,-118.6865362795981L134.53580620465223,-129.48791852020142L135.2828679694207,-126.83267155602148zM139.444978950549,-112.17794643901208L137.17313106359165,-119.01911218793478L139.70290923317071,-110.70402855611974zM138.92763285029713,-114.79732923548121L135.9895675934738,-124.13223177993059L136.62807980126814,-121.49299363794897zM137.72637001166203,-120.18275118362952L133.77778946660314,-131.99308321326143L134.53580620465223,-129.48791852020142zM133.77778946660314,-131.99308321326143L133.01818824357707,-137.1447244050339L132.29458562049828,-139.3214533193887zM139.34107946260085,-112.71147224215589L136.62807980126814,-121.49299363794897L137.17313106359165,-119.01911218793478zM137.60292791481848,-116.80886786527506L139.79163755253447,-110.19697702788186L139.70290923317071,-110.70402855611974zM139.79163755253447,-110.19697702788186L137.60292791481848,-116.80886786527506L139.92269834763715,-109.3241989347821zM139.70290923317071,-110.70402855611974L137.17313106359165,-119.01911218793478L137.60292791481848,-116.80886786527506zM133.77778946660314,-131.99308321326143L132.29458562049828,-139.3214533193887L133.03880568080766,-134.24841497972508zM139.92269834763715,-109.3241989347821L137.60292791481848,-116.80886786527506L137.82538101152798,-115.41737568110722z" style="fill:rgb(247,158,158)"/><path d="M122.0996531219891,-166.16278085810387L41.29853538734674,-108.44014217754531L133.03880568080766,-134.24841497972508zM41.29853538734674,-108.44014217754531L122.0996531219891,-166.16278085810387L28.17186106680296,-138.95067242736025z" style="fill:rgb(127,37,217)"/><path d="M121.39819318650463,-171.18937806347483L133.03880568080766,-134.24841497972508L132.29458562049828,-139.3214533193887z" style="fill:rgb(247,158,158)"/><path d="M122.0996531219891,-166.16278085810387L28.013640750710284,-144.01746561693437L28.17186106680296,-138.95067242736025zM59.51500422040702,-93.7225975832126L67.12921896780898,-6.032667740155348L61.408238564988196,-94.24605518510701zM61.408238564988196,-94.24605518510701L69.92580292239866,-7.312607840191947L63.99726576173201,-94.96188531814262zM64.52365325851038,-1.6892822373947245L59.51500422040702,-93.7225975832126L58.82246558239912,-93.53112622661979zM69.92580292239866,-7.312607840191947L66.58956368908511,-95.67861833070948L63.99726576173201,-94.96188531814262zM66.58956368908511,-95.67861833070948L74.99278076642139,-6.479025911762118L68.4893291885119,-96.20388171566835zM28.013640750710284,-144.01746561693437L122.0996531219891,-166.16278085810387L121.39819318650463,-171.18937806347483zM68.4893291885119,-96.20388171566835L75.90926267969198,-4.5785231722924795L69.18513335595115,-96.39625593209414z" style="fill:rgb(83,212,212)"/><path d="M133.03880568080766,-134.24841497972508L121.39819318650463,-171.18937806347483L122.0996531219891,-166.16278085810387z" style="fill:rgb(247,158,158)"/><path d="M-114.43348786070842,-45.628194294528804L-63.121853747945266,150.49920468870263L-51.81556436335449,-62.941203587820056zM-60.86413288873648,107.87790380338686L-53.061006050384336,-26.77921698525172L-53.64110560726728,-28.478588612149935zM-53.061006050384336,-26.77921698525172L-57.783839342169486,103.03317643970249L-51.27249489071059,-25.8948053746674zM-51.27249489071059,-25.8948053746674L-54.889559707648814,101.71658641433403L-48.75214310254236,-26.068080830630397zM-54.889559707648814,101.71658641433403L-46.179889165343255,-27.255428208872306L-48.75214310254236,-26.068080830630397zM-52.05292479676243,101.68475784945093L-44.25221295214463,-29.1357238134872L-46.179889165343255,-27.255428208872306zM-44.25221295214463,-29.1357238134872L-49.361031153997715,105.183235307136L-43.488234975182536,-31.199371995013877zM69.92580292239866,-7.312607840191947L61.408238564988196,-94.24605518510701L67.12921896780898,-6.032667740155348zM67.12921896780898,-6.032667740155348L59.51500422040702,-93.7225975832126L65.15280045255207,-3.9769135267612183zM66.58956368908511,-95.67861833070948L69.92580292239866,-7.312607840191947L72.8018072463942,-7.477236584989879zM59.51500422040702,-93.7225975832126L64.52365325851038,-1.6892822373947245L65.15280045255207,-3.9769135267612183zM74.99278076642139,-6.479025911762118L66.58956368908511,-95.67861833070948L72.8018072463942,-7.477236584989879zM75.90926267969198,-4.5785231722924795L68.4893291885119,-96.20388171566835L74.99278076642139,-6.479025911762118zM-42.004586017440424,-65.65380456930946L72.0933691379165,120.25312463492303L58.82246558239912,-93.53112622661979z" style="fill:rgb(83,212,212)"/><path d="M69.92580292239866,-7.312607840191947L69.7754721002788,-0.12103583946965109L72.55666983074994,-1.3928757741513011z" style="fill:rgb(158,48,222)"/><path d="M69.7754721002788,-0.12103583946965109L65.15280045255207,-3.9769135267612183L67.81277252997344,1.9288135226722567z" style="fill:rgb(212,85,213)"/><path d="M72.8018072463942,-7.477236584989879L72.55666983074994,-1.3928757741513011L75.41963344106864,-1.549335481725884z" style="fill:rgb(96,32,206)"/><path d="M69.7754721002788,-0.12103583946965109L69.92580292239866,-7.312607840191947L67.12921896780898,-6.032667740155348z" style="fill:rgb(158,48,222)"/><path d="M77.60336771352233,-0.5450782887983333L72.8018072463942,-7.477236584989879L75.41963344106864,-1.549335481725884z" style="fill:rgb(42,41,169)"/><path d="M67.81277252997344,1.9288135226722567L64.52365325851038,-1.6892822373947245L67.19203690813765,4.21427033845836z" style="fill:rgb(243,133,180)"/><path d="M69.18513335595115,-96.39625593209414L169.67344707873562,98.42560092371296L137.83890255296612,-115.37809488181774z" style="fill:rgb(83,212,212)"/><path d="M65.15280045255207,-3.9769135267612183L69.7754721002788,-0.12103583946965109L67.12921896780898,-6.032667740155348z" style="fill:rgb(212,85,213)"/><path d="M72.55666983074994,-1.3928757741513011L72.8018072463942,-7.477236584989879L69.92580292239866,-7.312607840191947z" style="fill:rgb(96,32,206)"/><path d="M64.52365325851038,-1.6892822373947245L67.81277252997344,1.9288135226722567L65.15280045255207,-3.9769135267612183z" style="fill:rgb(243,133,180)"/><path d="M78.52038645721032,1.3576814853943908L74.99278076642139,-6.479025911762118L77.60336771352233,-0.5450782887983333z" style="fill:rgb(11,74,121)"/><path d="M72.8018072463942,-7.477236584989879L77.60336771352233,-0.5450782887983333L74.99278076642139,-6.479025911762118z" style="fill:rgb(42,41,169)"/><path d="M169.67344707873562,98.42560092371296L139.9336592011829,-109.29233960586319L137.83890255296612,-115.37809488181774z" style="fill:rgb(247,158,158)"/><path d="M-57.783839342169486,103.03317643970249L-53.061006050384336,-26.77921698525172L-59.96943844258533,105.28540005027494zM-54.889559707648814,101.71658641433403L-51.27249489071059,-25.8948053746674L-57.783839342169486,103.03317643970249z" style="fill:rgb(83,212,212)"/><path d="M74.99278076642139,-6.479025911762118L78.52038645721032,1.3576814853943908L75.90926267969198,-4.5785231722924795z" style="fill:rgb(11,74,121)"/><path d="M-53.061006050384336,-26.77921698525172L-60.86413288873648,107.87790380338686L-59.96943844258533,105.28540005027494zM-46.179889165343255,-27.255428208872306L-54.889559707648814,101.71658641433403L-52.05292479676243,101.68475784945093zM-44.25221295214463,-29.1357238134872L-52.05292479676243,101.68475784945093L-50.02812632262479,102.95065815997013zM-49.361031153997715,105.183235307136L-44.25221295214463,-29.1357238134872L-50.02812632262479,102.95065815997013zM-63.121853747945266,150.49920468870263L-114.43348786070842,-45.628194294528804L-138.92798005845634,167.45615585150554zM72.0933691379165,120.25312463492303L-42.004586017440424,-65.65380456930946L-51.19753210864719,147.8318798950849z" style="fill:rgb(83,212,212)"/><path d="M-54.889559707648814,101.71658641433403L-54.29321857965941,108.5497244779057L-51.415415485562086,107.24172613986438z" style="fill:rgb(158,48,222)"/><path d="M-54.29321857965941,108.5497244779057L-59.96943844258533,105.28540005027494L-56.462447351654106,110.79424383001647z" style="fill:rgb(212,85,213)"/><path d="M-52.05292479676243,101.68475784945093L-51.415415485562086,107.24172613986438L-48.591050060895604,107.21712270704137z" style="fill:rgb(96,32,206)"/><path d="M-54.29321857965941,108.5497244779057L-54.889559707648814,101.71658641433403L-57.783839342169486,103.03317643970249z" style="fill:rgb(158,48,222)"/><path d="M-46.57107767588147,108.48693004930773L-52.05292479676243,101.68475784945093L-48.591050060895604,107.21712270704137z" style="fill:rgb(42,41,169)"/><path d="M-56.462447351654106,110.79424383001647L-60.86413288873648,107.87790380338686L-57.34519852585745,113.38193085305912z" style="fill:rgb(243,133,180)"/><path d="M-59.96943844258533,105.28540005027494L-54.29321857965941,108.5497244779057L-57.783839342169486,103.03317643970249z" style="fill:rgb(212,85,213)"/><path d="M-51.415415485562086,107.24172613986438L-52.05292479676243,101.68475784945093L-54.889559707648814,101.71658641433403z" style="fill:rgb(96,32,206)"/><path d="M-60.86413288873648,107.87790380338686L-56.462447351654106,110.79424383001647L-59.96943844258533,105.28540005027494z" style="fill:rgb(243,133,180)"/><path d="M-60.86413288873648,107.87790380338686L-56.69917885531185,115.62389529965843L-57.34519852585745,113.38193085305912z" style="fill:rgb(243,180,133)"/><path d="M-52.05292479676243,101.68475784945093L-46.57107767588147,108.48693004930773L-50.02812632262479,102.95065815997013z" style="fill:rgb(42,41,169)"/><path d="M64.52365325851038,-1.6892822373947245L72.94492713439637,120.06264715037982L65.41649570329213,0.2207394009566787z" style="fill:rgb(83,212,212)"/><path d="M-56.69917885531185,115.62389529965843L-60.86413288873648,107.87790380338686L-60.22236826319947,110.12052340284967z" style="fill:rgb(243,180,133)"/><path d="M65.41649570329213,0.2207394009566787L75.27321337806036,119.5418326557566L67.6007450321784,1.2379229633037063zM75.27321337806036,119.5418326557566L70.49365911542398,1.082748462113465L67.6007450321784,1.2379229633037063zM75.29703107845641,-2.2814379384042787L84.8422688550186,117.40135141958754L75.90926267969198,-4.5785231722924795zM73.31388857496412,-0.20671030753739464L83.98578558230723,117.59293061316781L75.29703107845641,-2.2814379384042787zM70.49365911542398,1.082748462113465L81.64764864661203,118.11594860190608L73.31388857496412,-0.20671030753739464zM-60.86413288873648,107.87790380338686L-62.325296941210006,150.32103093278315L-60.22236826319947,110.12052340284967zM-60.22236826319947,110.12052340284967L-60.14744890654949,149.83386704704557L-58.2068368515931,111.40874568114951zM-50.239655761718446,107.78800663709734L-51.19753210864719,147.8318798950849L-49.361031153997715,105.183235307136zM-58.2068368515931,111.40874568114951L-57.168598752703744,149.16753504387435L-55.35412919865976,111.389196600377zM169.67344707873562,98.42560092371296L69.18513335595115,-96.39625593209414L84.8422688550186,117.40135141958754zM-52.43452154056906,110.06256401902017L-51.99854116003739,148.01105023477209L-50.239655761718446,107.78800663709734zM-55.35412919865976,111.389196600377L-54.18529977529753,148.50020732368012L-52.43452154056906,110.06256401902017zM-62.325296941210006,150.32103093278315L-60.86413288873648,107.87790380338686L-63.121853747945266,150.49920468870263z" style="fill:rgb(83,212,212)"/><path d="M139.9336592011829,-109.29233960586319L169.67344707873562,98.42560092371296L172.0429822897329,104.525047631566z" style="fill:rgb(247,158,158)"/><path d="M-60.14744890654949,149.83386704704557L-60.22236826319947,110.12052340284967L-62.325296941210006,150.32103093278315zM-57.168598752703744,149.16753504387435L-58.2068368515931,111.40874568114951L-60.14744890654949,149.83386704704557z" style="fill:rgb(83,212,212)"/><path d="M-36.319881200026146,146.34370599326792L-138.9541270488488,167.42229775037254L-139.2319204916719,169.31671750156548z" style="fill:rgb(83,216,207)"/><path d="M-54.18529977529753,148.50020732368012L-55.35412919865976,111.389196600377L-57.168598752703744,149.16753504387435zM-51.19753210864719,147.8318798950849L-50.239655761718446,107.78800663709734L-51.99854116003739,148.01105023477209zM-51.99854116003739,148.01105023477209L-52.43452154056906,110.06256401902017L-54.18529977529753,148.50020732368012z" style="fill:rgb(83,212,212)"/><path d="M-36.69927471900083,148.43935617402502L-139.2319204916719,169.31671750156548L-139.87094830026717,171.41858326721197z" style="fill:rgb(85,232,186)"/><path d="M-140.75485119576078,173.00781157834487L-36.69927471900083,148.43935617402502L-139.87094830026717,171.41858326721197z" style="fill:rgb(88,243,163)"/><path d="M-141.84984731009004,174.01552754399972L-37.30363047162468,150.00318620218258L-140.75485119576078,173.00781157834487z" style="fill:rgb(93,249,139)"/><path d="M72.94492713439637,120.06264715037982L64.52365325851038,-1.6892822373947245L72.0933691379165,120.25312463492303zM75.27321337806036,119.5418326557566L65.41649570329213,0.2207394009566787L72.94492713439637,120.06264715037982z" style="fill:rgb(83,212,212)"/><path d="M-138.9541270488488,167.42229775037254L-36.319881200026146,146.34370599326792L-36.21410661239798,144.4395081205158z" style="fill:rgb(83,216,207)"/><path d="M-36.76622125581678,160.93656528662626L-139.2319204916719,169.31671750156548L-140.8985252775762,183.8055880732506zM-142.01591607171054,183.88551065332615L-37.30363047162468,150.00318620218258L-140.75485119576078,173.00781157834487zM70.49365911542398,1.082748462113465L75.27321337806036,119.5418326557566L78.45796518535955,118.82944149470784zM81.64764864661203,118.11594860190608L70.49365911542398,1.082748462113465L78.45796518535955,118.82944149470784z" style="fill:rgb(83,212,212)"/><path d="M-143.11295691900133,174.39532157151135L-38.110380737457376,150.96712226368803L-141.84984731009004,174.01552754399972z" style="fill:rgb(99,251,114)"/><path d="M-139.2319204916719,169.31671750156548L-36.69927471900083,148.43935617402502L-36.319881200026146,146.34370599326792z" style="fill:rgb(85,232,186)"/><path d="M-37.087529076101106,161.0240760328748L-139.87094830026717,171.41858326721197L-141.31222558036728,183.9129484002542zM84.8422688550186,117.40135141958754L75.29703107845641,-2.2814379384042787L83.98578558230723,117.59293061316781zM83.98578558230723,117.59293061316781L73.31388857496412,-0.20671030753739464L81.64764864661203,118.11594860190608zM-139.2319204916719,169.31671750156548L-36.76622125581678,160.93656528662626L-36.319881200026146,146.34370599326792z" style="fill:rgb(83,212,212)"/><path d="M-36.69927471900083,148.43935617402502L-140.75485119576078,173.00781157834487L-37.30363047162468,150.00318620218258z" style="fill:rgb(88,243,163)"/><path d="M-134.88019351218406,172.69786619965947L169.67344707873562,98.42560092371296L-138.92798005845634,167.45615585150554z" style="fill:rgb(127,37,217)"/><path d="M-38.42374865377029,160.76919131081775L-141.84984731009004,174.01552754399972L-142.98579822320139,183.7464549136113z" style="fill:rgb(83,212,212)"/><path d="M-36.319881200026146,146.34370599326792L-32.688420314395366,149.96638829336817L-36.21410661239798,144.4395081205158z" style="fill:rgb(247,158,158)"/><path d="M-139.87094830026717,171.41858326721197L-37.087529076101106,161.0240760328748L-36.69927471900083,148.43935617402502z" style="fill:rgb(83,212,212)"/><path d="M-141.29090654966265,183.913783943345L-38.136733141893124,160.90395489179937L-142.6323817068489,183.86148115587014z" style="fill:rgb(150,5,158)"/><path d="M-37.30363047162468,150.00318620218258L-141.84984731009004,174.01552754399972L-38.110380737457376,150.96712226368803z" style="fill:rgb(93,249,139)"/><path d="M-32.688420314395366,149.96638829336817L-36.76622125581678,160.93656528662626L-32.724310280602595,151.27413372635735z" style="fill:rgb(247,158,158)"/><path d="M-39.38327349314655,160.28330228765174L-143.11295691900133,174.39532157151135L-144.16455926298713,183.3269746993607z" style="fill:rgb(83,212,212)"/><path d="M-32.724310280602595,151.27413372635735L-36.76622125581678,160.93656528662626L-32.94320577435305,153.64743124364975z" style="fill:rgb(247,158,158)"/><path d="M-142.6323817068489,183.86148115587014L-39.27322517585376,160.37031615944082L-144.03172846236578,183.40607143087058z" style="fill:rgb(146,9,173)"/><path d="M-32.688420314395366,149.96638829336817L-36.319881200026146,146.34370599326792L-36.76622125581678,160.93656528662626z" style="fill:rgb(247,158,158)"/><path d="M-40.4841012649658,159.4063043363232L-144.49348626407615,174.12592482061626L-145.4926546968147,182.52929371006107z" style="fill:rgb(83,212,212)"/><path d="M-38.110380737457376,150.96712226368803L-143.11295691900133,174.39532157151135L-39.088338121276905,151.28620584917604z" style="fill:rgb(99,251,114)"/><path d="M-32.94320577435305,153.64743124364975L-36.76622125581678,160.93656528662626L-33.30704942287353,155.7436745160875z" style="fill:rgb(247,158,158)"/><path d="M-141.84984731009004,174.01552754399972L-38.42374865377029,160.76919131081775L-38.110380737457376,150.96712226368803zM-37.30363047162468,150.00318620218258L-142.01591607171054,183.88551065332615L-37.6467788583026,160.96005183588824z" style="fill:rgb(83,212,212)"/><path d="M-144.03172846236578,183.40607143087058L-40.462182649207115,159.4302368388822L-145.46670504580496,182.55158251200587z" style="fill:rgb(140,15,187)"/><path d="M-33.30704942287353,155.7436745160875L-36.76622125581678,160.93656528662626L-33.811434352420555,157.52863844935104z" style="fill:rgb(247,158,158)"/><path d="M-41.67978551233477,158.1010175406222L-145.93493978791668,173.2130210831439L-146.9084553041483,181.31367761828008z" style="fill:rgb(83,212,212)"/><path d="M-36.69927471900083,148.43935617402502L-36.76622125581678,160.93656528662626L-36.319881200026146,146.34370599326792z" style="fill:rgb(247,158,158)"/><path d="M-38.136733141893124,160.90395489179937L-141.29090654966265,183.913783943345L-37.07058479027078,161.0260077261879z" style="fill:rgb(150,5,158)"/><path d="M-143.11295691900133,174.39532157151135L-39.38327349314655,160.28330228765174L-39.088338121276905,151.28620584917604z" style="fill:rgb(83,212,212)"/><path d="M-145.46670504580496,182.55158251200587L-41.68453613233243,158.09582080013337L-146.91407961646465,181.3088491433263z" style="fill:rgb(135,23,200)"/><path d="M-33.811434352420555,157.52863844935104L-36.76622125581678,160.93656528662626L-34.44976775372207,158.97214367080775z" style="fill:rgb(247,158,158)"/><path d="M-42.9203556455399,156.3861468253124L-147.37723852363663,171.68990162282455L-148.3500613387316,179.69553236949352z" style="fill:rgb(83,212,212)"/><path d="M-37.30363047162468,150.00318620218258L-37.087529076101106,161.0240760328748L-36.69927471900083,148.43935617402502zM-34.44976775372207,158.97214367080775L-36.76622125581678,160.93656528662626L-35.21330682900997,160.0487329288214z" style="fill:rgb(247,158,158)"/><path d="M-146.91407961646465,181.3088491433263L-42.9203556455399,156.3861468253124L-148.3500613387316,179.69553236949352z" style="fill:rgb(130,32,212)"/><path d="M-144.49348626407615,174.12592482061626L-40.4841012649658,159.4063043363232L-40.1986464243149,150.94138013598578z" style="fill:rgb(83,212,212)"/><path d="M-39.27322517585376,160.37031615944082L-142.6323817068489,183.86148115587014L-38.136733141893124,160.90395489179937z" style="fill:rgb(146,9,173)"/><path d="M-36.76622125581678,160.93656528662626L-36.69927471900083,148.43935617402502L-37.087529076101106,161.0240760328748zM-38.110380737457376,150.96712226368803L-37.6467788583026,160.96005183588824L-37.30363047162468,150.00318620218258zM-35.21330682900997,160.0487329288214L-36.76622125581678,160.93656528662626L-36.091198148735494,160.73818841912976z" style="fill:rgb(247,158,158)"/><path d="M-145.93493978791668,173.2130210831439L-41.67978551233477,158.1010175406222L-41.39618446566469,149.94120109162338z" style="fill:rgb(83,212,212)"/><path d="M-40.462182649207115,159.4302368388822L-144.03172846236578,183.40607143087058L-39.27322517585376,160.37031615944082z" style="fill:rgb(140,15,187)"/><path d="M-37.087529076101106,161.0240760328748L-37.30363047162468,150.00318620218258L-37.6467788583026,160.96005183588824zM-36.76622125581678,160.93656528662626L-37.087529076101106,161.0240760328748L-37.07058479027078,161.0260077261879zM-39.38327349314655,160.28330228765174L-38.110380737457376,150.96712226368803L-39.088338121276905,151.28620584917604z" style="fill:rgb(247,158,158)"/><path d="M-147.37723852363663,171.68990162282455L-42.9203556455399,156.3861468253124L-42.63133887649417,148.322423751848z" style="fill:rgb(83,212,212)"/><path d="M-37.6467788583026,160.96005183588824L-38.110380737457376,150.96712226368803L-38.42374865377029,160.76919131081775z" style="fill:rgb(247,158,158)"/><path d="M-41.68453613233243,158.09582080013337L-145.46670504580496,182.55158251200587L-40.462182649207115,159.4302368388822z" style="fill:rgb(135,23,200)"/><path d="M-38.110380737457376,150.96712226368803L-39.38327349314655,160.28330228765174L-38.42374865377029,160.76919131081775zM-37.6467788583026,160.96005183588824L-38.42374865377029,160.76919131081775L-38.136733141893124,160.90395489179937zM-40.4841012649658,159.4063043363232L-39.088338121276905,151.28620584917604L-40.1986464243149,150.94138013598578z" style="fill:rgb(247,158,158)"/><path d="M-42.9203556455399,156.3861468253124L-146.91407961646465,181.3088491433263L-41.68453613233243,158.09582080013337z" style="fill:rgb(130,32,212)"/><path d="M-39.088338121276905,151.28620584917604L-40.4841012649658,159.4063043363232L-39.38327349314655,160.28330228765174zM-38.42374865377029,160.76919131081775L-39.38327349314655,160.28330228765174L-39.27322517585376,160.37031615944082zM-41.67978551233477,158.1010175406222L-40.1986464243149,150.94138013598578L-41.39618446566469,149.94120109162338z" style="fill:rgb(247,158,158)"/><path d="M169.67344707873562,98.42560092371296L-134.88019351218406,172.69786619965947L172.0429822897329,104.525047631566z" style="fill:rgb(127,37,217)"/><path d="M-40.1986464243149,150.94138013598578L-41.67978551233477,158.1010175406222L-40.4841012649658,159.4063043363232zM-39.38327349314655,160.28330228765174L-40.4841012649658,159.4063043363232L-40.462182649207115,159.4302368388822zM-42.9203556455399,156.3861468253124L-41.39618446566469,149.94120109162338L-42.63133887649417,148.322423751848zM-41.39618446566469,149.94120109162338L-42.9203556455399,156.3861468253124L-41.67978551233477,158.1010175406222zM-41.67978551233477,158.1010175406222L-42.9203556455399,156.3861468253124L-41.68453613233243,158.09582080013337z" style="fill:rgb(247,158,158)"/><path d="M-61.96529533812669,127.27000503770256L-148.3500613387316,179.69553236949352L-42.9203556455399,156.3861468253124zM-148.3500613387316,179.69553236949352L-61.96529533812669,127.27000503770256L-170.25119361106294,152.1165728634886z" style="fill:rgb(127,37,217)"/><path d="M169.92477505565628,100.3037827229149L56.247963974448645,123.75587132190068L56.30487498737895,125.66711069584052z" style="fill:rgb(83,216,207)"/><path d="M170.1085363370933,102.37743585882981L56.30487498737895,125.66711069584052L56.17132886134056,127.75445683071347z" style="fill:rgb(85,232,186)"/><path d="M-42.63133887649417,148.322423751848L-61.96529533812669,127.27000503770256L-42.9203556455399,156.3861468253124z" style="fill:rgb(247,158,158)"/><path d="M55.83198418940413,129.29247575636637L170.1085363370933,102.37743585882981L56.17132886134056,127.75445683071347z" style="fill:rgb(88,243,163)"/><path d="M57.012996760037176,140.34122725105368L169.92477505565628,100.3037827229149L56.30487498737895,125.66711069584052zM-61.96529533812669,127.27000503770256L-169.09926695093458,144.04309423251655L-170.25119361106294,152.1165728634886z" style="fill:rgb(83,212,212)"/><path d="M55.29878048405213,130.21385252361335L170.11163184945977,103.87991818625727L55.83198418940413,129.29247575636637z" style="fill:rgb(93,249,139)"/><path d="M56.247963974448645,123.75587132190068L169.92477505565628,100.3037827229149L169.65813307208893,98.38618361363835z" style="fill:rgb(83,216,207)"/><path d="M54.59173978196485,130.47512480464883L169.93226152437387,104.74505373002218L55.29878048405213,130.21385252361335z" style="fill:rgb(99,251,114)"/><path d="M56.30487498737895,125.66711069584052L170.1085363370933,102.37743585882981L169.92477505565628,100.3037827229149z" style="fill:rgb(85,232,186)"/><path d="M172.00202312303827,115.10573392318089L56.17132886134056,127.75445683071347L56.779497028578156,140.4098495835378z" style="fill:rgb(83,212,212)"/><path d="M-61.96529533812669,127.27000503770256L-42.63133887649417,148.322423751848L-61.5344038889514,119.14534380014344z" style="fill:rgb(247,158,158)"/><path d="M171.75819100788428,114.9626812534338L55.83198418940413,129.29247575636637L56.35761429207382,140.31127772953153z" style="fill:rgb(83,212,212)"/><path d="M169.65813307208893,98.38618361363835L172.22912439013493,105.81520178486736L172.0305991500828,104.49315517047683z" style="fill:rgb(247,158,158)"/><path d="M-169.09926695093458,144.04309423251655L-61.96529533812669,127.27000503770256L-61.5344038889514,119.14534380014344z" style="fill:rgb(83,212,212)"/><path d="M172.22912439013493,105.81520178486736L169.65813307208893,98.38618361363835L172.52536959253734,108.19324962159156z" style="fill:rgb(247,158,158)"/><path d="M170.1085363370933,102.37743585882981L55.83198418940413,129.29247575636637L170.11163184945977,103.87991818625727z" style="fill:rgb(88,243,163)"/><path d="M171.40270176437014,114.66031254333515L55.29878048405213,130.21385252361335L55.764168056583195,140.07161006280046z" style="fill:rgb(83,212,212)"/><path d="M172.52536959253734,108.19324962159156L169.65813307208893,98.38618361363835L172.7160438587155,110.2703200401264z" style="fill:rgb(247,158,158)"/><path d="M56.17132886134056,127.75445683071347L172.00202312303827,115.10573392318089L170.1085363370933,102.37743585882981z" style="fill:rgb(83,212,212)"/><path d="M56.792282372288014,140.4128423657033L171.54453860314047,114.8373289450245L55.987977769163834,140.22491976224865z" style="fill:rgb(150,5,158)"/><path d="M172.7160438587155,110.2703200401264L169.65813307208893,98.38618361363835L169.92477505565628,100.3037827229149z" style="fill:rgb(247,158,158)"/><path d="M170.11163184945977,103.87991818625727L55.29878048405213,130.21385252361335L169.93226152437387,104.74505373002218z" style="fill:rgb(93,249,139)"/><path d="M170.9226986732852,114.03248244803378L54.59173978196485,130.47512480464883L55.013357733010736,139.52345603419076zM169.92477505565628,100.3037827229149L57.012996760037176,140.34122725105368L172.12179006354748,115.06160155711464z" style="fill:rgb(83,212,212)"/><path d="M172.7160438587155,110.2703200401264L169.92477505565628,100.3037827229149L172.79731987621145,112.01217595181244z" style="fill:rgb(247,158,158)"/><path d="M55.83198418940413,129.29247575636637L171.75819100788428,114.9626812534338L170.11163184945977,103.87991818625727z" style="fill:rgb(83,212,212)"/><path d="M55.987977769163834,140.22491976224865L170.98287298797325,114.1363008385475L55.10170156682763,139.61786174886575z" style="fill:rgb(146,9,173)"/><path d="M170.31964412713208,112.98712607201173L53.73846805853566,130.05932958706703L54.12908355875434,138.5724027454192z" style="fill:rgb(83,212,212)"/><path d="M169.93226152437387,104.74505373002218L54.59173978196485,130.47512480464883L169.5760355790243,104.93130450788337z" style="fill:rgb(99,251,114)"/><path d="M53.14333936230349,137.18373434400942L168.39229532579918,103.23927358266923L52.77323491626602,128.97773460549055zM55.29878048405213,130.21385252361335L171.40270176437014,114.66031254333515L169.93226152437387,104.74505373002218z" style="fill:rgb(83,212,212)"/><path d="M55.10170156682763,139.61786174886575L170.33270387968736,113.01452112122047L54.14715217340578,138.59786034699135z" style="fill:rgb(140,15,187)"/><path d="M52.09476103411249,135.37932982447168L167.61166358171815,101.4198784603186L51.73569847088285,127.27033108136962z" style="fill:rgb(83,212,212)"/><path d="M172.79731987621145,112.01217595181244L169.92477505565628,100.3037827229149L172.12179006354748,115.06160155711464zM170.1085363370933,102.37743585882981L172.12179006354748,115.06160155711464L169.92477505565628,100.3037827229149z" style="fill:rgb(247,158,158)"/><path d="M171.54453860314047,114.8373289450245L56.792282372288014,140.4128423657033L172.00941933599583,115.11005942756886z" style="fill:rgb(150,5,158)"/><path d="M54.59173978196485,130.47512480464883L170.9226986732852,114.03248244803378L169.5760355790243,104.93130450788337z" style="fill:rgb(83,212,212)"/><path d="M54.14715217340578,138.59786034699135L169.60396591172432,111.4868206039631L53.13942302331095,137.17821867344335z" style="fill:rgb(135,23,200)"/><path d="M172.79731987621145,112.01217595181244L172.12179006354748,115.06160155711464L172.76699327279474,113.38902760052072zM170.11163184945977,103.87991818625727L172.00202312303827,115.10573392318089L170.1085363370933,102.37743585882981zM172.76699327279474,113.38902760052072L172.12179006354748,115.06160155711464L172.6244925022642,114.37608210394981z" style="fill:rgb(247,158,158)"/><path d="M53.13942302331095,137.17821867344335L168.80807125446586,109.57526131240358L52.09476103411249,135.37932982447168z" style="fill:rgb(130,32,212)"/><path d="M53.73846805853566,130.05932958706703L170.31964412713208,112.98712607201173L169.05598685140626,104.42445804762357z" style="fill:rgb(83,212,212)"/><path d="M170.98287298797325,114.1363008385475L55.987977769163834,140.22491976224865L171.54453860314047,114.8373289450245z" style="fill:rgb(146,9,173)"/><path d="M172.12179006354748,115.06160155711464L170.1085363370933,102.37743585882981L172.00202312303827,115.10573392318089zM169.93226152437387,104.74505373002218L171.75819100788428,114.9626812534338L170.11163184945977,103.87991818625727zM172.6244925022642,114.37608210394981L172.12179006354748,115.06160155711464L172.37098406866698,114.95413902077978z" style="fill:rgb(247,158,158)"/><path d="M170.33270387968736,113.01452112122047L55.10170156682763,139.61786174886575L170.98287298797325,114.1363008385475z" style="fill:rgb(140,15,187)"/><path d="M172.00202312303827,115.10573392318089L170.11163184945977,103.87991818625727L171.75819100788428,114.9626812534338zM169.5760355790243,104.93130450788337L171.40270176437014,114.66031254333515L169.93226152437387,104.74505373002218zM172.12179006354748,115.06160155711464L172.00202312303827,115.10573392318089L172.00941933599583,115.11005942756886z" style="fill:rgb(247,158,158)"/><path d="M168.39229532579918,103.23927358266923L53.14333936230349,137.18373434400942L169.60679764129077,111.49275676597163z" style="fill:rgb(83,212,212)"/><path d="M171.75819100788428,114.9626812534338L169.93226152437387,104.74505373002218L171.40270176437014,114.66031254333515z" style="fill:rgb(247,158,158)"/><path d="M169.60396591172432,111.4868206039631L54.14715217340578,138.59786034699135L170.33270387968736,113.01452112122047z" style="fill:rgb(135,23,200)"/><path d="M169.05598685140626,104.42445804762357L170.9226986732852,114.03248244803378L169.5760355790243,104.93130450788337z" style="fill:rgb(247,158,158)"/><path d="M167.61166358171815,101.4198784603186L52.09476103411249,135.37932982447168L168.80807125446586,109.57526131240358z" style="fill:rgb(83,212,212)"/><path d="M171.75819100788428,114.9626812534338L171.40270176437014,114.66031254333515L171.54453860314047,114.8373289450245zM171.40270176437014,114.66031254333515L169.5760355790243,104.93130450788337L170.9226986732852,114.03248244803378z" style="fill:rgb(247,158,158)"/><path d="M168.80807125446586,109.57526131240358L53.13942302331095,137.17821867344335L169.60396591172432,111.4868206039631z" style="fill:rgb(130,32,212)"/><path d="M168.39229532579918,103.23927358266923L170.31964412713208,112.98712607201173L169.05598685140626,104.42445804762357zM171.40270176437014,114.66031254333515L170.9226986732852,114.03248244803378L170.98287298797325,114.1363008385475zM170.9226986732852,114.03248244803378L169.05598685140626,104.42445804762357L170.31964412713208,112.98712607201173zM167.61166358171815,101.4198784603186L169.60679764129077,111.49275676597163L168.39229532579918,103.23927358266923zM170.9226986732852,114.03248244803378L170.31964412713208,112.98712607201173L170.33270387968736,113.01452112122047zM170.31964412713208,112.98712607201173L168.39229532579918,103.23927358266923L169.60679764129077,111.49275676597163zM169.60679764129077,111.49275676597163L167.61166358171815,101.4198784603186L168.80807125446586,109.57526131240358zM169.60679764129077,111.49275676597163L168.80807125446586,109.57526131240358L169.60396591172432,111.4868206039631z" style="fill:rgb(247,158,158)"/><path d="M156.06672277205234,77.24184030392883L52.09476103411249,135.37932982447168L168.80807125446586,109.57526131240358zM52.09476103411249,135.37932982447168L156.06672277205234,77.24184030392883L35.78472082727453,104.84094005396494z" style="fill:rgb(127,37,217)"/><path d="M167.61166358171815,101.4198784603186L156.06672277205234,77.24184030392883L168.80807125446586,109.57526131240358z" style="fill:rgb(247,158,158)"/><path d="M156.06672277205234,77.24184030392883L35.5298220100696,96.67814767091924L35.78472082727453,104.84094005396494z" style="fill:rgb(83,212,212)"/><path d="M156.06672277205234,77.24184030392883L167.61166358171815,101.4198784603186L154.9225239855606,69.04263300985724z" style="fill:rgb(247,158,158)"/><path d="M35.5298220100696,96.67814767091924L156.06672277205234,77.24184030392883L154.9225239855606,69.04263300985724z" style="fill:rgb(83,212,212)"/></svg>
