<?xml version="1.0" encoding="UTF-8"?>
<!-- Generated by jsxcad -->
<!DOCTYPE svg PUBLIC "-//W3C//DTD SVG 1.1 Tiny//EN" "http://www.w3.org/Graphics/SVG/1.1/DTD/svg11-tiny.dtd">
<svg viewBox="-250 -250 500 500" width="500" height="500" xmlns="http://www.w3.org/2000/svg"><path d="M-30.881166216572414,-77.97081474039163L-114.56998774792592,-60.64059090868202L-115.2948511272858,-54.43730265253214zM-30.32875226879095,-75.48736886340602L-113.97330440139413,-58.94872960229361L-114.77978005469213,-51.99890430406941zM-31.570889788561256,-80.47549194755138L-115.3109529391642,-62.59210678149313L-115.98341679853311,-56.885597768815zM-29.934243553825958,-73.11722566218147L-113.54017336945708,-57.6067090181265L-114.4574714957951,-49.66087060971563zM-32.3724356347806,-82.90863382161498L-116.18288837950853,-64.60828665126151L-116.82004543798493,-59.25303457984054zM-29.712660804844102,-70.94869486675125L-113.28355062717162,-56.69372172364351L-114.34033884984866,-47.51033541485598z" style="fill:rgb(83,212,212)"/><path d="M-30.881166216572414,-77.97081474039163L-115.98341679853311,-56.885597768815L-115.2948511272858,-54.43730265253214z" style="fill:rgb(99,111,250)"/><path d="M-33.25625764649732,-85.1797879052056L-117.1554773670031,-66.59588741361341L-117.77392557675262,-61.4515165026773z" style="fill:rgb(83,212,212)"/><path d="M-30.32875226879095,-75.48736886340602L-115.2948511272858,-54.43730265253214L-114.77978005469213,-51.99890430406941z" style="fill:rgb(93,135,250)"/><path d="M-115.98341679853311,-56.885597768815L-32.3724356347806,-82.90863382161498L-116.82004543798493,-59.25303457984054z" style="fill:rgb(106,87,246)"/><path d="M-29.934243553825958,-73.11722566218147L-114.77978005469213,-51.99890430406941L-114.4574714957951,-49.66087060971563z" style="fill:rgb(89,159,244)"/><path d="M-114.34033884984866,-47.51033541485598L-29.934243553825958,-73.11722566218147L-114.4574714957951,-49.66087060971563z" style="fill:rgb(85,182,234)"/><path d="M-116.82004543798493,-59.25303457984054L-33.25625764649732,-85.1797879052056L-117.77392557675262,-61.4515165026773z" style="fill:rgb(114,65,238)"/><path d="M-34.18971228170069,-87.20386256028506L-118.18508132629498,-68.54013539179859L-118.80986770677488,-63.398611487343864z" style="fill:rgb(83,212,212)"/><path d="M-111.2169601896041,-40.25243067911396L-29.672885810950863,-69.06335024224288L-114.43348786070842,-45.628194294528804z" style="fill:rgb(127,37,217)"/><path d="M-113.97330440139413,-58.94872960229361L-30.32875226879095,-75.48736886340602L-30.111109364967092,-82.41684520408171zM-113.54017336945708,-57.6067090181265L-29.934243553825958,-73.11722566218147L-29.68922638167371,-81.0404756022861z" style="fill:rgb(83,212,212)"/><path d="M-114.43348786070842,-45.628194294528804L-29.712660804844102,-70.94869486675125L-114.34033884984866,-47.51033541485598z" style="fill:rgb(84,202,220)"/><path d="M-117.77392557675262,-61.4515165026773L-34.18971228170069,-87.20386256028506L-118.80986770677488,-63.398611487343864z" style="fill:rgb(123,46,225)"/><path d="M-114.56998774792592,-60.64059090868202L-30.881166216572414,-77.97081474039163L-30.68287318378826,-84.15533742103871zM-113.28355062717162,-56.69372172364351L-29.712660804844102,-70.94869486675125L-29.43218760752122,-80.10661822811703zM-115.3109529391642,-62.59210678149313L-31.570889788561256,-80.47549194755138L-31.383936090240727,-86.16413194155955zM-116.18288837950853,-64.60828665126151L-32.3724356347806,-82.90863382161498L-32.19209748477381,-88.2465537615814zM-117.1554773670031,-66.59588741361341L-33.25625764649732,-85.1797879052056L-33.07788712334386,-90.30696230606688zM-118.18508132629498,-68.54013539179859L-34.18971228170069,-87.20386256028506L-34.00606613605463,-92.32770677273761z" style="fill:rgb(83,212,212)"/><path d="M-29.847184978476367,-81.61436519709065L-28.206577172079328,-75.18608424114198L-28.752157343196593,-77.63595046229496z" style="fill:rgb(247,158,158)"/><path d="M-115.2948511272858,-54.43730265253214L-30.32875226879095,-75.48736886340602L-30.881166216572414,-77.97081474039163z" style="fill:rgb(93,135,250)"/><path d="M-115.98341679853311,-56.885597768815L-30.881166216572414,-77.97081474039163L-31.570889788561256,-80.47549194755138z" style="fill:rgb(99,111,250)"/><path d="M-28.206577172079328,-75.18608424114198L-29.847184978476367,-81.61436519709065L-31.119129518239596,-85.48179609359585z" style="fill:rgb(247,158,158)"/><path d="M-32.3724356347806,-82.90863382161498L-115.98341679853311,-56.885597768815L-31.570889788561256,-80.47549194755138z" style="fill:rgb(106,87,246)"/><path d="M-29.672885810950863,-69.06335024224288L-111.2169601896041,-40.25243067911396L-26.81548779560097,-63.45392866951712z" style="fill:rgb(127,37,217)"/><path d="M-114.77978005469213,-51.99890430406941L-29.934243553825958,-73.11722566218147L-30.32875226879095,-75.48736886340602z" style="fill:rgb(89,159,244)"/><path d="M-33.25625764649732,-85.1797879052056L-116.82004543798493,-59.25303457984054L-32.3724356347806,-82.90863382161498z" style="fill:rgb(114,65,238)"/><path d="M-29.934243553825958,-73.11722566218147L-114.34033884984866,-47.51033541485598L-29.712660804844102,-70.94869486675125z" style="fill:rgb(85,182,234)"/><path d="M-34.18971228170069,-87.20386256028506L-117.77392557675262,-61.4515165026773L-33.25625764649732,-85.1797879052056z" style="fill:rgb(123,46,225)"/><path d="M-32.3724356347806,-82.90863382161498L-27.873554455591943,-73.69067203645328L-28.000318925207992,-74.25989836259653zM-27.873554455591943,-73.69067203645328L-32.3724356347806,-82.90863382161498L-27.742852742586013,-72.90874842910357zM-31.570889788561256,-80.47549194755138L-27.459661831926212,-71.21453526952621L-27.742852742586013,-72.90874842910357zM-33.25625764649732,-85.1797879052056L-28.000318925207992,-74.25989836259653L-28.206577172079328,-75.18608424114198zM-30.881166216572414,-77.97081474039163L-27.243550539501822,-69.92162294761161L-27.459661831926212,-71.21453526952621zM-28.206577172079328,-75.18608424114198L-31.119129518239596,-85.48179609359585L-33.25625764649732,-85.1797879052056z" style="fill:rgb(247,158,158)"/><path d="M-29.712660804844102,-70.94869486675125L-114.43348786070842,-45.628194294528804L-29.672885810950863,-69.06335024224288z" style="fill:rgb(84,202,220)"/><path d="M-27.243550539501822,-69.92162294761161L-30.881166216572414,-77.97081474039163L-27.176080279410623,-69.26969846127984zM-30.32875226879095,-75.48736886340602L-26.970137837263252,-67.27977730689982L-27.176080279410623,-69.26969846127984zM-33.25625764649732,-85.1797879052056L-31.119129518239596,-85.48179609359585L-32.522287155888876,-89.09735688535055zM-29.934243553825958,-73.11722566218147L-26.885980688770907,-66.46661694223185L-26.970137837263252,-67.27977730689982zM-27.459661831926212,-71.21453526952621L-31.570889788561256,-80.47549194755138L-30.881166216572414,-77.97081474039163zM-27.742852742586013,-72.90874842910357L-32.3724356347806,-82.90863382161498L-31.570889788561256,-80.47549194755138zM-26.885980688770907,-66.46661694223185L-29.934243553825958,-73.11722566218147L-26.85958765549773,-65.33864983400507zM-27.176080279410623,-69.26969846127984L-30.881166216572414,-77.97081474039163L-30.32875226879095,-75.48736886340602zM-33.25625764649732,-85.1797879052056L-32.522287155888876,-89.09735688535055L-34.00606613605463,-92.32770677273761zM-28.000318925207992,-74.25989836259653L-33.25625764649732,-85.1797879052056L-32.3724356347806,-82.90863382161498zM-26.970137837263252,-67.27977730689982L-30.32875226879095,-75.48736886340602L-29.934243553825958,-73.11722566218147zM-29.712660804844102,-70.94869486675125L-26.81548779560097,-63.45392866951712L-26.85958765549773,-65.33864983400507zM-26.85958765549773,-65.33864983400507L-29.934243553825958,-73.11722566218147L-29.712660804844102,-70.94869486675125zM-33.25625764649732,-85.1797879052056L-34.00606613605463,-92.32770677273761L-34.18971228170069,-87.20386256028506zM-26.81548779560097,-63.45392866951712L-29.712660804844102,-70.94869486675125L-29.672885810950863,-69.06335024224288z" style="fill:rgb(247,158,158)"/><path d="M-49.03254140463023,-116.58354248309189L-118.80986770677488,-63.398611487343864L-34.18971228170069,-87.20386256028506zM-118.80986770677488,-63.398611487343864L-49.03254140463023,-116.58354248309189L-135.48661369708785,-91.53666833571641z" style="fill:rgb(127,37,217)"/><path d="M-51.15985288179557,-63.12249793200805L-50.94399552684616,-32.399267719402324L-49.36732754914229,-63.618105715622335zM-49.36732754914229,-63.618105715622335L-48.39142091572239,-33.5785339177992L-46.9160879800513,-64.29583806179032zM-53.64110560726728,-28.478588612149935L-51.15985288179557,-63.12249793200805L-51.81556436335449,-62.941203587820056z" style="fill:rgb(83,212,212)"/><path d="M-34.00606613605463,-92.32770677273761L-49.03254140463023,-116.58354248309189L-34.18971228170069,-87.20386256028506z" style="fill:rgb(247,158,158)"/><path d="M-46.9160879800513,-64.29583806179032L-45.883642827517484,-33.75940242482492L-44.46184516832504,-64.97440719457941zM-45.883642827517484,-33.75940242482492L-42.6633032350693,-65.47167848515161L-44.46184516832504,-64.97440719457941zM-44.08801574544404,-32.89065961469414L-42.004586017440424,-65.65380456930946L-42.6633032350693,-65.47167848515161zM-49.03254140463023,-116.58354248309189L-134.7560829708955,-96.6567019853868L-135.48661369708785,-91.53666833571641z" style="fill:rgb(83,212,212)"/><path d="M-49.03254140463023,-116.58354248309189L-34.00606613605463,-92.32770677273761L-48.76235119081428,-121.67812476990721z" style="fill:rgb(247,158,158)"/><path d="M-134.7560829708955,-96.6567019853868L-49.03254140463023,-116.58354248309189L-48.76235119081428,-121.67812476990721zM-48.39142091572239,-33.5785339177992L-49.36732754914229,-63.618105715622335L-50.94399552684616,-32.399267719402324zM-50.94399552684616,-32.399267719402324L-51.15985288179557,-63.12249793200805L-52.86455619718946,-30.534646403341597zM-45.883642827517484,-33.75940242482492L-46.9160879800513,-64.29583806179032L-48.39142091572239,-33.5785339177992zM-51.15985288179557,-63.12249793200805L-53.64110560726728,-28.478588612149935L-52.86455619718946,-30.534646403341597zM44.99953229477633,-96.43851098033487L135.51368285412107,-128.76551431554063L44.67059750389692,-103.34386101770967zM-42.6633032350693,-65.47167848515161L-45.883642827517484,-33.75940242482492L-44.08801574544404,-32.89065961469414zM-42.004586017440424,-65.65380456930946L-44.08801574544404,-32.89065961469414L-43.488234975182536,-31.199371995013877zM135.90441444433432,-124.46860890175253L44.12237665508339,-105.12430170663745L44.412871707735086,-98.96187963866105zM135.2141013034941,-127.08516348492832L43.45886429458338,-107.18474167450057L43.72260314007481,-101.51698804077061zM137.07910839721396,-119.46573655439859L45.08172819367966,-101.93666595400192L45.460759246648166,-94.04037601853382zM134.4884365121353,-129.64996345026748L42.710485409784575,-109.3270333701921L42.95423676369551,-104.00925273103597zM137.51972456911,-117.26514071390412L45.33896449542263,-100.98414443818592L45.779140986996744,-91.85680212226178z" style="fill:rgb(83,212,212)"/><path d="M135.90441444433432,-124.46860890175253L43.72260314007481,-101.51698804077061L44.412871707735086,-98.96187963866105z" style="fill:rgb(99,111,250)"/><path d="M133.75425268456036,-132.06784972741832L41.90590038339882,-111.45346008319419L42.13612017428232,-106.3461290064612z" style="fill:rgb(83,212,212)"/><path d="M136.53386988277052,-121.89707038753387L44.412871707735086,-98.96187963866105L44.99953229477633,-96.43851098033487z" style="fill:rgb(93,135,250)"/><path d="M43.72260314007481,-101.51698804077061L134.4884365121353,-129.64996345026748L42.95423676369551,-104.00925273103597z" style="fill:rgb(106,87,246)"/><path d="M137.07910839721396,-119.46573655439859L44.99953229477633,-96.43851098033487L45.460759246648166,-94.04037601853382z" style="fill:rgb(89,159,244)"/><path d="M-48.39142091572239,-33.5785339177992L-47.899885632758476,-26.829988709490966L-45.360135616299836,-28.002380138336374z" style="fill:rgb(158,48,222)"/><path d="M45.779140986996744,-91.85680212226178L137.07910839721396,-119.46573655439859L45.460759246648166,-94.04037601853382z" style="fill:rgb(85,182,234)"/><path d="M-47.899885632758476,-26.829988709490966L-52.86455619718946,-30.534646403341597L-49.8077771703456,-24.970105008123358z" style="fill:rgb(212,85,213)"/><path d="M42.95423676369551,-104.00925273103597L133.75425268456036,-132.06784972741832L42.13612017428232,-106.3461290064612z" style="fill:rgb(114,65,238)"/><path d="M133.03880568080766,-134.24841497972508L41.07255388122054,-113.54364591767688L41.29853538734674,-108.44014217754531z" style="fill:rgb(83,212,212)"/><path d="M-45.883642827517484,-33.75940242482492L-45.360135616299836,-28.002380138336374L-42.86197043334744,-28.176044204091717z" style="fill:rgb(96,32,206)"/><path d="M48.46413115662504,-84.1478767900167L137.83890255296612,-115.37809488181774L45.9422866344768,-89.96992847843595z" style="fill:rgb(127,37,217)"/><path d="M-47.899885632758476,-26.829988709490966L-48.39142091572239,-33.5785339177992L-50.94399552684616,-32.399267719402324z" style="fill:rgb(158,48,222)"/><path d="M-41.070205407047844,-27.301697469058336L-45.883642827517484,-33.75940242482492L-42.86197043334744,-28.176044204091717z" style="fill:rgb(42,41,169)"/><path d="M45.08172819367966,-101.93666595400192L137.07910839721396,-119.46573655439859L135.91083401728966,-127.32062573844766z" style="fill:rgb(83,212,212)"/><path d="M45.9422866344768,-89.96992847843595L137.51972456911,-117.26514071390412L45.779140986996744,-91.85680212226178z" style="fill:rgb(84,202,220)"/><path d="M42.13612017428232,-106.3461290064612L133.03880568080766,-134.24841497972508L41.29853538734674,-108.44014217754531z" style="fill:rgb(123,46,225)"/><path d="M-49.8077771703456,-24.970105008123358L-53.64110560726728,-28.478588612149935L-50.575161956253716,-22.915412905603986z" style="fill:rgb(243,133,180)"/><path d="M-52.86455619718946,-30.534646403341597L-47.899885632758476,-26.829988709490966L-50.94399552684616,-32.399267719402324z" style="fill:rgb(212,85,213)"/><path d="M44.12237665508339,-105.12430170663745L135.90441444433432,-124.46860890175253L134.99574675408414,-130.5974011302617z" style="fill:rgb(83,212,212)"/><path d="M-45.360135616299836,-28.002380138336374L-45.883642827517484,-33.75940242482492L-48.39142091572239,-33.5785339177992z" style="fill:rgb(96,32,206)"/><path d="M45.33896449542263,-100.98414443818592L137.51972456911,-117.26514071390412L136.16808996061746,-126.34535830489294zM43.45886429458338,-107.18474167450057L135.2141013034941,-127.08516348492832L134.38034478831435,-132.72125494743833z" style="fill:rgb(83,212,212)"/><path d="M-53.64110560726728,-28.478588612149935L-49.8077771703456,-24.970105008123358L-52.86455619718946,-30.534646403341597z" style="fill:rgb(243,133,180)"/><path d="M-53.64110560726728,-28.478588612149935L-49.99190347475645,-21.213670756684206L-50.575161956253716,-22.915412905603986z" style="fill:rgb(243,180,133)"/><path d="M42.710485409784575,-109.3270333701921L134.4884365121353,-129.64996345026748L133.70827580663857,-134.93733125035064z" style="fill:rgb(83,212,212)"/><path d="M-45.883642827517484,-33.75940242482492L-41.070205407047844,-27.301697469058336L-44.08801574544404,-32.89065961469414z" style="fill:rgb(42,41,169)"/><path d="M135.51368285412107,-128.76551431554063L44.99953229477633,-96.43851098033487L136.53386988277052,-121.89707038753387zM41.90590038339882,-111.45346008319419L133.75425268456036,-132.06784972741832L133.00717322789063,-137.14530862155263z" style="fill:rgb(83,212,212)"/><path d="M-49.99190347475645,-21.213670756684206L-53.64110560726728,-28.478588612149935L-53.061006050384336,-26.77921698525172z" style="fill:rgb(243,180,133)"/><path d="M41.07255388122054,-113.54364591767688L133.03880568080766,-134.24841497972508L132.29458562049828,-139.3214533193887z" style="fill:rgb(83,212,212)"/><path d="M135.75274966826672,-127.91995409048978L137.46970367864148,-121.22907162504562L136.84867270066908,-123.76518999356969z" style="fill:rgb(247,158,158)"/><path d="M44.412871707735086,-98.96187963866105L136.53386988277052,-121.89707038753387L135.90441444433432,-124.46860890175253z" style="fill:rgb(93,135,250)"/><path d="M43.72260314007481,-101.51698804077061L135.90441444433432,-124.46860890175253L135.2141013034941,-127.08516348492832z" style="fill:rgb(99,111,250)"/><path d="M137.46970367864148,-121.22907162504562L135.75274966826672,-127.91995409048978L134.6005519034827,-131.9951608667791z" style="fill:rgb(247,158,158)"/><path d="M134.4884365121353,-129.64996345026748L43.72260314007481,-101.51698804077061L135.2141013034941,-127.08516348492832z" style="fill:rgb(106,87,246)"/><path d="M137.83890255296612,-115.37809488181774L48.46413115662504,-84.1478767900167L139.9336592011829,-109.29233960586319z" style="fill:rgb(127,37,217)"/><path d="M44.99953229477633,-96.43851098033487L137.07910839721396,-119.46573655439859L136.53386988277052,-121.89707038753387z" style="fill:rgb(89,159,244)"/><path d="M133.75425268456036,-132.06784972741832L42.95423676369551,-104.00925273103597L134.4884365121353,-129.64996345026748z" style="fill:rgb(114,65,238)"/><path d="M137.07910839721396,-119.46573655439859L45.779140986996744,-91.85680212226178L137.51972456911,-117.26514071390412z" style="fill:rgb(85,182,234)"/><path d="M133.03880568080766,-134.24841497972508L42.13612017428232,-106.3461290064612L133.75425268456036,-132.06784972741832z" style="fill:rgb(123,46,225)"/><path d="M134.4884365121353,-129.64996345026748L137.848797917879,-119.68097036375205L137.70449399183116,-120.27025367835817zM137.848797917879,-119.68097036375205L134.4884365121353,-129.64996345026748L138.0288600226194,-118.87899621409488zM135.2141013034941,-127.08516348492832L138.4190225864638,-117.1412818756705L138.0288600226194,-118.87899621409488zM133.75425268456036,-132.06784972741832L137.70449399183116,-120.27025367835817L137.46970367864148,-121.22907162504562zM135.90441444433432,-124.46860890175253L138.7167849666851,-115.81511874900234L138.4190225864638,-117.1412818756705zM137.46970367864148,-121.22907162504562L134.6005519034827,-131.9951608667791L133.75425268456036,-132.06784972741832z" style="fill:rgb(247,158,158)"/><path d="M137.51972456911,-117.26514071390412L45.9422866344768,-89.96992847843595L137.83890255296612,-115.37809488181774z" style="fill:rgb(84,202,220)"/><path d="M138.7167849666851,-115.81511874900234L135.90441444433432,-124.46860890175253L138.8495903795616,-115.1535611656107zM136.53386988277052,-121.89707038753387L139.25497759936434,-113.13411778932065L138.8495903795616,-115.1535611656107zM133.75425268456036,-132.06784972741832L134.6005519034827,-131.9951608667791L133.43367326635794,-135.84280736556184zM137.07910839721396,-119.46573655439859L139.42063971075643,-112.30883326291188L139.25497759936434,-113.13411778932065zM138.4190225864638,-117.1412818756705L135.2141013034941,-127.08516348492832L135.90441444433432,-124.46860890175253zM138.0288600226194,-118.87899621409488L134.4884365121353,-129.64996345026748L135.2141013034941,-127.08516348492832zM139.42063971075643,-112.30883326291188L137.07910839721396,-119.46573655439859L139.61270244760664,-111.17951283622378zM138.8495903795616,-115.1535611656107L135.90441444433432,-124.46860890175253L136.53386988277052,-121.89707038753387zM133.75425268456036,-132.06784972741832L133.43367326635794,-135.84280736556184L132.29458562049828,-139.3214533193887zM137.70449399183116,-120.27025367835817L133.75425268456036,-132.06784972741832L134.4884365121353,-129.64996345026748zM139.25497759936434,-113.13411778932065L136.53386988277052,-121.89707038753387L137.07910839721396,-119.46573655439859zM137.51972456911,-117.26514071390412L139.9336592011829,-109.29233960586319L139.61270244760664,-111.17951283622378zM139.61270244760664,-111.17951283622378L137.07910839721396,-119.46573655439859L137.51972456911,-117.26514071390412zM133.75425268456036,-132.06784972741832L132.29458562049828,-139.3214533193887L133.03880568080766,-134.24841497972508zM139.9336592011829,-109.29233960586319L137.51972456911,-117.26514071390412L137.83890255296612,-115.37809488181774z" style="fill:rgb(247,158,158)"/><path d="M122.0996531219891,-166.16278085810387L41.29853538734674,-108.44014217754531L133.03880568080766,-134.24841497972508zM41.29853538734674,-108.44014217754531L122.0996531219891,-166.16278085810387L28.17186106680296,-138.95067242736025z" style="fill:rgb(127,37,217)"/><path d="M121.39819318650463,-171.18937806347483L133.03880568080766,-134.24841497972508L132.29458562049828,-139.3214533193887z" style="fill:rgb(247,158,158)"/><path d="M122.0996531219891,-166.16278085810387L28.013640750710284,-144.01746561693437L28.17186106680296,-138.95067242736025zM59.51500422040702,-93.7225975832126L67.12921896780898,-6.032667740155348L61.408238564988196,-94.24605518510701zM61.408238564988196,-94.24605518510701L69.92580292239866,-7.312607840191947L63.99726576173201,-94.96188531814262zM64.52365325851038,-1.6892822373947245L59.51500422040702,-93.7225975832126L58.82246558239912,-93.53112622661979zM69.92580292239866,-7.312607840191947L66.58956368908511,-95.67861833070948L63.99726576173201,-94.96188531814262zM66.58956368908511,-95.67861833070948L74.99278076642139,-6.479025911762118L68.4893291885119,-96.20388171566835zM69.18513335595115,-96.39625593209414L68.4893291885119,-96.20388171566835L74.99278076642139,-6.479025911762118zM28.013640750710284,-144.01746561693437L122.0996531219891,-166.16278085810387L121.39819318650463,-171.18937806347483z" style="fill:rgb(83,212,212)"/><path d="M133.03880568080766,-134.24841497972508L121.39819318650463,-171.18937806347483L122.0996531219891,-166.16278085810387z" style="fill:rgb(247,158,158)"/><path d="M-114.43348786070842,-45.628194294528804L-63.121853747945266,150.49920468870263L-51.81556436335449,-62.941203587820056zM-42.004586017440424,-65.65380456930946L-49.361031153997715,105.183235307136L58.82246558239912,-93.53112622661979zM75.90926267969198,-4.5785231722924795L137.83890255296612,-115.37809488181774L69.18513335595115,-96.39625593209414z" style="fill:rgb(83,212,212)"/><path d="M-49.361031153997715,105.183235307136L-42.004586017440424,-65.65380456930946L-43.488234975182536,-31.199371995013877z" style="fill:rgb(255,127,127)"/><path d="M-60.86413288873648,107.87790380338686L-53.061006050384336,-26.77921698525172L-53.64110560726728,-28.478588612149935zM-53.061006050384336,-26.77921698525172L-57.783839342169486,103.03317643970249L-51.27249489071059,-25.8948053746674zM-51.27249489071059,-25.8948053746674L-54.889559707648814,101.71658641433403L-48.75214310254236,-26.068080830630397zM-54.889559707648814,101.71658641433403L-46.179889165343255,-27.255428208872306L-48.75214310254236,-26.068080830630397zM-52.05292479676243,101.68475784945093L-44.25221295214463,-29.1357238134872L-46.179889165343255,-27.255428208872306zM-44.25221295214463,-29.1357238134872L-49.361031153997715,105.183235307136L-43.488234975182536,-31.199371995013877zM69.92580292239866,-7.312607840191947L61.408238564988196,-94.24605518510701L67.12921896780898,-6.032667740155348zM67.12921896780898,-6.032667740155348L59.51500422040702,-93.7225975832126L65.15280045255207,-3.9769135267612183zM66.58956368908511,-95.67861833070948L69.92580292239866,-7.312607840191947L72.8018072463942,-7.477236584989879zM59.51500422040702,-93.7225975832126L64.52365325851038,-1.6892822373947245L65.15280045255207,-3.9769135267612183zM74.99278076642139,-6.479025911762118L66.58956368908511,-95.67861833070948L72.8018072463942,-7.477236584989879z" style="fill:rgb(83,212,212)"/><path d="M69.92580292239866,-7.312607840191947L69.7754721002788,-0.12103583946965109L72.55666983074994,-1.3928757741513011z" style="fill:rgb(158,48,222)"/><path d="M69.7754721002788,-0.12103583946965109L65.15280045255207,-3.9769135267612183L67.81277252997344,1.9288135226722567z" style="fill:rgb(212,85,213)"/><path d="M72.8018072463942,-7.477236584989879L72.55666983074994,-1.3928757741513011L75.41963344106864,-1.549335481725884z" style="fill:rgb(96,32,206)"/><path d="M69.7754721002788,-0.12103583946965109L69.92580292239866,-7.312607840191947L67.12921896780898,-6.032667740155348z" style="fill:rgb(158,48,222)"/><path d="M77.60336771352233,-0.5450782887983333L72.8018072463942,-7.477236584989879L75.41963344106864,-1.549335481725884z" style="fill:rgb(42,41,169)"/><path d="M67.81277252997344,1.9288135226722567L64.52365325851038,-1.6892822373947245L67.19203690813765,4.21427033845836z" style="fill:rgb(243,133,180)"/><path d="M65.15280045255207,-3.9769135267612183L69.7754721002788,-0.12103583946965109L67.12921896780898,-6.032667740155348z" style="fill:rgb(212,85,213)"/><path d="M72.55666983074994,-1.3928757741513011L72.8018072463942,-7.477236584989879L69.92580292239866,-7.312607840191947z" style="fill:rgb(96,32,206)"/><path d="M64.52365325851038,-1.6892822373947245L67.81277252997344,1.9288135226722567L65.15280045255207,-3.9769135267612183z" style="fill:rgb(243,133,180)"/><path d="M78.52038645721032,1.3576814853943908L74.99278076642139,-6.479025911762118L77.60336771352233,-0.5450782887983333z" style="fill:rgb(11,74,121)"/><path d="M72.8018072463942,-7.477236584989879L77.60336771352233,-0.5450782887983333L74.99278076642139,-6.479025911762118z" style="fill:rgb(42,41,169)"/><path d="M169.67344707873562,98.42560092371296L139.9336592011829,-109.29233960586319L137.83890255296612,-115.37809488181774z" style="fill:rgb(247,158,158)"/><path d="M-57.783839342169486,103.03317643970249L-53.061006050384336,-26.77921698525172L-59.96943844258533,105.28540005027494zM-54.889559707648814,101.71658641433403L-51.27249489071059,-25.8948053746674L-57.783839342169486,103.03317643970249z" style="fill:rgb(83,212,212)"/><path d="M74.99278076642139,-6.479025911762118L78.52038645721032,1.3576814853943908L75.90926267969198,-4.5785231722924795z" style="fill:rgb(11,74,121)"/><path d="M-53.061006050384336,-26.77921698525172L-60.86413288873648,107.87790380338686L-59.96943844258533,105.28540005027494zM-46.179889165343255,-27.255428208872306L-54.889559707648814,101.71658641433403L-52.05292479676243,101.68475784945093zM-44.25221295214463,-29.1357238134872L-52.05292479676243,101.68475784945093L-50.02812632262479,102.95065815997013zM-49.361031153997715,105.183235307136L-44.25221295214463,-29.1357238134872L-50.02812632262479,102.95065815997013zM-63.121853747945266,150.49920468870263L-114.43348786070842,-45.628194294528804L-138.92798005845634,167.45615585150554zM75.29703107845641,-2.2814379384042787L84.8422688550186,117.40135141958754L69.18513335595115,-96.39625593209414zM58.82246558239912,-93.53112622661979L-49.361031153997715,105.183235307136L72.0933691379165,120.25312463492303zM137.83890255296612,-115.37809488181774L75.90926267969198,-4.5785231722924795L169.67344707873562,98.42560092371296z" style="fill:rgb(83,212,212)"/><path d="M-54.889559707648814,101.71658641433403L-54.29321857965941,108.5497244779057L-51.415415485562086,107.24172613986438z" style="fill:rgb(158,48,222)"/><path d="M-54.29321857965941,108.5497244779057L-59.96943844258533,105.28540005027494L-56.462447351654106,110.79424383001647z" style="fill:rgb(212,85,213)"/><path d="M-52.05292479676243,101.68475784945093L-51.415415485562086,107.24172613986438L-48.591050060895604,107.21712270704137z" style="fill:rgb(96,32,206)"/><path d="M-54.29321857965941,108.5497244779057L-54.889559707648814,101.71658641433403L-57.783839342169486,103.03317643970249z" style="fill:rgb(158,48,222)"/><path d="M-46.57107767588147,108.48693004930773L-52.05292479676243,101.68475784945093L-48.591050060895604,107.21712270704137z" style="fill:rgb(42,41,169)"/><path d="M-56.462447351654106,110.79424383001647L-60.86413288873648,107.87790380338686L-57.34519852585745,113.38193085305912z" style="fill:rgb(243,133,180)"/><path d="M-59.96943844258533,105.28540005027494L-54.29321857965941,108.5497244779057L-57.783839342169486,103.03317643970249z" style="fill:rgb(212,85,213)"/><path d="M-51.415415485562086,107.24172613986438L-52.05292479676243,101.68475784945093L-54.889559707648814,101.71658641433403z" style="fill:rgb(96,32,206)"/><path d="M-60.86413288873648,107.87790380338686L-56.462447351654106,110.79424383001647L-59.96943844258533,105.28540005027494z" style="fill:rgb(243,133,180)"/><path d="M-60.86413288873648,107.87790380338686L-56.69917885531185,115.62389529965843L-57.34519852585745,113.38193085305912z" style="fill:rgb(243,180,133)"/><path d="M-52.05292479676243,101.68475784945093L-46.57107767588147,108.48693004930773L-50.02812632262479,102.95065815997013z" style="fill:rgb(42,41,169)"/><path d="M64.52365325851038,-1.6892822373947245L72.94492713439637,120.06264715037982L65.41649570329213,0.2207394009566787z" style="fill:rgb(83,212,212)"/><path d="M-56.69917885531185,115.62389529965843L-60.86413288873648,107.87790380338686L-60.22236826319947,110.12052340284967z" style="fill:rgb(243,180,133)"/><path d="M65.41649570329213,0.2207394009566787L75.27321337806036,119.5418326557566L67.6007450321784,1.2379229633037063zM75.27321337806036,119.5418326557566L70.49365911542398,1.082748462113465L67.6007450321784,1.2379229633037063zM78.45796518535955,118.82944149470784L73.31388857496412,-0.20671030753739464L70.49365911542398,1.082748462113465zM81.64764864661203,118.11594860190608L75.29703107845641,-2.2814379384042787L73.31388857496412,-0.20671030753739464zM-60.86413288873648,107.87790380338686L-62.325296941210006,150.32103093278315L-60.22236826319947,110.12052340284967zM-60.22236826319947,110.12052340284967L-60.14744890654949,149.83386704704557L-58.2068368515931,111.40874568114951zM-50.239655761718446,107.78800663709734L-51.19753210864719,147.8318798950849L-49.361031153997715,105.183235307136zM-58.2068368515931,111.40874568114951L-57.168598752703744,149.16753504387435L-55.35412919865976,111.389196600377zM-52.43452154056906,110.06256401902017L-51.99854116003739,148.01105023477209L-50.239655761718446,107.78800663709734zM-55.35412919865976,111.389196600377L-54.18529977529753,148.50020732368012L-52.43452154056906,110.06256401902017zM-62.325296941210006,150.32103093278315L-60.86413288873648,107.87790380338686L-63.121853747945266,150.49920468870263z" style="fill:rgb(83,212,212)"/><path d="M139.9336592011829,-109.29233960586319L169.67344707873562,98.42560092371296L172.0429822897329,104.525047631566z" style="fill:rgb(247,158,158)"/><path d="M-60.14744890654949,149.83386704704557L-60.22236826319947,110.12052340284967L-62.325296941210006,150.32103093278315zM-57.168598752703744,149.16753504387435L-58.2068368515931,111.40874568114951L-60.14744890654949,149.83386704704557z" style="fill:rgb(83,212,212)"/><path d="M-36.38282752532809,146.84338954711677L-138.92798005845634,167.45615585150554L-139.34941727044398,169.81611035239374z" style="fill:rgb(84,220,202)"/><path d="M-54.18529977529753,148.50020732368012L-55.35412919865976,111.389196600377L-57.168598752703744,149.16753504387435zM-51.19753210864719,147.8318798950849L-50.239655761718446,107.78800663709734L-51.99854116003739,148.01105023477209zM-51.99854116003739,148.01105023477209L-52.43452154056906,110.06256401902017L-54.18529977529753,148.50020732368012z" style="fill:rgb(83,212,212)"/><path d="M-36.796012490882084,148.77542717505838L-139.34941727044398,169.81611035239374L-140.01891325494674,171.75796790362313z" style="fill:rgb(85,234,182)"/><path d="M-140.91302803433922,173.20505218364636L-36.796012490882084,148.77542717505838L-140.01891325494674,171.75796790362313z" style="fill:rgb(89,244,159)"/><path d="M72.94492713439637,120.06264715037982L64.52365325851038,-1.6892822373947245L72.0933691379165,120.25312463492303z" style="fill:rgb(83,212,212)"/><path d="M-141.9995202365756,174.09802673692266L-37.417039097500535,150.19476922835014L-140.91302803433922,173.20505218364636z" style="fill:rgb(93,250,135)"/><path d="M75.27321337806036,119.5418326557566L65.41649570329213,0.2207394009566787L72.94492713439637,120.06264715037982z" style="fill:rgb(83,212,212)"/><path d="M-138.92798005845634,167.45615585150554L-36.38282752532809,146.84338954711677L-36.19135945314743,144.47517003765873z" style="fill:rgb(84,220,202)"/><path d="M-36.81238161805401,160.8690418899117L-139.34941727044398,169.81611035239374L-140.95191631328962,183.74167032185915zM-142.14787819286738,183.8464061242896L-37.417039097500535,150.19476922835014L-140.91302803433922,173.20505218364636zM70.49365911542398,1.082748462113465L75.27321337806036,119.5418326557566L78.45796518535955,118.82944149470784zM73.31388857496412,-0.20671030753739464L78.45796518535955,118.82944149470784L81.64764864661203,118.11594860190608zM75.29703107845641,-2.2814379384042787L81.64764864661203,118.11594860190608L83.98578558230723,117.59293061316781z" style="fill:rgb(83,212,212)"/><path d="M-143.23822922094521,174.39775951899898L-38.223990742489335,151.04292025488405L-141.9995202365756,174.09802673692266z" style="fill:rgb(99,250,111)"/><path d="M-37.17311468845261,160.96998047133675L-140.01891325494674,171.75796790362313L-141.4165806710908,183.8648709033242zM84.8422688550186,117.40135141958754L75.29703107845641,-2.2814379384042787L83.98578558230723,117.59293061316781zM72.0933691379165,120.25312463492303L-49.361031153997715,105.183235307136L-51.19753210864719,147.8318798950849z" style="fill:rgb(83,212,212)"/><path d="M-139.34941727044398,169.81611035239374L-36.796012490882084,148.77542717505838L-36.38282752532809,146.84338954711677z" style="fill:rgb(85,234,182)"/><path d="M-36.19135945314743,144.47517003765873L-32.961733395074,153.78693967572886L-32.67000566080552,149.9952613999862z" style="fill:rgb(247,158,158)"/><path d="M-139.34941727044398,169.81611035239374L-36.81238161805401,160.8690418899117L-36.38282752532809,146.84338954711677z" style="fill:rgb(83,212,212)"/><path d="M-134.88019351218406,172.69786619965947L169.67344707873562,98.42560092371296L-138.92798005845634,167.45615585150554z" style="fill:rgb(127,37,217)"/><path d="M-36.796012490882084,148.77542717505838L-140.91302803433922,173.20505218364636L-37.417039097500535,150.19476922835014z" style="fill:rgb(89,244,159)"/><path d="M-38.53222304823037,160.6563033844848L-141.9995202365756,174.09802673692266L-143.11470335512308,183.64163515199036z" style="fill:rgb(83,212,212)"/><path d="M-32.961733395074,153.78693967572886L-36.19135945314743,144.47517003765873L-33.60619156626836,156.89777134695146z" style="fill:rgb(247,158,158)"/><path d="M-140.01891325494674,171.75796790362313L-37.17311468845261,160.96998047133675L-36.796012490882084,148.77542717505838zM169.67344707873562,98.42560092371296L75.90926267969198,-4.5785231722924795L84.8422688550186,117.40135141958754z" style="fill:rgb(83,212,212)"/><path d="M-37.417039097500535,150.19476922835014L-141.9995202365756,174.09802673692266L-38.223990742489335,151.04292025488405z" style="fill:rgb(93,250,135)"/><path d="M-39.47937979133685,160.16458592279406L-143.23822922094521,174.39775951899898L-144.2773353293444,183.21557041955236z" style="fill:rgb(83,212,212)"/><path d="M-33.60619156626836,156.89777134695146L-36.19135945314743,144.47517003765873L-36.38282752532809,146.84338954711677z" style="fill:rgb(247,158,158)"/><path d="M-141.70259632627412,183.94070810703454L-39.12791678103966,160.45942243119237L-143.85440114192195,183.4849587416451z" style="fill:rgb(148,8,167)"/><path d="M-33.60619156626836,156.89777134695146L-36.38282752532809,146.84338954711677L-34.58369477201615,159.20263881574402z" style="fill:rgb(247,158,158)"/><path d="M-40.55404885254264,159.26306603523776L-144.5824068962044,174.08751784261156L-145.57044854959818,182.39193950861008z" style="fill:rgb(83,212,212)"/><path d="M-38.223990742489335,151.04292025488405L-143.23822922094521,174.39775951899898L-39.18746418712473,151.28215783544528z" style="fill:rgb(99,250,111)"/><path d="M-141.9995202365756,174.09802673692266L-38.53222304823037,160.6563033844848L-38.223990742489335,151.04292025488405zM-37.417039097500535,150.19476922835014L-142.14787819286738,183.8464061242896L-37.75369958282071,160.91361568223977z" style="fill:rgb(83,212,212)"/><path d="M-143.85440114192195,183.4849587416451L-40.99401186678343,158.89398953345372L-146.09979544812137,182.05476576057708z" style="fill:rgb(140,16,189)"/><path d="M-41.714740557999505,157.95570041803785L-145.98031479676973,173.17441864726032L-146.94177554158279,181.17201985380834z" style="fill:rgb(83,212,212)"/><path d="M-36.796012490882084,148.77542717505838L-36.81238161805401,160.8690418899117L-36.38282752532809,146.84338954711677zM-34.58369477201615,159.20263881574402L-36.38282752532809,146.84338954711677L-36.81238161805401,160.8690418899117z" style="fill:rgb(247,158,158)"/><path d="M-143.23822922094521,174.39775951899898L-39.47937979133685,160.16458592279406L-39.18746418712473,151.28215783544528zM-42.9203556455399,156.3861468253124L-147.37723852363663,171.68990162282455L-148.3500613387316,179.69553236949352z" style="fill:rgb(83,212,212)"/><path d="M-39.12791678103966,160.45942243119237L-141.70259632627412,183.94070810703454L-37.395175442215944,161.0321177412849z" style="fill:rgb(148,8,167)"/><path d="M-37.417039097500535,150.19476922835014L-37.17311468845261,160.96998047133675L-36.796012490882084,148.77542717505838z" style="fill:rgb(247,158,158)"/><path d="M-146.09979544812137,182.05476576057708L-42.9203556455399,156.3861468253124L-148.3500613387316,179.69553236949352z" style="fill:rgb(131,29,208)"/><path d="M-144.5824068962044,174.08751784261156L-40.55404885254264,159.26306603523776L-40.271434457321064,150.89781988228566z" style="fill:rgb(83,212,212)"/><path d="M-34.58369477201615,159.20263881574402L-36.81238161805401,160.8690418899117L-35.8616757763721,160.60301211067647zM-36.81238161805401,160.8690418899117L-36.796012490882084,148.77542717505838L-37.17311468845261,160.96998047133675zM-38.223990742489335,151.04292025488405L-37.75369958282071,160.91361568223977L-37.417039097500535,150.19476922835014z" style="fill:rgb(247,158,158)"/><path d="M-145.98031479676973,173.17441864726032L-41.714740557999505,157.95570041803785L-41.4344795989722,149.89970628658187z" style="fill:rgb(83,212,212)"/><path d="M-40.99401186678343,158.89398953345372L-143.85440114192195,183.4849587416451L-39.12791678103966,160.45942243119237z" style="fill:rgb(140,16,189)"/><path d="M-37.17311468845261,160.96998047133675L-37.417039097500535,150.19476922835014L-37.75369958282071,160.91361568223977zM-39.18746418712473,151.28215783544528L-38.53222304823037,160.6563033844848L-38.223990742489335,151.04292025488405z" style="fill:rgb(247,158,158)"/><path d="M-147.37723852363663,171.68990162282455L-42.9203556455399,156.3861468253124L-42.63133887649417,148.322423751848z" style="fill:rgb(83,212,212)"/><path d="M-37.75369958282071,160.91361568223977L-38.223990742489335,151.04292025488405L-38.53222304823037,160.6563033844848zM-37.17311468845261,160.96998047133675L-37.75369958282071,160.91361568223977L-37.395175442215944,161.0321177412849z" style="fill:rgb(247,158,158)"/><path d="M-42.9203556455399,156.3861468253124L-146.09979544812137,182.05476576057708L-40.99401186678343,158.89398953345372z" style="fill:rgb(131,29,208)"/><path d="M-40.271434457321064,150.89781988228566L-39.47937979133685,160.16458592279406L-39.18746418712473,151.28215783544528zM-38.53222304823037,160.6563033844848L-39.18746418712473,151.28215783544528L-39.47937979133685,160.16458592279406zM-41.4344795989722,149.89970628658187L-40.55404885254264,159.26306603523776L-40.271434457321064,150.89781988228566zM-38.53222304823037,160.6563033844848L-39.47937979133685,160.16458592279406L-39.12791678103966,160.45942243119237zM-39.47937979133685,160.16458592279406L-40.271434457321064,150.89781988228566L-40.55404885254264,159.26306603523776z" style="fill:rgb(247,158,158)"/><path d="M169.67344707873562,98.42560092371296L-134.88019351218406,172.69786619965947L172.0429822897329,104.525047631566z" style="fill:rgb(127,37,217)"/><path d="M-42.63133887649417,148.322423751848L-41.714740557999505,157.95570041803785L-41.4344795989722,149.89970628658187zM-40.55404885254264,159.26306603523776L-41.4344795989722,149.89970628658187L-41.714740557999505,157.95570041803785zM-40.55404885254264,159.26306603523776L-41.714740557999505,157.95570041803785L-40.99401186678343,158.89398953345372zM-41.714740557999505,157.95570041803785L-42.63133887649417,148.322423751848L-42.9203556455399,156.3861468253124z" style="fill:rgb(247,158,158)"/><path d="M-61.96529533812669,127.27000503770256L-148.3500613387316,179.69553236949352L-42.9203556455399,156.3861468253124zM-148.3500613387316,179.69553236949352L-61.96529533812669,127.27000503770256L-170.25119361106294,152.1165728634886z" style="fill:rgb(127,37,217)"/><path d="M169.98007103071313,100.8020618942946L56.26747205941602,123.79319662413295L56.29356300648137,126.16649276732791z" style="fill:rgb(84,220,202)"/><path d="M170.12303024486997,102.70496989944614L56.29356300648137,126.16649276732791L56.12313055764116,128.0870053974079z" style="fill:rgb(85,234,182)"/><path d="M-42.63133887649417,148.322423751848L-61.96529533812669,127.27000503770256L-42.9203556455399,156.3861468253124z" style="fill:rgb(247,158,158)"/><path d="M55.7610373640013,129.47848379333266L170.12303024486997,102.70496989944614L56.12313055764116,128.0870053974079z" style="fill:rgb(89,244,159)"/><path d="M-61.96529533812669,127.27000503770256L-169.09926695093458,144.04309423251655L-170.25119361106294,152.1165728634886zM56.71177449519437,140.35012516892206L170.12303024486997,102.70496989944614L56.12313055764116,128.0870053974079z" style="fill:rgb(83,212,212)"/><path d="M55.21941121805384,130.28322165389966L170.0955817829585,104.05846982712978L55.7610373640013,129.47848379333266z" style="fill:rgb(93,250,135)"/><path d="M56.26747205941602,123.79319662413295L169.98007103071313,100.8020618942946L169.67344707873562,98.42560092371296z" style="fill:rgb(84,220,202)"/><path d="M172.0914984907327,114.98654676839902L56.29356300648137,126.16649276732791L56.97373863213137,140.2703713003556z" style="fill:rgb(83,212,212)"/><path d="M54.51747025587624,130.46494547839043L169.89721457861523,104.80602817147415L55.21941121805384,130.28322165389966z" style="fill:rgb(99,250,111)"/><path d="M56.29356300648137,126.16649276732791L170.12303024486997,102.70496989944614L169.98007103071313,100.8020618942946z" style="fill:rgb(85,234,182)"/><path d="M-61.96529533812669,127.27000503770256L-42.63133887649417,148.322423751848L-61.5344038889514,119.14534380014344z" style="fill:rgb(247,158,158)"/><path d="M171.70598423295974,114.90057401422132L55.7610373640013,129.47848379333266L56.27451633801905,140.25798219465727zM-169.09926695093458,144.04309423251655L-61.96529533812669,127.27000503770256L-61.5344038889514,119.14534380014344zM56.29356300648137,126.16649276732791L172.0914984907327,114.98654676839902L169.98007103071313,100.8020618942946z" style="fill:rgb(83,212,212)"/><path d="M170.12303024486997,102.70496989944614L55.7610373640013,129.47848379333266L170.0955817829585,104.05846982712978z" style="fill:rgb(89,244,159)"/><path d="M169.98007103071313,100.8020618942946L172.0429822897329,104.525047631566L169.67344707873562,98.42560092371296z" style="fill:rgb(247,158,158)"/><path d="M171.33897972392745,114.53043243760058L55.21941121805384,130.28322165389966L55.67515795364847,139.9512421646612z" style="fill:rgb(83,212,212)"/><path d="M170.0955817829585,104.05846982712978L55.21941121805384,130.28322165389966L169.89721457861523,104.80602817147415z" style="fill:rgb(93,250,135)"/><path d="M170.86316953082172,113.89838136220486L54.51747025587624,130.46494547839043L54.933151016080224,139.39793422613354z" style="fill:rgb(83,212,212)"/><path d="M56.55050807936894,140.39922438621446L171.05811199799902,114.24716591127616L55.216520228957556,139.7165111033136z" style="fill:rgb(148,8,167)"/><path d="M172.0429822897329,104.525047631566L172.0914984907327,114.98654676839902L172.54043105752393,108.33226232395322z" style="fill:rgb(247,158,158)"/><path d="M55.7610373640013,129.47848379333266L171.70598423295974,114.90057401422132L170.0955817829585,104.05846982712978zM170.12303024486997,102.70496989944614L56.71177449519437,140.35012516892206L171.95747088446097,115.03882587224996z" style="fill:rgb(83,212,212)"/><path d="M172.0429822897329,104.525047631566L169.98007103071313,100.8020618942946L172.0914984907327,114.98654676839902z" style="fill:rgb(247,158,158)"/><path d="M170.2670127198521,112.83172327099119L53.68103228130759,130.0109674995714L54.06664987631274,138.4237608971651z" style="fill:rgb(83,212,212)"/><path d="M169.89721457861523,104.80602817147415L54.51747025587624,130.46494547839043L169.53398165557203,104.91321991206316z" style="fill:rgb(99,250,111)"/><path d="M172.54043105752393,108.33226232395322L172.0914984907327,114.98654676839902L172.7798267192622,111.40025643096547z" style="fill:rgb(247,158,158)"/><path d="M55.21941121805384,130.28322165389966L171.33897972392745,114.53043243760058L169.89721457861523,104.80602817147415z" style="fill:rgb(83,212,212)"/><path d="M55.216520228957556,139.7165111033136L170.02290675220507,112.39496467015478L53.71187965990788,138.0248929370309z" style="fill:rgb(140,16,189)"/><path d="M169.56844524102263,111.34011566180142L52.741689167967735,128.9335722456864L53.10687887555179,137.03512604899356z" style="fill:rgb(83,212,212)"/><path d="M170.12303024486997,102.70496989944614L172.0914984907327,114.98654676839902L169.98007103071313,100.8020618942946zM172.7798267192622,111.40025643096547L172.0914984907327,114.98654676839902L172.74880684109334,113.60445261355477z" style="fill:rgb(247,158,158)"/><path d="M54.51747025587624,130.46494547839043L170.86316953082172,113.89838136220486L169.53398165557203,104.91321991206316zM168.80807125446586,109.57526131240358L51.73569847088285,127.27033108136962L52.09476103411249,135.37932982447168z" style="fill:rgb(83,212,212)"/><path d="M171.05811199799902,114.24716591127616L56.55050807936894,140.39922438621446L171.87496735614917,115.07101050450588z" style="fill:rgb(148,8,167)"/><path d="M170.0955817829585,104.05846982712978L171.95747088446097,115.03882587224996L170.12303024486997,102.70496989944614z" style="fill:rgb(247,158,158)"/><path d="M53.71187965990788,138.0248929370309L168.80807125446586,109.57526131240358L52.09476103411249,135.37932982447168z" style="fill:rgb(131,29,208)"/><path d="M53.68103228130759,130.0109674995714L170.2670127198521,112.83172327099119L169.01846503564252,104.36995060955488z" style="fill:rgb(83,212,212)"/><path d="M172.74880684109334,113.60445261355477L172.0914984907327,114.98654676839902L172.44463185596996,114.84879272467505zM172.0914984907327,114.98654676839902L170.12303024486997,102.70496989944614L171.95747088446097,115.03882587224996zM169.89721457861523,104.80602817147415L171.70598423295974,114.90057401422132L170.0955817829585,104.05846982712978z" style="fill:rgb(247,158,158)"/><path d="M52.741689167967735,128.9335722456864L169.56844524102263,111.34011566180142L168.36951852004844,103.1917171367472z" style="fill:rgb(83,212,212)"/><path d="M170.02290675220507,112.39496467015478L55.216520228957556,139.7165111033136L171.05811199799902,114.24716591127616z" style="fill:rgb(140,16,189)"/><path d="M171.95747088446097,115.03882587224996L170.0955817829585,104.05846982712978L171.70598423295974,114.90057401422132z" style="fill:rgb(247,158,158)"/><path d="M51.73569847088285,127.27033108136962L168.80807125446586,109.57526131240358L167.61166358171815,101.4198784603186z" style="fill:rgb(83,212,212)"/><path d="M170.86316953082172,113.89838136220486L169.89721457861523,104.80602817147415L169.53398165557203,104.91321991206316zM171.70598423295974,114.90057401422132L169.89721457861523,104.80602817147415L171.33897972392745,114.53043243760058zM171.95747088446097,115.03882587224996L171.70598423295974,114.90057401422132L171.87496735614917,115.07101050450588zM169.89721457861523,104.80602817147415L170.86316953082172,113.89838136220486L171.33897972392745,114.53043243760058z" style="fill:rgb(247,158,158)"/><path d="M168.80807125446586,109.57526131240358L53.71187965990788,138.0248929370309L170.02290675220507,112.39496467015478z" style="fill:rgb(131,29,208)"/><path d="M170.2670127198521,112.83172327099119L169.53398165557203,104.91321991206316L169.01846503564252,104.36995060955488zM169.53398165557203,104.91321991206316L170.2670127198521,112.83172327099119L170.86316953082172,113.89838136220486zM171.33897972392745,114.53043243760058L170.86316953082172,113.89838136220486L171.05811199799902,114.24716591127616zM169.56844524102263,111.34011566180142L169.01846503564252,104.36995060955488L168.36951852004844,103.1917171367472zM169.01846503564252,104.36995060955488L169.56844524102263,111.34011566180142L170.2670127198521,112.83172327099119zM168.80807125446586,109.57526131240358L168.36951852004844,103.1917171367472L167.61166358171815,101.4198784603186zM168.36951852004844,103.1917171367472L168.80807125446586,109.57526131240358L169.56844524102263,111.34011566180142zM170.2670127198521,112.83172327099119L169.56844524102263,111.34011566180142L170.02290675220507,112.39496467015478z" style="fill:rgb(247,158,158)"/><path d="M156.06672277205234,77.24184030392883L52.09476103411249,135.37932982447168L168.80807125446586,109.57526131240358zM52.09476103411249,135.37932982447168L156.06672277205234,77.24184030392883L35.78472082727453,104.84094005396494z" style="fill:rgb(127,37,217)"/><path d="M167.61166358171815,101.4198784603186L156.06672277205234,77.24184030392883L168.80807125446586,109.57526131240358z" style="fill:rgb(247,158,158)"/><path d="M156.06672277205234,77.24184030392883L35.5298220100696,96.67814767091924L35.78472082727453,104.84094005396494z" style="fill:rgb(83,212,212)"/><path d="M156.06672277205234,77.24184030392883L167.61166358171815,101.4198784603186L154.9225239855606,69.04263300985724z" style="fill:rgb(247,158,158)"/><path d="M35.5298220100696,96.67814767091924L156.06672277205234,77.24184030392883L154.9225239855606,69.04263300985724z" style="fill:rgb(83,212,212)"/></svg>
